<svg width="12" height="12" viewBox="0 0 12 12" fill="none" xmlns="http://www.w3.org/2000/svg">
<path d="M9.32349 6.08886L5.41085 2.17622C5.3416 2.10635 5.2561 2.05473 5.16201 2.02598C5.06793 1.99724 4.96818 1.99225 4.8717 2.01148L1.85017 2.61803C1.79288 2.62947 1.74025 2.65763 1.69894 2.69894C1.65763 2.74025 1.62947 2.79288 1.61803 2.85017L1.01148 5.8717C0.992253 5.96818 0.997236 6.06793 1.02598 6.16201C1.05473 6.2561 1.10635 6.3416 1.17622 6.41085L5.08886 10.3235C5.14422 10.3794 5.21011 10.4238 5.28273 10.4541C5.35535 10.4844 5.43326 10.5 5.51195 10.5C5.59063 10.5 5.66854 10.4844 5.74116 10.4541C5.81378 10.4238 5.87968 10.3794 5.93504 10.3235L9.32349 6.93504C9.37941 6.87968 9.42381 6.81378 9.4541 6.74116C9.4844 6.66854 9.5 6.59063 9.5 6.51195C9.5 6.43326 9.4844 6.35535 9.4541 6.28273C9.42381 6.21011 9.37941 6.14422 9.32349 6.08886ZM3.48262 4.93192C3.39376 4.93192 3.30689 4.90557 3.233 4.8562C3.15912 4.80683 3.10153 4.73666 3.06752 4.65456C3.03352 4.57246 3.02462 4.48212 3.04195 4.39497C3.05929 4.30781 3.10208 4.22775 3.16492 4.16492C3.22775 4.10208 3.30781 4.05929 3.39497 4.04195C3.48212 4.02462 3.57246 4.03352 3.65456 4.06752C3.73666 4.10153 3.80683 4.15912 3.8562 4.233C3.90557 4.30689 3.93192 4.39376 3.93192 4.48262C3.93192 4.60178 3.88458 4.71606 3.80032 4.80032C3.71606 4.88458 3.60178 4.93192 3.48262 4.93192Z" fill="#2D76F8"/>
<path d="M8 2.25H10.5" stroke="#2D76F8" stroke-width="0.7" stroke-linecap="round" stroke-linejoin="round"/>
<path d="M9.25 1V3.5" stroke="#2D76F8" stroke-width="0.7" stroke-linecap="round" stroke-linejoin="round"/>
</svg>
