<svg width="12" height="9" viewBox="0 0 12 9" fill="none" xmlns="http://www.w3.org/2000/svg">
<path d="M12 5.37477C12 5.47422 11.9605 5.56961 11.8902 5.63993C11.8199 5.71026 11.7245 5.74977 11.625 5.74977H10.875V6.49977C10.875 6.59922 10.8355 6.69461 10.7652 6.76493C10.6949 6.83526 10.5995 6.87477 10.5 6.87477C10.4006 6.87477 10.3052 6.83526 10.2349 6.76493C10.1645 6.69461 10.125 6.59922 10.125 6.49977V5.74977H9.37504C9.27558 5.74977 9.1802 5.71026 9.10987 5.63993C9.03955 5.56961 9.00004 5.47422 9.00004 5.37477C9.00004 5.27531 9.03955 5.17993 9.10987 5.1096C9.1802 5.03928 9.27558 4.99977 9.37504 4.99977H10.125V4.24977C10.125 4.15031 10.1645 4.05493 10.2349 3.9846C10.3052 3.91428 10.4006 3.87477 10.5 3.87477C10.5995 3.87477 10.6949 3.91428 10.7652 3.9846C10.8355 4.05493 10.875 4.15031 10.875 4.24977V4.99977H11.625C11.7245 4.99977 11.8199 5.03928 11.8902 5.1096C11.9605 5.17993 12 5.27531 12 5.37477ZM6.75473 6.38727C7.34103 6.01998 7.79191 5.4719 8.0393 4.8258C8.28668 4.17969 8.31714 3.47064 8.12606 2.8057C7.93498 2.14076 7.53275 1.55605 6.9801 1.13984C6.42745 0.723633 5.75438 0.498535 5.06254 0.498535C4.37069 0.498535 3.69763 0.723633 3.14498 1.13984C2.59232 1.55605 2.19009 2.14076 1.99902 2.8057C1.80794 3.47064 1.83839 4.17969 2.08578 4.8258C2.33316 5.4719 2.78405 6.01998 3.37035 6.38727C2.34808 6.70558 1.4397 7.31279 0.754726 8.1357C0.708169 8.18983 0.678477 8.2564 0.669314 8.32721C0.660151 8.39801 0.671918 8.46995 0.703163 8.53414C0.732824 8.59866 0.78041 8.65329 0.840248 8.69152C0.900087 8.72975 0.969655 8.74997 1.04066 8.74977H9.08441C9.15542 8.74997 9.22499 8.72975 9.28483 8.69152C9.34467 8.65329 9.39225 8.59866 9.42191 8.53414C9.45316 8.46995 9.46492 8.39801 9.45576 8.32721C9.4466 8.2564 9.41691 8.18983 9.37035 8.1357C8.68538 7.31279 7.777 6.70558 6.75473 6.38727Z" fill="#2D76F8"/>
</svg>
