<svg width="34" height="34" viewBox="0 0 34 34" fill="none" xmlns="http://www.w3.org/2000/svg">
<path d="M3.34315 30.6569C5.68629 33 9.45753 33 17 33C24.5425 33 28.3137 33 30.6569 30.6569C33 28.3137 33 24.5425 33 17C33 9.45753 33 5.68629 30.6569 3.34315C28.3137 1 24.5425 1 17 1C9.45753 1 5.68629 1 3.34315 3.34315C1 5.68629 1 9.45753 1 17C1 24.5425 1 28.3137 3.34315 30.6569Z" fill="white" stroke="#DEE9FF"/>
<path d="M20.2992 15.2002L15.8967 19.4002L13.6992 17.3002" stroke="#2D76F8" stroke-width="1.3" stroke-linecap="round" stroke-linejoin="round"/>
<path d="M17.0008 24.1998C20.9772 24.1998 24.2008 20.9763 24.2008 16.9998C24.2008 13.0234 20.9772 9.7998 17.0008 9.7998C13.0243 9.7998 9.80078 13.0234 9.80078 16.9998C9.80078 20.9763 13.0243 24.1998 17.0008 24.1998Z" stroke="#2D76F8" stroke-width="1.3" stroke-linecap="round" stroke-linejoin="round"/>
</svg>
