<svg width="56" height="56" viewBox="0 0 56 56" fill="none" xmlns="http://www.w3.org/2000/svg">
<g filter="url(#filter0_d_2551_16179)">
<path d="M15.9249 38.1841C18.1376 40 21.425 40 28 40C34.575 40 37.8624 40 40.0751 38.1841C40.4802 37.8516 40.8516 37.4802 41.1841 37.0751C43 34.8624 43 31.575 43 25C43 18.425 43 15.1376 41.1841 12.9249C40.8516 12.5198 40.4802 12.1484 40.0751 11.8159C37.8624 10 34.575 10 28 10C21.425 10 18.1376 10 15.9249 11.8159C15.5198 12.1484 15.1484 12.5198 14.8159 12.9249C13 15.1376 13 18.425 13 25C13 31.575 13 34.8624 14.8159 37.0751C15.1484 37.4802 15.5198 37.8516 15.9249 38.1841Z" fill="white"/>
<path d="M15.9249 38.1841C18.1376 40 21.425 40 28 40C34.575 40 37.8624 40 40.0751 38.1841C40.4802 37.8516 40.8516 37.4802 41.1841 37.0751C43 34.8624 43 31.575 43 25C43 18.425 43 15.1376 41.1841 12.9249C40.8516 12.5198 40.4802 12.1484 40.0751 11.8159C37.8624 10 34.575 10 28 10C21.425 10 18.1376 10 15.9249 11.8159C15.5198 12.1484 15.1484 12.5198 14.8159 12.9249C13 15.1376 13 18.425 13 25C13 31.575 13 34.8624 14.8159 37.0751C15.1484 37.4802 15.5198 37.8516 15.9249 38.1841Z" stroke="#E3FCEE" stroke-width="0.5"/>
</g>
<path d="M27.962 18.978C26.7782 18.978 25.621 19.3291 24.6367 19.9868C23.6524 20.6444 22.8852 21.5792 22.4322 22.6729C21.9792 23.7666 21.8606 24.9701 22.0916 26.1311C22.3225 27.2922 22.8926 28.3587 23.7297 29.1958C24.5667 30.0329 25.6332 30.6029 26.7943 30.8339C27.9553 31.0648 29.1588 30.9463 30.2525 30.4932C31.3462 30.0402 32.281 29.2731 32.9387 28.2888C33.5964 27.3045 33.9474 26.1472 33.9474 24.9634C33.9444 23.3769 33.3128 21.8563 32.191 20.7345C31.0691 19.6127 29.5485 18.9811 27.962 18.978ZM27.5016 22.2009C27.5016 22.0788 27.5501 21.9617 27.6364 21.8754C27.7228 21.789 27.8399 21.7405 27.962 21.7405C28.0841 21.7405 28.2012 21.789 28.2875 21.8754C28.3739 21.9617 28.4224 22.0788 28.4224 22.2009V25.4239C28.4224 25.546 28.3739 25.6631 28.2875 25.7494C28.2012 25.8358 28.0841 25.8843 27.962 25.8843C27.8399 25.8843 27.7228 25.8358 27.6364 25.7494C27.5501 25.6631 27.5016 25.546 27.5016 25.4239V22.2009ZM27.962 28.1864C27.8254 28.1864 27.6919 28.1459 27.5783 28.07C27.4647 27.9941 27.3762 27.8862 27.3239 27.76C27.2717 27.6338 27.258 27.495 27.2846 27.361C27.3113 27.227 27.3771 27.104 27.4736 27.0074C27.5702 26.9108 27.6933 26.845 27.8272 26.8184C27.9612 26.7917 28.1001 26.8054 28.2263 26.8577C28.3525 26.91 28.4603 26.9985 28.5362 27.112C28.6121 27.2256 28.6526 27.3591 28.6526 27.4957C28.6526 27.6789 28.5798 27.8546 28.4503 27.9841C28.3208 28.1136 28.1451 28.1864 27.962 28.1864Z" fill="#00C775"/>
<defs>
<filter id="filter0_d_2551_16179" x="0.75" y="0.75" width="54.5" height="54.5" filterUnits="userSpaceOnUse" color-interpolation-filters="sRGB">
<feFlood flood-opacity="0" result="BackgroundImageFix"/>
<feColorMatrix in="SourceAlpha" type="matrix" values="0 0 0 0 0 0 0 0 0 0 0 0 0 0 0 0 0 0 127 0" result="hardAlpha"/>
<feOffset dy="3"/>
<feGaussianBlur stdDeviation="6"/>
<feComposite in2="hardAlpha" operator="out"/>
<feColorMatrix type="matrix" values="0 0 0 0 0 0 0 0 0 0.780392 0 0 0 0 0.458824 0 0 0 0.06 0"/>
<feBlend mode="normal" in2="BackgroundImageFix" result="effect1_dropShadow_2551_16179"/>
<feBlend mode="normal" in="SourceGraphic" in2="effect1_dropShadow_2551_16179" result="shape"/>
</filter>
</defs>
</svg>
