<svg width="16" height="16" viewBox="0 0 16 16" fill="none" xmlns="http://www.w3.org/2000/svg">
<g clip-path="url(#clip0_2006_8992)">
<path d="M5.00004 3.7335L6.66671 4.66683L5.73337 3.00016L6.66671 1.3335L5.00004 2.26683L3.33337 1.3335L4.26671 3.00016L3.33337 4.66683L5.00004 3.7335ZM13 10.2668L11.3334 9.3335L12.2667 11.0002L11.3334 12.6668L13 11.7335L14.6667 12.6668L13.7334 11.0002L14.6667 9.3335L13 10.2668ZM14.6667 1.3335L13 2.26683L11.3334 1.3335L12.2667 3.00016L11.3334 4.66683L13 3.7335L14.6667 4.66683L13.7334 3.00016L14.6667 1.3335ZM9.58004 4.86016C9.32004 4.60016 8.90004 4.60016 8.64004 4.86016L0.860039 12.6402C0.600039 12.9002 0.600039 13.3202 0.860039 13.5802L2.42004 15.1402C2.68004 15.4002 3.10004 15.4002 3.36004 15.1402L11.1334 7.36683C11.3934 7.10683 11.3934 6.68683 11.1334 6.42683L9.58004 4.86016ZM8.89337 8.52016L7.48004 7.10683L9.10671 5.48016L10.52 6.8935L8.89337 8.52016Z" fill="#747474"/>
</g>
<defs>
<clipPath id="clip0_2006_8992">
<rect width="16" height="16" fill="white"/>
</clipPath>
</defs>
</svg>
