<svg width="12" height="12" viewBox="0 0 12 12" fill="none" xmlns="http://www.w3.org/2000/svg">
<path fill-rule="evenodd" clip-rule="evenodd" d="M2.125 1.5C1.71079 1.5 1.375 1.83579 1.375 2.25V3.75C1.375 4.16421 1.71079 4.5 2.125 4.5H2.5V7.5H2.125C1.71079 7.5 1.375 7.83579 1.375 8.25V9.75C1.375 10.1642 1.71079 10.5 2.125 10.5H3.625C4.03921 10.5 4.375 10.1642 4.375 9.75V9.375H7.375V9.75C7.375 10.1642 7.71079 10.5 8.125 10.5H9.625C10.0392 10.5 10.375 10.1642 10.375 9.75V8.25C10.375 7.83579 10.0392 7.5 9.625 7.5H9.25V4.5H9.625C10.0392 4.5 10.375 4.16421 10.375 3.75V2.25C10.375 1.83579 10.0392 1.5 9.625 1.5H8.125C7.71079 1.5 7.375 1.83579 7.375 2.25V2.625H4.375V2.25C4.375 1.83579 4.03921 1.5 3.625 1.5H2.125ZM4.375 3.375V3.75C4.375 4.16421 4.03921 4.5 3.625 4.5H3.25V7.5H3.625C4.03921 7.5 4.375 7.83579 4.375 8.25V8.625H7.375V8.25C7.375 7.83579 7.71079 7.5 8.125 7.5H8.5V4.5H8.125C7.71079 4.5 7.375 4.16421 7.375 3.75V3.375H4.375ZM2.125 2.25H3.625V3.75H2.125V2.25ZM8.125 2.25H9.625V3.75H8.125V2.25ZM9.625 8.25H8.125V9.75H9.625V8.25ZM2.125 8.25H3.625V9.75H2.125V8.25Z" fill="#2D76F8"/>
</svg>
