<svg width="24" height="24" viewBox="0 0 24 24" fill="none" xmlns="http://www.w3.org/2000/svg">
<path fill-rule="evenodd" clip-rule="evenodd" d="M5.09961 5.10156H18.8996V18.9016H5.09961V5.10156ZM6.09961 6.10156V17.9016H17.8996V6.10156H6.09961Z" fill="#2D76F8"/>
<path d="M19.9998 5.59922C19.9998 4.71556 19.2835 3.99922 18.3998 3.99922C17.5161 3.99922 16.7998 4.71556 16.7998 5.59922C16.7998 6.48287 17.5161 7.19922 18.3998 7.19922C19.2835 7.19922 19.9998 6.48287 19.9998 5.59922Z" fill="white"/>
<path fill-rule="evenodd" clip-rule="evenodd" d="M18.3998 6.69922C17.7923 6.69922 17.2998 6.20673 17.2998 5.59922C17.2998 4.99171 17.7923 4.49922 18.3998 4.49922C19.0073 4.49922 19.4998 4.99171 19.4998 5.59922C19.4998 6.20673 19.0073 6.69922 18.3998 6.69922ZM16.2998 5.59922C16.2998 6.75902 17.24 7.69922 18.3998 7.69922C19.5596 7.69922 20.4998 6.75902 20.4998 5.59922C20.4998 4.43942 19.5596 3.49922 18.3998 3.49922C17.24 3.49922 16.2998 4.43942 16.2998 5.59922Z" fill="#2D76F8"/>
<path d="M19.9998 18.4C19.9998 17.5163 19.2835 16.8 18.3998 16.8C17.5161 16.8 16.7998 17.5163 16.7998 18.4C16.7998 19.2837 17.5161 20 18.3998 20C19.2835 20 19.9998 19.2837 19.9998 18.4Z" fill="white"/>
<path fill-rule="evenodd" clip-rule="evenodd" d="M18.3998 19.5C17.7923 19.5 17.2998 19.0075 17.2998 18.4C17.2998 17.7925 17.7923 17.3 18.3998 17.3C19.0073 17.3 19.4998 17.7925 19.4998 18.4C19.4998 19.0075 19.0073 19.5 18.3998 19.5ZM16.2998 18.4C16.2998 19.5598 17.24 20.5 18.3998 20.5C19.5596 20.5 20.4998 19.5598 20.4998 18.4C20.4998 17.2402 19.5596 16.3 18.3998 16.3C17.24 16.3 16.2998 17.2402 16.2998 18.4Z" fill="#2D76F8"/>
<path d="M7.2 18.4C7.2 17.5163 6.48366 16.8 5.6 16.8C4.71634 16.8 4 17.5163 4 18.4C4 19.2837 4.71634 20 5.6 20C6.48366 20 7.2 19.2837 7.2 18.4Z" fill="white"/>
<path fill-rule="evenodd" clip-rule="evenodd" d="M5.6 19.5C4.99249 19.5 4.5 19.0075 4.5 18.4C4.5 17.7925 4.99249 17.3 5.6 17.3C6.20751 17.3 6.7 17.7925 6.7 18.4C6.7 19.0075 6.20751 19.5 5.6 19.5ZM3.5 18.4C3.5 19.5598 4.4402 20.5 5.6 20.5C6.7598 20.5 7.7 19.5598 7.7 18.4C7.7 17.2402 6.7598 16.3 5.6 16.3C4.4402 16.3 3.5 17.2402 3.5 18.4Z" fill="#2D76F8"/>
<path d="M7.2 5.59922C7.2 4.71556 6.48366 3.99922 5.6 3.99922C4.71634 3.99922 4 4.71556 4 5.59922C4 6.48287 4.71634 7.19922 5.6 7.19922C6.48366 7.19922 7.2 6.48287 7.2 5.59922Z" fill="white"/>
<path fill-rule="evenodd" clip-rule="evenodd" d="M5.6 6.69922C4.99249 6.69922 4.5 6.20673 4.5 5.59922C4.5 4.99171 4.99249 4.49922 5.6 4.49922C6.20751 4.49922 6.7 4.99171 6.7 5.59922C6.7 6.20673 6.20751 6.69922 5.6 6.69922ZM3.5 5.59922C3.5 6.75902 4.4402 7.69922 5.6 7.69922C6.7598 7.69922 7.7 6.75902 7.7 5.59922C7.7 4.43942 6.7598 3.49922 5.6 3.49922C4.4402 3.49922 3.5 4.43942 3.5 5.59922Z" fill="#2D76F8"/>
</svg>
