<svg width="10" height="10" viewBox="0 0 10 10" fill="none" xmlns="http://www.w3.org/2000/svg">
<path d="M5 0.125C4.03582 0.125 3.09329 0.410914 2.2916 0.946586C1.48991 1.48226 0.865067 2.24363 0.496089 3.13442C0.127112 4.02521 0.030571 5.00541 0.218674 5.95107C0.406777 6.89672 0.871076 7.76536 1.55286 8.44715C2.23464 9.12893 3.10328 9.59323 4.04894 9.78133C4.99459 9.96943 5.97479 9.87289 6.86558 9.50391C7.75637 9.13494 8.51775 8.51009 9.05342 7.7084C9.58909 6.90671 9.875 5.96418 9.875 5C9.87252 3.70783 9.35811 2.46929 8.44441 1.55559C7.53071 0.641888 6.29217 0.127478 5 0.125ZM7.625 5.375H5C4.90055 5.375 4.80516 5.33549 4.73484 5.26517C4.66451 5.19484 4.625 5.09946 4.625 5V2.375C4.625 2.27554 4.66451 2.18016 4.73484 2.10984C4.80516 2.03951 4.90055 2 5 2C5.09946 2 5.19484 2.03951 5.26517 2.10984C5.33549 2.18016 5.375 2.27554 5.375 2.375V4.625H7.625C7.72446 4.625 7.81984 4.66451 7.89017 4.73484C7.96049 4.80516 8 4.90054 8 5C8 5.09946 7.96049 5.19484 7.89017 5.26517C7.81984 5.33549 7.72446 5.375 7.625 5.375Z" fill="#C1C1C1"/>
</svg>
