<svg width="14" height="14" viewBox="0 0 14 14" fill="none" xmlns="http://www.w3.org/2000/svg">
<path d="M10.711 6.27096C10.6989 6.21807 10.6737 6.16903 10.638 6.12823C10.6022 6.08743 10.5568 6.05614 10.506 6.03717L8.14346 5.15124L8.74229 2.14479C8.75606 2.07515 8.74716 2.00293 8.7169 1.93871C8.68664 1.8745 8.6366 1.82166 8.57412 1.78796C8.51103 1.75439 8.43861 1.74263 8.36814 1.7545C8.29767 1.76637 8.23309 1.8012 8.18447 1.85358L3.59072 6.77545C3.55308 6.81451 3.52585 6.86239 3.51152 6.9147C3.49718 6.96701 3.49621 7.02208 3.50869 7.07487C3.52153 7.12747 3.54688 7.17619 3.58259 7.21689C3.61829 7.25759 3.66329 7.28907 3.71377 7.30866L6.07627 8.1946L5.47744 11.201C5.46367 11.2707 5.47257 11.3429 5.50283 11.4071C5.53309 11.4713 5.58313 11.5242 5.64561 11.5579C5.6927 11.5816 5.74462 11.5943 5.79736 11.5948C5.84194 11.595 5.88607 11.586 5.927 11.5683C5.96794 11.5507 6.00479 11.5248 6.03526 11.4923L10.629 6.57038C10.6666 6.53132 10.6939 6.48345 10.7082 6.43113C10.7225 6.37882 10.7235 6.32375 10.711 6.27096Z" fill="#2D76F8"/>
</svg>
