<svg width="24" height="24" viewBox="0 0 24 24" fill="none" xmlns="http://www.w3.org/2000/svg">
<path d="M2.66946 8.27447L3.47446 14.7145C3.512 15.0147 3.76724 15.2401 4.06983 15.2401H19.8705C20.1731 15.2401 20.4283 15.0147 20.4659 14.7145L21.2699 8.282C21.3315 7.78934 20.8022 7.43933 20.373 7.68888L16.7183 9.81368C16.4566 9.96583 16.1226 9.8992 15.9393 9.65829L12.531 5.17883C12.2929 4.86594 11.8233 4.86274 11.581 5.17235L8.0607 9.67047C7.87675 9.90552 7.54801 9.96962 7.28923 9.82089L3.5638 7.67984C3.13453 7.43314 2.60805 7.78319 2.66946 8.27447Z" fill="#FFC500"/>
<path d="M3.47998 16.7401C3.47998 16.6738 3.53371 16.6201 3.59998 16.6201H20.28C20.3463 16.6201 20.4 16.6738 20.4 16.7401V18.9001C20.4 19.2315 20.1314 19.5001 19.8 19.5001H4.07998C3.74861 19.5001 3.47998 19.2315 3.47998 18.9001V16.7401Z" fill="#FFC500"/>
</svg>
