<svg width="20" height="18" viewBox="0 0 20 18" fill="none" xmlns="http://www.w3.org/2000/svg">
<path d="M13.75 6.375C13.75 6.67337 13.6315 6.95952 13.4205 7.1705C13.2095 7.38147 12.9234 7.5 12.625 7.5C12.3266 7.5 12.0405 7.38147 11.8295 7.1705C11.6185 6.95952 11.5 6.67337 11.5 6.375C11.5 6.07663 11.6185 5.79048 11.8295 5.5795C12.0405 5.36853 12.3266 5.25 12.625 5.25C12.9234 5.25 13.2095 5.36853 13.4205 5.5795C13.6315 5.79048 13.75 6.07663 13.75 6.375ZM19.75 2.25V14.25V15.75C19.75 16.1478 19.592 16.5294 19.3107 16.8107C19.0294 17.092 18.6478 17.25 18.25 17.25H1.75C1.35218 17.25 0.970644 17.092 0.68934 16.8107C0.408035 16.5294 0.25 16.1478 0.25 15.75V12.75V2.25C0.25 1.85218 0.408035 1.47064 0.68934 1.18934C0.970644 0.908035 1.35218 0.75 1.75 0.75H18.25C18.6478 0.75 19.0294 0.908035 19.3107 1.18934C19.592 1.47064 19.75 1.85218 19.75 2.25ZM18.25 12.4406V2.25H1.75V10.9406L5.19062 7.5C5.47302 7.22175 5.85355 7.06577 6.25 7.06577C6.64645 7.06577 7.02698 7.22175 7.30938 7.5L11.5 11.6906L13.4406 9.75C13.723 9.47175 14.1036 9.31577 14.5 9.31577C14.8964 9.31577 15.277 9.47175 15.5594 9.75L18.25 12.4406Z" fill="#DBDBDB"/>
</svg>
