<svg width="20" height="20" viewBox="0 0 20 20" fill="none" xmlns="http://www.w3.org/2000/svg">
<path d="M7.24219 16.874H3.75C3.58424 16.874 3.42527 16.8081 3.30806 16.6909C3.19085 16.5737 3.125 16.4147 3.125 16.249V12.7568C3.12472 12.6756 3.14044 12.5952 3.17128 12.5201C3.20211 12.4451 3.24745 12.3768 3.30469 12.3193L12.6797 2.94427C12.7378 2.88521 12.8072 2.83832 12.8836 2.80631C12.9601 2.7743 13.0421 2.75781 13.125 2.75781C13.2079 2.75781 13.2899 2.7743 13.3664 2.80631C13.4428 2.83832 13.5122 2.88521 13.5703 2.94427L17.0547 6.42864C17.1137 6.4868 17.1606 6.55612 17.1927 6.63257C17.2247 6.70902 17.2411 6.79107 17.2411 6.87396C17.2411 6.95684 17.2247 7.03889 17.1927 7.11534C17.1606 7.19179 17.1137 7.26111 17.0547 7.31927L7.67969 16.6943C7.62216 16.7515 7.55391 16.7969 7.47884 16.8277C7.40376 16.8585 7.32335 16.8742 7.24219 16.874V16.874Z" stroke="#3E3E3E" stroke-width="1.5" stroke-linecap="round" stroke-linejoin="round"/>
<path d="M10.625 5L15 9.375" stroke="#3E3E3E" stroke-width="1.5" stroke-linecap="round" stroke-linejoin="round"/>
</svg>
