<svg width="12" height="12" viewBox="0 0 12 12" fill="none" xmlns="http://www.w3.org/2000/svg">
<path d="M6 0C4.81331 0 3.65328 0.351894 2.66658 1.01118C1.67989 1.67047 0.910851 2.60754 0.456725 3.7039C0.00259971 4.80025 -0.11622 6.00666 0.115291 7.17054C0.346802 8.33443 0.918247 9.40352 1.75736 10.2426C2.59648 11.0818 3.66557 11.6532 4.82946 11.8847C5.99335 12.1162 7.19975 11.9974 8.2961 11.5433C9.39246 11.0891 10.3295 10.3201 10.9888 9.33342C11.6481 8.34672 12 7.18669 12 6C11.997 4.40964 11.3638 2.88529 10.2393 1.76073C9.11471 0.63617 7.59036 0.0030496 6 0ZM5.88462 2.76923C6.02154 2.76923 6.15539 2.80983 6.26924 2.88591C6.38309 2.96198 6.47183 3.0701 6.52423 3.1966C6.57662 3.32311 6.59033 3.46231 6.56362 3.5966C6.53691 3.7309 6.47097 3.85425 6.37415 3.95107C6.27733 4.04789 6.15397 4.11383 6.01968 4.14054C5.88538 4.16726 5.74618 4.15355 5.61968 4.10115C5.49318 4.04875 5.38506 3.96001 5.30898 3.84616C5.23291 3.73231 5.19231 3.59846 5.19231 3.46154C5.19231 3.27793 5.26525 3.10184 5.39508 2.972C5.52491 2.84217 5.70101 2.76923 5.88462 2.76923ZM6.46154 9.23077H6C5.87759 9.23077 5.7602 9.18214 5.67364 9.09559C5.58709 9.00903 5.53846 8.89164 5.53846 8.76923V6C5.41606 6 5.29866 5.95137 5.21211 5.86482C5.12555 5.77826 5.07692 5.66087 5.07692 5.53846C5.07692 5.41605 5.12555 5.29866 5.21211 5.2121C5.29866 5.12555 5.41606 5.07692 5.53846 5.07692H6C6.12241 5.07692 6.2398 5.12555 6.32636 5.2121C6.41291 5.29866 6.46154 5.41605 6.46154 5.53846V8.30769C6.58395 8.30769 6.70134 8.35632 6.7879 8.44287C6.87445 8.52943 6.92308 8.64682 6.92308 8.76923C6.92308 8.89164 6.87445 9.00903 6.7879 9.09559C6.70134 9.18214 6.58395 9.23077 6.46154 9.23077Z" fill="#747474"/>
</svg>
