<svg width="48" height="48" viewBox="0 0 48 48" fill="none" xmlns="http://www.w3.org/2000/svg">
<path d="M24 21C23.6022 21 23.2206 21.158 22.9393 21.4393C22.658 21.7206 22.5 22.1022 22.5 22.5V40.5C22.5 40.8978 22.658 41.2794 22.9393 41.5607C23.2206 41.842 23.6022 42 24 42C24.3978 42 24.7794 41.842 25.0607 41.5607C25.342 41.2794 25.5 40.8978 25.5 40.5V22.5C25.5 22.1022 25.342 21.7206 25.0607 21.4393C24.7794 21.158 24.3978 21 24 21Z" fill="#747474"/>
<path d="M37.5 36C37.1022 36 36.7206 36.158 36.4393 36.4393C36.158 36.7206 36 37.1022 36 37.5V40.5C36 40.8978 36.158 41.2794 36.4393 41.5607C36.7206 41.842 37.1022 42 37.5 42C37.8978 42 38.2794 41.842 38.5607 41.5607C38.842 41.2794 39 40.8978 39 40.5V37.5C39 37.1022 38.842 36.7206 38.5607 36.4393C38.2794 36.158 37.8978 36 37.5 36Z" fill="#747474"/>
<path d="M42 30H39V7.5C39 7.10218 38.842 6.72064 38.5607 6.43934C38.2794 6.15804 37.8978 6 37.5 6C37.1022 6 36.7206 6.15804 36.4393 6.43934C36.158 6.72064 36 7.10218 36 7.5V30H33C32.6022 30 32.2206 30.158 31.9393 30.4393C31.658 30.7206 31.5 31.1022 31.5 31.5C31.5 31.8978 31.658 32.2794 31.9393 32.5607C32.2206 32.842 32.6022 33 33 33H42C42.3978 33 42.7794 32.842 43.0607 32.5607C43.342 32.2794 43.5 31.8978 43.5 31.5C43.5 31.1022 43.342 30.7206 43.0607 30.4393C42.7794 30.158 42.3978 30 42 30Z" fill="#747474"/>
<path d="M10.5 30C10.1022 30 9.72064 30.158 9.43934 30.4393C9.15804 30.7206 9 31.1022 9 31.5V40.5C9 40.8978 9.15804 41.2794 9.43934 41.5607C9.72064 41.842 10.1022 42 10.5 42C10.8978 42 11.2794 41.842 11.5607 41.5607C11.842 41.2794 12 40.8978 12 40.5V31.5C12 31.1022 11.842 30.7206 11.5607 30.4393C11.2794 30.158 10.8978 30 10.5 30Z" fill="#747474"/>
<path d="M15 24H12V7.5C12 7.10218 11.842 6.72064 11.5607 6.43934C11.2794 6.15804 10.8978 6 10.5 6C10.1022 6 9.72064 6.15804 9.43934 6.43934C9.15804 6.72064 9 7.10218 9 7.5V24H6C5.60218 24 5.22064 24.158 4.93934 24.4393C4.65804 24.7206 4.5 25.1022 4.5 25.5C4.5 25.8978 4.65804 26.2794 4.93934 26.5607C5.22064 26.842 5.60218 27 6 27H15C15.3978 27 15.7794 26.842 16.0607 26.5607C16.342 26.2794 16.5 25.8978 16.5 25.5C16.5 25.1022 16.342 24.7206 16.0607 24.4393C15.7794 24.158 15.3978 24 15 24Z" fill="#747474"/>
<path d="M28.5 15H25.5V7.5C25.5 7.10218 25.342 6.72064 25.0607 6.43934C24.7794 6.15804 24.3978 6 24 6C23.6022 6 23.2206 6.15804 22.9393 6.43934C22.658 6.72064 22.5 7.10218 22.5 7.5V15H19.5C19.1022 15 18.7206 15.158 18.4393 15.4393C18.158 15.7206 18 16.1022 18 16.5C18 16.8978 18.158 17.2794 18.4393 17.5607C18.7206 17.842 19.1022 18 19.5 18H28.5C28.8978 18 29.2794 17.842 29.5607 17.5607C29.842 17.2794 30 16.8978 30 16.5C30 16.1022 29.842 15.7206 29.5607 15.4393C29.2794 15.158 28.8978 15 28.5 15Z" fill="#747474"/>
</svg>
