<svg width="20" height="17" viewBox="0 0 20 17" fill="none" xmlns="http://www.w3.org/2000/svg">
<path d="M18.9159 13.9202L11.7054 1.45141C11.5328 1.15153 11.2841 0.902439 10.9846 0.729239C10.6851 0.556038 10.3451 0.464844 9.99913 0.464844C9.65312 0.464844 9.31321 0.556038 9.01366 0.729239C8.71411 0.902439 8.46551 1.15153 8.29288 1.45141L1.08234 13.9202C0.907172 14.2185 0.814083 14.5579 0.81252 14.9039C0.810957 15.2499 0.900976 15.5901 1.07344 15.89C1.2459 16.19 1.49466 16.4389 1.79445 16.6116C2.09425 16.7843 2.43441 16.8746 2.78038 16.8733H17.2179C17.5639 16.8746 17.904 16.7843 18.2038 16.6116C18.5036 16.4389 18.7524 16.19 18.9248 15.89C19.0973 15.5901 19.1873 15.2499 19.1857 14.9039C19.1842 14.5579 19.0911 14.2185 18.9159 13.9202ZM9.34288 7.02953C9.34288 6.85549 9.41202 6.68857 9.53509 6.56549C9.65816 6.44242 9.82508 6.37328 9.99913 6.37328C10.1732 6.37328 10.3401 6.44242 10.4632 6.56549C10.5862 6.68857 10.6554 6.85549 10.6554 7.02953V10.3108C10.6554 10.4848 10.5862 10.6518 10.4632 10.7748C10.3401 10.8979 10.1732 10.967 9.99913 10.967C9.82508 10.967 9.65816 10.8979 9.53509 10.7748C9.41202 10.6518 9.34288 10.4848 9.34288 10.3108V7.02953ZM9.99913 14.2483C9.80444 14.2483 9.61412 14.1906 9.45224 14.0824C9.29036 13.9742 9.16419 13.8205 9.08969 13.6406C9.01518 13.4607 8.99569 13.2628 9.03367 13.0719C9.07165 12.8809 9.16541 12.7055 9.30307 12.5679C9.44074 12.4302 9.61614 12.3364 9.80709 12.2984C9.99804 12.2605 10.196 12.28 10.3758 12.3545C10.5557 12.429 10.7094 12.5551 10.8176 12.717C10.9258 12.8789 10.9835 13.0692 10.9835 13.2639C10.9835 13.525 10.8798 13.7754 10.6952 13.96C10.5106 14.1446 10.2602 14.2483 9.99913 14.2483Z" fill="#7E7E7F"/>
</svg>
