<svg width="34" height="40" viewBox="0 0 34 40" fill="none" xmlns="http://www.w3.org/2000/svg">
<path d="M8 38C8 38.3978 7.84196 38.7794 7.56066 39.0607C7.27936 39.342 6.89782 39.5 6.5 39.5H3.5C2.70435 39.5 1.94129 39.1839 1.37868 38.6213C0.81607 38.0587 0.5 37.2956 0.5 36.5V30.5C0.5 30.1022 0.658036 29.7206 0.93934 29.4393C1.22064 29.158 1.60218 29 2 29C2.39782 29 2.77936 29.158 3.06066 29.4393C3.34196 29.7206 3.5 30.1022 3.5 30.5V36.5H6.5C6.89782 36.5 7.27936 36.658 7.56066 36.9393C7.84196 37.2206 8 37.6022 8 38ZM8 0.5H3.5C2.70435 0.5 1.94129 0.81607 1.37868 1.37868C0.81607 1.94129 0.5 2.70435 0.5 3.5V8C0.5 8.39782 0.658036 8.77936 0.93934 9.06066C1.22064 9.34196 1.60218 9.5 2 9.5C2.39782 9.5 2.77936 9.34196 3.06066 9.06066C3.34196 8.77936 3.5 8.39782 3.5 8V3.5H8C8.39782 3.5 8.77936 3.34196 9.06066 3.06066C9.34196 2.77936 9.5 2.39782 9.5 2C9.5 1.60218 9.34196 1.22064 9.06066 0.93934C8.77936 0.658035 8.39782 0.5 8 0.5V0.5ZM33.5 12.5C33.5018 12.3006 33.4628 12.1029 33.3855 11.9191C33.3081 11.7353 33.1939 11.5693 33.05 11.4313L22.5687 0.93125H22.5312L22.4563 0.85625H22.4187L22.3438 0.8C22.325 0.78125 22.3063 0.78125 22.3063 0.7625L22.2125 0.70625H22.175L22.0813 0.65H22.0625L21.9313 0.59375H15.5C15.1022 0.59375 14.7206 0.751785 14.4393 1.03309C14.158 1.31439 14 1.69593 14 2.09375C14 2.49157 14.158 2.87311 14.4393 3.15441C14.7206 3.43571 15.1022 3.59375 15.5 3.59375H20V12.5C20 12.8978 20.158 13.2794 20.4393 13.5607C20.7206 13.842 21.1022 14 21.5 14H30.5V21.5C30.5 21.8978 30.658 22.2794 30.9393 22.5607C31.2206 22.842 31.6022 23 32 23C32.3978 23 32.7794 22.842 33.0607 22.5607C33.342 22.2794 33.5 21.8978 33.5 21.5V12.5ZM32 27.5C31.6022 27.5 31.2206 27.658 30.9393 27.9393C30.658 28.2206 30.5 28.6022 30.5 29V36.5H29C28.6022 36.5 28.2206 36.658 27.9393 36.9393C27.658 37.2206 27.5 37.6022 27.5 38C27.5 38.3978 27.658 38.7794 27.9393 39.0607C28.2206 39.342 28.6022 39.5 29 39.5H30.5C31.2956 39.5 32.0587 39.1839 32.6213 38.6213C33.1839 38.0587 33.5 37.2956 33.5 36.5V29C33.5 28.6022 33.342 28.2206 33.0607 27.9393C32.7794 27.658 32.3978 27.5 32 27.5ZM2 24.5C2.39782 24.5 2.77936 24.342 3.06066 24.0607C3.34196 23.7794 3.5 23.3978 3.5 23V15.5C3.5 15.1022 3.34196 14.7206 3.06066 14.4393C2.77936 14.158 2.39782 14 2 14C1.60218 14 1.22064 14.158 0.93934 14.4393C0.658036 14.7206 0.5 15.1022 0.5 15.5V23C0.5 23.3978 0.658036 23.7794 0.93934 24.0607C1.22064 24.342 1.60218 24.5 2 24.5ZM21.5 36.5H14C13.6022 36.5 13.2206 36.658 12.9393 36.9393C12.658 37.2206 12.5 37.6022 12.5 38C12.5 38.3978 12.658 38.7794 12.9393 39.0607C13.2206 39.342 13.6022 39.5 14 39.5H21.5C21.8978 39.5 22.2794 39.342 22.5607 39.0607C22.842 38.7794 23 38.3978 23 38C23 37.6022 22.842 37.2206 22.5607 36.9393C22.2794 36.658 21.8978 36.5 21.5 36.5Z" fill="#C1C1C1"/>
</svg>
