<svg width="21" height="20" viewBox="0 0 21 20" fill="none" xmlns="http://www.w3.org/2000/svg">
<mask id="mask0_2203_4550" style="mask-type:alpha" maskUnits="userSpaceOnUse" x="3" y="3" width="15" height="15">
<path d="M9.1168 17.083L11.8998 15.7V10.133L17.2548 4.37195C17.3088 4.30695 17.3548 4.23295 17.3928 4.15195C17.4308 4.07095 17.4498 3.98195 17.4498 3.88295C17.4498 3.70995 17.3868 3.55495 17.2628 3.41995C17.1378 3.28395 16.9888 3.20995 16.8148 3.19995H4.2498C4.0548 3.19995 3.8898 3.26795 3.7538 3.40295C3.6178 3.53895 3.5498 3.69895 3.5498 3.88295C3.5498 3.98095 3.5698 4.07095 3.6068 4.15195C3.6448 4.23295 3.6908 4.30695 3.7448 4.37195H3.7618V4.38795L9.1168 10.133V17.083Z" fill="white"/>
</mask>
<g mask="url(#mask0_2203_4550)">
<path fill-rule="evenodd" clip-rule="evenodd" d="M0.5 0H20.5V20H0.5V0Z" fill="#2D76F8"/>
</g>
</svg>
