<svg width="48" height="48" viewBox="0 0 48 48" fill="none" xmlns="http://www.w3.org/2000/svg">
<path d="M6 15V12C6 11.6022 6.15804 11.2206 6.43934 10.9393C6.72064 10.658 7.10218 10.5 7.5 10.5H17.4938C17.8181 10.5013 18.1335 10.6065 18.3937 10.8L24 15" stroke="#C1C1C1" stroke-width="2" stroke-linecap="round" stroke-linejoin="round"/>
<path d="M16.5 39H7.3875C7.20529 39 7.02487 38.9641 6.85653 38.8944C6.68819 38.8247 6.53523 38.7225 6.40639 38.5936C6.27755 38.4648 6.17535 38.3118 6.10562 38.1435C6.03589 37.9751 6 37.7947 6 37.6125V36" stroke="#C1C1C1" stroke-width="2" stroke-linecap="round" stroke-linejoin="round"/>
<path d="M30 39H24" stroke="#C1C1C1" stroke-width="2" stroke-linecap="round" stroke-linejoin="round"/>
<path d="M42 28.5V37.6687C42 38.0218 41.8597 38.3604 41.6101 38.6101C41.3604 38.8597 41.0218 39 40.6687 39H37.5" stroke="#C1C1C1" stroke-width="2" stroke-linecap="round" stroke-linejoin="round"/>
<path d="M31.5 15H40.5C40.8978 15 41.2794 15.158 41.5607 15.4393C41.842 15.7206 42 16.1022 42 16.5V21" stroke="#C1C1C1" stroke-width="2" stroke-linecap="round" stroke-linejoin="round"/>
<path d="M6 22.5V28.5" stroke="#C1C1C1" stroke-width="2" stroke-linecap="round" stroke-linejoin="round"/>
</svg>
