<svg width="12" height="12" viewBox="0 0 12 12" fill="none" xmlns="http://www.w3.org/2000/svg">
<path d="M10.125 3.37503H6.12656L4.82344 2.40003C4.69427 2.30141 4.53594 2.24864 4.37344 2.25003H1.875C1.67609 2.25003 1.48532 2.32904 1.34467 2.4697C1.20402 2.61035 1.125 2.80111 1.125 3.00003V9.37503C1.125 9.57394 1.20402 9.7647 1.34467 9.90536C1.48532 10.046 1.67609 10.125 1.875 10.125H10.1672C10.3545 10.1238 10.5339 10.0488 10.6663 9.91636C10.7988 9.78388 10.8738 9.60456 10.875 9.41721V4.12503C10.875 3.92611 10.796 3.73535 10.6553 3.5947C10.5147 3.45404 10.3239 3.37503 10.125 3.37503Z" fill="#C1C1C1"/>
</svg>
