<svg width="12" height="12" viewBox="0 0 12 12" fill="none" xmlns="http://www.w3.org/2000/svg">
<path fill-rule="evenodd" clip-rule="evenodd" d="M1.34467 2.46967C1.48532 2.32902 1.67609 2.25 1.875 2.25H4.37498C4.53615 2.25066 4.69287 2.30291 4.8222 2.39908L4.82309 2.39974L6.12533 3.37408C6.12536 3.3741 6.1253 3.37406 6.12533 3.37408C6.12607 3.3746 6.12704 3.37497 6.12795 3.375H10.125C10.3239 3.375 10.5147 3.45402 10.6553 3.59467C10.796 3.73532 10.875 3.92609 10.875 4.125V9.41719C10.875 9.60491 10.8004 9.78495 10.6677 9.91769C10.5349 10.0504 10.3549 10.125 10.1672 10.125H1.875C1.67609 10.125 1.48532 10.046 1.34467 9.90533C1.20402 9.76468 1.125 9.57391 1.125 9.375V3C1.125 2.80109 1.20402 2.61032 1.34467 2.46967ZM4.37205 3L1.875 3L1.875 9.375H10.125V4.125H6.12502C5.96385 4.12434 5.80713 4.07209 5.6778 3.97592L5.67691 3.97526L4.37467 3.00092C4.37464 3.0009 4.3747 3.00094 4.37467 3.00092C4.37393 3.0004 4.37296 3.00003 4.37205 3Z" fill="#C1C1C1"/>
</svg>
