<svg width="16" height="16" viewBox="0 0 16 16" fill="none" xmlns="http://www.w3.org/2000/svg">
<g clip-path="url(#clip0_5489_46907)">
<path d="M12.9598 8.6587L12.9531 8.67203C12.9798 8.45203 13.0064 8.22536 13.0064 7.9987C13.0064 7.77203 12.9864 7.5587 12.9598 7.3387L12.9664 7.35203L14.5931 6.07203L12.9731 3.2587L11.0598 4.03203L11.0664 4.0387C10.7198 3.77203 10.3398 3.54536 9.92642 3.37203H9.93309L9.62642 1.33203H6.37975L6.08642 3.3787H6.09309C5.67975 3.55203 5.29975 3.7787 4.95309 4.04536L4.95975 4.0387L3.03975 3.2587L1.41309 6.07203L3.03975 7.35203L3.04642 7.3387C3.01975 7.5587 2.99975 7.77203 2.99975 7.9987C2.99975 8.22536 3.01975 8.45203 3.05309 8.67203L3.04642 8.6587L1.64642 9.7587L1.42642 9.93203L3.04642 12.732L4.96642 11.9654L4.95309 11.9387C5.30642 12.212 5.68642 12.4387 6.10642 12.612H6.08642L6.38642 14.6654H9.61975C9.61975 14.6654 9.63975 14.5454 9.65975 14.3854L9.91309 12.6187H9.90642C10.3198 12.4454 10.7064 12.2187 11.0598 11.9454L11.0464 11.972L12.9664 12.7387L14.5864 9.9387C14.5864 9.9387 14.4931 9.8587 14.3664 9.76536L12.9598 8.6587V8.6587ZM7.99975 10.332C6.71309 10.332 5.66642 9.28536 5.66642 7.9987C5.66642 6.71203 6.71309 5.66536 7.99975 5.66536C9.28642 5.66536 10.3331 6.71203 10.3331 7.9987C10.3331 9.28536 9.28642 10.332 7.99975 10.332Z" fill="#2D76F8"/>
</g>
<defs>
<clipPath id="clip0_5489_46907">
<rect width="16" height="16" fill="white"/>
</clipPath>
</defs>
</svg>
