<svg width="40" height="40" viewBox="0 0 40 40" fill="none" xmlns="http://www.w3.org/2000/svg">
<rect width="40" height="40" rx="8" fill="#DEE9FF"/>
<path d="M23.75 17.375C23.75 17.6734 23.6315 17.9595 23.4205 18.1705C23.2095 18.3815 22.9234 18.5 22.625 18.5C22.3266 18.5 22.0405 18.3815 21.8295 18.1705C21.6185 17.9595 21.5 17.6734 21.5 17.375C21.5 17.0766 21.6185 16.7905 21.8295 16.5795C22.0405 16.3685 22.3266 16.25 22.625 16.25C22.9234 16.25 23.2095 16.3685 23.4205 16.5795C23.6315 16.7905 23.75 17.0766 23.75 17.375ZM29.75 13.25V25.25V26.75C29.75 27.1478 29.592 27.5294 29.3107 27.8107C29.0294 28.092 28.6478 28.25 28.25 28.25H11.75C11.3522 28.25 10.9706 28.092 10.6893 27.8107C10.408 27.5294 10.25 27.1478 10.25 26.75V23.75V13.25C10.25 12.8522 10.408 12.4706 10.6893 12.1893C10.9706 11.908 11.3522 11.75 11.75 11.75H28.25C28.6478 11.75 29.0294 11.908 29.3107 12.1893C29.592 12.4706 29.75 12.8522 29.75 13.25ZM28.25 23.4406V13.25H11.75V21.9406L15.1906 18.5C15.473 18.2217 15.8536 18.0658 16.25 18.0658C16.6464 18.0658 17.027 18.2217 17.3094 18.5L21.5 22.6906L23.4406 20.75C23.723 20.4717 24.1036 20.3158 24.5 20.3158C24.8964 20.3158 25.277 20.4717 25.5594 20.75L28.25 23.4406Z" fill="#2D76F8"/>
</svg>
