<svg width="24" height="24" viewBox="0 0 24 24" fill="none" xmlns="http://www.w3.org/2000/svg">
<path d="M21.06 4.44C20.78 4.16 20.4 4 20 4H3.5C3.1 4 2.72 4.16 2.44 4.44C2.16 4.72 2 5.1 2 5.5V19C2 19.4 2.16 19.78 2.44 20.06C2.72 20.34 3.1 20.5 3.5 20.5H20C20.4 20.5 20.78 20.34 21.06 20.06C21.34 19.78 21.5 19.4 21.5 19V5.5C21.5 5.1 21.34 4.72 21.06 4.44ZM20 7.43V15.69L17.31 13C17.03 12.72 16.65 12.57 16.25 12.57C15.85 12.57 15.47 12.73 15.19 13L13.25 14.94L12.14 13.83L5.93 18.89L5.96 18.93H5.88L4.45 20.09L3.5 18.93L2.55 17.77L3.5 17V15.69L4.11 16.5L10.01 11.7L9.06 10.75C8.78 10.47 8.4 10.32 8 10.32C7.6 10.32 7.22 10.48 6.94 10.75L3.5 14.19V5.5H17.62L19.05 4.34L20 5.5L20.95 6.66L20 7.43Z" fill="#FA6068"/>
<path d="M4.45 20.0902L5.88 18.9302H3.5L4.45 20.0902Z" fill="#FA6068"/>
<path d="M2.55005 17.77L3.50005 18.93V17L2.55005 17.77Z" fill="#FA6068"/>
<path d="M19.0501 4.33984L17.6201 5.49984H20.0001L19.0501 4.33984Z" fill="#FA6068"/>
<path d="M20 7.43L20.95 6.66L20 5.5V7.43Z" fill="#FA6068"/>
<path d="M5.95988 18.9301L5.92988 18.8901L5.87988 18.9301H5.95988Z" fill="#FA4E57"/>
<path d="M3.5 15.6899V16.9999L4.11 16.4999L3.5 15.6899Z" fill="#FA6068"/>
<path fill-rule="evenodd" clip-rule="evenodd" d="M20.5817 5.02658C20.8432 5.34783 20.7947 5.82022 20.4735 6.0817L3.97347 19.5117C3.65222 19.7732 3.17983 19.7247 2.91835 19.4035C2.65687 19.0822 2.70532 18.6098 3.02658 18.3483L19.5266 4.91835C19.8478 4.65687 20.3202 4.70532 20.5817 5.02658Z" fill="#FA6068"/>
</svg>
