<svg width="20" height="20" viewBox="0 0 20 20" fill="none" xmlns="http://www.w3.org/2000/svg">
<mask id="mask0_6554_45326" style="mask-type:alpha" maskUnits="userSpaceOnUse" x="3" y="3" width="14" height="15">
<path d="M8.61699 17.0832L11.4 15.7002V10.1332L16.755 4.3722C16.809 4.3072 16.855 4.2332 16.893 4.1522C16.931 4.0712 16.95 3.9822 16.95 3.8832C16.95 3.7102 16.887 3.5552 16.763 3.4202C16.638 3.2842 16.489 3.2102 16.315 3.2002H3.74999C3.55499 3.2002 3.38999 3.2682 3.25399 3.4032C3.11799 3.5392 3.04999 3.6992 3.04999 3.8832C3.04999 3.9812 3.06999 4.0712 3.10699 4.1522C3.14499 4.2332 3.19099 4.3072 3.24499 4.3722H3.26199V4.3882L8.61699 10.1332V17.0832Z" fill="white"/>
</mask>
<g mask="url(#mask0_6554_45326)">
<path fill-rule="evenodd" clip-rule="evenodd" d="M0 0H20V20H0V0Z" fill="#DBDBDB"/>
</g>
</svg>
