<svg width="36" height="36" viewBox="0 0 36 36" fill="none" xmlns="http://www.w3.org/2000/svg">
<g filter="url(#filter0_d_3678_18022)">
<path d="M18 27C24.6274 27 30 21.6274 30 15C30 8.37258 24.6274 3 18 3C11.3726 3 6 8.37258 6 15C6 21.6274 11.3726 27 18 27Z" fill="white"/>
<path d="M14.5599 15.6801C15.6799 16.4401 17.2399 16.1201 17.9999 15.0001C18.7599 13.8801 20.2799 13.5601 21.4399 14.3201C22.5199 15.0401 22.8399 16.4401 22.2399 17.5201C23.5599 15.2801 22.9599 12.3601 20.7199 10.8801C18.4399 9.36011 15.3599 9.96011 13.8399 12.2401C13.7999 12.3201 13.7599 12.4001 13.7199 12.4401C13.1599 13.6001 13.5199 14.9601 14.5599 15.6801Z" fill="#ED4C5C"/>
<path d="M22.1201 17.7601C22.1601 17.6801 22.2001 17.6001 22.2401 17.5601C22.2001 17.6001 22.1601 17.6801 22.1201 17.7601Z" fill="#003478"/>
<path d="M21.44 14.32C20.32 13.56 18.76 13.88 18 15C17.24 16.12 15.72 16.44 14.56 15.68C13.48 14.96 13.16 13.56 13.76 12.48C12.4 14.72 13.04 17.64 15.28 19.12C17.56 20.64 20.64 20.04 22.16 17.76C22.2 17.68 22.24 17.6 22.28 17.56C22.84 16.4 22.48 15.04 21.44 14.32Z" fill="#428BC1"/>
<path d="M8.31977 11.52L11.0798 7.40004L10.7998 7.20004L10.5198 7.04004L7.75977 11.16L8.03977 11.32L8.31977 11.52Z" fill="#3E4347"/>
<path d="M9.0798 12.04L9.3598 12.2L12.0798 8.07997L11.8398 7.91997L11.5598 7.71997L8.7998 11.84L9.0798 12.04Z" fill="#3E4347"/>
<path d="M12.5598 8.3999L9.83984 12.5199L10.1198 12.7199L10.3998 12.8799L13.1198 8.7599L12.8398 8.5999L12.5598 8.3999Z" fill="#3E4347"/>
<path d="M24.5998 19.2001L24.8798 19.4001L26.1598 17.4801L25.8798 17.2801L25.5998 17.1201L24.3198 19.0401L24.5998 19.2001Z" fill="#3E4347"/>
<path d="M27.6799 18.48L26.3999 20.4L26.6799 20.6L26.9599 20.76L28.2399 18.84L27.9599 18.68L27.6799 18.48Z" fill="#3E4347"/>
<path d="M25.9199 20.08L27.1999 18.16L26.9199 17.96L26.6399 17.8L25.3599 19.72L25.6399 19.88L25.9199 20.08Z" fill="#3E4347"/>
<path d="M24.4399 19.4801L24.1599 19.3201L22.8799 21.2401L23.1599 21.4001L23.4399 21.6001L24.7199 19.6801L24.4399 19.4801Z" fill="#3E4347"/>
<path d="M25.4399 20.16L25.1999 20L23.9199 21.92L24.1599 22.08L24.4399 22.28L25.7199 20.36L25.4399 20.16Z" fill="#3E4347"/>
<path d="M26.1999 20.6799L24.9199 22.5999L25.1999 22.7999L25.4799 22.9599L26.7599 21.0399L26.4799 20.8399L26.1999 20.6799Z" fill="#3E4347"/>
<path d="M8.03977 18.68L7.75977 18.84L10.5198 22.96L10.7998 22.8L11.0798 22.6L8.31977 18.48L8.03977 18.68Z" fill="#3E4347"/>
<path d="M10.5598 20.16L10.2798 20.36L11.5598 22.28L11.8398 22.08L12.0798 21.92L10.7998 20L10.5598 20.16Z" fill="#3E4347"/>
<path d="M10.1198 17.2801L9.83984 17.4801L12.5598 21.6001L12.8398 21.4001L13.1198 21.2401L10.3998 17.1201L10.1198 17.2801Z" fill="#3E4347"/>
<path d="M8.7998 18.16L10.0798 20.08L10.3598 19.88L10.6398 19.72L9.3598 17.8L9.0798 17.96L8.7998 18.16Z" fill="#3E4347"/>
<path d="M26.4799 9.16004L26.7599 8.96004L25.4799 7.04004L25.1999 7.20004L24.9199 7.40004L26.1999 9.32004L26.4799 9.16004Z" fill="#3E4347"/>
<path d="M24.4399 10.5199L24.7199 10.3199L23.4399 8.3999L23.1599 8.5999L22.8799 8.7599L24.1599 10.6799L24.4399 10.5199Z" fill="#3E4347"/>
<path d="M26.3999 9.59999L27.6799 11.52L27.9599 11.32L28.2399 11.16L26.9599 9.23999L26.6799 9.39999L26.3999 9.59999Z" fill="#3E4347"/>
<path d="M26.9199 12.04L27.1999 11.84L24.4399 7.71997L24.1599 7.91997L23.9199 8.07997L26.6399 12.2L26.9199 12.04Z" fill="#3E4347"/>
<path d="M25.8798 12.7201L26.1598 12.5201L24.8798 10.6001L24.5998 10.8001L24.3198 10.9601L25.5998 12.8801L25.8798 12.7201Z" fill="#3E4347"/>
</g>
<defs>
<filter id="filter0_d_3678_18022" x="0" y="0" width="36" height="36" filterUnits="userSpaceOnUse" color-interpolation-filters="sRGB">
<feFlood flood-opacity="0" result="BackgroundImageFix"/>
<feColorMatrix in="SourceAlpha" type="matrix" values="0 0 0 0 0 0 0 0 0 0 0 0 0 0 0 0 0 0 127 0" result="hardAlpha"/>
<feOffset dy="3"/>
<feGaussianBlur stdDeviation="3"/>
<feComposite in2="hardAlpha" operator="out"/>
<feColorMatrix type="matrix" values="0 0 0 0 0 0 0 0 0 0 0 0 0 0 0 0 0 0 0.06 0"/>
<feBlend mode="normal" in2="BackgroundImageFix" result="effect1_dropShadow_3678_18022"/>
<feBlend mode="normal" in="SourceGraphic" in2="effect1_dropShadow_3678_18022" result="shape"/>
</filter>
</defs>
</svg>
