<svg width="26" height="26" viewBox="0 0 26 26" fill="none" xmlns="http://www.w3.org/2000/svg">
<path d="M2.75736 23.2426C4.51472 25 7.34315 25 13 25C18.6569 25 21.4853 25 23.2426 23.2426C25 21.4853 25 18.6569 25 13C25 7.34315 25 4.51472 23.2426 2.75736C21.4853 1 18.6569 1 13 1C7.34315 1 4.51472 1 2.75736 2.75736C1 4.51472 1 7.34315 1 13C1 18.6569 1 21.4853 2.75736 23.2426Z" fill="white" stroke="#93BAFF" stroke-width="0.5"/>
<path d="M18.6002 12.9447L13.3752 7.71971C13.2827 7.6264 13.1685 7.55747 13.0429 7.51908C12.9172 7.48068 12.784 7.47403 12.6552 7.49971L8.6202 8.30971C8.54368 8.32499 8.47341 8.36258 8.41824 8.41775C8.36307 8.47292 8.32547 8.5432 8.3102 8.61971L7.5002 12.6547C7.47452 12.7836 7.48117 12.9168 7.51956 13.0424C7.55796 13.168 7.62689 13.2822 7.7202 13.3747L12.9452 18.5997C13.0191 18.6744 13.1071 18.7337 13.2041 18.7741C13.3011 18.8146 13.4051 18.8354 13.5102 18.8354C13.6153 18.8354 13.7193 18.8146 13.8163 18.7741C13.9133 18.7337 14.0013 18.6744 14.0752 18.5997L18.6002 14.0747C18.6749 14.0008 18.7342 13.9128 18.7746 13.8158C18.8151 13.7188 18.8359 13.6148 18.8359 13.5097C18.8359 13.4046 18.8151 13.3006 18.7746 13.2036C18.7342 13.1066 18.6749 13.0186 18.6002 12.9447ZM10.8002 11.3997C10.6815 11.3997 10.5655 11.3645 10.4669 11.2986C10.3682 11.2327 10.2913 11.139 10.2459 11.0293C10.2005 10.9197 10.1886 10.799 10.2117 10.6827C10.2349 10.5663 10.292 10.4594 10.3759 10.3754C10.4598 10.2915 10.5668 10.2344 10.6831 10.2112C10.7995 10.1881 10.9202 10.2 11.0298 10.2454C11.1394 10.2908 11.2331 10.3677 11.2991 10.4664C11.365 10.565 11.4002 10.681 11.4002 10.7997C11.4002 10.9588 11.337 11.1114 11.2245 11.224C11.1119 11.3365 10.9593 11.3997 10.8002 11.3997Z" fill="#2D76F8"/>
</svg>
