<svg width="26" height="26" viewBox="0 0 26 26" fill="none" xmlns="http://www.w3.org/2000/svg">
<path d="M2.75736 23.2426C4.51472 25 7.34315 25 13 25C18.6569 25 21.4853 25 23.2426 23.2426C25 21.4853 25 18.6569 25 13C25 7.34315 25 4.51472 23.2426 2.75736C21.4853 1 18.6569 1 13 1C7.34315 1 4.51472 1 2.75736 2.75736C1 4.51472 1 7.34315 1 13C1 18.6569 1 21.4853 2.75736 23.2426Z" fill="white"/>
<path d="M2.75736 23.2426C4.51472 25 7.34315 25 13 25C18.6569 25 21.4853 25 23.2426 23.2426C25 21.4853 25 18.6569 25 13C25 7.34315 25 4.51472 23.2426 2.75736C21.4853 1 18.6569 1 13 1C7.34315 1 4.51472 1 2.75736 2.75736C1 4.51472 1 7.34315 1 13C1 18.6569 1 21.4853 2.75736 23.2426Z" stroke="white" stroke-width="0.5"/>
<path d="M2.75736 23.2426C4.51472 25 7.34315 25 13 25C18.6569 25 21.4853 25 23.2426 23.2426C25 21.4853 25 18.6569 25 13C25 7.34315 25 4.51472 23.2426 2.75736C21.4853 1 18.6569 1 13 1C7.34315 1 4.51472 1 2.75736 2.75736C1 4.51472 1 7.34315 1 13C1 18.6569 1 21.4853 2.75736 23.2426Z" stroke="#00C775" stroke-opacity="0.4" stroke-width="0.5"/>
<path d="M12.9707 8.18359C12.0237 8.18359 11.0979 8.46442 10.3105 8.99057C9.52302 9.51672 8.90928 10.2646 8.54687 11.1395C8.18445 12.0145 8.08962 12.9772 8.27438 13.9061C8.45914 14.8349 8.91519 15.6881 9.58485 16.3578C10.2545 17.0275 11.1077 17.4835 12.0366 17.6683C12.9654 17.853 13.9282 17.7582 14.8031 17.3958C15.6781 17.0334 16.4259 16.4196 16.9521 15.6322C17.4782 14.8447 17.759 13.919 17.759 12.9719C17.7566 11.7027 17.2513 10.4862 16.3539 9.58875C15.4564 8.69129 14.2399 8.18603 12.9707 8.18359V8.18359ZM12.6024 10.7619C12.6024 10.6642 12.6412 10.5706 12.7103 10.5015C12.7793 10.4324 12.873 10.3936 12.9707 10.3936C13.0684 10.3936 13.1621 10.4324 13.2312 10.5015C13.3002 10.5706 13.339 10.6642 13.339 10.7619V13.3403C13.339 13.4379 13.3002 13.5316 13.2312 13.6007C13.1621 13.6698 13.0684 13.7086 12.9707 13.7086C12.873 13.7086 12.7793 13.6698 12.7103 13.6007C12.6412 13.5316 12.6024 13.4379 12.6024 13.3403V10.7619ZM12.9707 15.5503C12.8614 15.5503 12.7546 15.5179 12.6638 15.4571C12.5729 15.3964 12.5021 15.3102 12.4603 15.2092C12.4184 15.1082 12.4075 14.9971 12.4288 14.89C12.4501 14.7828 12.5028 14.6844 12.58 14.6071C12.6573 14.5298 12.7557 14.4772 12.8629 14.4559C12.9701 14.4346 13.0812 14.4455 13.1821 14.4873C13.2831 14.5291 13.3694 14.6 13.4301 14.6908C13.4908 14.7817 13.5232 14.8885 13.5232 14.9978C13.5232 15.1443 13.465 15.2848 13.3614 15.3884C13.2578 15.4921 13.1172 15.5503 12.9707 15.5503Z" fill="#00C775"/>
</svg>
