<svg width="56" height="56" viewBox="0 0 56 56" fill="none" xmlns="http://www.w3.org/2000/svg">
<g filter="url(#filter0_d_2551_16206)">
<path d="M15.9249 38.1841C18.1376 40 21.425 40 28 40C34.575 40 37.8624 40 40.0751 38.1841C40.4802 37.8516 40.8516 37.4802 41.1841 37.0751C43 34.8624 43 31.575 43 25C43 18.425 43 15.1376 41.1841 12.9249C40.8516 12.5198 40.4802 12.1484 40.0751 11.8159C37.8624 10 34.575 10 28 10C21.425 10 18.1376 10 15.9249 11.8159C15.5198 12.1484 15.1484 12.5198 14.8159 12.9249C13 15.1376 13 18.425 13 25C13 31.575 13 34.8624 14.8159 37.0751C15.1484 37.4802 15.5198 37.8516 15.9249 38.1841Z" fill="white"/>
<path d="M15.9249 38.1841C18.1376 40 21.425 40 28 40C34.575 40 37.8624 40 40.0751 38.1841C40.4802 37.8516 40.8516 37.4802 41.1841 37.0751C43 34.8624 43 31.575 43 25C43 18.425 43 15.1376 41.1841 12.9249C40.8516 12.5198 40.4802 12.1484 40.0751 11.8159C37.8624 10 34.575 10 28 10C21.425 10 18.1376 10 15.9249 11.8159C15.5198 12.1484 15.1484 12.5198 14.8159 12.9249C13 15.1376 13 18.425 13 25C13 31.575 13 34.8624 14.8159 37.0751C15.1484 37.4802 15.5198 37.8516 15.9249 38.1841Z" stroke="#DEE9FF" stroke-width="0.5"/>
</g>
<path d="M34.9996 24.9314L28.4684 18.4001C28.3528 18.2835 28.2101 18.1973 28.053 18.1493C27.8959 18.1013 27.7294 18.093 27.5684 18.1251L22.5246 19.1376C22.429 19.1567 22.3412 19.2037 22.2722 19.2727C22.2032 19.3416 22.1562 19.4295 22.1371 19.5251L21.1246 24.5689C21.0925 24.7299 21.1009 24.8964 21.1488 25.0535C21.1968 25.2105 21.283 25.3533 21.3996 25.4689L27.9309 32.0001C28.0233 32.0935 28.1333 32.1676 28.2545 32.2182C28.3757 32.2687 28.5058 32.2948 28.6371 32.2948C28.7685 32.2948 28.8985 32.2687 29.0198 32.2182C29.141 32.1676 29.251 32.0935 29.3434 32.0001L34.9996 26.3439C35.093 26.2515 35.1671 26.1415 35.2177 26.0202C35.2682 25.899 35.2943 25.769 35.2943 25.6376C35.2943 25.5063 35.2682 25.3762 35.2177 25.255C35.1671 25.1338 35.093 25.0238 34.9996 24.9314ZM25.2496 23.0001C25.1013 23.0001 24.9563 22.9561 24.833 22.8737C24.7096 22.7913 24.6135 22.6742 24.5567 22.5371C24.5 22.4001 24.4851 22.2493 24.514 22.1038C24.543 21.9583 24.6144 21.8247 24.7193 21.7198C24.8242 21.6149 24.9578 21.5435 25.1033 21.5145C25.2488 21.4856 25.3996 21.5004 25.5366 21.5572C25.6737 21.614 25.7908 21.7101 25.8732 21.8334C25.9556 21.9568 25.9996 22.1018 25.9996 22.2501C25.9996 22.449 25.9206 22.6398 25.78 22.7805C25.6393 22.9211 25.4485 23.0001 25.2496 23.0001Z" fill="#2D76F8"/>
<defs>
<filter id="filter0_d_2551_16206" x="0.75" y="0.75" width="54.5" height="54.5" filterUnits="userSpaceOnUse" color-interpolation-filters="sRGB">
<feFlood flood-opacity="0" result="BackgroundImageFix"/>
<feColorMatrix in="SourceAlpha" type="matrix" values="0 0 0 0 0 0 0 0 0 0 0 0 0 0 0 0 0 0 127 0" result="hardAlpha"/>
<feOffset dy="3"/>
<feGaussianBlur stdDeviation="6"/>
<feComposite in2="hardAlpha" operator="out"/>
<feColorMatrix type="matrix" values="0 0 0 0 0.176471 0 0 0 0 0.462745 0 0 0 0 0.972549 0 0 0 0.06 0"/>
<feBlend mode="normal" in2="BackgroundImageFix" result="effect1_dropShadow_2551_16206"/>
<feBlend mode="normal" in="SourceGraphic" in2="effect1_dropShadow_2551_16206" result="shape"/>
</filter>
</defs>
</svg>
