<svg width="56" height="56" viewBox="0 0 56 56" fill="none" xmlns="http://www.w3.org/2000/svg">
<g filter="url(#filter0_d_2551_16198)">
<path d="M15.9249 38.1841C18.1376 40 21.425 40 28 40C34.575 40 37.8624 40 40.0751 38.1841C40.4802 37.8516 40.8516 37.4802 41.1841 37.0751C43 34.8624 43 31.575 43 25C43 18.425 43 15.1376 41.1841 12.9249C40.8516 12.5198 40.4802 12.1484 40.0751 11.8159C37.8624 10 34.575 10 28 10C21.425 10 18.1376 10 15.9249 11.8159C15.5198 12.1484 15.1484 12.5198 14.8159 12.9249C13 15.1376 13 18.425 13 25C13 31.575 13 34.8624 14.8159 37.0751C15.1484 37.4802 15.5198 37.8516 15.9249 38.1841Z" fill="white"/>
<path d="M15.9249 38.1841C18.1376 40 21.425 40 28 40C34.575 40 37.8624 40 40.0751 38.1841C40.4802 37.8516 40.8516 37.4802 41.1841 37.0751C43 34.8624 43 31.575 43 25C43 18.425 43 15.1376 41.1841 12.9249C40.8516 12.5198 40.4802 12.1484 40.0751 11.8159C37.8624 10 34.575 10 28 10C21.425 10 18.1376 10 15.9249 11.8159C15.5198 12.1484 15.1484 12.5198 14.8159 12.9249C13 15.1376 13 18.425 13 25C13 31.575 13 34.8624 14.8159 37.0751C15.1484 37.4802 15.5198 37.8516 15.9249 38.1841Z" stroke="#FFE6E5" stroke-width="0.5"/>
</g>
<path d="M27.9531 18.5518C26.6675 18.5518 25.4108 18.932 24.3419 19.6445C23.273 20.357 22.4399 21.3697 21.9479 22.5546C21.4559 23.7394 21.3272 25.0432 21.578 26.301C21.8288 27.5588 22.4479 28.7142 23.3569 29.621C24.266 30.5278 25.4242 31.1454 26.685 31.3956C27.9459 31.6458 29.2529 31.5174 30.4406 31.0266C31.6283 30.5358 32.6435 29.7047 33.3577 28.6384C34.0719 27.5721 34.4531 26.3184 34.4531 25.036C34.4498 23.3173 33.7639 21.6699 32.5457 20.4546C31.3274 19.2393 29.676 18.5551 27.9531 18.5518ZM31.0469 23.9012L27.3844 27.3927C27.2897 27.4816 27.1644 27.5307 27.0344 27.5299C26.9708 27.5308 26.9078 27.5191 26.8488 27.4956C26.7898 27.4721 26.736 27.4371 26.6906 27.3927L24.8594 25.647C24.8086 25.6028 24.7673 25.5488 24.7379 25.4882C24.7086 25.4277 24.6918 25.3619 24.6886 25.2947C24.6855 25.2275 24.6959 25.1604 24.7194 25.0974C24.7429 25.0344 24.7789 24.9767 24.8253 24.9279C24.8717 24.8791 24.9274 24.8402 24.9893 24.8135C25.0511 24.7867 25.1178 24.7727 25.1852 24.7723C25.2526 24.772 25.3194 24.7852 25.3815 24.8112C25.4437 24.8372 25.4999 24.8755 25.5469 24.9237L27.0344 26.339L30.3594 23.178C30.4566 23.0934 30.5828 23.0495 30.7117 23.0556C30.8406 23.0617 30.9621 23.1172 31.0509 23.2106C31.1397 23.304 31.1888 23.428 31.1881 23.5567C31.1873 23.6854 31.1367 23.8089 31.0469 23.9012Z" fill="#FA4E57"/>
<defs>
<filter id="filter0_d_2551_16198" x="0.75" y="0.75" width="54.5" height="54.5" filterUnits="userSpaceOnUse" color-interpolation-filters="sRGB">
<feFlood flood-opacity="0" result="BackgroundImageFix"/>
<feColorMatrix in="SourceAlpha" type="matrix" values="0 0 0 0 0 0 0 0 0 0 0 0 0 0 0 0 0 0 127 0" result="hardAlpha"/>
<feOffset dy="3"/>
<feGaussianBlur stdDeviation="6"/>
<feComposite in2="hardAlpha" operator="out"/>
<feColorMatrix type="matrix" values="0 0 0 0 0.980392 0 0 0 0 0.305882 0 0 0 0 0.341176 0 0 0 0.06 0"/>
<feBlend mode="normal" in2="BackgroundImageFix" result="effect1_dropShadow_2551_16198"/>
<feBlend mode="normal" in="SourceGraphic" in2="effect1_dropShadow_2551_16198" result="shape"/>
</filter>
</defs>
</svg>
