<svg width="26" height="26" viewBox="0 0 26 26" fill="none" xmlns="http://www.w3.org/2000/svg">
<path d="M2.75736 23.2426C4.51472 25 7.34315 25 13 25C18.6569 25 21.4853 25 23.2426 23.2426C25 21.4853 25 18.6569 25 13C25 7.34315 25 4.51472 23.2426 2.75736C21.4853 1 18.6569 1 13 1C7.34315 1 4.51472 1 2.75736 2.75736C1 4.51472 1 7.34315 1 13C1 18.6569 1 21.4853 2.75736 23.2426Z" fill="white"/>
<path d="M2.75736 23.2426C4.51472 25 7.34315 25 13 25C18.6569 25 21.4853 25 23.2426 23.2426C25 21.4853 25 18.6569 25 13C25 7.34315 25 4.51472 23.2426 2.75736C21.4853 1 18.6569 1 13 1C7.34315 1 4.51472 1 2.75736 2.75736C1 4.51472 1 7.34315 1 13C1 18.6569 1 21.4853 2.75736 23.2426Z" stroke="white" stroke-width="0.5"/>
<path d="M2.75736 23.2426C4.51472 25 7.34315 25 13 25C18.6569 25 21.4853 25 23.2426 23.2426C25 21.4853 25 18.6569 25 13C25 7.34315 25 4.51472 23.2426 2.75736C21.4853 1 18.6569 1 13 1C7.34315 1 4.51472 1 2.75736 2.75736C1 4.51472 1 7.34315 1 13C1 18.6569 1 21.4853 2.75736 23.2426Z" stroke="#FA4E57" stroke-opacity="0.4" stroke-width="0.5"/>
<path d="M12.961 7.8418C11.9325 7.8418 10.9272 8.14603 10.072 8.71603C9.21689 9.28602 8.55039 10.0962 8.15682 11.044C7.76324 11.9919 7.66026 13.0349 7.86091 14.0412C8.06155 15.0474 8.5568 15.9717 9.28403 16.6972C10.0113 17.4226 10.9378 17.9167 11.9465 18.1169C12.9552 18.317 14.0008 18.2143 14.9509 17.8217C15.9011 17.429 16.7132 16.7642 17.2846 15.9111C17.856 15.058 18.161 14.0551 18.161 13.0292C18.1583 11.6542 17.6096 10.3363 16.635 9.36405C15.6604 8.3918 14.3393 7.84443 12.961 7.8418ZM15.436 12.1214L12.506 14.9146C12.4302 14.9857 12.33 15.0249 12.226 15.0243C12.1752 15.025 12.1247 15.0157 12.0775 14.9969C12.0303 14.978 11.9873 14.9501 11.951 14.9146L10.486 13.518C10.4454 13.4826 10.4123 13.4394 10.3888 13.391C10.3654 13.3425 10.352 13.2899 10.3494 13.2361C10.3469 13.1824 10.3552 13.1287 10.374 13.0783C10.3928 13.0279 10.4216 12.9818 10.4587 12.9427C10.4958 12.9037 10.5404 12.8725 10.5899 12.8512C10.6394 12.8298 10.6927 12.8186 10.7466 12.8183C10.8006 12.818 10.854 12.8285 10.9037 12.8493C10.9534 12.8702 10.9984 12.9008 11.036 12.9394L12.226 14.0716L14.886 11.5428C14.9638 11.4751 15.0648 11.44 15.1679 11.4449C15.271 11.4497 15.3682 11.4942 15.4392 11.5689C15.5102 11.6436 15.5495 11.7428 15.5489 11.8458C15.5483 11.9487 15.5079 12.0475 15.436 12.1214Z" fill="#FA4E57"/>
</svg>
