<svg width="24" height="25" viewBox="0 0 24 25" fill="none" xmlns="http://www.w3.org/2000/svg">
<path d="M4.163 18.783L4.198 18.699L4.533 16.993L4.972 15.116L3.596 13.923L2.702 12.531L1.714 10.72C1.73 10.589 1.749 10.458 1.768 10.327C1.975 9.05 2.414 7.837 3.076 6.721C3.114 6.658 3.149 6.595 3.187 6.535L4.609 5.98L5.407 6.089L5.89 5.895L7.148 3.972L7.17 4.015L7.628 4.28L8.14 4.255L10.055 3.648L10.213 3.568L11.803 1.82L11.763 1.635L12.003 1.632C13.069 1.694 13.859 1.784 14.373 1.904L14.555 1.948L14.566 1.975L14.13 2.395L13.231 2.035L12.654 2.128L11.207 3.353L11.074 4.051L11.292 4.462L10.042 4.947L9.72 5.263L9.753 5.756L9.409 5.732L8.81 6.198L8.598 7.393L12 6.75L11.25 7.5L8.785 7.963L8.777 7.971L6.859 10.336L6.647 11.382L7.157 13.142L7.799 13.877L9.616 14.602L11.194 14.702L11.482 14.907L12.33 17.021L12.172 17.805L12.234 18.467L12.981 20.295L14.046 21.012L14.964 20.93L15.803 20.437L16.549 18.573C16.56 18.561 16.794 18.383 17.249 18.043L17.713 17.051L17.642 15.811C17.636 15.729 17.661 15.651 17.712 15.585L19.004 13.915L19.323 12.597L19.186 11.91L19.434 11.646L20.173 10.016L20.25 9.75V9L20.835 10.18L21.475 11.651L21.87 11.978C22.131 11.955 22.296 11.912 22.365 11.85C22.367 11.848 22.37 11.894 22.374 11.986C22.365 17.716 17.715 22.366 12 22.366C8.987 22.366 6.135 21.061 4.163 18.783ZM15.673 7.505C15.698 7.505 15.725 7.503 15.75 7.5L20.25 9L20.223 9.275C20.187 9.275 15.615 8.309 15.58 8.311L15.525 8.317L13.572 9.017C13.498 9.014 13.427 8.987 13.37 8.938L12.45 8.162C12.226 7.974 11.937 7.876 11.649 7.892L11.25 7.5L12 6.75L12.665 7.524C12.714 7.568 12.768 7.604 12.825 7.628L13.896 8.078C13.966 8.108 14.04 8.121 14.116 8.121L15.674 7.505H15.673ZM23.373 8.165C22.725 6.244 21.589 4.505 20.085 3.133C18.573 1.752 16.724 0.779 14.741 0.313C13.85 0.106 12.926 0 12 0C11.278 0 10.553 0.0649998 9.85 0.193C6.432 0.812 3.449 2.89 1.67 5.893C0.904 7.183 0.395 8.589 0.155 10.071C0.0520002 10.706 0 11.354 0 12.003C0 13.46 0.259 14.885 0.768 16.239C1.261 17.546 1.975 18.748 2.888 19.813C5.17 22.477 8.494 24.005 12 24.005C13.62 24.005 15.193 23.687 16.672 23.063C18.102 22.458 19.385 21.592 20.486 20.491C21.586 19.388 22.453 18.105 23.057 16.677C23.684 15.198 24 13.627 24 12.005C24 10.687 23.79 9.398 23.373 8.165Z" fill="black"/>
</svg>
