<svg width="16" height="16" viewBox="0 0 16 16" fill="none" xmlns="http://www.w3.org/2000/svg">
<path d="M7.26108 9.49888C7.79775 9.14237 8.20539 8.62255 8.42367 8.01636C8.64195 7.41017 8.65927 6.74981 8.47307 6.133C8.28687 5.5162 7.90704 4.97573 7.3898 4.59158C6.87255 4.20743 6.24537 4 5.60108 4C4.95678 4 4.32961 4.20743 3.81236 4.59158C3.29512 4.97573 2.91529 5.5162 2.72909 6.133C2.54289 6.74981 2.56021 7.41017 2.77849 8.01636C2.99677 8.62255 3.40441 9.14237 3.94108 9.49888C3.02557 9.83554 2.23512 10.4445 1.67608 11.2439C1.63241 11.3032 1.60642 11.3736 1.60111 11.447C1.5958 11.5205 1.61139 11.5939 1.64608 11.6589C1.68036 11.7234 1.73145 11.7775 1.79395 11.8153C1.85644 11.8532 1.92802 11.8734 2.00108 11.8739H9.20108C9.27414 11.8734 9.34572 11.8532 9.40821 11.8153C9.47071 11.7775 9.5218 11.7234 9.55608 11.6589C9.59076 11.5939 9.60635 11.5205 9.60105 11.447C9.59574 11.3736 9.56975 11.3032 9.52608 11.2439C8.96704 10.4445 8.17659 9.83554 7.26108 9.49888Z" fill="#2D76F8"/>
<path d="M13.6061 11.2439C13.0438 10.4455 12.2522 9.83696 11.3361 9.49893C11.8744 9.14377 12.2838 8.62431 12.5032 8.01782C12.7226 7.41133 12.7404 6.7502 12.5539 6.1328C12.3674 5.51539 11.9865 4.97469 11.468 4.59112C10.9495 4.20755 10.321 4.0016 9.67607 4.00393C9.4008 4.00539 9.12687 4.04236 8.86107 4.11393C8.79863 4.13268 8.74157 4.16605 8.69462 4.21126C8.64766 4.25648 8.61216 4.31224 8.59107 4.37393C8.57095 4.4351 8.5659 4.50023 8.57634 4.56378C8.58679 4.62732 8.61242 4.68741 8.65107 4.73893C9.10328 5.34651 9.36307 6.07565 9.39693 6.83229C9.4308 7.58894 9.23719 8.33837 8.84107 8.98393C8.79027 9.06971 8.7729 9.1712 8.79227 9.26899C8.81164 9.36678 8.8664 9.45399 8.94607 9.51393C9.09607 9.63059 9.24107 9.75059 9.38107 9.87393L9.40607 9.89893C9.93977 10.3928 10.3727 10.9854 10.6811 11.6439C10.7127 11.7127 10.7635 11.771 10.8273 11.8118C10.8911 11.8526 10.9653 11.8741 11.0411 11.8739H13.2761C13.3491 11.8734 13.4207 11.8532 13.4832 11.8154C13.5457 11.7775 13.5968 11.7235 13.6311 11.6589C13.6653 11.5941 13.6811 11.5211 13.6767 11.4479C13.6723 11.3747 13.6479 11.3042 13.6061 11.2439Z" fill="#2D76F8"/>
</svg>
