<svg width="48" height="48" viewBox="0 0 48 48" fill="none" xmlns="http://www.w3.org/2000/svg">
<path fill-rule="evenodd" clip-rule="evenodd" d="M19.1367 43.0078C19.1367 42.1794 19.8083 41.5078 20.6367 41.5078H26.6367C27.4651 41.5078 28.1367 42.1794 28.1367 43.0078C28.1367 43.8362 27.4651 44.5078 26.6367 44.5078H20.6367C19.8083 44.5078 19.1367 43.8362 19.1367 43.0078Z" fill="#C1C1C1"/>
<path fill-rule="evenodd" clip-rule="evenodd" d="M21.7517 3.55789C22.2822 3.12034 22.9486 2.88086 23.6366 2.88086C24.3271 2.88086 24.9957 3.12202 25.5271 3.56248C27.3896 5.07928 31.4216 8.8396 33.6522 14.6377C35.9152 20.52 36.2601 28.3428 30.9423 37.7467C30.6762 38.2174 30.1773 38.5084 29.6366 38.5084H17.6366C17.1006 38.5084 16.6052 38.2223 16.3373 37.7579C10.9108 28.3519 11.2431 20.5176 13.5314 14.6262C15.7838 8.827 19.8668 5.06757 21.7517 3.55789ZM23.6366 5.89183L23.6362 5.89217C21.9539 7.23801 18.3134 10.6004 16.3278 15.7124C14.4309 20.5963 13.9819 27.2275 18.5141 35.5084H28.7504C33.1867 27.2306 32.732 20.6009 30.8523 15.7149C28.889 10.6118 25.3059 7.25199 23.6366 5.89183Z" fill="#C1C1C1"/>
<path fill-rule="evenodd" clip-rule="evenodd" d="M14.4538 20.7452C15.0896 21.2762 15.1746 22.2221 14.6436 22.858L8.76841 29.8933C8.76877 29.8949 8.76913 29.8965 8.76948 29.8981L11.0747 40.3371L16.699 35.8377C17.3459 35.3202 18.2898 35.4251 18.8073 36.072C19.3248 36.7189 19.22 37.6628 18.5731 38.1803L12.9481 42.6803C12.5505 42.9979 12.0781 43.2098 11.5764 43.2949C11.0748 43.38 10.5597 43.3361 10.0797 43.1673C9.59969 42.9986 9.17048 42.7105 8.83244 42.3302C8.49441 41.9499 8.25865 41.4899 8.14735 40.9934L8.14631 40.9887L5.84393 30.5625C5.73587 30.1164 5.73429 29.651 5.83947 29.204C5.94575 28.7523 6.15796 28.3324 6.4585 27.979L12.3409 20.935C12.872 20.2992 13.8179 20.2142 14.4538 20.7452Z" fill="#C1C1C1"/>
<path fill-rule="evenodd" clip-rule="evenodd" d="M32.7077 20.5918C33.3442 20.0615 34.29 20.1475 34.8204 20.7839L40.8149 27.9773C41.1151 28.3306 41.3271 28.7502 41.4333 29.2016C41.5385 29.6486 41.5369 30.114 41.4289 30.5602L39.1265 40.9864L39.1254 40.9911C39.0141 41.4875 38.7784 41.9476 38.4404 42.3279C38.1023 42.7082 37.6731 42.9962 37.1931 43.165C36.7131 43.3337 36.198 43.3776 35.6964 43.2926C35.1947 43.2075 34.723 42.9962 34.3254 42.6786L28.6997 38.178C28.0528 37.6605 27.948 36.7165 28.4655 36.0696C28.983 35.4227 29.9269 35.3179 30.5738 35.8354L36.1981 40.3348L38.5033 29.8957C38.5037 29.8941 38.504 29.8925 38.5044 29.8909L32.5157 22.7045C31.9853 22.068 32.0713 21.1222 32.7077 20.5918Z" fill="#C1C1C1"/>
<path d="M23.6367 21.2578C24.8794 21.2578 25.8867 20.2505 25.8867 19.0078C25.8867 17.7652 24.8794 16.7578 23.6367 16.7578C22.3941 16.7578 21.3867 17.7652 21.3867 19.0078C21.3867 20.2505 22.3941 21.2578 23.6367 21.2578Z" fill="#C1C1C1"/>
</svg>
