<svg width="34" height="34" viewBox="0 0 34 34" fill="none" xmlns="http://www.w3.org/2000/svg">
<path d="M3.34315 30.6569C5.68629 33 9.45753 33 17 33C24.5425 33 28.3137 33 30.6569 30.6569C33 28.3137 33 24.5425 33 17C33 9.45753 33 5.68629 30.6569 3.34315C28.3137 1 24.5425 1 17 1C9.45753 1 5.68629 1 3.34315 3.34315C1 5.68629 1 9.45753 1 17C1 24.5425 1 28.3137 3.34315 30.6569Z" fill="white" stroke="#DEE9FF"/>
<path d="M16.9336 12.9565V18.2065" stroke="#2D76F8" stroke-width="1.3" stroke-linecap="round" stroke-linejoin="round"/>
<path d="M17.4086 21.5815C17.4086 21.8439 17.1959 22.0565 16.9336 22.0565C16.6713 22.0565 16.4586 21.8439 16.4586 21.5815C16.4586 21.3192 16.6713 21.1065 16.9336 21.1065C17.1959 21.1065 17.4086 21.3192 17.4086 21.5815Z" fill="#2D76F8" stroke="#2D76F8" stroke-width="1.3"/>
</svg>
