<svg width="48" height="48" viewBox="0 0 48 48" fill="none" xmlns="http://www.w3.org/2000/svg">
<path d="M38.2834 15.0507L28.95 5.71734C28.696 5.46971 28.3548 5.33201 28 5.33401H12C11.2928 5.33401 10.6145 5.61496 10.1144 6.11505C9.61433 6.61515 9.33337 7.29343 9.33337 8.00067V37.334C9.33337 38.0412 9.61433 38.7195 10.1144 39.2196C10.6145 39.7197 11.2928 40.0007 12 40.0007H36C36.7073 40.0007 37.3856 39.7197 37.8857 39.2196C38.3858 38.7195 38.6667 38.0412 38.6667 37.334V16.0007C38.6687 15.6459 38.531 15.3047 38.2834 15.0507V15.0507ZM28 28.0007H20C19.6464 28.0007 19.3073 27.8602 19.0572 27.6101C18.8072 27.3601 18.6667 27.021 18.6667 26.6673C18.6667 26.3137 18.8072 25.9746 19.0572 25.7245C19.3073 25.4745 19.6464 25.334 20 25.334H28C28.3537 25.334 28.6928 25.4745 28.9428 25.7245C29.1929 25.9746 29.3334 26.3137 29.3334 26.6673C29.3334 27.021 29.1929 27.3601 28.9428 27.6101C28.6928 27.8602 28.3537 28.0007 28 28.0007ZM28 16.0007V8.55067L35.45 16.0007H28Z" fill="#DBDBDB"/>
</svg>
