<svg width="48" height="48" viewBox="0 0 48 48" fill="none" xmlns="http://www.w3.org/2000/svg">
<path d="M39 6H9C8.20435 6 7.44129 6.31607 6.87868 6.87868C6.31607 7.44129 6 8.20435 6 9V39C6 39.7956 6.31607 40.5587 6.87868 41.1213C7.44129 41.6839 8.20435 42 9 42H39C39.7956 42 40.5587 41.6839 41.1213 41.1213C41.6839 40.5587 42 39.7956 42 39V9C42 8.20435 41.6839 7.44129 41.1213 6.87868C40.5587 6.31607 39.7956 6 39 6V6ZM35.1188 35.1188C34.9835 35.2612 34.8207 35.3746 34.6402 35.452C34.4596 35.5294 34.2652 35.5691 34.0687 35.5687C33.8697 35.5684 33.6726 35.5285 33.4891 35.4512C33.3056 35.3739 33.1394 35.2609 33 35.1188L12.8812 15C12.7307 14.8636 12.6094 14.698 12.5247 14.5132C12.4401 14.3285 12.3939 14.1285 12.3889 13.9253C12.3839 13.7222 12.4202 13.5202 12.4956 13.3315C12.5711 13.1428 12.6841 12.9714 12.8278 12.8278C12.9714 12.6841 13.1428 12.5711 13.3315 12.4956C13.5202 12.4202 13.7222 12.3839 13.9253 12.3889C14.1285 12.3939 14.3285 12.4401 14.5132 12.5247C14.698 12.6094 14.8636 12.7307 15 12.8812L35.1188 33C35.3993 33.2812 35.5568 33.6622 35.5568 34.0594C35.5568 34.4566 35.3993 34.8376 35.1188 35.1188V35.1188Z" fill="#DBDBDB"/>
</svg>
