<svg width="34" height="34" viewBox="0 0 34 34" fill="none" xmlns="http://www.w3.org/2000/svg">
<path d="M3.34315 30.6569C5.68629 33 9.45753 33 17 33C24.5425 33 28.3137 33 30.6569 30.6569C33 28.3137 33 24.5425 33 17C33 9.45753 33 5.68629 30.6569 3.34315C28.3137 1 24.5425 1 17 1C9.45753 1 5.68629 1 3.34315 3.34315C1 5.68629 1 9.45753 1 17C1 24.5425 1 28.3137 3.34315 30.6569Z" fill="white" stroke="#DEE9FF"/>
<path d="M16.9883 8.65137V11.318" stroke="#2D76F8" stroke-width="1.3" stroke-linecap="round" stroke-linejoin="round"/>
<path d="M24.987 16.6514H22.3203" stroke="#2D76F8" stroke-width="1.3" stroke-linecap="round" stroke-linejoin="round"/>
<path d="M22.649 22.3096L20.7656 20.4263" stroke="#2D76F8" stroke-width="1.3" stroke-linecap="round" stroke-linejoin="round"/>
<path d="M16.9883 24.651V21.9844" stroke="#2D76F8" stroke-width="1.3" stroke-linecap="round" stroke-linejoin="round"/>
<path d="M11.332 22.3096L13.2154 20.4263" stroke="#2D76F8" stroke-width="1.3" stroke-linecap="round" stroke-linejoin="round"/>
<path d="M8.98828 16.6514H11.6549" stroke="#2D76F8" stroke-width="1.3" stroke-linecap="round" stroke-linejoin="round"/>
<path d="M11.332 10.9927L13.2154 12.876" stroke="#2D76F8" stroke-width="1.3" stroke-linecap="round" stroke-linejoin="round"/>
</svg>
