<svg width="24" height="24" viewBox="0 0 24 24" fill="none" xmlns="http://www.w3.org/2000/svg">
<path d="M7.54922 5.85056C7.49248 5.65041 7.59863 5.44019 7.79337 5.36702L11.9721 3.79705C12.1668 3.72389 12.3851 3.81221 12.4742 4.00021L16.2557 11.9801C16.3559 12.1915 16.254 12.4435 16.0349 12.5258L10.4832 14.6116C10.2642 14.6939 10.0216 14.5714 9.95773 14.3463L7.54922 5.85056Z" fill="#2D76F8"/>
<path d="M10.7917 15.7493C10.5879 15.5432 10.6641 15.1955 10.9354 15.0935L16.1487 13.1349C16.4193 13.0332 16.705 13.2433 16.6887 13.5318L16.515 16.6164C16.5059 16.7775 16.4009 16.9174 16.2487 16.9711L13.3391 17.9981C13.1931 18.0496 13.0305 18.0122 12.9216 17.9022L10.7917 15.7493Z" fill="#2D76F8"/>
<path fill-rule="evenodd" clip-rule="evenodd" d="M13.8867 18.4491L16.1311 17.6261C16.3359 17.551 16.5631 17.6539 16.6419 17.8573L17.4893 20.0465C17.5908 20.3086 17.3973 20.5909 17.1163 20.5909H16.9H14.5708H6.90002C6.62388 20.5909 6.40002 20.367 6.40002 20.0909C6.40002 19.8147 6.62388 19.5909 6.90002 19.5909H13.9L13.653 18.9732C13.5692 18.7639 13.675 18.5267 13.8867 18.4491Z" fill="#2D76F8"/>
</svg>
