<svg width="14" height="14" viewBox="0 0 14 14" fill="none" xmlns="http://www.w3.org/2000/svg">
<path d="M12.25 4.19398L9.82734 1.76586C9.66422 1.59858 9.44288 1.50064 9.20937 1.49242C9.09087 1.48969 8.97306 1.51107 8.86307 1.55525C8.75308 1.59943 8.65321 1.6655 8.56953 1.74945L7.12578 3.18773L2.00703 8.31195C1.92549 8.39287 1.86079 8.48915 1.81668 8.59521C1.77256 8.70128 1.7499 8.81504 1.75 8.92992V11.3745C1.75 11.6065 1.84219 11.8291 2.00628 11.9932C2.17038 12.1573 2.39294 12.2495 2.625 12.2495H5.06953C5.30132 12.2485 5.52337 12.1561 5.6875 11.9924L12.25 5.42992C12.4123 5.26519 12.5033 5.04321 12.5033 4.81195C12.5033 4.58069 12.4123 4.35871 12.25 4.19398ZM10.5 5.94398L8.05547 3.49945L9.1875 2.36742L11.632 4.81195L10.5 5.94398Z" fill="#2D76F8"/>
</svg>
