<svg width="12" height="12" viewBox="0 0 12 12" fill="none" xmlns="http://www.w3.org/2000/svg">
<path d="M6 0.3125C4.87512 0.3125 3.7755 0.646066 2.8402 1.27102C1.90489 1.89597 1.17591 2.78423 0.745438 3.82349C0.314964 4.86274 0.202333 6.00631 0.421786 7.10958C0.64124 8.21284 1.18292 9.22626 1.97833 10.0217C2.77374 10.8171 3.78716 11.3588 4.89043 11.5782C5.99369 11.7977 7.13726 11.685 8.17651 11.2546C9.21577 10.8241 10.104 10.0951 10.729 9.15981C11.3539 8.2245 11.6875 7.12488 11.6875 6C11.6846 4.49247 11.0845 3.04751 10.0185 1.98152C8.95249 0.915536 7.50753 0.315391 6 0.3125ZM8.1875 6.4375H6.4375V8.1875C6.4375 8.30353 6.39141 8.41481 6.30936 8.49686C6.22731 8.57891 6.11603 8.625 6 8.625C5.88397 8.625 5.77269 8.57891 5.69064 8.49686C5.6086 8.41481 5.5625 8.30353 5.5625 8.1875V6.4375H3.8125C3.69647 6.4375 3.58519 6.39141 3.50314 6.30936C3.4211 6.22731 3.375 6.11603 3.375 6C3.375 5.88397 3.4211 5.77269 3.50314 5.69064C3.58519 5.60859 3.69647 5.5625 3.8125 5.5625H5.5625V3.8125C5.5625 3.69647 5.6086 3.58519 5.69064 3.50314C5.77269 3.42109 5.88397 3.375 6 3.375C6.11603 3.375 6.22731 3.42109 6.30936 3.50314C6.39141 3.58519 6.4375 3.69647 6.4375 3.8125V5.5625H8.1875C8.30353 5.5625 8.41481 5.60859 8.49686 5.69064C8.57891 5.77269 8.625 5.88397 8.625 6C8.625 6.11603 8.57891 6.22731 8.49686 6.30936C8.41481 6.39141 8.30353 6.4375 8.1875 6.4375Z" fill="#2D76F8"/>
</svg>
