<svg width="8" height="8" viewBox="0 0 8 8" fill="none" xmlns="http://www.w3.org/2000/svg">
<path fill-rule="evenodd" clip-rule="evenodd" d="M3.75049 0.25C3.61242 0.25 3.50049 0.361929 3.50049 0.5V3.5H0.5C0.361929 3.5 0.25 3.61193 0.25 3.75V4.25C0.25 4.38807 0.361929 4.5 0.5 4.5H3.50049V7.5C3.50049 7.63807 3.61242 7.75 3.75049 7.75H4.25049C4.38856 7.75 4.50049 7.63807 4.50049 7.5V4.5H7.5C7.63807 4.5 7.75 4.38807 7.75 4.25V3.75C7.75 3.61193 7.63807 3.5 7.5 3.5H4.50049V0.5C4.50049 0.361929 4.38856 0.25 4.25049 0.25H3.75049Z" fill="#2D76F8"/>
</svg>
