<svg width="11" height="11" viewBox="0 0 11 11" fill="none" xmlns="http://www.w3.org/2000/svg">
<path d="M8.175 2.075L5.985 4.61C6.22 4.745 6.38 4.995 6.395 5.28L8.7 2.61L7.86 8H8.575C8.575 8 8.605 8 8.62 8L9.495 2.395H8.825C8.56 2.395 8.325 2.265 8.175 2.07V2.075Z" fill="#2D76F8"/>
<path d="M7 8.9H4.4V9.575C4.4 9.6 4.395 9.625 4.39 9.65H7.005C7.005 9.625 6.995 9.6 6.995 9.575V8.9H7Z" fill="#2D76F8"/>
<path d="M3.465 8L2.11 4.805L4 5.725V5.325C4 5.185 4.04 5.055 4.1 4.94L2.395 4.115C2.375 4.555 2.015 4.905 1.575 4.905H1.335L2.655 8.02C2.71 8.01 2.765 8 2.825 8H3.465Z" fill="#2D76F8"/>
<path d="M0.825 4.25C0.73 4.25 0.65 4.17 0.65 4.075V3.325C0.65 3.23 0.73 3.15 0.825 3.15H1.575C1.67 3.15 1.75 3.23 1.75 3.325V3.795L2.395 4.11C2.395 4.11 2.395 4.085 2.395 4.075V3.325C2.395 2.87 2.025 2.5 1.57 2.5H0.825C0.37 2.5 0 2.87 0 3.325V4.075C0 4.53 0.37 4.9 0.825 4.9H1.335L1.06 4.25H0.825Z" fill="#2D76F8"/>
<path d="M2.395 4.11L1.75 3.795V4.075C1.75 4.17 1.67 4.25 1.575 4.25H1.06L1.335 4.9H1.575C2.02 4.9 2.375 4.55 2.395 4.11Z" fill="#2D76F8"/>
<path d="M3.575 8H3.465L3.845 8.9H4.4V8.825C4.4 8.37 4.03 8 3.575 8Z" fill="#2D76F8"/>
<path d="M3.575 9.75H2.825C2.73 9.75 2.65 9.67 2.65 9.575V8.825C2.65 8.73 2.73 8.65 2.825 8.65H2.925L2.655 8.015C2.28 8.095 2 8.425 2 8.825V9.575C2 10.03 2.37 10.4 2.825 10.4H3.575C4.005 10.4 4.355 10.07 4.39 9.65H3.73C3.7 9.71 3.645 9.75 3.575 9.75Z" fill="#2D76F8"/>
<path d="M4.4 8.9H3.845L3.465 8H2.825C2.765 8 2.71 8.005 2.655 8.02L2.925 8.655H3.575C3.67 8.655 3.75 8.735 3.75 8.83V9.58C3.75 9.605 3.74 9.635 3.73 9.655H4.39C4.39 9.63 4.4 9.605 4.4 9.58V8.9Z" fill="#2D76F8"/>
<path d="M8.575 8.65C8.67 8.65 8.75 8.73 8.75 8.825V9.575C8.75 9.67 8.67 9.75 8.575 9.75H7.825C7.755 9.75 7.695 9.71 7.67 9.65H7.01C7.05 10.07 7.4 10.4 7.825 10.4H8.575C9.03 10.4 9.4 10.03 9.4 9.575V8.825C9.4 8.385 9.055 8.03 8.62 8.005L8.52 8.65H8.575Z" fill="#2D76F8"/>
<path d="M7 8.825V8.9H7.65V8.825C7.65 8.75 7.695 8.69 7.755 8.665L7.86 8H7.825C7.37 8 7 8.37 7 8.825Z" fill="#2D76F8"/>
<path d="M7.65 9.575V8.9H7V9.575C7 9.6 7.005 9.625 7.01 9.65H7.67C7.67 9.65 7.65 9.6 7.65 9.575Z" fill="#2D76F8"/>
<path d="M7.86 8L7.755 8.665C7.755 8.665 7.8 8.65 7.825 8.65H8.52L8.62 8.005C8.62 8.005 8.59 8.005 8.575 8.005H7.86L7.86 8Z" fill="#2D76F8"/>
<path d="M4.825 5.15H5.52L5.985 4.615C5.865 4.545 5.725 4.5 5.575 4.5H4.825C4.51 4.5 4.24 4.68 4.1 4.94L4.685 5.225C4.715 5.18 4.765 5.15 4.825 5.15Z" fill="#2D76F8"/>
<path d="M5.75 6.075C5.75 6.17 5.67 6.25 5.575 6.25H5.54C5.43 6.33 5.285 6.35 5.16 6.29L5.085 6.25H4.825C4.73 6.25 4.65 6.17 4.65 6.075V6.04L4 5.725V6.075C4 6.53 4.37 6.9 4.825 6.9H5.575C6.03 6.9 6.4 6.53 6.4 6.075L6.4 5.325C6.4 5.325 6.4 5.3 6.4 5.285L5.755 6.035V6.08L5.75 6.075Z" fill="#2D76F8"/>
<path d="M5.16 6.29C5.285 6.35 5.43 6.33 5.54 6.25H5.08L5.155 6.29H5.16Z" fill="#2D76F8"/>
<path d="M5.575 5.15C5.67 5.15 5.75 5.23 5.75 5.325V6.03L6.395 5.28C6.38 4.99 6.22 4.745 5.985 4.61L5.52 5.145H5.575V5.15Z" fill="#2D76F8"/>
<path d="M4 5.725L4.65 6.04V5.325C4.65 5.285 4.665 5.25 4.685 5.225L4.1 4.94C4.04 5.055 4 5.185 4 5.325V5.725Z" fill="#2D76F8"/>
<path d="M8.825 0C8.37 0 8 0.37 8 0.825V1.575C8 1.765 8.065 1.935 8.175 2.075L8.65 1.525V0.825C8.65 0.73 8.73 0.65 8.825 0.65H9.575C9.67 0.65 9.75 0.73 9.75 0.825V1.575C9.75 1.665 9.685 1.735 9.6 1.745L9.5 2.4H9.58C10.035 2.4 10.405 2.03 10.405 1.575V0.825C10.405 0.37 10.035 0 9.58 0H8.825Z" fill="#2D76F8"/>
<path d="M9.575 1.75H8.825C8.73 1.75 8.65 1.67 8.65 1.575V1.525L8.175 2.075C8.325 2.27 8.56 2.4 8.825 2.4H9.495L9.595 1.745C9.595 1.745 9.58 1.745 9.57 1.745L9.575 1.75Z" fill="#2D76F8"/>
</svg>
