<svg width="34" height="34" viewBox="0 0 34 34" fill="none" xmlns="http://www.w3.org/2000/svg">
<path d="M30.6569 3.34314C28.3137 0.999997 24.5425 0.999997 17 0.999998C9.45753 0.999998 5.68629 0.999999 3.34314 3.34314C1 5.68629 1 9.45753 1 17C1 24.5425 1 28.3137 3.34315 30.6569C5.68629 33 9.45753 33 17 33C24.5425 33 28.3137 33 30.6569 30.6569C33 28.3137 33 24.5425 33 17C33 9.45753 33 5.68629 30.6569 3.34314Z" fill="white" stroke="#DEE9FF"/>
<path d="M15 20L10.5 20L10.5 15.5" stroke="#2D76F8" stroke-width="1.3" stroke-linecap="round" stroke-linejoin="round"/>
<path d="M23.5 19L17.5 13L10.5 20" stroke="#2D76F8" stroke-width="1.3" stroke-linecap="round" stroke-linejoin="round"/>
</svg>
