<svg width="26" height="26" viewBox="0 0 26 26" fill="none" xmlns="http://www.w3.org/2000/svg">
<path d="M2.75736 23.2426C4.51472 25 7.34315 25 13 25C18.6569 25 21.4853 25 23.2426 23.2426C25 21.4853 25 18.6569 25 13C25 7.34315 25 4.51472 23.2426 2.75736C21.4853 1 18.6569 1 13 1C7.34315 1 4.51472 1 2.75736 2.75736C1 4.51472 1 7.34315 1 13C1 18.6569 1 21.4853 2.75736 23.2426Z" fill="white"/>
<path d="M2.75736 23.2426C4.51472 25 7.34315 25 13 25C18.6569 25 21.4853 25 23.2426 23.2426C25 21.4853 25 18.6569 25 13C25 7.34315 25 4.51472 23.2426 2.75736C21.4853 1 18.6569 1 13 1C7.34315 1 4.51472 1 2.75736 2.75736C1 4.51472 1 7.34315 1 13C1 18.6569 1 21.4853 2.75736 23.2426Z" stroke="white" stroke-width="0.5"/>
<path d="M2.75736 23.2426C4.51472 25 7.34315 25 13 25C18.6569 25 21.4853 25 23.2426 23.2426C25 21.4853 25 18.6569 25 13C25 7.34315 25 4.51472 23.2426 2.75736C21.4853 1 18.6569 1 13 1C7.34315 1 4.51472 1 2.75736 2.75736C1 4.51472 1 7.34315 1 13C1 18.6569 1 21.4853 2.75736 23.2426Z" stroke="#FFAB31" stroke-opacity="0.4" stroke-width="0.5"/>
<path d="M13.9999 10.8008L9.5999 15.2008L7.3999 13.0008" stroke="#FFAB31" stroke-width="1.5" stroke-linecap="round" stroke-linejoin="round"/>
<path d="M18.6 10.8008L14.2 15.2008L13.03 14.0308" stroke="#FFAB31" stroke-width="1.5" stroke-linecap="round" stroke-linejoin="round"/>
</svg>
