<svg width="56" height="56" viewBox="0 0 56 56" fill="none" xmlns="http://www.w3.org/2000/svg">
<g filter="url(#filter0_d_2551_15980)">
<path d="M15.9249 38.1841C18.1376 40 21.425 40 28 40C34.575 40 37.8624 40 40.0751 38.1841C40.4802 37.8516 40.8516 37.4802 41.1841 37.0751C43 34.8624 43 31.575 43 25C43 18.425 43 15.1376 41.1841 12.9249C40.8516 12.5198 40.4802 12.1484 40.0751 11.8159C37.8624 10 34.575 10 28 10C21.425 10 18.1376 10 15.9249 11.8159C15.5198 12.1484 15.1484 12.5198 14.8159 12.9249C13 15.1376 13 18.425 13 25C13 31.575 13 34.8624 14.8159 37.0751C15.1484 37.4802 15.5198 37.8516 15.9249 38.1841Z" fill="white"/>
<path d="M15.9249 38.1841C18.1376 40 21.425 40 28 40C34.575 40 37.8624 40 40.0751 38.1841C40.4802 37.8516 40.8516 37.4802 41.1841 37.0751C43 34.8624 43 31.575 43 25C43 18.425 43 15.1376 41.1841 12.9249C40.8516 12.5198 40.4802 12.1484 40.0751 11.8159C37.8624 10 34.575 10 28 10C21.425 10 18.1376 10 15.9249 11.8159C15.5198 12.1484 15.1484 12.5198 14.8159 12.9249C13 15.1376 13 18.425 13 25C13 31.575 13 34.8624 14.8159 37.0751C15.1484 37.4802 15.5198 37.8516 15.9249 38.1841Z" stroke="#FFF0E4" stroke-width="0.5"/>
</g>
<path d="M29.25 22.25L23.75 27.75L21 25" stroke="#FFAB31" stroke-width="1.5" stroke-linecap="round" stroke-linejoin="round"/>
<path d="M35.0016 22.25L29.5016 27.75L28.0391 26.2875" stroke="#FFAB31" stroke-width="1.5" stroke-linecap="round" stroke-linejoin="round"/>
<defs>
<filter id="filter0_d_2551_15980" x="0.75" y="0.75" width="54.5" height="54.5" filterUnits="userSpaceOnUse" color-interpolation-filters="sRGB">
<feFlood flood-opacity="0" result="BackgroundImageFix"/>
<feColorMatrix in="SourceAlpha" type="matrix" values="0 0 0 0 0 0 0 0 0 0 0 0 0 0 0 0 0 0 127 0" result="hardAlpha"/>
<feOffset dy="3"/>
<feGaussianBlur stdDeviation="6"/>
<feComposite in2="hardAlpha" operator="out"/>
<feColorMatrix type="matrix" values="0 0 0 0 1 0 0 0 0 0.670588 0 0 0 0 0.192157 0 0 0 0.06 0"/>
<feBlend mode="normal" in2="BackgroundImageFix" result="effect1_dropShadow_2551_15980"/>
<feBlend mode="normal" in="SourceGraphic" in2="effect1_dropShadow_2551_15980" result="shape"/>
</filter>
</defs>
</svg>
