<svg width="36" height="42" viewBox="0 0 36 42" fill="none" xmlns="http://www.w3.org/2000/svg">
<path d="M35.1752 25.9811L29.5127 19.1748C29.3283 16.933 28.8232 14.7293 28.0127 12.6311C25.8377 6.96857 21.994 3.25607 19.8752 1.54982C19.3468 1.1179 18.6861 0.880403 18.0036 0.87699C17.321 0.873578 16.658 1.10446 16.1252 1.53107C13.9877 3.23732 10.0877 6.94982 7.89399 12.6123C7.05259 14.7541 6.54053 17.0109 6.37524 19.3061L0.825245 25.9811C0.530848 26.3327 0.320433 26.7468 0.209973 27.1919C0.0995122 27.6369 0.0919103 28.1014 0.187745 28.5498L2.51274 38.9748C2.62213 39.4721 2.85705 39.9331 3.19512 40.3138C3.53319 40.6946 3.96314 40.9824 4.44399 41.1498C4.77016 41.2604 5.11209 41.3174 5.45649 41.3186C6.13145 41.3149 6.78544 41.0837 7.31274 40.6623L12.5252 36.4998H23.4752L28.6877 40.6623C29.2151 41.0837 29.869 41.3149 30.544 41.3186C30.8884 41.3174 31.2303 41.2604 31.5565 41.1498C32.0373 40.9824 32.4673 40.6946 32.8054 40.3138C33.1434 39.9331 33.3784 39.4721 33.4877 38.9748L35.8127 28.5498C35.9086 28.1014 35.901 27.6369 35.7905 27.1919C35.6801 26.7468 35.4696 26.3327 35.1752 25.9811ZM5.43774 38.3186L3.13149 27.8936L6.48774 23.8623C6.92524 27.3748 8.11899 30.9623 10.069 34.6248L5.43774 38.3186ZM18.0002 19.2498C17.5552 19.2498 17.1202 19.1179 16.7502 18.8706C16.3802 18.6234 16.0918 18.272 15.9215 17.8609C15.7512 17.4497 15.7067 16.9973 15.7935 16.5609C15.8803 16.1244 16.0946 15.7235 16.4093 15.4088C16.7239 15.0942 17.1248 14.8799 17.5613 14.7931C17.9977 14.7062 18.4501 14.7508 18.8613 14.9211C19.2724 15.0914 19.6238 15.3798 19.871 15.7498C20.1183 16.1198 20.2502 16.5548 20.2502 16.9998C20.2502 17.5966 20.0132 18.1689 19.5912 18.5908C19.1693 19.0128 18.597 19.2498 18.0002 19.2498ZM30.5627 38.3186L25.9127 34.6061C27.8627 30.9123 29.0252 27.2936 29.4377 23.7686L32.869 27.8936L30.5627 38.3186Z" fill="#C1C1C1"/>
</svg>
