<svg width="16" height="16" viewBox="0 0 16 16" fill="none" xmlns="http://www.w3.org/2000/svg">
<path fill-rule="evenodd" clip-rule="evenodd" d="M3.11155 7.33328C3.11155 5.00141 5.0019 3.11106 7.33377 3.11106C9.66564 3.11106 11.556 5.00141 11.556 7.33328C11.556 9.66515 9.66564 11.5555 7.33377 11.5555C5.0019 11.5555 3.11155 9.66515 3.11155 7.33328ZM7.33377 2.22217C4.51098 2.22217 2.22266 4.51049 2.22266 7.33328C2.22266 10.1561 4.51098 12.4444 7.33377 12.4444C8.58515 12.4444 9.73149 11.9947 10.62 11.248L13.0194 13.6475C13.193 13.821 13.4744 13.821 13.648 13.6475C13.8215 13.4739 13.8215 13.1925 13.648 13.0189L11.2485 10.6195C11.9952 9.731 12.4449 8.58466 12.4449 7.33328C12.4449 4.51049 10.1566 2.22217 7.33377 2.22217Z" fill="#DBDBDB"/>
<path d="M10.62 11.248L10.7968 11.0713C10.7051 10.9796 10.5585 10.9732 10.4592 11.0566L10.62 11.248ZM13.0194 13.6475L13.1962 13.4707V13.4707L13.0194 13.6475ZM13.648 13.6475L13.4712 13.4707L13.4712 13.4707L13.648 13.6475ZM13.648 13.0189L13.4712 13.1957H13.4712L13.648 13.0189ZM11.2485 10.6195L11.0571 10.4587C10.9737 10.558 10.98 10.7046 11.0718 10.7963L11.2485 10.6195ZM7.33377 2.86106C4.86383 2.86106 2.86155 4.86334 2.86155 7.33328H3.36155C3.36155 5.13948 5.13997 3.36106 7.33377 3.36106V2.86106ZM11.806 7.33328C11.806 4.86334 9.80371 2.86106 7.33377 2.86106V3.36106C9.52757 3.36106 11.306 5.13948 11.306 7.33328H11.806ZM7.33377 11.8055C9.80371 11.8055 11.806 9.80322 11.806 7.33328H11.306C11.306 9.52708 9.52757 11.3055 7.33377 11.3055V11.8055ZM2.86155 7.33328C2.86155 9.80322 4.86383 11.8055 7.33377 11.8055V11.3055C5.13997 11.3055 3.36155 9.52708 3.36155 7.33328H2.86155ZM2.47266 7.33328C2.47266 4.64856 4.64905 2.47217 7.33377 2.47217V1.97217C4.37291 1.97217 1.97266 4.37242 1.97266 7.33328H2.47266ZM7.33377 12.1944C4.64905 12.1944 2.47266 10.018 2.47266 7.33328H1.97266C1.97266 10.2941 4.37291 12.6944 7.33377 12.6944V12.1944ZM10.4592 11.0566C9.61402 11.7668 8.52415 12.1944 7.33377 12.1944V12.6944C8.64615 12.6944 9.84896 12.2225 10.7808 11.4394L10.4592 11.0566ZM13.1962 13.4707L10.7968 11.0713L10.4432 11.4248L12.8426 13.8242L13.1962 13.4707ZM13.4712 13.4707C13.3952 13.5466 13.2721 13.5466 13.1962 13.4707L12.8426 13.8242C13.1138 14.0954 13.5535 14.0954 13.8247 13.8242L13.4712 13.4707ZM13.4712 13.1957C13.5471 13.2716 13.5471 13.3947 13.4712 13.4707L13.8247 13.8242C14.0959 13.553 14.0959 13.1133 13.8247 12.8421L13.4712 13.1957ZM11.0718 10.7963L13.4712 13.1957L13.8247 12.8421L11.4253 10.4427L11.0718 10.7963ZM12.1949 7.33328C12.1949 8.52366 11.7673 9.61353 11.0571 10.4587L11.4399 10.7803C12.223 9.84847 12.6949 8.64566 12.6949 7.33328H12.1949ZM7.33377 2.47217C10.0185 2.47217 12.1949 4.64856 12.1949 7.33328H12.6949C12.6949 4.37242 10.2946 1.97217 7.33377 1.97217V2.47217Z" fill="#DBDBDB"/>
</svg>
