<svg width="18" height="14" viewBox="0 0 18 14" fill="none" xmlns="http://www.w3.org/2000/svg">
<path fill-rule="evenodd" clip-rule="evenodd" d="M0.875 2.625C0.875 2.27982 1.15482 2 1.5 2H3.30545C4.19963 2.0011 5.08066 2.21535 5.87549 2.62499C6.67022 3.03458 7.35587 3.62772 7.87559 4.35522C7.87565 4.3553 7.87553 4.35513 7.87559 4.35522L11.141 8.91748C11.5453 9.4834 12.079 9.94529 12.6972 10.2639C13.3152 10.5824 14.0003 10.7491 14.6956 10.75C14.6958 10.75 14.6955 10.75 14.6956 10.75H17.125C17.4702 10.75 17.75 11.0298 17.75 11.375C17.75 11.7202 17.4702 12 17.125 12L14.6945 12C13.8004 11.9989 12.9193 11.7847 12.1245 11.375C11.3298 10.9654 10.6442 10.3723 10.1245 9.64486C10.1244 9.64475 10.1245 9.64497 10.1245 9.64486L6.85896 5.08252C6.45472 4.5166 5.92103 4.05471 5.30284 3.7361C4.68475 3.41755 3.99964 3.25091 3.3043 3.25H1.5C1.15482 3.25 0.875 2.97018 0.875 2.625Z" fill="#2D76F8"/>
<path fill-rule="evenodd" clip-rule="evenodd" d="M14.8081 0.308058C15.0521 0.0639806 15.4479 0.0639806 15.6919 0.308058L17.5669 2.18306C17.811 2.42714 17.811 2.82286 17.5669 3.06694L15.6919 4.94194C15.4479 5.18602 15.0521 5.18602 14.8081 4.94194C14.564 4.69786 14.564 4.30214 14.8081 4.05806L16.2411 2.625L14.8081 1.19194C14.564 0.947864 14.564 0.552136 14.8081 0.308058Z" fill="#2D76F8"/>
<path fill-rule="evenodd" clip-rule="evenodd" d="M14.8081 9.05806C15.0521 8.81398 15.4479 8.81398 15.6919 9.05806L17.5669 10.9331C17.811 11.1771 17.811 11.5729 17.5669 11.8169L15.6919 13.6919C15.4479 13.936 15.0521 13.936 14.8081 13.6919C14.564 13.4479 14.564 13.0521 14.8081 12.8081L16.2411 11.375L14.8081 9.94194C14.564 9.69786 14.564 9.30214 14.8081 9.05806Z" fill="#2D76F8"/>
<path fill-rule="evenodd" clip-rule="evenodd" d="M14.6946 2L14.6954 2L17.1251 2C17.4702 2 17.7501 2.27982 17.7501 2.625C17.7501 2.97018 17.4702 3.25 17.1251 3.25H14.6957C14.0004 3.25091 13.3153 3.41755 12.6972 3.7361C12.0795 4.05445 11.5465 4.51536 11.1424 5.08066L11.0497 5.21199C10.8507 5.49399 10.4607 5.56123 10.1787 5.36217C9.89669 5.16311 9.82945 4.77314 10.0285 4.49114L10.1243 4.35546C10.644 3.62785 11.3297 3.03463 12.1246 2.62499C12.9194 2.21535 13.8004 2.0011 14.6946 2Z" fill="#2D76F8"/>
<path fill-rule="evenodd" clip-rule="evenodd" d="M7.82137 8.63789C8.10336 8.83694 8.1706 9.22692 7.97154 9.50892L7.87779 9.64173L7.87577 9.64458C7.35603 10.3722 6.67031 10.9654 5.87549 11.3751C5.08066 11.7847 4.19963 11.999 3.30545 12.0001L1.5 12.0001C1.15482 12.0001 0.875 11.7202 0.875 11.3751C0.875 11.0299 1.15482 10.7501 1.5 10.7501H3.30427C3.99962 10.7491 4.68474 10.5825 5.30284 10.264C5.92054 9.9456 6.45351 9.48468 6.85764 8.91938L6.95033 8.78806C7.14939 8.50606 7.53937 8.43883 7.82137 8.63789Z" fill="#2D76F8"/>
</svg>
