<svg width="16" height="16" viewBox="0 0 16 16" fill="none" xmlns="http://www.w3.org/2000/svg">
<path fill-rule="evenodd" clip-rule="evenodd" d="M6.40907 2.12654C6.63919 2.6286 6.41873 3.22215 5.91668 3.45227C4.87956 3.92763 4.03619 4.74338 3.52657 5.7641C3.01695 6.78482 2.87173 7.94913 3.11501 9.06376C3.35828 10.1784 3.97543 11.1763 4.864 11.8919C5.75258 12.6074 6.85914 12.9976 8.00001 12.9976C9.14088 12.9976 10.2474 12.6074 11.136 11.8919C12.0246 11.1763 12.6417 10.1784 12.885 9.06376C13.1283 7.94913 12.9831 6.78482 12.4734 5.7641C11.9638 4.74338 11.1205 3.92763 10.0833 3.45227C9.58128 3.22215 9.36083 2.6286 9.59095 2.12654C9.82107 1.62449 10.4146 1.40403 10.9167 1.63415C12.3686 2.29966 13.5493 3.4417 14.2628 4.87071C14.9763 6.29972 15.1796 7.92975 14.839 9.49023C14.4984 11.0507 13.6344 12.4478 12.3904 13.4496C11.1464 14.4513 9.59723 14.9976 8.00001 14.9976C6.40279 14.9976 4.85361 14.4513 3.6096 13.4496C2.3656 12.4478 1.50159 11.0507 1.16101 9.49023C0.820419 7.92975 1.02373 6.29972 1.7372 4.87071C2.45067 3.4417 3.63138 2.29966 5.08334 1.63415C5.5854 1.40403 6.17895 1.62449 6.40907 2.12654Z" fill="#2D76F8"/>
<path fill-rule="evenodd" clip-rule="evenodd" d="M6.8636 1.91833C7.20878 2.67142 6.8781 3.56174 6.12501 3.90692C5.1916 4.33475 4.43258 5.06892 3.97392 5.98757C3.51526 6.90622 3.38456 7.95409 3.60351 8.95726C3.82246 9.96043 4.37789 10.8586 5.1776 11.5025C5.97732 12.1465 6.97323 12.4977 8.00001 12.4977C9.02679 12.4977 10.0227 12.1465 10.8224 11.5025C11.6221 10.8586 12.1776 9.96043 12.3965 8.95726C12.6155 7.95409 12.4848 6.90622 12.0261 5.98757C11.5674 5.06892 10.8084 4.33475 9.87501 3.90692C9.12192 3.56174 8.79124 2.67142 9.13642 1.91833C9.4816 1.16524 10.3719 0.834566 11.125 1.17974C12.6807 1.89279 13.9457 3.1164 14.7102 4.64749C15.4746 6.17857 15.6924 7.92503 15.3275 9.59697C14.9626 11.2689 14.0369 12.7658 12.704 13.8391C11.3712 14.9125 9.71131 15.4977 8.00001 15.4977C6.2887 15.4977 4.62886 14.9125 3.296 13.8391C1.96314 12.7658 1.03742 11.2689 0.672506 9.59697C0.307592 7.92503 0.525429 6.17857 1.28986 4.64749C2.05429 3.1164 3.31933 1.89279 4.87501 1.17974C5.6281 0.834566 6.51842 1.16524 6.8636 1.91833ZM5.91668 3.45239C6.41874 3.22227 6.63919 2.62873 6.40907 2.12667C6.17895 1.62461 5.5854 1.40415 5.08334 1.63427C3.63138 2.29978 2.45067 3.44182 1.7372 4.87083C1.02373 6.29984 0.82042 7.92987 1.16101 9.49035C1.50159 11.0508 2.3656 12.4479 3.6096 13.4497C4.85361 14.4515 6.40279 14.9977 8.00001 14.9977C9.59723 14.9977 11.1464 14.4515 12.3904 13.4497C13.6344 12.4479 14.4984 11.0508 14.839 9.49035C15.1796 7.92987 14.9763 6.29984 14.2628 4.87083C13.5494 3.44182 12.3686 2.29978 10.9167 1.63427C10.4146 1.40415 9.82107 1.62461 9.59095 2.12667C9.36083 2.62873 9.58128 3.22227 10.0833 3.45239C11.1205 3.92775 11.9638 4.7435 12.4734 5.76422C12.9831 6.78494 13.1283 7.94925 12.885 9.06388C12.6417 10.1785 12.0246 11.1764 11.136 11.892C10.2474 12.6075 9.14088 12.9977 8.00001 12.9977C6.85914 12.9977 5.75258 12.6075 4.864 11.892C3.97543 11.1764 3.35828 10.1785 3.11501 9.06388C2.87173 7.94925 3.01696 6.78494 3.52657 5.76422C4.03619 4.7435 4.87956 3.92775 5.91668 3.45239Z" fill="#2D76F8"/>
</svg>
