<svg width="48" height="48" viewBox="0 0 48 48" fill="none" xmlns="http://www.w3.org/2000/svg">
<path d="M44.9999 23.7936L25.4061 4.19988C25.0593 3.84997 24.6311 3.59148 24.16 3.44751C23.6888 3.30354 23.1893 3.27859 22.7061 3.37488L7.57488 6.41238C7.28796 6.46967 7.02443 6.61066 6.81755 6.81755C6.61066 7.02443 6.46967 7.28796 6.41238 7.57488L3.37488 22.7061C3.27859 23.1893 3.30354 23.6888 3.44751 24.16C3.59148 24.6311 3.84997 25.0593 4.19988 25.4061L23.7936 44.9999C24.0708 45.2799 24.4008 45.5022 24.7645 45.654C25.1282 45.8057 25.5183 45.8838 25.9124 45.8838C26.3064 45.8838 26.6966 45.8057 27.0602 45.654C27.4239 45.5022 27.7539 45.2799 28.0311 44.9999L44.9999 28.0311C45.2799 27.7539 45.5022 27.4239 45.654 27.0602C45.8057 26.6966 45.8838 26.3064 45.8838 25.9124C45.8838 25.5183 45.8057 25.1282 45.654 24.7645C45.5022 24.4008 45.2799 24.0708 44.9999 23.7936ZM15.7499 17.9999C15.3049 17.9999 14.8699 17.8679 14.4998 17.6207C14.1298 17.3735 13.8414 17.022 13.6711 16.6109C13.5009 16.1998 13.4563 15.7474 13.5431 15.3109C13.6299 14.8745 13.8442 14.4736 14.1589 14.1589C14.4736 13.8442 14.8745 13.6299 15.3109 13.5431C15.7474 13.4563 16.1998 13.5009 16.6109 13.6711C17.022 13.8414 17.3735 14.1298 17.6207 14.4998C17.8679 14.8699 17.9999 15.3049 17.9999 15.7499C17.9999 16.3466 17.7628 16.9189 17.3409 17.3409C16.9189 17.7628 16.3466 17.9999 15.7499 17.9999Z" fill="#C1C1C1"/>
</svg>
