<svg width="11" height="10" viewBox="0 0 11 10" fill="none" xmlns="http://www.w3.org/2000/svg">
<path d="M7.3125 3.3125V2.75H6.75C6.55109 2.75 6.36032 2.82902 6.21967 2.96967C6.07902 3.11032 6 3.30109 6 3.5V6.5C6 6.69891 6.07902 6.88968 6.21967 7.03033C6.36032 7.17098 6.55109 7.25 6.75 7.25H7.3125V6.6875C7.3125 6.48859 7.39152 6.29782 7.53217 6.15717C7.67282 6.01652 7.86359 5.9375 8.0625 5.9375H9.9375C10.1364 5.9375 10.3272 6.01652 10.4678 6.15717C10.6085 6.29782 10.6875 6.48859 10.6875 6.6875V8.5625C10.6875 8.76141 10.6085 8.95218 10.4678 9.09283C10.3272 9.23348 10.1364 9.3125 9.9375 9.3125H8.0625C7.86359 9.3125 7.67282 9.23348 7.53217 9.09283C7.39152 8.95218 7.3125 8.76141 7.3125 8.5625V8H6.75C6.35256 7.99876 5.97174 7.84033 5.69071 7.55929C5.40967 7.27826 5.25124 6.89744 5.25 6.5V5.375H3.9375V5.75C3.9375 5.94891 3.85848 6.13968 3.71783 6.28033C3.57718 6.42098 3.38641 6.5 3.1875 6.5H1.6875C1.48859 6.5 1.29782 6.42098 1.15717 6.28033C1.01652 6.13968 0.9375 5.94891 0.9375 5.75V4.25C0.9375 4.05109 1.01652 3.86032 1.15717 3.71967C1.29782 3.57902 1.48859 3.5 1.6875 3.5H3.1875C3.38641 3.5 3.57718 3.57902 3.71783 3.71967C3.85848 3.86032 3.9375 4.05109 3.9375 4.25V4.625H5.25V3.5C5.25124 3.10256 5.40967 2.72174 5.69071 2.44071C5.97174 2.15967 6.35256 2.00124 6.75 2H7.3125V1.4375C7.3125 1.23859 7.39152 1.04782 7.53217 0.90717C7.67282 0.766518 7.86359 0.6875 8.0625 0.6875H9.9375C10.1364 0.6875 10.3272 0.766518 10.4678 0.90717C10.6085 1.04782 10.6875 1.23859 10.6875 1.4375V3.3125C10.6875 3.51141 10.6085 3.70218 10.4678 3.84283C10.3272 3.98348 10.1364 4.0625 9.9375 4.0625H8.0625C7.86359 4.0625 7.67282 3.98348 7.53217 3.84283C7.39152 3.70218 7.3125 3.51141 7.3125 3.3125Z" fill="#2D76F8"/>
</svg>
