<svg width="14" height="14" viewBox="0 0 14 14" fill="none" xmlns="http://www.w3.org/2000/svg">
<path d="M11.6812 4.5L8.62422 1.4375L8.60781 1.42656L8.59141 1.41016L8.575 1.39922L8.55859 1.38828C8.55312 1.38281 8.54766 1.38281 8.54766 1.37734L8.52031 1.36094H8.50938L8.48203 1.34453H8.47656L8.43828 1.32813H3.0625C2.83325 1.32808 2.61314 1.41802 2.44951 1.57858C2.28588 1.73914 2.1918 1.95751 2.1875 2.18672V11.8117C2.1875 12.0438 2.27969 12.2663 2.44378 12.4304C2.60788 12.5945 2.83044 12.6867 3.0625 12.6867H10.9375C11.1696 12.6867 11.3921 12.5945 11.5562 12.4304C11.7203 12.2663 11.8125 12.0438 11.8125 11.8117V4.81172C11.813 4.75356 11.8017 4.6959 11.7791 4.64229C11.7565 4.58869 11.7232 4.54027 11.6812 4.5ZM8.84297 8.40469C8.76002 8.48684 8.648 8.53293 8.53125 8.53293C8.4145 8.53293 8.30248 8.48684 8.21953 8.40469L7.4375 7.61719V10.0617C7.4375 10.1778 7.39141 10.289 7.30936 10.3711C7.22731 10.4531 7.11603 10.4992 7 10.4992C6.88397 10.4992 6.77269 10.4531 6.69064 10.3711C6.60859 10.289 6.5625 10.1778 6.5625 10.0617V7.61719L5.78047 8.40469C5.69546 8.47445 5.58755 8.51011 5.47771 8.50471C5.36788 8.49932 5.26398 8.45326 5.18622 8.3755C5.10846 8.29774 5.0624 8.19384 5.05701 8.08401C5.05161 7.97417 5.08727 7.86625 5.15703 7.78125L6.68828 6.25H6.69375L6.72109 6.22266L6.7375 6.21172L6.75937 6.19531L6.77578 6.18438L6.79219 6.17344H6.81406L6.83047 6.1625H6.85234L6.87422 6.15156H7.12578L7.14766 6.1625H7.16953L7.18594 6.17344H7.20781L7.22422 6.18438L7.24062 6.19531L7.2625 6.21172L7.27891 6.22266L7.30625 6.25H7.31172L8.84297 7.78125C8.92512 7.8642 8.97121 7.97622 8.97121 8.09297C8.97121 8.20971 8.92512 8.32174 8.84297 8.40469ZM8.3125 4.81172V2.36719L10.757 4.81172H8.3125Z" fill="#2D76F8"/>
</svg>
