<svg width="16" height="16" viewBox="0 0 16 16" fill="none" xmlns="http://www.w3.org/2000/svg">
<path d="M7.57501 9.86872C8.24585 9.42308 8.75539 8.77331 9.02824 8.01557C9.30109 7.25783 9.32274 6.43238 9.08999 5.66137C8.85724 4.89037 8.38246 4.21478 7.7359 3.73459C7.08935 3.2544 6.30538 2.99512 5.50001 2.99512C4.69464 2.99512 3.91067 3.2544 3.26411 3.73459C2.61756 4.21478 2.14277 4.89037 1.91002 5.66137C1.67727 6.43238 1.69892 7.25783 1.97177 8.01557C2.24462 8.77331 2.75417 9.42308 3.42501 9.86872C2.28061 10.2895 1.29256 11.0508 0.593757 12.05C0.539173 12.1241 0.506685 12.2121 0.500048 12.3039C0.493412 12.3957 0.5129 12.4875 0.556257 12.5687C0.599102 12.6494 0.662969 12.7169 0.74109 12.7643C0.819211 12.8116 0.908677 12.8369 1.00001 12.8375H10C10.0913 12.8369 10.1808 12.8116 10.2589 12.7643C10.337 12.7169 10.4009 12.6494 10.4438 12.5687C10.4871 12.4875 10.5066 12.3957 10.5 12.3039C10.4933 12.2121 10.4608 12.1241 10.4063 12.05C9.70746 11.0508 8.7194 10.2895 7.57501 9.86872Z" fill="#2D76F8"/>
<path d="M15.5062 12.05C14.8034 11.052 13.8138 10.2913 12.6687 9.86877C13.3416 9.42483 13.8533 8.77551 14.1276 8.01739C14.4019 7.25927 14.4241 6.43287 14.1909 5.66111C13.9578 4.88935 13.4818 4.21347 12.8336 3.73401C12.1855 3.25455 11.3999 2.99712 10.5937 3.00002C10.2496 3.00185 9.90719 3.04806 9.57493 3.13752C9.49689 3.16096 9.42556 3.20268 9.36687 3.2592C9.30817 3.31572 9.2638 3.38542 9.23743 3.46252C9.21228 3.53899 9.20597 3.62041 9.21902 3.69984C9.23208 3.77927 9.26412 3.85438 9.31243 3.91877C9.87769 4.67826 10.2024 5.58968 10.2448 6.53548C10.2871 7.48129 10.0451 8.41808 9.54993 9.22502C9.48644 9.33225 9.46472 9.45912 9.48893 9.58136C9.51315 9.7036 9.5816 9.81261 9.68118 9.88752C9.86868 10.0334 10.0499 10.1834 10.2249 10.3375L10.2562 10.3688C10.9233 10.9861 11.4645 11.7268 11.8499 12.55C11.8895 12.636 11.9529 12.7089 12.0327 12.7599C12.1125 12.8108 12.2053 12.8378 12.2999 12.8375H15.0937C15.185 12.8369 15.2745 12.8116 15.3526 12.7643C15.4307 12.717 15.4946 12.6494 15.5374 12.5688C15.5803 12.4877 15.6 12.3965 15.5945 12.305C15.589 12.2135 15.5584 12.1253 15.5062 12.05Z" fill="#2D76F8"/>
</svg>
