<svg width="20" height="20" viewBox="0 0 20 20" fill="none" xmlns="http://www.w3.org/2000/svg">
<path d="M18.4923 14.6857L11.6251 2.81068C11.4607 2.52508 11.224 2.28785 10.9387 2.1229C10.6534 1.95795 10.3297 1.87109 10.0001 1.87109C9.67061 1.87109 9.34689 1.95795 9.06161 2.1229C8.77632 2.28785 8.53955 2.52508 8.37515 2.81068L1.50796 14.6857C1.34114 14.9698 1.25248 15.2931 1.251 15.6226C1.24951 15.9521 1.33524 16.2761 1.49949 16.5617C1.66374 16.8474 1.90065 17.0845 2.18617 17.249C2.47169 17.4134 2.79565 17.4994 3.12515 17.4982H16.8751C17.2046 17.4994 17.5286 17.4134 17.8141 17.249C18.0996 17.0845 18.3366 16.8474 18.5008 16.5617C18.6651 16.2761 18.7508 15.9521 18.7493 15.6226C18.7478 15.2931 18.6592 14.9698 18.4923 14.6857ZM9.37515 8.12318C9.37515 7.95742 9.441 7.79845 9.55821 7.68124C9.67542 7.56403 9.83439 7.49818 10.0001 7.49818C10.1659 7.49818 10.3249 7.56403 10.4421 7.68124C10.5593 7.79845 10.6251 7.95742 10.6251 8.12318V11.2482C10.6251 11.4139 10.5593 11.5729 10.4421 11.6901C10.3249 11.8073 10.1659 11.8732 10.0001 11.8732C9.83439 11.8732 9.67542 11.8073 9.55821 11.6901C9.441 11.5729 9.37515 11.4139 9.37515 11.2482V8.12318ZM10.0001 14.9982C9.81473 14.9982 9.63347 14.9432 9.4793 14.8402C9.32513 14.7372 9.20497 14.5908 9.13401 14.4194C9.06305 14.2481 9.04449 14.0596 9.08066 13.8778C9.11684 13.6959 9.20612 13.5289 9.33724 13.3978C9.46835 13.2667 9.63539 13.1774 9.81725 13.1412C9.99911 13.105 10.1876 13.1236 10.3589 13.1945C10.5302 13.2655 10.6766 13.3857 10.7797 13.5398C10.8827 13.694 10.9376 13.8753 10.9376 14.0607C10.9376 14.3093 10.8389 14.5478 10.6631 14.7236C10.4872 14.8994 10.2488 14.9982 10.0001 14.9982Z" fill="#FF0000"/>
</svg>
