<svg width="24" height="24" viewBox="0 0 24 24" fill="none" xmlns="http://www.w3.org/2000/svg">
<path fill-rule="evenodd" clip-rule="evenodd" d="M12 4.66634C7.94989 4.66634 4.66665 7.94959 4.66665 11.9997C4.66665 16.0498 7.94989 19.333 12 19.333C16.0501 19.333 19.3333 16.0498 19.3333 11.9997C19.3333 7.94959 16.0501 4.66634 12 4.66634ZM3.33331 11.9997C3.33331 7.21321 7.21351 3.33301 12 3.33301C16.7864 3.33301 20.6666 7.21321 20.6666 11.9997C20.6666 16.7861 16.7864 20.6663 12 20.6663C7.21351 20.6663 3.33331 16.7861 3.33331 11.9997Z" fill="#FA4E57"/>
<path fill-rule="evenodd" clip-rule="evenodd" d="M12 7.33301C12.3682 7.33301 12.6666 7.63148 12.6666 7.99967V12.6663C12.6666 13.0345 12.3682 13.333 12 13.333C11.6318 13.333 11.3333 13.0345 11.3333 12.6663V7.99967C11.3333 7.63148 11.6318 7.33301 12 7.33301Z" fill="#FA4E57"/>
<path d="M12 16.666C12.5523 16.666 13 16.2183 13 15.666C13 15.1137 12.5523 14.666 12 14.666C11.4477 14.666 11 15.1137 11 15.666C11 16.2183 11.4477 16.666 12 16.666Z" fill="#FA4E57"/>
</svg>
