<svg width="24" height="24" viewBox="0 0 24 24" fill="none" xmlns="http://www.w3.org/2000/svg">
<path d="M19.7719 13.7663C18.8072 14.7229 17.5783 15.3689 16.2434 15.6212C14.9084 15.8735 13.5285 15.7205 12.2813 15.1819L7.40628 20.8257C7.39691 20.8444 7.37816 20.8538 7.36878 20.8632C7.09093 21.1421 6.76074 21.3634 6.39715 21.5144C6.03356 21.6654 5.64373 21.7432 5.25003 21.7432C4.85633 21.7432 4.4665 21.6654 4.10292 21.5144C3.73933 21.3634 3.40914 21.1421 3.13128 20.8632C2.85236 20.5853 2.63104 20.2551 2.48003 19.8915C2.32902 19.528 2.25128 19.1381 2.25128 18.7444C2.25128 18.3507 2.32902 17.9609 2.48003 17.5973C2.63104 17.2337 2.85236 16.9035 3.13128 16.6257L3.16878 16.5882L8.81253 11.7132C8.26892 10.4748 8.10984 9.1017 8.35591 7.77184C8.60199 6.44198 9.24187 5.2167 10.1926 4.25485C11.1434 3.29299 12.3611 2.63891 13.688 2.3774C15.0149 2.11588 16.3898 2.259 17.6344 2.78818C17.747 2.83547 17.8461 2.90986 17.923 3.00473C17.9999 3.09959 18.0521 3.212 18.075 3.33193C18.0987 3.45273 18.0922 3.57749 18.0563 3.69521C18.0203 3.81293 17.9559 3.91998 17.8688 4.00693L14.2219 7.65381L14.5688 9.42568L16.3407 9.77256L19.9875 6.12568C20.0745 6.03855 20.1815 5.97416 20.2993 5.93819C20.417 5.90222 20.5417 5.89578 20.6625 5.91943C20.7825 5.94236 20.8949 5.99459 20.9897 6.07146C21.0846 6.14834 21.159 6.24748 21.2063 6.36006C21.7355 7.59639 21.8817 8.96306 21.626 10.2834C21.3703 11.6037 20.7244 12.8169 19.7719 13.7663Z" fill="#2D76F8"/>
</svg>
