<svg width="48" height="48" viewBox="0 0 48 48" fill="none" xmlns="http://www.w3.org/2000/svg">
<path d="M39 6H9C8.20435 6 7.44129 6.31607 6.87868 6.87868C6.31607 7.44129 6 8.20435 6 9V39C6 39.7957 6.31607 40.5587 6.87868 41.1213C7.44129 41.6839 8.20435 42 9 42H39C39.7957 42 40.5587 41.6839 41.1213 41.1213C41.6839 40.5587 42 39.7957 42 39V9C42 8.20435 41.6839 7.44129 41.1213 6.87868C40.5587 6.31607 39.7957 6 39 6ZM31.0687 28.9313C31.3504 29.2156 31.5084 29.5997 31.5084 30C31.5084 30.4003 31.3504 30.7844 31.0687 31.0687C30.782 31.346 30.3988 31.501 30 31.501C29.6012 31.501 29.218 31.346 28.9313 31.0687L24 26.1188L19.0687 31.0687C18.782 31.346 18.3988 31.501 18 31.501C17.6012 31.501 17.218 31.346 16.9313 31.0687C16.6496 30.7844 16.4916 30.4003 16.4916 30C16.4916 29.5997 16.6496 29.2156 16.9313 28.9313L21.8812 24L16.9313 19.0687C16.6921 18.7773 16.5698 18.4073 16.5883 18.0307C16.6068 17.6542 16.7647 17.2979 17.0313 17.0313C17.2979 16.7647 17.6542 16.6068 18.0307 16.5883C18.4073 16.5698 18.7773 16.6921 19.0687 16.9313L24 21.8812L28.9313 16.9313C29.2227 16.6921 29.5927 16.5698 29.9693 16.5883C30.3458 16.6068 30.7021 16.7647 30.9687 17.0313C31.2353 17.2979 31.3932 17.6542 31.4117 18.0307C31.4302 18.4073 31.3079 18.7773 31.0687 19.0687L26.1188 24L31.0687 28.9313Z" fill="#DBDBDB"/>
</svg>
