<svg xmlns="http://www.w3.org/2000/svg" width="30" height="30" viewBox="0 0 30 30">
    <g fill="none" fill-rule="evenodd">
        <path d="M0 0h30v30H0z"/>
        <path fill="#391F1F" d="M14.829 6.235c-5.355 0-9.697 3.394-9.697 7.583 0 2.694 1.799 5.053 4.5 6.403l-.914 3.378a.278.278 0 0 0 .267.368.284.284 0 0 0 .168-.064l3.93-2.627c.57.081 1.153.126 1.746.126 5.355 0 9.698-3.394 9.698-7.584 0-4.19-4.343-7.583-9.698-7.583"/>
        <path fill="#FFE500" d="M10.704 11.646a.69.69 0 0 1 .373.1.412.412 0 0 1 .203.384.434.434 0 0 1-.161.36.651.651 0 0 1-.413.127H9.65l-.001 3.6a.574.574 0 0 1-.154.416.535.535 0 0 1-.408.158.577.577 0 0 1-.358-.113.524.524 0 0 1-.187-.314c-.01-.048-.013-.095-.01-.147l.002-3.6H7.48a.702.702 0 0 1-.375-.1.408.408 0 0 1-.193-.28 1.094 1.094 0 0 1-.016-.107c0-.153.055-.272.166-.355a.659.659 0 0 1 .414-.129h3.228zm1.66-.09c.145 0 .267.03.365.088.098.057.176.17.23.334l1.349 3.868c.044.12.073.223.09.308.012.057.019.101.02.133a.484.484 0 0 1-.157.357.509.509 0 0 1-.37.147c-.259 0-.426-.106-.502-.316l-.289-.842h-1.797l-.29.842c-.07.21-.237.316-.5.316a.522.522 0 0 1-.33-.101.46.46 0 0 1-.171-.286.536.536 0 0 1-.01-.117.611.611 0 0 1 .03-.203c.02-.08.047-.16.075-.238l1.444-3.939a.492.492 0 0 1 .204-.27.648.648 0 0 1 .341-.08h.269zm9.223 0c.123 0 .234.034.334.103a.414.414 0 0 1 .194.312.429.429 0 0 1-.049.257 1.033 1.033 0 0 1-.133.185l-1.147 1.24 1.357 2.129.041.064c.093.144.146.25.16.32l.009.035v.036c0 .198-.056.338-.168.424a.652.652 0 0 1-.406.13.566.566 0 0 1-.278-.06.729.729 0 0 1-.22-.241l-1.286-2.05-.614.632.007 1.145a.584.584 0 0 1-.153.416.541.541 0 0 1-.41.158.575.575 0 0 1-.358-.114.52.52 0 0 1-.188-.313.728.728 0 0 1-.01-.147V12.13c0-.171.05-.311.15-.416a.541.541 0 0 1 .41-.158c.14 0 .26.038.357.116.1.077.16.181.188.312.01.048.014.097.01.146l.004 1.674 1.753-1.996a1.24 1.24 0 0 1 .213-.19.417.417 0 0 1 .233-.062zm-6.432 0c.14 0 .26.038.357.116.096.077.16.181.187.312.01.048.013.097.01.146l-.002 3.602h1.866a.68.68 0 0 1 .377.098c.102.068.166.16.19.281.007.032.013.07.016.106a.425.425 0 0 1-.165.357.67.67 0 0 1-.416.127h-2.329a.735.735 0 0 1-.42-.107c-.108-.068-.177-.182-.211-.34a1.551 1.551 0 0 1-.025-.226l.002-3.898c0-.171.051-.311.153-.416a.54.54 0 0 1 .41-.158zm-2.929 1.249h-.014l-.658 2.03h1.306l-.634-2.03z"/>
    </g>
</svg>
