<svg xmlns="http://www.w3.org/2000/svg" xmlns:xlink="http://www.w3.org/1999/xlink" width="90" height="90" viewBox="0 0 90 90">
    <defs>
        <path id="a" d="M0 0h90v90H0z"/>
    </defs>
    <g fill="none" fill-rule="evenodd">
        <path fill="none" d="M0 0h90v90H0z"/>
        <g>
            <mask id="b" fill="#fff">
                <use xlink:href="#a"/>
            </mask>
            <path fill="#E6E7EA" d="M90 45c0 24.853-20.148 45-45 45S0 69.854 0 45C0 20.149 20.148 0 45 0s45 20.148 45 45" mask="url(#b)"/>
        </g>
        <path fill="#9B9DA3" d="M55.865 52.015c.013-.017.022-.036.035-.053l.032-.055c.011-.017.023-.035.036-.052l.031-.055.036-.055a.904.904 0 0 1 .067-.107l.033-.053a.625.625 0 0 1 .034-.055c.01-.018.022-.034.033-.052l.032-.055c.013-.017.022-.036.033-.053a.432.432 0 0 0 .034-.054c.013-.017.022-.036.035-.053.011-.02.023-.038.034-.055.011-.017.02-.036.033-.055l.034-.052a.79.79 0 0 1 .032-.053c.013-.017.022-.036.035-.055.011-.019.02-.037.033-.054.012-.017.02-.036.034-.053l.032-.055.035-.053a1.39 1.39 0 0 1 .034-.054c.01-.017.02-.036.033-.055l.034-.053c.013-.017.02-.036.031-.054.013-.017.024-.036.036-.055.013-.017.022-.034.031-.05l.036-.056.033-.052a1.39 1.39 0 0 1 .067-.108c.013-.019.023-.037.034-.056l.033-.053c.013-.019.023-.038.034-.053l.033-.055.034-.052.033-.055c.013-.019.023-.036.034-.055.013-.015.022-.035.033-.054.013-.017.023-.034.034-.051a.45.45 0 0 0 .033-.057c.012-.017.023-.034.034-.053.013-.016.024-.035.035-.052a.357.357 0 0 1 .032-.053c.013-.019.022-.038.035-.055l.032-.054c.013-.02.022-.038.035-.053.012-.019.023-.036.032-.055a.904.904 0 0 1 .036-.054.79.79 0 0 0 .031-.053c.011-.02.023-.036.034-.055a.547.547 0 0 0 .035-.055c.011-.017.02-.035.032-.052.013-.017.024-.036.035-.055.011-.015.02-.034.032-.053.013-.017.024-.036.035-.054a.79.79 0 0 0 .032-.053c.013-.017.022-.036.035-.055.011-.019.023-.034.034-.053.01-.018.02-.037.033-.054l.034-.053c.011-.019.02-.036.033-.055l.034-.053a.52.52 0 0 0 .032-.054.904.904 0 0 0 .035-.055c.011-.017.022-.036.035-.053.01-.017.019-.035.032-.052l.033-.055c.014-.019.023-.038.034-.055.011-.017.022-.036.034-.052.013-.017.022-.036.033-.055.011-.019.022-.036.034-.053.01-.017.022-.038.035-.055a.904.904 0 0 1 .067-.107l.032-.055a.644.644 0 0 0 .033-.052.432.432 0 0 0 .034-.055c.013-.017.022-.036.035-.055a.644.644 0 0 0 .034-.053c.009-.018.02-.033.031-.052.013-.02.023-.038.036-.053.01-.019.02-.038.031-.055l.036-.054c.01-.02.02-.036.031-.053.013-.019.023-.038.036-.055a.79.79 0 0 0 .031-.053.547.547 0 0 1 .036-.054l.033-.055a.79.79 0 0 1 .032-.053l.035-.052.032-.057c.013-.015.022-.034.034-.05a.432.432 0 0 0 .033-.056c.013-.018.024-.037.035-.056.012-.015.023-.034.034-.051a.432.432 0 0 1 .034-.055c4.367-6.68 3.644-15.762-2.168-21.649a16.859 16.859 0 0 0-24.044 0c-5.813 5.887-6.535 14.97-2.166 21.65l.032.054c.013.017.022.036.033.05.013.02.023.039.036.057.009.02.02.036.033.055.011.017.022.036.034.051l.031.057c.013.015.023.033.036.05.01.02.022.04.033.057.011.017.02.036.034.053l.033.054c.011.017.02.036.034.053l.033.055.032.053a.904.904 0 0 1 .035.054c.013.017.023.036.034.055a.644.644 0 0 1 .033.053l.034.052c.011.02.02.038.033.053l.034.055.033.055a.644.644 0 0 0 .034.052c.013.02.02.036.032.055l.037.055c.011.017.02.035.032.052l.033.055c.011.017.022.036.035.053l.032.055.034.052c.013.017.022.036.033.055.011.019.023.036.034.053.013.019.022.037.033.054l.034.053.035.055a.52.52 0 0 0 .032.054c.013.017.022.036.035.055l.032.053c.013.017.022.036.035.053a.52.52 0 0 1 .032.054c.011.02.022.034.033.053l.036.055.031.053.036.054c.011.02.02.038.033.053l.034.055a.79.79 0 0 1 .032.052c.013.02.022.038.035.055l.033.055c.01.017.021.036.034.053l.034.054.031.055c.013.015.024.034.036.053.01.018.022.034.031.052l.036.057.033.053c.011.017.022.036.034.052.01.02.022.036.033.053.011.02.02.038.034.057.01.017.022.034.033.05.013.02.023.04.034.055.01.02.022.036.033.055l.034.055.033.05a.94.94 0 0 0 .036.057l.031.053a.547.547 0 0 0 .036.055c.01.017.018.035.031.052l.034.055a.33.33 0 0 1 .033.055l.034.052c.013.017.022.036.035.055l.032.053.035.053c.012.018.02.037.032.054a.519.519 0 0 0 .035.053l.032.055c.011.017.022.036.036.054.01.02.022.034.033.053.01.019.02.038.032.053.013.019.022.038.035.056.011.016.02.034.032.053l.035.055a.79.79 0 0 1 .032.053c.011.017.022.035.035.052l.034.055c.009.017.02.036.033.055l.034.053c.01.018.02.035.033.054l.034.055.033.053c.011.018.02.034.034.052l.033.055c.012.017.02.036.034.053l.033.055c.012.018.02.035.034.052L34 51.8c.013.019.02.036.034.055l.033.052c.014.017.023.036.032.055a.37.37 0 0 1 .036.053 12.937 12.937 0 0 0 1.715 2.149 12.832 12.832 0 0 0 18.302 0 13.141 13.141 0 0 0 1.68-2.095l.033-.054zM17 80.528C24.712 86.455 34.43 90 45 90s20.288-3.545 28-9.472a30.057 30.057 0 0 0-6.182-8.691c-12.05-11.783-31.584-11.783-43.636 0A30.096 30.096 0 0 0 17 80.528" opacity=".798"/>
    </g>
</svg>
