<svg width="24" height="24" viewBox="0 0 24 24" fill="none" xmlns="http://www.w3.org/2000/svg">
    <path d="M4 4h14v17H4V4z" stroke="#ffffff" stroke-linecap="round" stroke-linejoin="round"/>
    <path d="M7 8h8M7 12h8M7 16h5" stroke="#ffffff" stroke-linecap="round"/>
    <path d="M18.375 16H21v4c0 .333-.15 1-.75 1H18" stroke="#ffffff" stroke-linecap="round" stroke-linejoin="round"/>
    <path fill="#ffffff" d="M4 4h14v17H4z"/>
    <path d="M7 8h8M7 12h8M7 16h5" stroke="#2D76F8" stroke-linecap="round"/>
    <path d="M18 16h3v5h-3v-5z" fill="#2D76F8"/>
    <path d="M4 4h14v17H4V4zM18.375 16H21v4c0 .333-.15 1-.75 1H18" stroke="#ffffff" stroke-linecap="round" stroke-linejoin="round"/>
</svg>
