<svg xmlns="http://www.w3.org/2000/svg" width="30" height="30" viewBox="0 0 30 30">
    <g fill="none" fill-rule="evenodd">
        <path d="M0 0H30V30H0z"/>
        <path fill="#979899" fill-rule="nonzero" d="M11.325 7.013l-.162-.012L8.15 7c-.317 0-.594.114-.815.335-.221.221-.335.498-.335.815 0 2.047.39 3.974 1.169 5.778.777 1.8 1.839 3.374 3.184 4.72 1.345 1.344 2.918 2.406 4.719 3.183 1.804.78 3.731 1.169 5.778 1.169.317 0 .594-.114.815-.335.176-.176.285-.384.322-.618l.012-.155.001-3.015c0-.316-.114-.593-.335-.815-.221-.22-.498-.334-.815-.334-.507 0-1.011-.04-1.512-.117-.5-.078-.984-.195-1.45-.35-.191-.07-.4-.084-.611-.04-.162.034-.31.101-.442.201l-.11.095-1.735 1.751.182.097c-.601-.3-1.17-.647-1.706-1.04-.538-.393-1.039-.822-1.504-1.287-.465-.465-.894-.966-1.287-1.504l-.286-.407c-.185-.275-.359-.557-.52-.845l-.139-.255 1.74-1.738c.156-.156.262-.338.315-.542.055-.208.046-.422-.025-.634-.156-.467-.273-.948-.35-1.441-.079-.494-.118-1.002-.118-1.522 0-.317-.113-.594-.334-.815-.177-.177-.39-.286-.633-.322z"/>
    </g>
</svg>
