<svg xmlns="http://www.w3.org/2000/svg" width="30" height="30" viewBox="0 0 30 30">
    <g fill="none" fill-rule="evenodd">
        <path d="M0 0H30V30H0z"/>
        <path fill="#979899" fill-rule="nonzero" d="M15 25.285c1.225-.295 2.354-.808 3.387-1.538s1.93-1.601 2.69-2.612c.76-1.011 1.353-2.136 1.781-3.376.428-1.24.642-2.509.642-3.807V8.285L15 4.5 6.5 8.285v5.667c0 1.298.214 2.568.642 3.807.428 1.24 1.022 2.365 1.782 3.376.76 1.01 1.656 1.881 2.69 2.612 1.032.73 2.161 1.243 3.386 1.538zm0-10.403H8.382v-5.38L15 6.56v8.323zm0 0h6.618c-.132.973-.387 1.91-.763 2.81-.376.9-.852 1.724-1.428 2.469-.575.745-1.236 1.39-1.981 1.937-.745.546-1.56.951-2.446 1.217v-8.433z"/>
    </g>
</svg>
