<svg xmlns="http://www.w3.org/2000/svg" width="30" height="30" viewBox="0 0 30 30">
    <g fill="none" fill-rule="evenodd">
        <path d="M0 0h30v30H0z"/>
        <path fill="#B5B8BC" fill-rule="nonzero" d="M15 14.008c1.11 0 2.055-.39 2.836-1.172.781-.781 1.172-1.727 1.172-2.836 0-1.11-.39-2.055-1.172-2.836-.781-.781-1.727-1.172-2.836-1.172-1.11 0-2.055.39-2.836 1.172-.781.781-1.172 1.727-1.172 2.836 0 1.11.39 2.055 1.172 2.836.781.781 1.727 1.172 2.836 1.172zm7.992 9c0-1.25-.207-2.367-.62-3.352a7.423 7.423 0 0 0-1.712-2.52 7.459 7.459 0 0 0-2.543-1.593 8.722 8.722 0 0 0-3.117-.55c-1.11 0-2.148.183-3.117.55a7.459 7.459 0 0 0-2.543 1.594 7.423 7.423 0 0 0-1.711 2.52c-.414.984-.621 2.1-.621 3.35h15.984z"/>
    </g>
</svg>
