<svg xmlns="http://www.w3.org/2000/svg" width="30" height="30" viewBox="0 0 30 30">
    <g fill="none" fill-rule="evenodd">
        <path d="M0 0h30v30H0z"/>
        <path fill="#979899" fill-rule="nonzero" d="M21 25c.547 0 1.016-.195 1.406-.586.39-.39.586-.86.586-1.406V13c0-.547-.195-1.016-.586-1.406-.39-.39-.86-.586-1.406-.586h-1.008V8.992c0-1.094-.39-2.031-1.172-2.812-.78-.782-1.718-1.172-2.812-1.172h-2.016c-1.094 0-2.031.39-2.812 1.172-.782.78-1.172 1.718-1.172 2.812v2.016H9c-.547 0-1.016.195-1.406.586-.39.39-.586.86-.586 1.406v10.008c0 .547.195 1.015.586 1.406.39.39.86.586 1.406.586h12zm-3-13.992h-6V8.992c0-.547.195-1.015.586-1.406.39-.39.86-.586 1.406-.586h2.016c.547 0 1.015.195 1.406.586.39.39.586.86.586 1.406v2.016zm-1.992 9h-2.016V16h2.016v4.008z"/>
    </g>
</svg>
