<svg xmlns="http://www.w3.org/2000/svg" xmlns:xlink="http://www.w3.org/1999/xlink" width="1920" height="68" viewBox="0 0 1920 68">
    <defs>
        <path id="prefix__a" d="M0 68L1920 68 1920 0 0 0z"/>
    </defs>
    <g fill="none" fill-rule="evenodd">
        <mask id="prefix__b" fill="#fff">
            <use xlink:href="#prefix__a"/>
        </mask>
        <use fill="#0336FF" xlink:href="#prefix__a"/>
        <g mask="url(#prefix__b)">
            <g>
                <path fill="#FFB505" d="M388.688 2.217L387.159 2.704 385.535 2.401 383.883 2.695 382.3 0.8 380.641 0.759 378.985 0.59 377.329 0.882 375.704 2.205 374.028 1.235 372.467 3.135 370.811 2.718 369.063 1.299 367.448 1.834 365.904 2.955 364.149 2.009 362.593 2.868 360.951 2.982 359.153 2.089 357.707 3.506 356.066 3.665 354.565 4.572 353.108 5.613 351.351 5.194 349.857 5.991 348.266 6.358 346.505 6.064 344.548 5.125 343.503 7.499 341.84 7.64 340.304 8.212 338.518 8.016 336.739 7.898 335.066 8.13 334.22 10.608 332.076 9.579 330.615 10.383 328.92 10.608 327.625 11.79 326.023 12.244 324.663 13.241 323.742 15.139 322.099 15.49 320.094 15.155 319.204 17.014 317.968 18.166 316.038 18.045 314.838 19.255 313.471 20.157 311.386 19.872 310.181 21.061 308.301 21.18 307.674 23.239 306.025 23.726 305.368 25.665 304.01 26.569 302.541 27.325 300.225 26.972 299.393 28.601 298.314 29.886 296.71 30.519 296.491 32.824 294.679 33.209 293.176 33.981 291.568 34.651 291.253 36.737 289.95 37.74 287.993 38.072 287.516 39.929 286.669 41.387 285.323 42.359 282.933 42.373 282.942 44.614 281.037 45.118 279.675 46.124 279.351 48.01 278.247 49.231 278.411 51.461 276.823 52.286 274.861 52.851 273.734 54.07 273.273 55.771 271.774 56.728 270.981 58.183 270.93 60.129 268.79 60.698 267.839 62.056 267.082 63.532 267.089 65.457 265.403 66.384 265.236 68.181 264.351 69.57 265.165 71.855 263.514 72.839 261.985 73.912 262.405 75.935 260.053 76.65 259.622 78.269 258.739 79.686 259.104 81.627 257.507 82.755 257.123 84.381 257.466 86.267 257.936 88.171 255.127 88.93 256.473 91.11 255.7 92.574 254.276 93.852 255.371 95.877 254.911 97.435 252.684 98.54 252.02 100.075 251.63 101.683 251.632 103.376 251.454 105.023 250.423 106.499 251.781 108.424 251.895 110.098 250.165 111.485 250.955 113.26 249.488 114.722 251.035 116.56 250.831 118.18 249.796 119.726 249.565 121.644 251.347 121.034 252.935 121.754 254.637 120.94 256.273 121.022 257.81 122.394 259.565 120.943 261.07 122.747 262.802 121.592 264.358 122.765 266.103 121.471 267.565 123.845 269.233 123.555 270.846 123.947 272.552 122.938 274.261 121.952 275.801 123.17 277.389 123.783 279.059 123.339 280.576 124.929 282.339 123.364 283.973 123.492 285.654 123.043 287.192 124.455 288.777 125.216 290.39 125.621 292.19 123.524 293.705 125.166 295.441 123.858 296.936 125.756 298.585 125.59 300.182 126.118 301.852 125.685 303.495 125.61 305.149 125.428 306.791 125.38 308.436 125.35 309.967 126.804 311.671 126.038 313.247 127.009 314.936 126.473 316.676 125.268 318.235 126.398 319.918 125.872 321.517 126.467 323.089 127.391 324.803 126.478 326.411 126.963 328.111 126.264 329.625 128.006 331.238 128.512 332.911 128.209 334.492 129.084 336.225 127.963 337.802 128.867 339.474 128.555 341.224 127.255 342.755 128.845 344.336 129.772 346.038 129.056 347.71 128.779 349.371 128.485 350.947 129.3 352.581 129.435 354.191 129.936 355.879 129.51 357.558 129.113 359.21 129.081 360.835 129.428 362.406 130.517 364.008 131.225 365.771 129.81 367.302 131.469 369.066 130.079 370.74 129.831 372.285 131.27 374.007 130.45 375.609 131.27 377.276 131.3 379.355 131.726 377.792 129.521 378.255 127.917 378.757 126.316 378.862 124.685 380.717 123.186 380.445 121.526 379.688 119.827 378.857 118.123 380.849 116.631 379.85 114.911 380.815 113.342 380.233 111.658 379.494 109.961 380.247 108.389 379.622 106.713 381.093 105.194 380.267 103.499 380.808 101.904 381.225 100.301 382.14 98.731 381.132 97.012 382.722 95.49 382.998 93.866 382.603 92.196 383.114 90.595 382.181 88.884 381.992 87.233 383.673 85.725 382.453 83.996 383.929 82.474 381.529 80.659 383.899 79.206 383.801 77.561 382.971 75.862 382.364 74.178 383.174 72.6 383.123 70.958 384.695 69.434 383.824 67.721 384.944 66.158 383.735 64.422 385.3 62.901 385.487 61.272 384.962 59.591 383.842 57.867 385.286 56.336 383.824 54.58 385.19 53.04 386.08 51.461 386.324 49.83 385.366 48.111 385.031 46.441 385.482 44.831 384.91 43.143 386.936 41.651 385.936 39.929 386.379 38.311 385.327 36.585 385.768 34.972 387.41 33.448 386.612 31.753 386.06 30.072 385.571 28.394 387.152 26.867 387.308 25.227 387.894 23.624 386.539 21.877 386.657 20.237 387.171 18.622 388.22 17.052 387.23 15.323 389.176 13.815 388.665 12.123 389.139 10.506 388.964 8.841 388.747 7.166 387.921 5.44 388.993 3.845z" transform="translate(-22 -88)"/>
                <path stroke="#36BA75" stroke-width="10" d="M1334.209 160.757L1335.929 160.7 1337.447 161.434 1339.18 161.243 1340.733 161.848 1342.454 161.601 1343.962 162.5 1345.647 162.372 1347.243 162.801 1348.846 163.237 1350.485 163.39 1352.102 163.799 1353.794 163.313 1355.426 163.472 1357.066 163.541 1358.699 163.847 1360.34 163.922 1361.987 163.797 1363.628 163.833 1365.252 163.226 1366.896 163.374 1368.544 163.486 1370.209 163.708 1371.814 163.212 1373.483 163.358 1375.161 163.518 1376.783 163.187 1378.436 163.091 1379.913 161.946 1381.562 161.841 1383.11 161.222 1384.861 161.544 1386.296 160.46 1388.086 160.857 1389.668 160.385 1391.02 159.139 1392.591 158.689 1394.285 158.602 1395.829 158.048 1397.357 157.445 1398.807 156.633 1400.693 156.959 1401.871 155.482 1403.445 155.001 1405.032 154.528 1406.532 153.86 1408.267 153.67 1409.761 152.961 1410.805 151.395 1412.294 150.703 1413.772 149.982 1415.445 149.592 1416.832 148.697 1418.143 147.686 1419.142 146.203 1420.822 145.774 1422.436 145.217 1423.209 143.462 1424.844 142.923 1426.511 142.394 1427.69 141.219 1428.853 140.036 1430.109 138.975 1431.441 137.996 1432.718 136.951 1433.347 135.205 1435.096 134.666 1436.088 133.322 1437.23 132.142 1437.967 130.572 1439.474 129.739 1440.662 128.598 1441.606 127.238 1443.129 126.373 1444.278 125.177 1444.566 123.299 1445.756 122.146 1446.91 120.957 1447.311 119.218 1448.504 118.054 1449.201 116.548 1450.011 115.126 1451.548 114.161 1452.309 112.695 1453.561 111.522 1454.069 109.916 1454.747 108.409 1455.64 107.02 1456.591 105.652 1457.104 104.066 1457.962 102.649 1458.869 101.246 1458.981 99.497 1459.827 98.066 1459.87 96.316 1461.072 95.011 1461.377 93.37 1462.187 91.902 1462.971 90.421 1463.19 88.755 1463.899 87.24 1463.92 85.526" transform="translate(-22 -88)"/>
                <path fill="#FFFD45" d="M544.566 183.298L544.014 184.948 543.73 186.582 543.888 188.249 543.916 189.915 542.133 191.337 541.249 192.824 542.377 194.677 543.082 196.519 542.091 197.982 542.039 199.685 540.745 201.012 540.178 202.546 538.319 203.578 539.546 205.83 537.378 206.658 537.113 208.315 537.706 210.458 535.067 210.88 535.898 213.25 535.099 214.705 533.437 215.58 531.478 216.179 531.407 218.142 530.161 219.232 528.399 219.854 527.408 221.112 526.479 222.439 526.522 224.782 524.707 225.254 524.192 227.144 522.798 228.062 521.617 229.239 519.587 229.275 517.95 229.765 516.87 231.064 515.844 232.505 514.427 233.339 513.198 234.538 511.111 234.062 509.65 234.76 508.403 235.97 506.395 235.327 505.459 237.454 503.976 238.218 502.356 238.569 500.449 237.807 499.117 239.216 497.611 240.064 495.8 239.334 494.383 240.919 492.493 239.093 490.996 240.486 489.32 240.002 487.713 240.848 486.058 239.613 484.408 240.869 482.824 239.603 481.064 241.16 479.626 239.047 477.793 240.483 476.296 239.405 474.577 239.658 472.821 239.923 471.478 238.477 470.162 237.158 468.372 237.456 467.067 236.257 465.559 235.687 463.911 235.446 462.464 234.709 460.468 235.09 458.93 234.461 458.426 231.994 456.204 232.569 455.204 231.085 453.913 230.091 452.892 228.737 451.74 227.597 449.371 227.958 448.179 226.811 446.787 225.89 446.027 224.299 444.203 223.788 444.567 221.203 442.081 221.231 442.463 218.783 439.87 218.755 439.222 217.173 439.659 214.88 436.858 214.777 437.448 212.48 435.404 211.778 436.045 209.569 435.8 207.898 434.518 206.731 433.218 205.53 431.811 204.328 432.266 202.411 431.998 200.79 431.254 199.325 431.028 197.704 430.966 196.06 430.73 194.465 430.57 192.867 428.982 191.476 429.348 189.785 428.418 188.233 427.684 186.628 429.989 184.896 429.185 183.298 428.38 181.656 427.984 179.992 430.073 178.504 429.815 176.865 430.497 175.331 428.826 173.423 430.305 172.035 429.65 170.22 429.849 168.567 430.369 166.997 431.58 165.652 431.877 164.027 431.918 162.285 433.209 161.036 434.507 159.832 433.633 157.605 435.468 156.696 437.267 155.839 436.533 153.534 437.316 152.082 438.732 151.052 440.099 150.026 440.543 148.326 441.502 146.994 442.065 145.314 444.249 145.066 444.249 142.811 446.339 142.577 448.112 142.102 449.312 141.045 449.339 138.558 451.571 138.736 452.333 137.051 453.725 136.187 454.991 135.136 455.854 133.397 458.47 134.626 459.887 133.88 461.182 132.891 462.659 132.253 463.972 131.234 465.149 129.8 466.586 128.943 468.115 128.298 469.983 128.774 471.608 128.555 472.824 126.62 474.563 126.807 476.394 127.707 477.914 126.928 479.617 127.443 481.103 125.872 482.856 127.637 484.41 125.882 486.058 125.822 487.704 125.95 489.279 127.263 491.03 125.704 492.664 126.039 494.2 126.987 495.802 127.304 497.228 128.48 499.112 127.464 500.941 126.98 502.291 128.302 503.685 129.328 505.663 128.635 506.732 130.468 508.771 129.821 509.433 132.369 511.14 132.533 512.248 133.901 514.446 133.274 515.56 134.612 516.883 135.563 518.023 136.773 519.497 137.489 521.166 137.983 522.07 139.465 524.029 139.684 524.512 141.594 526.408 141.973 526.188 144.48 527.879 145.093 529.395 145.921 529.704 147.774 530.477 149.203 532.572 149.657 533.089 151.287 534.176 152.515 534.698 154.099 534.913 155.834 536.28 156.919 537.033 158.348 538.175 159.602 537.873 161.499 538.441 162.994 540.164 164.075 541.478 165.367 541.515 167.084 540.464 169.055 540.906 170.594 542.554 171.898 542.101 173.635 542.222 175.251 543.561 176.724 542.405 178.474 542.542 180.077 543.021 181.675zM1603.331 144.22L1603.704 145.805 1605.033 147.516 1604.836 149.155 1604.016 150.684 1603.573 152.249 1602.114 153.531 1602.363 155.261 1601.838 156.779 1601.559 158.403 1601.419 160.136 1600.078 161.288 1599.68 162.937 1597.699 163.604 1597.367 165.319 1596.723 166.868 1596.207 168.587 1593.521 168.342 1593.4 170.483 1592.091 171.481 1591.284 173.083 1590.134 174.33 1588.163 174.41 1587.234 176.031 1585.353 176.081 1583.771 176.569 1582.476 177.664 1581.253 179.082 1579.045 177.762 1578.026 180.06 1576.057 179.007 1574.411 178.989 1572.795 178.996 1571.393 181.169 1569.653 179.924 1568.031 181.01 1566.41 179.912 1564.758 180.18 1562.952 181.316 1561.405 180.352 1559.929 179.343 1558.306 179.08 1556.585 179.073 1555.345 177.667 1554.048 176.589 1551.953 177.252 1550.552 176.36 1549.358 175.144 1547.841 174.484 1546.473 173.575 1545.73 171.887 1544.094 171.327 1542.373 170.771 1541.509 169.308 1540.516 168.004 1538.538 167.492 1537.466 166.192 1536.728 164.665 1537.122 162.492 1535.515 161.533 1534.77 160.07 1534.211 158.525 1534.99 156.491 1533.641 155.277 1533.475 153.658 1532.433 152.263 1530.913 150.886 1531.067 149.176 1532.375 147.398 1531.708 145.835 1532.061 144.22 1532.057 142.618 1531.697 140.979 1532.366 139.436 1533.051 137.935 1532.183 136.12 1532.155 134.419 1533.013 132.956 1534.431 131.736 1535.227 130.341 1536.162 129.027 1535.08 126.666 1536.329 125.469 1537.915 124.539 1538.841 123.225 1539.68 121.837 1540.464 120.377 1541.949 119.533 1542.762 118.056 1544.298 117.33 1544.513 115.028 1546.18 114.447 1548.46 114.867 1548.829 112.408 1550.316 111.637 1552.102 111.481 1553.789 111.24 1555.084 110.074 1556.956 110.487 1557.967 108.128 1559.913 109.024 1561.322 107.638 1562.963 107.196 1564.73 107.947 1566.396 108.228 1568.031 108.135 1569.649 108.618 1571.361 107.629 1572.96 108.221 1574.615 108.33 1576.224 108.704 1577.936 108.707 1579.518 109.24 1581.177 109.559 1582.023 111.83 1583.684 112.054 1585.486 112.127 1586.955 112.88 1588.144 114.071 1589.916 114.413 1590.147 116.779 1591.697 117.419 1594.094 117.246 1593.957 119.694 1596.143 119.918 1596.741 121.567 1597.415 123.096 1598.802 124.124 1599.1 125.852 1600.438 126.963 1602.015 128.023 1601.653 129.996 1603.042 131.216 1603.328 132.867 1603.94 134.41 1604.146 136.059 1603.438 137.855 1604.156 139.373 1604.891 140.933 1603.952 142.621z" transform="translate(-22 -88)"/>
                <path stroke="#FF7F05" stroke-width="8" d="M82.564 157.314L81.944 155.817 82.673 153.912 81.064 152.731 80.824 151.112 80.402 149.539 79.546 148.142 78.702 146.753 78.518 145.063 78.155 143.43 77.023 142.188 76.234 140.774 75.197 139.51 74.911 137.784 73.709 136.628 73.293 134.943 71.832 133.99 70.923 132.649 70.31 131.059 68.779 130.217 67.624 129.082 67.022 127.433 65.632 126.514 64.454 125.397 63.224 124.338 62.356 122.87 60.935 122.026 59.59 121.106 57.859 120.699 56.595 119.71 55.449 118.538 54.565 116.948 52.688 116.874 51.558 115.616 49.793 115.448 48.775 113.94 47.273 113.309 45.934 112.336 44.239 112.144 42.794 111.406 41.274 110.845 39.976 109.66 38.427 109.14 36.578 109.597 35.125 108.803 33.689 107.866 31.922 108.28 30.372 107.794 28.877 106.952 27.221 107 25.553 107.235 23.972 106.841 22.357 106.758 20.773 106.183 19.149 106 17.513 106.966 15.902 106.649 14.282 106.552 12.658 106.52 11.054 106.798 9.381 106.375 7.746 106.452 6.221 107.26 4.501 106.882 3.108 108.201 1.314 107.633 0 109.079" transform="translate(-22 -88)"/>
                <path fill="#80A0FF" d="M1649.391 61L1649.812 62.455 1649.98 64.175 1649.065 65.71 1649.939 67.486 1648.211 69 1648 70.686 1649.416 72.382 1648.908 74.043 1649.527 75.669 1650.327 77.236 1648.342 79.149 1648.999 80.753 1649.452 82.375 1650.848 83.752 1650.08 85.681 1651.559 86.964 1652.372 88.417 1652.794 90.006 1654.187 91.177 1654.79 92.669 1654.522 94.646 1654.942 96.309 1655.211 98.107 1656.367 99.365 1657.776 100.412 1658.442 101.998 1660.424 102.504 1661.013 104.172 1662.459 105.065 1663.99 105.826 1665.193 106.898 1665.454 109.107 1667.291 109.446 1668.249 110.905 1669.656 111.771 1671.074 112.6 1672.678 113.104 1673.813 114.438 1675.703 114.314 1677.135 115.068 1678.1 117.001 1679.797 117.201 1681.718 116.601 1682.769 118.791 1684.296 119.558 1685.988 119.668 1687.853 118.69 1689.312 120.003 1691.095 118.898 1692.706 119.043 1694.273 120.564 1695.941 120.866 1697.577 119.689 1699.215 119.677 1700.891 119.991 1702.577 120.12 1704.298 120.307 1705.787 119.221 1707.556 119.503 1709.033 118.557 1710.694 118.307 1711.911 116.756 1713.46 116.241 1714.668 114.93 1716.084 114.158 1717.416 113.242 1719.598 113.833 1720.168 111.606 1721.77 111.123 1723.85 111.244 1725.438 110.575 1725.579 108.119 1727.767 108.142 1727.599 105.549 1729.641 105.308 1731.127 104.433 1731.381 102.467 1733.345 101.947 1734.21 100.515 1734.031 98.373 1735.18 97.189 1735.538 95.509 1737.38 94.678 1739.188 93.727 1739.222 91.881 1740.497 90.6 1740.882 88.939 1740.805 87.136 1740.887 85.427 1741.129 83.789 1741.487 82.185 1741.716 80.556 1743.401 79.136 1742.416 77.33 1743.501 75.752 1742.251 74.02 1742.409 72.382 1743.46 70.7 1743.15 69.039 1741.6 67.525 1743.1 65.676 1742.26 64.12 1742.004 62.478 1740.558 61.131 1740.495 61z" transform="translate(-22 -88)"/>
            </g>
        </g>
        <g mask="url(#prefix__b)">
            <g>
                <g fill="#FFF">
                    <g>
                        <path d="M206.067.349l.026.332-.157.301-.07.317.055.335-.117.307-.115.307.017.33-.01.325-.052.318.03.332-.188.294.102.342-.276.279.014.329.013.327-.04.318-.042.316-.132.301.044.333-.17.297.083.34-.058.315-.034.32-.197.292-.013.323-.09.31-.105.307.11.344-.231.287.038.331.018.328-.077.312-.107.306-.008.323-.066.313-.137.301-.088.31-.025.32.144.35-.166.298-.126.303-.023.32-.063.314-.116.304.108.341-.094.308-.015.32-.07.311.035.329-.11.304-.105.301.29.17.356-.128.284.224.335-.04.306.1.335-.043.308.096.31.084.292.175.343-.083.287.197.335-.045.284.206.32.024.33-.015.263.005.06-.259.17-.295.028-.325.145-.299-.109-.355.083-.31.264-.271.071-.315.09-.31.078-.312-.064-.345.143-.297.066-.314.153-.294-.02-.335-.021-.334.092-.307.22-.277-.147-.36.142-.297.011-.327.255-.27.004-.33-.047-.34.182-.287.169-.29-.06-.342.047-.318.25-.273.076-.311-.093-.351.014-.326.122-.3.233-.274.045-.318.013-.325-.056-.341.284-.263-.06-.343.073-.312.003-.329.128-.299-.009-.33.134-.297.056-.314.26-.268-.083-.346.165-.289.018-.323-.032-.334.26-.266-.019-.33-.334.015-.306-.13-.292-.2-.322-.044-.353.12-.303-.136-.314-.077-.333.01-.324-.026-.277-.264-.358.139-.29-.194-.309-.096-.305-.117-.365.175-.315-.07-.29-.181-.315-.058-.339-.09-.065.349zm-2.121 18.997l-.26.172-.303.064-.339.033-.248.197-.111.341-.261.167-.196.234-.09.298-.09.284-.293.224.128.345-.178.278-.054.307-.045.316.285.267.066.284-.007.322.142.272.136.277.154.275.203.241.233.213.333.067.23.215.287.12.27.177.327-.018.317-.048.3.04.315.145.277-.26.307.002.265-.154.357.045.237-.214.18-.27.303-.107.287-.156.082-.326.132-.27.296-.204.109-.3-.091-.34-.013-.306.069-.294.151-.315-.075-.31-.14-.285-.232-.233.052-.371-.284-.186-.188-.24-.26-.171-.188-.241-.293-.106-.229-.203-.282-.107-.233-.28-.34.08-.289-.142-.311.033-.299.114-.327-.153-.281.16zM63.135 3.462L62.816 3.541 62.491 3.462 62.174 3.528 61.849 3.522 61.541 3.636 61.222 3.668 60.928 3.82 60.589 3.779 60.254 3.781 59.996 4.03 59.646 4.001 59.337 4.097 59.046 4.243 58.838 4.556 58.516 4.622 58.217 4.741 57.941 4.903 57.603 4.968 57.328 5.139 57.206 5.52 56.918 5.665 56.647 5.837 56.315 5.944 56.216 6.31 55.844 6.385 55.644 6.64 55.482 6.926 55.262 7.158 55 7.359 54.956 7.726 54.786 7.993 54.493 8.18 54.265 8.416 54.172 8.733 54.103 9.056 53.786 9.255 53.747 9.59 53.673 9.903 53.468 10.166 53.509 10.517 53.23 10.763 53.156 11.076 53.017 11.372 53.029 11.704 52.913 12.009 52.934 12.337 52.894 12.654 53.001 12.982 52.766 13.288 52.887 13.612 52.948 13.933 52.975 14.255 52.811 14.577 52.759 14.899 52.818 15.22 52.987 15.541 52.982 15.862 52.8 16.184 52.826 16.506 52.961 16.828 52.862 17.15 52.749 17.472 52.871 17.793 52.94 18.113 52.754 18.432 52.816 18.753 52.743 19.074 52.969 19.398 52.815 19.719 52.794 20.041 52.891 20.362 52.985 20.686 52.902 21.008 52.908 21.33 52.836 21.654 52.975 21.977 52.969 22.3 52.951 22.623 52.953 22.947 52.756 23.271 52.745 23.597 52.912 23.876 53.182 23.929 53.501 23.885 53.82 23.982 54.139 24.007 54.458 23.936 54.777 23.858 55.097 23.82 55.417 23.965 55.736 23.858 56.057 23.995 56.378 23.847 56.697 23.962 57.017 23.984 57.338 24.019 57.659 23.912 57.982 23.95 58.254 23.866 58.393 23.637 58.198 23.351 58.312 23.064 58.363 22.778 58.422 22.462 58.333 22.146 58.351 21.828 58.313 21.511 58.356 21.192 58.194 20.874 58.257 20.556 58.268 20.239 58.238 19.921 58.312 19.604 58.427 19.287 58.229 18.968 58.201 18.648 58.237 18.327 58.321 18.006 58.335 17.686 58.29 17.367 58.346 17.047 58.37 16.728 58.298 16.408 58.207 16.088 58.388 15.768 58.222 15.448 58.276 15.13 58.313 14.81 58.273 14.489 58.419 14.17 58.4 13.855 58.415 13.547 58.306 13.223 58.471 12.931 58.443 12.604 58.607 12.326 58.704 12.03 58.818 11.74 58.905 11.43 59.014 11.123 59.381 10.998 59.459 10.659 59.773 10.526 59.946 10.254 60.19 10.059 60.425 9.843 60.663 9.619 60.977 9.531 61.292 9.466 61.555 9.259 61.868 9.188 62.2 9.224 62.5 9.099 62.818 9.084 63.135 9.061 63.451 9.115 63.756 9.223 64.096 9.09 64.406 9.178 64.697 9.316 64.975 9.476 65.278 9.567 65.521 9.778 65.793 9.926 66.057 10.092 66.323 10.259 66.564 10.461 66.755 10.711 66.931 10.968 67.223 11.146 67.309 11.464 67.421 11.756 67.553 12.036 67.732 12.304 67.7 12.637 67.972 12.899 67.978 13.221 67.945 13.541 68.042 13.855 67.989 14.173 68.066 14.489 67.923 14.807 68.011 15.124 67.939 15.441 67.839 15.759 67.998 16.075 67.873 16.392 67.935 16.71 67.975 17.028 68.085 17.345 67.955 17.662 67.97 17.98 67.947 18.298 67.966 18.617 67.864 18.937 68.041 19.256 68.045 19.576 67.933 19.895 67.953 20.214 67.941 20.533 68.044 20.852 67.896 21.172 67.944 21.491 68.055 21.81 67.93 22.128 68.039 22.444 67.908 22.738 68.022 23.033 67.908 23.329 67.976 23.626 67.894 24.005 68.29 23.835 68.608 23.848 68.929 23.909 69.247 23.998 69.566 23.844 69.884 23.885 70.205 23.905 70.525 23.968 70.844 23.986 71.165 23.868 71.485 24.029 71.805 24.018 72.124 24.03 72.446 23.87 72.767 23.836 73.09 23.954 73.445 23.954 73.323 23.601 73.374 23.279 73.349 22.957 73.494 22.635 73.368 22.313 73.477 21.992 73.411 21.671 73.471 21.349 73.484 21.027 73.356 20.705 73.328 20.383 73.348 20.061 73.373 19.739 73.478 19.419 73.29 19.1 73.477 18.779 73.363 18.457 73.515 18.133 73.35 17.812 73.287 17.49 73.388 17.168 73.479 16.845 73.397 16.522 73.386 16.199 73.448 15.875 73.464 15.552 73.331 15.229 73.423 14.906 73.325 14.582 73.291 14.257 73.392 13.932 73.473 13.606 73.445 13.285 73.48 12.961 73.412 12.643 73.208 12.347 73.303 12.011 73.3 11.684 73.094 11.402 73.156 11.057 73.021 10.761 72.943 10.448 72.71 10.192 72.638 9.879 72.513 9.586 72.28 9.344 72.297 8.98 72.042 8.755 71.884 8.479 71.675 8.236 71.581 7.918 71.311 7.719 71.149 7.445 71.044 7.119 70.813 6.894 70.663 6.595 70.347 6.454 70.204 6.139 69.923 5.97 69.658 5.786 69.414 5.577 69.193 5.334 68.889 5.206 68.666 4.959 68.327 4.895 68.011 4.806 67.77 4.579 67.491 4.421 67.215 4.25 66.853 4.287 66.63 3.975 66.252 4.089 65.99 3.856 65.686 3.75 65.36 3.73 65.064 3.572 64.733 3.597 64.402 3.663 64.09 3.584 63.779 3.467 63.457 3.473zM42.855 16.815l.021.34-.033.338-.041.338-.046.34-.108.327-.278.252.103.05-.203.262-.153.282-.082.33-.177.276-.252.214-.212.247-.3.155-.182.292-.342.083-.27.173-.297.122-.266.186-.235.254-.339-.043-.305.041-.273.225-.33-.147-.298.191-.313-.016-.31-.063-.303-.066-.326.048-.263-.23-.317-.016-.256-.19-.282-.147-.287-.14-.27-.171-.27-.172-.244-.209-.222-.23-.2-.248-.231-.225-.17-.273-.35-.165-.049-.347-.143-.292-.187-.294-.145-.315.119-.376-.229-.305.101-.35-.02-.336.02-.332.007-.335.028-.335.014-.344.11-.322.145-.308.13-.301.121-.309.226-.246.14-.303.35-.134.222-.229.118-.343.328-.113.234-.224.228-.247.372.01.27-.171.32-.092.274-.253.354.03.308-.223.355.133.334.013.34-.138.316.204.333.012.343-.003.328.08.268.235.333.051.319.102.29.162.287.172.154.328.315.144.22.246.212.253.082.341.268.217.118.307.138.296.046.342.142.304.054.33.067.327.16.324-.076.342zm2.16-7.23l-.026.02-.236-.227-.252-.208-.272-.184-.252-.206-.164-.328-.335-.095-.234-.242-.28-.173-.338-.07-.296-.136-.268-.197-.305-.121-.257-.203-.332-.005-.257-.226-.303-.088-.297-.117-.321-.018-.338.092-.285-.191-.309-.075-.33.138-.299-.208-.321.158-.312-.021-.313-.04-.315-.016-.304.129-.329-.127-.3.12-.325-.032-.314.048-.304.085-.306.08-.298.107-.302.091-.304.09-.302.099-.288.17-.306.125-.194.335-.346.052-.278.174-.234.24-.238.226-.383.035-.147.34-.337.11-.238.227-.243.223-.212.255-.201.263-.164.291-.213.249-.219.246-.18.275-.143.296-.221.25-.106.317-.315.207-.151.298.02.37-.234.245-.07.31-.016.325-.27.248-.039.318-.097.303.098.34-.16.292.126.333-.2.294-.047.313.135.32-.177.312.046.317.094.311.041.312-.095.326.135.3.114.299.08.302.1.295-.068.343.197.268.092.298.113.292-.005.34.229.232.095.29.144.269.073.307.192.241.142.272.18.247.28.173.022.365.243.199.32.124.049.367.221.212.305.16.26.2.255.203.281.17.212.26.244.224.23.253.317.113.335.074.3.13.257.218.324.076.262.189.281.148.286.145.332-.007.33-.027.27.215.31.065.303.101.316.029.321-.042.31.071.32-.149.31-.002.316.115.313-.029.32.039h.318l.291-.188.33.07.282-.194.318-.016.295-.109.283-.141.291-.11.349.038.231-.261.394.072.278-.187.303-.137.201-.313.334-.083.325-.108.224-.258.227-.245.2-.273.41-.026.173-.302.293-.173.234-.238.217-.25.064-.377.185-.268.348-.15.189-.271.082-.338.167-.282.1-.318.35-.187.083-.327.146-.296.102-.299.007-.331.224-.257.022-.321-.026-.33.119-.29.115-.297.145-.295-.015-.32.013-.315.092-.31-.07-.318.052-.314.008-.316.01-.316-.086-.31-.114-.303-.036-.31.102-.335-.147-.293-.109-.296-.042-.312-.023-.322-.158-.28-.075-.308-.04-.324-.361-.201-.033-.348-.155-.29-.203-.263-.183-.272-.088-.335-.264-.217-.173-.28-.13-.32-.223-.244-.335-.142-.168-.293zM143.19 12.256L143.014 11.996 142.963 11.644 142.651 11.484 142.547 11.161 142.242 11.007 141.994 10.809 141.854 10.508 141.647 10.268 141.303 10.178 141.144 9.882 140.903 9.678 140.596 9.563 140.455 9.216 140.134 9.126 139.851 8.984 139.666 8.727 139.56 8.874 139.338 8.665 139.115 8.445 139.097 8.431 138.671 8.469 138.392 8.177 137.986 8.203 137.956 8.143 137.704 8.088 137.451 8.042 137.447 7.836 137.156 7.951 136.951 7.725 136.894 7.663 136.616 7.776 136.379 7.712 136.283 7.792 135.833 7.614 135.788 7.677 135.731 7.634 135.277 7.582 135.248 7.447 135.175 7.442 134.892 7.456 134.609 7.608 134.332 7.629 134.05 7.563 133.984 7.598 133.95 7.659 133.473 7.493 133.424 7.617 133.373 7.503 132.917 7.672 132.853 7.778 132.572 7.619 132.347 7.754 132.282 7.779 132.014 7.751 131.828 8.027 131.722 7.885 131.459 7.912 131.232 8.052 131.185 8.071 130.853 8.242 130.535 8.437 130.167 8.518 130.197 8.658 130.071 8.526 129.9 8.694 129.784 8.431 129.687 8.122 129.816 7.814 129.846 7.506 129.851 7.198 129.73 6.888 129.767 6.58 129.739 6.271 129.871 5.961 129.834 5.651 129.779 5.342 129.804 5.034 129.731 4.723 129.8 4.413 129.86 4.101 129.848 3.724 129.44 3.707 129.091 3.738 128.742 3.67 128.656 3.73 128.339 3.776 128.021 3.666 127.702 3.716 127.383 3.836 127.065 3.837 126.747 3.812 126.428 3.731 126.108 3.879 125.787 3.701 125.466 3.694 125.381 3.798 125.033 3.697 124.684 3.756 124.339 3.793 124.43 4.109 124.293 4.429 124.295 4.75 124.233 5.07 124.41 5.39 124.327 5.709 124.332 6.029 124.434 6.349 124.331 6.666 124.312 6.984 124.253 7.302 124.252 7.621 124.307 7.94 124.317 8.259 124.34 8.579 124.427 8.899 124.438 9.219 124.39 9.539 124.325 9.858 124.371 10.178 124.348 10.496 124.322 10.815 124.353 11.134 124.26 11.453 124.289 11.771 124.367 12.089 124.391 12.408 124.319 12.726 124.369 13.046 124.301 13.365 124.23 13.684 124.269 14.005 124.346 14.326 124.39 14.646 124.323 14.967 124.308 15.287 124.334 15.607 124.394 15.927 124.358 16.246 124.329 16.566 124.338 16.886 124.441 17.206 124.313 17.527 124.249 17.849 124.454 18.169 124.393 18.49 124.377 18.81 124.406 19.13 124.419 19.451 124.271 19.772 124.247 20.094 124.388 20.415 124.345 20.736 124.391 21.056 124.44 21.375 124.266 21.694 124.326 22.013 124.245 22.335 124.354 22.657 124.336 22.977 124.222 23.298 124.317 23.619 124.252 23.942 124.34 24.263 124.349 24.586 124.332 24.908 124.383 25.23 124.27 25.552 124.363 25.874 124.392 26.197 124.399 26.521 124.242 26.845 124.312 27.192 124.653 27.244 124.971 27.186 125.291 27.232 125.61 27.146 125.928 27.275 126.247 27.071 126.567 27.055 126.887 27.205 127.207 27.17 127.527 27.13 127.847 27.162 128.167 27.102 128.487 27.147 128.808 27.226 129.129 27.122 129.452 27.206 129.735 27.128 129.844 26.872 129.804 26.574 129.762 26.276 129.73 25.979 129.73 25.68 129.714 25.381 129.678 25.081 129.683 24.781 129.85 24.467 129.736 24.152 129.813 23.84 129.816 23.527 129.711 23.212 129.695 22.899 129.758 22.585 129.745 22.269 129.84 21.953 129.731 21.637 129.869 21.321 129.869 21.006 129.909 20.688 129.856 20.374 129.7 20.06 129.844 19.76 129.877 19.459 129.703 19.159 129.891 18.858 129.717 18.556 129.734 18.254 129.78 17.951 129.819 17.632 129.742 17.301 129.951 17.008 129.943 16.681 130.114 16.399 130.234 16.108 130.348 15.815 130.495 15.536 130.645 15.257 130.836 15.006 131.052 14.776 131.285 14.564 131.493 14.326 131.755 14.149 131.905 13.797 132.25 13.744 132.537 13.601 132.808 13.411 133.104 13.261 133.445 13.381 133.703 13.15 134.019 13.243 134.313 13.21 134.61 13.211 134.925 13.193 135.243 13.193 135.568 13.177 135.88 13.256 136.179 13.371 136.483 13.468 136.793 13.558 137.05 13.758 137.357 13.868 137.509 14.201 137.745 14.4 138.091 14.489 138.217 14.804 138.448 15.019 138.703 15.227 138.705 15.593 138.887 15.847 138.987 16.14 139.247 16.38 139.228 16.714 139.464 16.988 139.345 17.328 139.348 17.64 139.508 17.952 139.335 18.274 139.378 18.598 139.459 18.922 139.477 19.246 139.348 19.569 139.443 19.893 139.507 20.218 139.527 20.542 139.559 20.867 139.405 21.193 139.518 21.517 139.511 21.842 139.516 22.166 139.384 22.492 139.501 22.818 139.462 23.146 139.468 23.474 139.375 23.471 139.419 23.78 139.394 24.088 139.406 24.395 139.534 24.702 139.329 25.011 139.394 25.318 139.558 25.625 139.345 25.933 139.357 26.241 139.454 26.55 139.48 26.86 139.473 27.132 139.753 27.073 140.071 27.157 140.391 27.201 140.71 27.288 141.028 27.22 141.347 27.119 141.667 27.095 141.987 27.18 142.307 27.117 142.627 27.194 142.948 27.237 143.267 27.283 143.587 27.181 143.908 27.069 144.229 27.218 144.552 27.22 144.944 27.241 144.958 26.854 144.882 26.539 144.93 26.223 144.764 25.908 144.757 25.593 144.878 25.277 144.863 24.961 144.927 24.645 144.961 24.329 144.812 24.013 144.938 23.697 144.802 23.384 144.859 23.07 144.83 22.755 144.775 22.44 144.764 22.123 144.921 21.807 144.765 21.492 144.992 21.176 144.946 20.859 144.965 20.542 144.789 20.226 144.892 19.908 144.98 19.591 144.895 19.274 144.834 18.957 144.745 18.64 144.994 18.321 144.885 18.002 144.965 17.682 144.963 17.358 144.938 17.035 144.716 16.733 144.656 16.421 144.798 16.077 144.738 15.759 144.556 15.471 144.475 15.162 144.32 14.875 144.437 14.503 144.265 14.221 144.16 13.917 144.019 13.627 143.786 13.383 143.761 13.037 143.545 12.788 143.29 12.568zM111.609 4.176L111.283 4.215 110.966 4.216 110.649 4.27 110.333 4.094 110.017 4.116 109.701 4.146 109.382 4.188 109.065 4.311 108.749 4.228 108.43 4.103 108.113 4.073 107.795 4.278 107.479 4.181 107.16 4.148 106.841 4.087 106.521 4.127 106.256 4.247 106.17 4.481 106.183 4.776 106.232 5.072 106.197 5.367 106.213 5.664 106.197 5.961 106.098 6.334 106.107 6.647 106.16 6.96 106.208 7.272 106.198 7.585 106.281 7.898 106.162 8.212 106.145 8.526 106.212 8.84 106.145 9.153 106.126 9.466 106.327 9.778 106.259 10.089 106.212 10.401 106.105 10.714 106.306 11.029 106.313 11.342 106.26 11.655 106.162 11.969 106.265 12.284 106.179 12.598 106.223 12.912 106.192 13.227 106.222 13.542 106.31 13.857 106.156 14.171 106.225 14.486 106.211 14.802 106.323 15.119 106.242 15.436 106.197 15.78 106.233 16.124 106.245 16.468 106.193 16.501 106.227 16.836 106.147 17.172 106.113 17.509 106.307 17.839 106.156 18.179 106.295 18.508 106.184 18.85 106.177 19.189 106.25 19.509 106.178 19.84 106.357 20.145 106.469 20.451 106.371 20.794 106.531 21.088 106.482 21.434 106.664 21.717 106.885 21.978 106.877 22.323 106.979 22.629 107.216 22.87 107.262 23.208 107.446 23.474 107.655 23.721 107.834 23.986 108.112 24.173 108.143 24.567 108.455 24.718 108.679 24.945 108.855 25.23 109.166 25.359 109.441 25.524 109.673 25.748 109.954 25.901 110.258 26.013 110.427 26.365 110.717 26.506 111.065 26.523 111.366 26.626 111.616 26.86 111.905 27.007 112.207 27.12 112.536 27.146 112.867 27.15 113.137 27.387 113.473 27.355 113.797 27.366 114.094 27.534 114.406 27.613 114.746 27.487 115.06 27.565 115.387 27.53 115.677 27.512 115.967 27.594 116.262 27.695 116.459 27.678 116.739 27.652 117.019 27.664 117.302 27.589 117.497 27.547 117.618 27.319 117.529 27.01 117.469 26.701 117.695 26.39 117.634 26.081 117.488 25.772 117.515 25.462 117.529 25.151 117.614 24.841 117.647 24.53 117.688 24.219 117.653 23.908 117.657 23.598 117.653 23.288 117.686 22.976 117.587 22.664 117.51 22.351 117.62 21.995 117.224 21.98 116.864 21.945 116.505 21.97 116.179 22.081 115.866 21.95 115.539 21.997 115.24 21.804 114.922 21.783 114.614 21.702 114.283 21.72 113.979 21.62 113.703 21.453 113.326 21.519 113.076 21.294 112.833 21.08 112.648 20.814 112.342 20.665 112.175 20.388 112.124 20.058 111.804 19.842 111.738 19.519 111.825 19.171 111.674 18.873 111.629 18.554 111.562 18.236 111.504 17.914 111.703 17.586 111.652 17.285 111.714 16.982 111.716 16.682 111.51 16.379 111.708 16.076 111.501 15.772 111.525 15.469 111.717 15.165 111.648 14.863 111.595 14.698 111.909 14.811 112.222 14.645 112.535 14.799 112.849 14.62 113.164 14.802 113.478 14.795 113.792 14.674 114.106 14.609 114.422 14.787 114.737 14.622 115.052 14.825 115.368 14.7 115.684 14.819 115.999 14.654 116.314 14.618 116.63 14.642 116.947 14.577 117.265 14.719 117.494 14.614 117.471 14.38 117.663 14.057 117.507 13.732 117.467 13.409 117.542 13.086 117.48 12.762 117.513 12.437 117.482 12.113 117.701 11.789 117.692 11.463 117.479 11.138 117.706 10.814 117.547 10.49 117.471 10.164 117.511 9.838 117.502 9.51 117.517 9.247 117.271 9.243 116.959 9.307 116.646 9.257 116.331 9.139 116.016 9.064 115.702 9.202 115.388 9.293 115.074 9.249 114.758 9.182 114.443 9.127 114.128 9.254 113.812 9.258 113.497 9.114 113.182 9.193 112.867 9.171 112.55 9.278 112.233 9.239 111.915 9.226 111.664 9.115 111.722 8.872 111.68 8.56 111.712 8.249 111.556 7.938 111.621 7.627 111.501 7.315 111.529 7.003 111.534 6.692 111.52 6.379 111.571 6.067 111.533 5.754 111.681 5.442 111.602 5.129 111.575 4.815 111.595 4.501zM196.21 16.794L196.136 16.475 196.111 16.156 196.249 15.82 196.111 15.511 196.069 15.192 196.028 14.872 195.994 14.55 195.86 14.25 195.657 13.976 195.641 13.646 195.593 13.322 195.523 13.003 195.278 12.757 195.075 12.5 195.129 12.114 194.88 11.883 194.611 11.67 194.547 11.334 194.328 11.095 194.161 10.822 193.886 10.631 193.767 10.318 193.661 9.984 193.304 9.875 193.076 9.653 192.842 9.437 192.678 9.142 192.483 8.874 192.232 8.669 191.929 8.535 191.716 8.278 191.437 8.112 191.172 7.923 190.786 7.953 190.509 7.795 190.215 7.674 190.007 7.355 189.689 7.281 189.415 7.093 189.034 7.212 188.766 6.999 188.466 6.878 188.154 6.796 187.821 6.821 187.515 6.713 187.195 6.685 186.882 6.586 186.564 6.517 186.234 6.666 185.915 6.522 185.595 6.656 185.275 6.673 184.958 6.706 184.634 6.697 184.307 6.683 184.017 6.881 183.709 6.962 183.387 6.981 183.083 7.082 182.782 7.184 182.468 7.251 182.109 7.214 181.859 7.453 181.523 7.493 181.264 7.697 180.986 7.859 180.776 8.136 180.491 8.277 180.149 8.34 179.846 8.471 179.596 8.677 179.413 8.965 179.173 9.177 178.868 9.319 178.729 9.637 178.463 9.826 178.176 10 178.142 10.393 177.938 10.636 177.735 10.88 177.389 11.027 177.286 11.346 177.138 11.631 176.876 11.85 176.779 12.165 176.643 12.456 176.442 12.718 176.504 13.091 176.232 13.329 176.083 13.619 176.015 13.936 175.931 14.248 176.002 14.596 175.956 14.911 175.829 15.211 175.71 15.517 175.756 15.845 175.612 16.155 175.608 16.477 175.576 16.8 175.568 17.123 175.612 17.447 175.616 17.77 175.603 18.094 175.631 18.417 175.659 18.74 175.715 19.063 175.738 19.386 175.688 19.71 175.752 20.034 175.552 20.357 175.674 20.681 175.769 21.004 175.682 21.325 175.589 21.647 175.727 21.969 175.584 22.292 175.676 22.617 175.681 22.94 175.585 23.264 175.614 23.587 175.564 23.912 175.631 24.236 175.548 24.561 175.605 24.886 175.694 25.211 175.54 25.536 175.556 25.86 175.677 26.186 175.725 26.512 175.693 26.839 175.706 27.108 175.964 27.272 176.282 27.239 176.602 27.248 176.921 27.105 177.239 27.044 177.558 27.187 177.878 27.117 178.198 27.042 178.518 27.183 178.838 27.086 179.158 27.042 179.478 27.288 179.798 27.116 180.119 27.218 180.44 27.176 180.763 27.182 181.046 27.123 181.073 26.879 181.125 26.592 181.114 26.304 181.101 26.016 181.05 25.699 181.206 25.381 180.983 25.062 180.978 24.742 181.007 24.422 181.021 24.102 180.984 23.782 181.125 23.464 181.197 23.144 181.014 22.825 181.149 22.506 181.095 22.186 181.081 21.864 181.163 21.542 181.092 21.218 181.03 20.897 181.154 20.575 181.087 20.254 181.031 19.933 181.017 19.612 181.149 19.29 181.144 18.968 181.147 18.647 181.127 18.326 181.04 18.005 181.01 17.682 181.104 17.361 181.119 17.045 181.057 16.727 181.211 16.424 181.258 16.116 181.281 15.802 181.271 15.469 181.442 15.192 181.468 14.855 181.687 14.607 181.791 14.295 182.138 14.154 182.27 13.858 182.427 13.569 182.71 13.407 182.998 13.263 183.17 12.957 183.548 12.975 183.794 12.776 184.051 12.576 184.356 12.487 184.639 12.317 184.993 12.461 185.293 12.378 185.595 12.206 185.915 12.313 186.236 12.178 186.534 12.397 186.873 12.264 187.179 12.366 187.481 12.465 187.808 12.503 188.017 12.819 188.397 12.77 188.611 13.035 188.866 13.219 189.157 13.364 189.374 13.6 189.527 13.889 189.72 14.134 189.898 14.39 190.125 14.619 190.287 14.892 190.495 15.15 190.582 15.462 190.592 15.791 190.569 16.117 190.709 16.413 190.786 16.726 190.737 17.045 190.728 17.364 190.841 17.682 190.651 18.002 190.683 18.32 190.692 18.639 190.758 18.958 190.742 19.276 190.779 19.595 190.68 19.914 190.858 20.233 190.708 20.554 190.638 20.871 190.71 21.19 190.677 21.511 190.72 21.831 190.696 22.152 190.748 22.473 190.863 22.794 190.746 23.116 190.74 23.436 190.76 23.757 190.792 24.077 190.801 24.398 190.626 24.719 190.767 25.04 190.755 25.359 190.747 25.677 190.828 25.974 190.787 26.271 190.664 26.569 190.842 26.868 190.823 27.089 191.068 27.254 191.387 27.269 191.707 27.062 192.025 27.177 192.344 27.243 192.662 27.168 192.983 27.227 193.302 27.099 193.622 27.261 193.943 27.089 194.263 27.064 194.583 27.137 194.902 27.099 195.223 27.254 195.544 27.243 195.867 27.168 196.225 27.201 196.105 26.833 196.281 26.5 196.136 26.166 196.221 25.832 196.077 25.499 196.08 25.166 196.199 24.831 196.201 24.495 196.212 24.159 196.077 23.824 196.199 23.504 196.064 23.186 196.218 22.867 196.087 22.55 196.223 22.234 196.217 21.916 196.195 21.597 196.159 21.277 196.171 20.959 196.25 20.641 196.163 20.321 196.312 20.001 196.149 19.682 196.273 19.362 196.074 19.041 196.133 18.721 196.067 18.402 196.267 18.082 196.073 17.761 196.298 17.439 196.135 17.115zM18.337 5.103L18.019 5.076 17.701 4.894 17.384 5.081 17.108 5.053 17.115 5.333 17.16 5.654 17.118 5.974 17.115 6.294 16.944 6.612 16.989 6.93 16.981 7.249 17.08 7.568 17.153 7.886 17.14 8.204 17.006 8.523 16.985 8.84 17.064 9.157 17.11 9.474 17.12 9.793 17.078 10.11 16.957 10.426 17.08 10.742 16.974 11.057 17.063 11.374 17.173 11.69 17.095 12.008 16.982 12.326 16.989 12.644 17.167 12.961 17.018 13.277 17.013 13.594 17.116 13.91 17.129 14.242 16.94 14.554 16.97 14.886 16.938 15.213 16.766 15.505 16.717 15.83 16.589 16.128 16.551 16.471 16.292 16.705 16.197 17.029 16.046 17.325 15.708 17.477 15.564 17.778 15.412 18.086 15.129 18.267 14.939 18.553 14.56 18.594 14.306 18.794 14.069 19.032 13.757 19.139 13.513 19.396 13.2 19.509 12.868 19.554 12.539 19.59 12.217 19.642 11.885 19.6 11.57 19.696 11.245 19.645 10.922 19.675 10.589 19.748 10.26 19.722 9.928 19.697 9.665 19.411 9.333 19.388 9.034 19.262 8.718 19.171 8.476 18.935 8.178 18.804 7.835 18.728 7.625 18.462 7.393 18.231 7.159 18.007 6.993 17.719 6.659 17.577 6.564 17.239 6.223 17.074 6.224 16.692 5.898 16.492 5.916 16.124 5.816 15.815 5.595 15.543 5.642 15.193 5.391 14.908 5.524 14.557 5.55 14.232 5.455 13.818 5.102 13.983 4.781 13.986 4.461 13.971 4.142 13.791 3.824 13.917 3.506 13.994 3.187 13.943 2.868 13.837 2.55 13.997 2.232 13.86 1.913 13.953 1.596 14.01 1.279 14.017.962 13.903.643 13.872.326 13.791.001 13.884.025 14.227 0 14.544.167 14.848.119 15.168.099 15.488.228 15.787.177 16.117.222 16.432.395 16.716.34 17.059.643 17.298.741 17.594.695 17.946.853 18.224.991 18.508 1.172 18.771 1.352 19.032 1.5 19.307 1.569 19.63 1.815 19.848 1.838 20.209 2.171 20.362 2.363 20.608 2.453 20.937 2.633 21.198 2.954 21.336 3.028 21.697 3.313 21.861 3.495 22.128 3.688 22.388 3.977 22.539 4.253 22.701 4.45 22.962 4.745 23.094 5.005 23.271 5.304 23.389 5.569 23.555 5.827 23.736 6.106 23.882 6.342 24.115 6.637 24.231 6.96 24.278 7.248 24.404 7.493 24.656 7.794 24.759 8.157 24.65 8.429 24.85 8.764 24.798 9.044 24.993 9.367 24.978 9.665 25.126 9.974 25.211 10.299 25.147 10.613 25.18 10.928 25.251 11.245 25.258 11.558 25.052 11.876 25.164 12.192 25.16 12.494 25.016 12.81 25.014 13.141 25.093 13.461 25.078 13.755 24.931 14.058 24.842 14.333 24.654 14.629 24.551 14.973 24.591 15.264 24.467 15.572 24.384 15.863 24.257 16.156 24.135 16.444 24.002 16.712 23.829 16.979 23.657 17.192 23.401 17.474 23.259 17.678 23.002 17.97 22.87 18.182 22.632 18.432 22.443 18.681 22.253 18.903 22.031 19.122 21.805 19.418 21.655 19.622 21.413 19.745 21.104 20.002 20.909 20.272 20.719 20.313 20.359 20.667 20.221 20.828 19.946 20.944 19.646 21.087 19.363 21.168 19.049 21.435 18.83 21.55 18.534 21.735 18.267 21.656 17.895 21.898 17.648 21.957 17.334 22.154 17.062 22.169 16.737 22.105 16.397 22.306 16.118 22.344 15.802 22.471 15.501 22.382 15.17 22.359 14.852 22.433 14.541 22.539 14.228 22.443 13.91 22.535 13.589 22.391 13.269 22.485 12.949 22.498 12.629 22.435 12.311 22.469 11.993 22.497 11.674 22.5 11.355 22.546 11.037 22.453 10.719 22.524 10.4 22.532 10.083 22.422 9.766 22.448 9.449 22.581 9.13 22.533 8.813 22.463 8.496 22.519 8.182 22.412 7.867 22.604 7.549 22.404 7.232 22.463 6.915 22.571 6.597 22.496 6.28 22.539 5.962 22.596 5.646 22.506 5.329 22.474 5.019 22.16 5.122 21.839 4.942 21.519 5.137 21.199 4.898 20.882 5.067 20.563 5.049 20.245 4.941 19.925 5.111 19.608 5.097 19.289 5.074 18.97 5.083 18.653 4.894zM164.993 20.102l-.151.292-.16.287-.273.212-.123.31-.179.275-.3.163-.168.3-.343.098-.236.225-.273.173-.232.26-.332.066-.297.088-.263.204-.303.098-.312.055-.319-.006-.318-.11-.312.196-.31-.107-.303-.087-.322.025-.279-.172-.312-.039-.242-.23-.382.05-.308-.13-.158-.362-.332-.094-.288-.168-.11-.357-.268-.19-.324-.161-.187-.276-.164-.29-.186-.276-.14-.304-.02-.36-.025-.346-.2-.301-.035-.341-.03-.34.024-.342.08-.332.012-.333-.11-.362.055-.342.3-.263-.022-.37.308-.216.002-.369.243-.235.19-.264.133-.315.271-.199.298-.155.124-.36.27-.196.302-.141.264-.21.327-.084.357-.017.3-.181.324-.13.354.044.33-.141.346.205.342-.172.338.04.334.069.303.184.34.029.288.188.335.051.342.07.22.274.282.172.163.315.279.176.236.225.271.203.053.361.227.239.286.222-.012.366.139.307.147.307.059.334.031.336.066.332-.086.338.059.337-.074.33.002.342-.052.336-.116.32-.127.313.062.034zm4.675-6.015l-.118-.305-.135-.296-.045-.346-.23-.248-.2-.262-.087-.334-.271-.21-.08-.35-.237-.234-.21-.253-.304-.169-.166-.294-.057-.048.073.099-.132.025-.003-.003-.204-.261-.159-.319-.379-.064-.201-.275-.235-.239-.318-.12-.222-.266-.312-.124-.228-.274-.39.03-.309-.113-.212-.336-.34-.008-.313-.058-.243-.276-.325-.023-.342.065-.304-.078-.304-.076-.314-.023-.31-.046-.3-.138-.311-.099-.322.113-.315-.027h-.315l-.317-.021-.322-.044-.314.054-.29.21-.304.074-.35-.147-.274.217-.354-.101-.255.255-.326.02-.297.108-.258.206-.326.077-.339.063-.2.327-.285.16-.302.134-.243.227-.302.139-.33.11-.204.274-.215.252-.312.146-.161.307-.387.087-.089.37-.22.246-.216.25-.288.2-.131.312-.247.237-.09.334-.072.338-.252.24-.118.312-.263.248-.06.32-.092.305-.022.325-.251.255-.016.326.074.34-.22.278-.036.316.004.32-.054.312-.049.314.02.318-.103.316.075.318-.027.32.083.312.061.312.029.316.05.312.066.31-.052.337.087.31.201.27.023.328.229.254-.036.357.332.19-.032.354.27.207.19.241-.017.365.32.161.11.293.189.24.134.282.251.19.214.218.147.28.197.236.291.173.183.289.27.195.246.22.307.141.287.161.245.228.229.26.303.14.281.179.322.097.325.084.313.065.272.17.277.172.318.046.283.174.336-.044.315.035.324-.035.298.131.318-.018.306.117.316.031.316-.092h.315l.326.172.319-.023.3-.183.311-.055.306-.078.303-.085.311-.048.29-.13.37.135.276-.18.267-.19.349.016.28-.146.25-.2.26-.144.09.298-.096.304.027.304.075.22.235-.034.318.16.32-.068.318.116.318-.19.318.013.32.204.319-.087.319-.126.32.094.32-.065.32-.027.318.017.32.065.321.108.322-.135.385.102.057-.385-.175-.323.116-.323-.091-.322.107-.322.008-.323-.03-.322.034-.322-.112-.323.108-.324-.111-.322.096-.323-.162-.322.04-.321.022-.321.053-.321-.119-.323.203-.324-.008-.323-.003-.322-.01-.323.015-.324-.026-.323-.015-.324.027-.325-.129-.324.132-.324-.21-.323.146-.325-.088-.326.17-.326-.02-.327.017-.318-.24-.305.035-.316-.027-.313-.109-.3.18-.35-.125-.3-.137-.292-.08-.304.038-.342-.117-.297-.129-.291-.26-.236zM93.858 18.85l-.149.29-.136.296-.272.212-.068.35-.333.145-.084.365-.28.187-.325.12-.17.322-.342.074-.244.236-.3.14-.303.087-.267.206-.312.073-.34-.108-.31.007-.304.08-.313.054-.313-.032-.293-.161-.315.008-.316-.017-.276-.161-.314-.051-.256-.22-.374.001-.203-.294-.26-.195-.231-.228-.213-.24-.23-.225-.26-.209-.155-.289-.202-.256-.289-.218.055-.388-.168-.295-.08-.329-.188-.305-.03-.343-.11-.336.041-.346.127-.334.013-.335-.11-.364.256-.289.032-.342.225-.273.124-.296.152-.284.164-.276.189-.262.212-.242.168-.287.142-.328.299-.16.246-.221.34-.078.247-.228.352-.01.271-.243.325-.115.35-.002.333-.063.341.006.337-.125.337.08.342-.013.306.204.324.067.368-.055.29.191.326.08.24.244.35.064.176.314.333.112.268.202.16.302.124.317.27.205.28.216.055.346.043.337.262.26.008.353.218.297.024.344-.01.344-.05.34.003.337-.073.33.072.356-.09.331-.222.284-.136.32.1.034zm4.782-6.022l-.12-.305-.16-.286-.045-.348-.29-.214-.029-.367-.336-.174-.14-.3-.102-.333-.33-.16-.117-.33-.285-.186-.224-.238.003-.036.107.065-.205.027.115-.12-.218-.255-.289-.177-.287-.174-.249-.217-.192-.299-.31-.137-.31-.132-.246-.233-.322-.107-.253-.233-.377.018-.244-.263-.294-.123-.289-.137-.294-.13-.31-.072-.327-.013-.3-.112-.318-.028-.335.094-.284-.257-.323.022-.316-.041-.321.1-.315-.033-.313.081-.317-.039-.324-.091-.314.054-.29.209-.342-.13-.297.13-.336-.042-.307.092-.306.091-.3.107-.3.108-.302.108-.275.202-.235.27-.323.093-.27.19-.342.073-.232.25-.35.077-.186.304-.248.217-.301.155-.24.229-.266.202-.15.317-.274.199-.18.282-.327.166-.196.273-.06.364-.248.235-.114.318-.25.242-.035.355-.279.236-.02.356-.083.305-.194.265-.2.269.006.335.04.335-.183.281-.159.293.093.337-.14.3.108.33-.057.31-.06.313-.064.317.018.318-.025.32.154.307.023.314-.082.331.044.317.23.277.082.303-.09.351.22.266.146.282.061.313.136.284.15.268.001.338.24.222.032.332.32.168.132.275.158.26.214.221.071.33.162.265.28.164.244.19.22.209.238.225.096.387.284.18.331.116.217.262.304.14.217.275.377.017.248.229.3.136.262.218.323.09.275.167.285.15.337-.008.276.186.333-.021.327-.014.292.137.298.138.305.12.327-.052.312.09.322-.088.317.126.318-.094.31-.139.316-.003.322.04.317-.02.331.042.29-.176.31-.062.301-.104.324-.028.246-.259.334-.006.278-.155.322-.046.277-.148.164-.143.07.269.062.304.058.304-.116.329.34-.025.319-.056.32-.052.319.06.318-.042.319.192.32-.04.32.032.32-.174.32.107.321.001.32-.03.32-.116.32.235.322-.056.322-.073.236-.074.158-.236-.076-.322-.017-.324-.052-.323.143-.322-.004-.323-.05-.323-.033-.322-.001-.324-.04-.323.182-.322-.224-.324.214-.322-.239-.321.004-.322.094-.321.123-.323-.129-.324.061-.324-.024-.322-.09-.324.043-.324.096-.323-.07-.325-.027-.324.115-.325-.05-.324.078-.324-.063-.325.02-.326-.178-.327.025-.326.15-.318-.128-.31.023-.317.09-.329-.129-.303-.156-.293-.107-.297.144-.357-.13-.294-.03-.322-.276-.242.014-.34-.185-.268z" transform="translate(637 16) translate(0 4) translate(142.194)"/>
                    </g>
                    <g>
                        <path d="M78.563 18.019L78.403 17.632 78.459 17.206 78.197 16.877 78.211 16.463 78.019 16.113 77.975 15.717 77.876 15.338 77.612 15.012 77.465 14.651 77.376 14.272 77.291 13.889 77.3 13.477 76.965 13.169 77.071 12.728 76.822 12.395 76.887 11.966 76.578 11.649 76.389 11.296 76.393 10.884 76.385 10.475 76.174 10.129 76.047 9.757 76.004 9.36 75.909 8.977 75.637 8.647 75.63 8.235 75.491 7.963 75.501 8.278 75.255 8.606 75.032 8.943 74.926 9.32 74.735 9.669 74.653 10.054 74.718 10.491 74.422 10.8 74.23 11.144 74.266 11.569 73.97 11.878 73.897 12.268 73.743 12.63 73.77 13.053 73.588 13.404 73.458 13.773 73.457 14.189 73.119 14.488 73.126 14.905 72.993 15.276 72.919 15.666 72.674 15.997 72.667 16.41 72.493 16.767 72.217 17.089 72.12 17.474 71.935 17.738 71.63 17.862 71.243 17.695 70.851 17.765 70.46 17.795 70.07 17.773 69.682 17.688 69.289 17.767 68.899 17.655 68.504 17.799 68.047 17.868 68.003 17.406 67.914 17.022 67.851 16.629 67.533 16.311 67.674 15.856 67.289 15.56 67.348 15.131 67.262 14.746 67.082 14.388 67.083 13.977 66.875 13.628 66.629 13.29 66.569 12.896 66.567 12.484 66.429 12.112 66.356 11.722 66.219 11.35 66.167 10.954 66.08 10.568 65.939 10.198 65.718 9.851 65.719 9.437 65.427 9.112 65.549 8.663 65.173 8.365 65.262 7.929 64.999 7.598 65.025 7.178 64.785 6.837 64.811 6.416 64.7 6.036 64.576 5.661 64.36 5.312 64.151 4.96 64.116 4.556 64.053 4.162 63.8 3.822 63.806 3.406 63.633 3.043 63.63 2.63 63.495 2.255 63.481 1.843 63.145 1.525 63.271 1.2 63.536 1.149 63.924 1.207 64.317 1.014 64.707 1.013 65.097 1.007 65.486 1.027 65.872 1.188 66.262 1.231 66.652 1.327 67.049 1.088 67.365 1.286 67.478 1.588 67.734 1.927 67.845 2.306 67.832 2.72 67.913 3.109 68.099 3.468 68.148 3.864 68.309 4.228 68.265 4.647 68.492 4.992 68.555 5.384 68.819 5.721 68.805 6.137 69.017 6.488 69.032 6.894 68.979 7.319 69.107 7.696 69.306 8.053 69.465 8.421 69.42 8.846 69.763 9.164 69.692 9.595 69.807 9.974 69.903 10.361 70.053 10.734 70.109 11.133 70.293 11.471 70.488 11.146 70.566 10.751 70.647 10.358 70.828 9.999 70.898 9.6 71.232 9.297 71.213 8.867 71.386 8.508 71.472 8.119 71.548 7.725 71.852 7.413 72.022 7.051 72.144 6.669 72.245 6.282 72.277 5.871 72.583 5.558 72.722 5.182 72.782 4.78 72.916 4.402 72.957 3.992 73.224 3.663 73.323 3.273 73.292 2.837 73.648 2.539 73.729 2.141 73.945 1.79 73.885 1.342 73.932 1.243 74.311 1.342 74.687 1.172 75.055 1.439 75.428 1.368 75.799 1.388 76.174 1.321 76.549 1.28 76.92 1.505 77.286 1.39 77.536 1.718 77.587 2.119 77.529 2.556 77.793 2.891 77.786 3.313 78.155 3.615 78.278 3.994 78.371 4.381 78.245 4.836 78.392 5.207 78.725 5.518 78.625 5.969 78.735 6.354 78.851 6.736 79.108 7.073 79.265 7.442 79.251 7.868 79.323 8.265 79.691 8.568 79.757 8.969 79.888 9.348 79.817 9.79 80.107 10.118 80.192 10.513 80.177 10.941 80.335 11.314 80.551 11.812 80.782 11.326 80.87 10.941 80.877 10.529 81.12 10.192 81.198 9.802 81.227 9.397 81.523 9.077 81.639 8.702 81.684 8.306 81.783 7.925 81.932 7.56 81.953 7.153 82.219 6.822 82.097 6.369 82.249 6.004 82.539 5.681 82.707 5.319 82.611 4.872 82.953 4.566 83.082 4.19 83.125 3.788 83.258 3.415 83.237 2.993 83.418 2.634 83.62 2.28 83.531 1.833 83.711 1.382 84.184 1.61 84.572 1.644 84.962 1.609 85.354 1.562 85.745 1.484 86.131 1.693 86.524 1.465 86.915 1.47 87.306 1.478 87.694 1.713 88.079 1.586 87.949 1.947 87.82 2.319 87.841 2.742 87.606 3.08 87.575 3.487 87.41 3.848 87.263 4.214 87.169 4.598 86.868 4.912 86.744 5.286 86.805 5.722 86.522 6.042 86.429 6.428 86.18 6.76 86.17 7.175 86.007 7.537 85.954 7.936 85.779 8.294 85.556 8.635 85.61 9.07 85.328 9.392 85.311 9.804 85.063 10.138 85.039 10.547 84.959 10.935 84.654 11.246 84.609 11.646 84.488 12.02 84.52 12.449 84.307 12.796 84.144 13.158 84.088 13.556 83.806 13.878 83.823 14.303 83.599 14.646 83.49 15.028 83.425 15.426 83.156 15.754 83.218 16.195 83.078 16.565 82.851 16.909 82.681 17.272 82.53 17.644 82.428 17.955 82.111 18.014 81.723 17.978 81.329 18.082 80.941 17.976 80.549 18.051 80.163 17.906 79.767 18.134 79.378 17.969 78.984 18.002zM93.671 0l-.346.249-.368-.06-.35.1-.332.163-.263.26-.171.434-.221.362-.198.393.035.442-.103.447.258.38.046.47.308.328.368.104.253.239.266.302.393-.12.343-.02.34.05.328-.09.357-.027.375-.072.264-.263.211-.413.32-.331-.02-.473.067-.427.056-.358-.085-.349-.22-.286-.086-.357-.146-.361-.327-.185-.4-.015-.245-.308-.372.054L93.67 0zm-.867 6.507l-.386.043-.381-.074-.325-.007-.081.338-.13.394.033.396.112.398-.12.391.154.397-.028.394-.082.394.005.393.093.396-.118.392-.131.39.069.394.193.396-.191.39.13.396-.235.386.221.395-.135.387-.037.392-.033.392.027.393.148.396-.023.393-.08.39.073.394-.14.389.144.395-.183.39.036.426.42-.031.386-.02.383.123.383.063.385-.132.385-.094.381.126.385-.063.382.035.489.143-.23-.508.27-.392-.204-.4.059-.395.03-.392.116-.392-.089-.397-.142-.398.11-.39-.077-.396.084-.393.021-.392-.029-.393-.069-.394.164-.39-.148-.396.121-.39-.026-.39.16-.387.054-.391-.12-.395.128-.39-.05-.395.01-.392-.134-.395.226-.388-.126-.394.008-.392.063-.391-.13-.333-.325-.006-.387.051-.38-.185-.389.166-.38-.076-.38-.187-.387.2zM107.177 18.792L106.763 18.871 106.335 18.722 105.923 18.89 105.506 18.754 105.141 18.817 104.791 18.7 104.444 18.615 104.053 18.669 103.694 18.571 103.369 18.388 103.067 18.173 102.807 17.825 102.344 17.723 102.226 17.259 101.864 17.017 101.801 16.567 101.433 16.293 101.202 15.94 101.188 15.509 101.198 15.089 101.027 14.708 100.968 14.305 101.018 13.894 101.037 13.488 100.882 13.099 101.002 12.713 100.889 12.324 100.856 11.936 100.986 11.553 101.092 11.166 101.076 10.777 101.149 10.388 101.087 9.945 100.655 10.12 100.284 9.934 99.909 9.857 99.529 10.024 99.154 9.839 98.818 9.909 98.868 9.582 98.713 9.205 98.776 8.832 98.784 8.459 98.658 8.084 98.883 7.713 98.749 7.335 98.759 6.959 98.747 6.49 99.212 6.583 99.588 6.462 99.964 6.516 100.338 6.678 100.717 6.651 101.198 6.73 101.092 6.228 101.257 5.832 101.188 5.431 101.159 5.031 101.181 4.632 101.265 4.235 101.186 3.833 101.299 3.434 101.156 3.029 101.097 2.553 101.554 2.639 101.937 2.671 102.321 2.73 102.71 2.524 103.089 2.795 103.478 2.519 103.86 2.705 104.245 2.739 104.634 2.677 104.948 2.771 105.012 3.099 105.142 3.5 105.08 3.899 104.959 4.297 104.977 4.696 104.929 5.094 104.945 5.495 104.876 5.894 104.842 6.296 104.886 6.757 105.337 6.678 105.726 6.805 106.122 6.625 106.509 6.877 106.905 6.61 107.292 6.827 107.688 6.677 108.079 6.829 108.475 6.704 108.812 6.833 108.779 7.146 108.785 7.521 108.884 7.896 108.976 8.272 108.888 8.643 108.829 9.017 108.967 9.395 108.836 9.769 108.863 10.208 108.415 10.108 108.024 10.123 107.634 10.012 107.238 10.235 106.851 9.952 106.459 10.066 106.067 10.008 105.67 10.201 105.275 10.201 104.974 10.172 105 10.445 104.841 10.816 104.798 11.19 104.704 11.561 104.941 11.938 104.72 12.31 104.765 12.685 104.913 13.064 104.912 13.441 104.806 13.803 104.851 14.17 105.067 14.47 105.237 14.792 105.56 14.966 105.839 15.256 106.231 15.215 106.593 15.287 106.994 15.106 107.414 15.186 107.806 15.021 108.231 15.048 108.512 15.063 108.558 15.374 108.694 15.733 108.789 16.096 108.675 16.482 108.957 16.823 108.818 17.214 108.867 17.583 108.899 17.957 108.984 18.315 108.624 18.348 108.285 18.548 107.896 18.545 107.54 18.68zM122.474 7.197L122.804 7.381 122.983 7.752 123.356 7.894 123.501 8.261 123.786 8.508 123.92 8.861 124.077 9.193 124.369 9.468 124.528 9.811 124.606 10.18 124.656 10.554 124.585 10.94 124.851 11.289 124.64 11.673 124.78 12.045 124.587 12.435 124.782 12.832 124.851 13.23 124.72 13.622 124.601 14.013 124.693 14.41 124.698 14.807 124.616 15.201 124.588 15.596 124.743 15.996 124.623 16.389 124.735 16.788 124.769 17.183 124.638 17.579 124.532 17.975 124.547 18.374 124.511 18.685 124.211 18.69 123.82 18.89 123.435 18.703 123.047 18.627 122.656 18.793 122.271 18.607 121.881 18.659 121.491 18.626 121.097 18.783 120.694 18.713 120.697 18.294 120.571 17.887 120.798 17.486 120.664 17.079 120.675 16.672 120.624 16.266 120.753 15.861 120.633 15.452 120.688 15.047 120.849 14.643 120.823 14.238 120.945 13.832 120.796 13.42 120.962 13.014 120.892 12.603 120.847 12.203 120.813 11.804 120.79 11.389 120.551 11.049 120.404 10.65 119.977 10.458 119.567 10.34 119.197 10.12 118.769 10.054 118.373 10.032 118.06 10.336 117.603 10.249 117.454 10.671 117.077 10.73 116.8 10.944 116.613 11.236 116.489 11.616 116.582 12.003 116.713 12.392 116.651 12.779 116.529 13.166 116.548 13.554 116.499 13.941 116.516 14.328 116.446 14.717 116.413 15.105 116.435 15.494 116.539 15.886 116.414 16.273 116.593 16.666 116.342 17.05 116.608 17.446 116.392 17.833 116.541 18.228 116.411 18.569 116.073 18.675 115.69 18.523 115.304 18.513 114.917 18.519 114.53 18.62 114.143 18.712 113.757 18.622 113.37 18.563 112.979 18.701 112.576 18.562 112.515 18.154 112.637 17.765 112.622 17.374 112.732 16.984 112.51 16.588 112.791 16.201 112.678 15.809 112.737 15.419 112.544 15.025 112.543 14.634 112.538 14.244 112.557 13.853 112.716 13.465 112.76 13.074 112.855 12.683 112.617 12.286 112.839 11.899 112.794 11.507 112.646 11.112 112.647 10.721 112.777 10.331 112.811 9.939 112.734 9.545 112.801 9.154 112.749 8.761 112.909 8.375 112.791 7.984 112.843 7.594 112.686 7.199 112.817 6.808 112.714 6.414 112.815 6.024 112.986 5.635 112.971 5.241 112.881 4.846 112.834 4.451 112.997 4.06 112.76 3.662 112.95 3.273 112.948 2.879 112.965 2.485 112.928 2.089 112.987 1.693 112.897 1.276 113.301 1.368 113.687 1.315 114.075 1.265 114.46 1.322 114.847 1.259 115.228 1.479 115.618 1.322 116.005 1.371 116.394 1.328 116.851 1.302 116.69 1.757 116.645 2.148 116.653 2.538 116.681 2.928 116.783 3.321 116.594 3.71 116.583 4.101 116.655 4.493 116.65 4.885 116.742 5.279 116.596 5.668 116.627 6.06 116.795 6.456 116.554 6.845 116.605 7.241 116.52 7.682 116.946 7.361 117.269 7.141 117.655 7.041 117.943 6.72 118.393 6.839 118.742 6.668 119.121 6.615 119.497 6.505 119.886 6.451 120.258 6.688 120.648 6.614 121.057 6.545 121.416 6.716 121.714 7.02 122.12 7.037zM9.015 9.93l.082-.425.275-.245.103-.349.22-.314.086-.366-.074-.373-.131-.391-.14-.363-.004-.437-.344-.245-.18-.4-.419-.062-.28-.293-.363-.147L7.47 5.4l-.4.092-.385-.056-.402.136-.407-.197-.401.248-.409-.133-.408-.056-.508-.025.073.495-.015.392.054.393-.046.394.208.39-.072.395-.007.394.044.392-.085.395-.135.397.253.39.041.397-.065.334.343.074.404.01.405-.062.407.062.408.023.405-.096.377-.136.417.163.32-.298.376-.083.355-.154.4-.139zm1.344-7.278l.464-.028.31.282.369.18.246.344.275.29.34.23.334.255.275.312.036.417.288.276-.014.41.295.296-.04.4.047.369.01.371.165.359-.032.376.125.392-.225.377.197.415-.203.363-.15.362-.18.343-.035.397-.18.34-.146.36-.247.287-.066.424-.31.24-.278.26-.261.28-.357.157-.387.09-.198.405-.324.207-.385.126-.41.047-.382.107-.367.16-.4.021-.395.042-.38.143-.385.154-.414-.198-.393.22-.365-.061-.364-.04-.364.056-.37-.175-.366.03-.45.037.144.462-.14.384.127.381-.092.385.019.383.022.382.09.38.09.383-.273.39.2.382-.124.293-.315.074-.406.007-.406.062-.405.095-.408-.071-.406-.073-.406.141-.409-.013-.411-.123-.439.094-.004-.425-.023-.394.048-.396.094-.395-.232-.39.02-.393.061-.394.067-.395-.05-.392.09-.395-.021-.393L.39 13.8l-.05-.395-.024-.394.034-.394.029-.395-.174-.392.109-.396.038-.395-.016-.395-.101-.393.146-.397-.265-.39.046-.393.07-.393-.115-.392.06-.395-.1-.395.17-.397-.115-.393.084-.396.118-.398L.13 5.52l.15-.399-.083-.396-.056-.395L0 3.937l.155-.398-.024-.397.023-.398-.03-.4.086-.312.293-.185.387-.012.39.134.387-.03.387.009.385-.134.391.178.388-.065.385-.143.392.15.386-.142.391.156.385-.147.393.133.388-.09.394.14.387-.257.385.017.38.087.368.138.397-.15.371.107.37.099.348.165.352.13.406-.012.263.344zM17.369 18.162L17.184 17.88 17.266 17.49 17.207 17.101 17.317 16.709 17.341 16.318 17.249 15.93 17.148 15.542 17.096 15.154 17.265 14.762 17.129 14.376 17.289 13.984 17.104 13.598 17.236 13.205 17.256 12.815 17.291 12.423 17.157 12.035 17.197 11.644 17.066 11.257 17.256 10.863 17.016 10.478 17.145 10.084 17.2 9.693 17.264 9.301 17.152 8.912 17.167 8.522 17.115 8.135 17.159 7.746 16.958 7.361 17.028 6.968 17.035 6.577 16.992 6.187 17.075 5.796 17.205 5.402 16.96 5.014 16.92 4.624 16.957 4.232 17.052 3.837 17.062 3.445 17.002 3.054 17.061 2.662 17.084 2.268 16.992 1.876 16.875 1.483 17.059 1.152 17.366.971 17.744 1.031 18.123 1.07 18.5 1.013 18.88 1.187 19.256 1.156 19.635 1.158 20.011.982 20.394 1.12 20.791 1.001 20.709 1.411 20.728 1.8 20.75 2.189 20.837 2.578 20.925 2.966 20.66 3.361 20.854 3.747 20.697 4.139 20.804 4.526 20.811 4.915 20.871 5.303 20.962 5.69 20.893 6.081 20.822 6.473 20.958 6.861 20.946 7.253 20.826 7.644 20.929 8.033 20.919 8.422 20.942 8.812 20.895 9.204 20.804 9.597 21.029 9.983 21.01 10.374 20.951 10.765 20.886 11.154 20.935 11.541 20.847 11.932 20.868 12.322 20.891 12.714 20.939 13.103 20.962 13.493 20.929 13.884 20.902 14.277 21.07 14.665 20.964 15.059 20.927 15.452 20.942 15.844 21.041 16.235 20.899 16.628 21.156 17.017 21.111 17.411 21.043 17.808 21.126 18.276 20.675 18.249 20.299 18.35 19.919 18.18 19.543 18.294 19.164 18.21 18.786 18.093 18.41 18.295 18.029 18.146 17.654 18.229zM34.043 13.965l-.236-.419.085-.4-.062-.399.114-.4.025-.398-.096-.4-.104-.398-.054-.4.174-.415-.385-.211-.203-.377-.435-.049-.304-.283-.382-.134-.399-.102-.408.116-.374-.019-.331.197-.418-.064-.207.38-.372.104-.31.214-.302.263-.108.388-.172.343-.057.378-.107.369.188.38-.053.368.053.365.146.338.076.372.093.398.437.131.285.208.265.233.279.25.347.126.374.007.367.083.403.002.378-.156.335-.22.452.037.22-.379.338-.194.445-.233zm.015 3.893l-.181-.209.085-.327-.305.236-.389.068-.35.12-.32.208-.336.195-.364.128-.402-.118-.363.168-.384-.152-.386.175-.373-.171-.37-.082-.358-.123-.402.017-.34-.176-.404-.044-.24-.355-.46-.004-.237-.34-.257-.29-.227-.311-.34-.206-.226-.31-.262-.285-.16-.351-.371-.262-.1-.402-.13-.383-.155-.376-.003-.412.075-.412-.287-.372-.054-.405.049-.408.133-.398.07-.396.022-.406.17-.372.157-.369.073-.404.08-.414.39-.223.042-.431.29-.27.29-.261.238-.308.41-.118.287-.247.321-.202.244-.333.407-.036.306-.252.393-.026.364-.104.37-.083.37-.124.384-.101.374.279.385-.167.35.211.386-.034.363.09.375.065.386.06.309.233.346.234-.138-.325.041-.37.44.105.389-.105.392.01.391-.022.392.047.392.093.39-.23.393.02.395.06.357.052.035.35-.09.389.02.386.024.386.051.386.024.386-.035.389-.028.388.174.384-.109.388-.04.388.017.384.102.384-.147.388.267.383-.048.39-.07.387.116.385-.06.388.101.388-.171.39.115.387-.085.39-.117.392.204.385-.15.39.083.388.055.39.143.39-.153.387-.383.02-.392-.022-.391.029-.394-.118-.387.22-.39.012-.396-.13-.392.029-.39-.009-.305-.074zM44.3 23.17L44.249 22.874 44.474 22.553 44.564 22.18 44.816 21.87 44.986 21.526 45.046 21.138 45.097 20.747 45.194 20.373 45.503 20.084 45.52 19.679 45.819 19.388 45.791 18.963 46.064 18.659 46.232 18.31 46.423 17.919 46.119 17.572 45.989 17.193 45.702 16.891 45.71 16.444 45.322 16.19 45.274 15.772 45.158 15.386 45.05 14.997 44.779 14.687 44.626 14.318 44.411 13.979 44.284 13.598 43.932 13.329 43.831 12.939 43.671 12.577 43.465 12.237 43.375 11.839 43.329 11.419 42.935 11.166 42.73 10.823 42.598 10.446 42.518 10.041 42.359 9.673 42.136 9.338 42.024 8.949 41.876 8.575 41.623 8.253 41.347 7.943 41.374 7.487 41.017 7.215 40.901 6.824 40.768 6.441 40.55 6.054 41.002 6.207 41.412 6.176 41.825 6.176 42.234 6 42.648 6.138 43.057 6.011 43.471 6.103 43.885 6.083 44.299 6.06 44.734 5.976 44.996 6.314 44.916 6.793 45.261 7.067 45.282 7.498 45.548 7.813 45.721 8.174 45.943 8.51 46.194 8.831 46.296 9.225 46.398 9.621 46.691 9.924 46.846 10.293 46.903 10.711 47.165 11.03 47.324 11.398 47.511 11.751 47.635 12.137 47.719 12.544 48.096 12.81 48.168 13.135 48.292 12.854 48.504 12.518 48.606 12.139 48.841 11.811 48.972 11.441 49.102 11.068 49.205 10.687 49.334 10.316 49.517 9.965 49.694 9.611 49.685 9.183 49.937 8.86 50.125 8.509 50.261 8.139 50.318 7.738 50.605 7.428 50.511 6.965 50.706 6.616 50.923 6.275 51.008 5.817 51.473 5.857 51.878 5.757 52.289 5.927 52.694 5.812 53.102 5.895 53.51 6.012 53.915 5.809 54.326 5.959 54.735 5.875 55.158 5.826 55.14 6.259 54.845 6.566 54.715 6.94 54.543 7.296 54.417 7.673 54.154 7.995 54.209 8.444 54.068 8.816 53.792 9.133 53.668 9.509 53.507 9.872 53.479 10.287 53.163 10.586 53.071 10.976 53.051 11.395 52.761 11.706 52.739 12.125 52.442 12.434 52.426 12.856 52.151 13.173 52.081 13.572 51.8 13.887 51.885 14.348 51.723 14.712 51.507 15.054 51.257 15.382 51.288 15.823 51.096 16.171 50.926 16.527 50.708 16.866 50.542 17.226 50.531 17.65 50.199 17.946 50.065 18.32 49.905 18.684 49.943 19.128 49.834 19.514 49.552 19.831 49.389 20.195 49.396 20.628 49.19 20.976 49.071 21.358 48.759 21.662 48.754 22.091 48.481 22.414 48.409 22.818 48.219 23.13 47.853 23.108 47.45 23.273 47.042 23.314 46.635 23.296 46.228 23.272 45.82 23.148 45.415 23.387 45.003 23.162 44.588 23.31z" transform="translate(637 16) translate(0 4) translate(0 4.677)"/>
                    </g>
                </g>
                <text font-family="Campton-Bold, Campton" font-size="13" font-weight="bold" letter-spacing="1" transform="translate(637 16)">
                    <tspan x="403" y="13" fill="#FFF">1st Jonathan Showcase</tspan> <tspan x="403" y="31" fill="#FFF">2020.12.32 @Monacospace, Seoul</tspan>
                </text>
            </g>
        </g>
    </g>
</svg>
