<svg xmlns="http://www.w3.org/2000/svg" width="69" height="68" viewBox="0 0 69 68">
    <g fill="none" fill-rule="evenodd">
        <path d="M0 0H68V68H0z"/>
        <path fill="#494A4D" fill-rule="nonzero" d="M43.566 43c.354 0 .661-.13.922-.39.26-.261.39-.579.39-.954 0-.083-.01-.172-.03-.265-.022-.094-.042-.183-.063-.266l-1.219-2.656v-6.125l-.004-.059-.012-.05c-.01-.032-.015-.068-.015-.11v-.328c0-.115-.01-.235-.032-.36 0-.062-.005-.125-.015-.187-.01-.063-.016-.125-.016-.188-.02-.083-.036-.161-.047-.234-.01-.073-.026-.15-.047-.234 0-.084-.01-.162-.03-.235-.022-.073-.042-.14-.063-.203-.021-.062-.037-.125-.047-.187-.01-.063-.026-.125-.047-.188l-.063-.25c-.02-.083-.052-.156-.093-.218-.021-.063-.037-.12-.047-.172-.01-.052-.026-.11-.047-.172-.042-.063-.078-.136-.11-.219-.03-.083-.067-.167-.109-.25l-.062-.125c-.021-.042-.032-.083-.032-.125-.062-.083-.114-.167-.156-.25l-.125-.25c0-.02-.005-.036-.015-.047l-.016-.015c-.27-.459-.563-.88-.875-1.266-.313-.386-.656-.745-1.031-1.078-.021 0-.032-.005-.032-.016v-.015c-.104-.084-.203-.162-.296-.235-.094-.073-.183-.14-.266-.203l-.063-.063c-.104-.062-.203-.13-.296-.203-.094-.073-.193-.14-.297-.203-.021 0-.037-.005-.047-.015l-.016-.016-.312-.188-.164-.093-.18-.094c-.25-.125-.505-.234-.766-.328-.26-.094-.526-.182-.797-.266V23c0-.73-.26-1.354-.78-1.875-.522-.52-1.147-.781-1.876-.781-.729 0-1.354.26-1.875.781-.52.52-.781 1.146-.781 1.875v.406c-.27.084-.536.172-.797.266-.174.062-.345.132-.514.208l-.252.12c-.125.063-.24.125-.343.188l-.313.187-.015.016c-.01.01-.026.015-.047.015-.104.063-.203.13-.297.203-.094.073-.193.141-.297.203l-.016.016-.047.047-.265.203c-.094.073-.193.151-.297.235l-.016.015-.015.016c-.375.333-.719.698-1.032 1.093-.312.396-.604.813-.875 1.25l-.015.016c-.01.01-.016.026-.016.047l-.25.5-.062.125-.063.125c-.041.083-.078.167-.11.25-.03.083-.067.156-.109.219-.02.062-.036.12-.046.172-.01.052-.026.109-.047.172-.042.062-.073.135-.094.218l-.063.25c-.02.063-.036.125-.046.188-.01.062-.026.125-.047.187-.021.063-.042.13-.063.203-.02.073-.031.151-.031.235-.02.083-.036.161-.047.234-.01.073-.026.151-.047.235 0 .062-.005.125-.015.187-.01.063-.016.125-.016.188-.02.125-.031.244-.031.359v.328c0 .042-.005.078-.016.11-.01.03-.016.067-.016.109v6.125l-1.218 2.656c-.021.083-.042.172-.063.266-.02.093-.031.182-.031.265 0 .375.13.693.39.953.261.26.568.391.922.391h18.688zm-9.344 4c.73 0 1.354-.26 1.875-.781.521-.521.781-1.146.781-1.875h-5.312c0 .729.26 1.354.781 1.875.521.52 1.146.781 1.875.781z"/>
    </g>
</svg>
