<svg xmlns="http://www.w3.org/2000/svg" width="37" height="36" viewBox="0 0 37 36">
    <g fill="none" fill-rule="evenodd">
        <path d="M15 15H53V53H15z" transform="translate(-16 -16)"/>
        <path fill="#494A4D" fill-rule="nonzero" d="M28.878 28.344V23h-5.312v5.344h5.312zm8 0V23h-5.312v5.344h5.312zm8 0V23h-5.312v5.344h5.312zm-16 8V31h-5.312v5.344h5.312zm8 0V31h-5.312v5.344h5.312zm8 0V31h-5.312v5.344h5.312zm-16 8V39h-5.312v5.344h5.312zm8 0V39h-5.312v5.344h5.312zm8 0V39h-5.312v5.344h5.312z" transform="translate(-16 -16)"/>
    </g>
</svg>
