<svg xmlns="http://www.w3.org/2000/svg" width="32" height="32" viewBox="0 0 32 32">
    <g fill="none" fill-rule="evenodd">
        <path d="M0 0h32v32H0z"/>
        <path fill="#212121" fill-rule="nonzero" d="M16 24.84a8.634 8.634 0 0 0 2.988-1.358 10.629 10.629 0 0 0 2.373-2.304 10.768 10.768 0 0 0 1.573-2.979c.377-1.094.566-2.213.566-3.36v-5L16 6.5 8.5 9.84v5c0 1.146.189 2.265.566 3.36a10.768 10.768 0 0 0 1.573 2.978c.67.892 1.461 1.66 2.373 2.304A8.634 8.634 0 0 0 16 24.84zm0-9.18h-5.84v-4.746L16 8.316v7.344zm0 0h5.84a9.856 9.856 0 0 1-1.934 4.658 8.69 8.69 0 0 1-1.748 1.71A7.056 7.056 0 0 1 16 23.101V15.66z"/>
    </g>
</svg>
