<svg xmlns="http://www.w3.org/2000/svg" xmlns:xlink="http://www.w3.org/1999/xlink" width="90" height="90" viewBox="0 0 90 90">
    <defs>
        <path id="prefix__a" d="M0 0H90V90H0z"/>
    </defs>
    <g fill="none" fill-rule="evenodd">
        <path fill="#FFF" fill-opacity="0" d="M0 0H90V90H0z"/>
        <mask id="prefix__b" fill="#fff">
            <use xlink:href="#prefix__a"/>
        </mask>
        <use fill="#E6E7EA" xlink:href="#prefix__a"/>
        <g fill="#9F9FA6" mask="url(#prefix__b)" opacity=".798">
            <g transform="translate(15 20)">
                <path d="M41.175 31.349c.014-.017.023-.035.037-.052l.032-.054c.011-.016.023-.035.036-.051l.032-.054c.012-.016.023-.035.037-.053.011-.017.022-.033.032-.052.011-.018.023-.035.036-.053l.034-.052c.01-.017.021-.035.035-.054l.034-.051.032-.054c.013-.016.023-.035.034-.052.014-.018.025-.035.035-.053.013-.017.022-.035.036-.052l.034-.053c.011-.017.02-.035.034-.054l.035-.051c.009-.017.02-.036.032-.052.013-.017.023-.035.036-.054.011-.018.02-.037.034-.053.012-.017.021-.035.034-.052l.033-.053.036-.052.034-.054c.012-.016.021-.035.034-.053l.035-.052c.013-.016.02-.035.032-.053.013-.017.025-.035.036-.054.013-.016.023-.033.033-.05l.036-.053.034-.052.034-.053.034-.052c.014-.019.023-.037.035-.055l.034-.052.034-.052.034-.053.035-.052c.011-.018.022-.037.034-.053l.034-.054c.013-.015.023-.035.034-.054.014-.016.023-.033.035-.05.013-.018.024-.036.034-.055l.034-.051c.013-.017.025-.035.036-.052.01-.019.021-.037.033-.052.013-.018.022-.037.036-.053l.032-.054c.013-.018.023-.037.036-.051.012-.019.023-.036.032-.054l.037-.054.032-.051.034-.054c.014-.016.025-.035.036-.053.012-.017.021-.035.033-.052.013-.017.024-.035.036-.053.011-.015.02-.034.032-.052.013-.017.025-.035.036-.054.012-.016.023-.035.033-.051.013-.017.022-.035.036-.054.011-.018.023-.033.034-.052.011-.018.021-.036.034-.053l.035-.052c.01-.018.02-.035.034-.053l.034-.052c.011-.017.023-.035.032-.053.014-.019.025-.036.036-.054.012-.017.023-.035.037-.052.01-.016.019-.035.032-.051l.034-.054c.014-.018.023-.037.034-.053l.035-.052c.013-.017.023-.035.034-.054l.034-.051c.012-.017.023-.037.036-.054.01-.016.021-.035.033-.051.011-.019.023-.035.036-.054l.032-.053c.012-.015.023-.034.034-.052.014-.019.025-.035.035-.054.013-.016.022-.035.036-.053.011-.015.023-.033.034-.052l.032-.052c.014-.018.023-.036.037-.051.01-.019.02-.037.032-.054l.036-.053c.011-.019.02-.035.032-.052.014-.018.023-.037.036-.053.012-.017.023-.036.033-.052.011-.019.023-.037.036-.054l.034-.053c.01-.017.021-.035.033-.052.013-.018.024-.037.036-.052l.032-.055c.013-.015.023-.033.034-.05.014-.018.025-.035.035-.053l.036-.056c.011-.014.022-.033.034-.05.01-.018.02-.035.034-.053 4.461-6.54 3.723-15.435-2.214-21.198-6.782-6.58-17.777-6.58-24.56 0-5.936 5.763-6.674 14.657-2.212 21.198l.033.054c.013.016.023.035.034.05.013.018.023.036.036.055.01.018.021.035.034.053.012.017.023.035.035.05l.032.055c.013.015.023.034.036.05.012.019.023.04.034.056.012.016.021.035.035.051l.034.054c.011.016.02.035.034.052.012.016.023.035.034.053.012.017.021.033.033.052l.036.053c.013.017.023.035.034.054l.034.051c.012.017.023.036.035.052.011.019.02.037.034.052l.034.053.034.054c.012.018.023.037.035.052.013.018.02.035.032.053l.038.054c.011.016.02.035.032.051.012.017.023.035.034.054.012.016.023.035.037.051l.032.054.034.052c.014.016.023.035.034.053l.035.052c.013.018.023.037.034.053l.034.052c.014.018.023.035.036.054.01.018.021.036.033.053.013.017.022.035.036.054l.032.051c.013.017.023.035.036.052.012.017.023.035.033.053.011.019.022.034.034.052l.036.054.032.051.037.054c.01.018.02.037.034.052l.034.053c.011.017.023.035.032.052.014.018.023.037.036.053l.035.054c.01.016.02.035.034.051l.034.054.033.054c.013.014.024.033.036.051.011.019.023.033.032.052.013.018.025.037.036.055.012.015.023.033.034.052l.035.052c.011.018.022.035.034.051.011.019.02.037.034.056l.034.05c.014.018.023.038.035.053l.034.054.034.053.034.05c.012.018.023.037.036.055l.033.052c.011.018.023.037.036.053.011.017.019.035.032.052l.035.054c.013.016.024.035.034.053l.034.052c.013.016.023.035.036.053l.033.052c.013.018.024.037.036.052.011.018.02.037.032.053.011.019.023.035.036.052l.032.053.037.054.034.052c.01.018.02.037.032.051.014.019.023.037.036.056.012.014.021.033.033.051l.036.054c.011.016.023.035.032.052.012.016.023.035.036.051l.035.054c.01.016.02.035.034.053l.034.052c.011.018.021.035.034.053l.035.054.034.052c.011.018.02.033.034.051l.034.054c.012.016.021.035.035.052l.034.053c.011.019.02.035.034.052l.034.053c.014.019.021.035.034.054l.035.051c.013.017.023.036.032.054.013.015.025.033.036.052.012.018.023.037.036.053.487.725 1.058 1.412 1.716 2.05 5.163 5.01 13.531 5.01 18.694 0 .657-.638 1.227-1.325 1.716-2.05l.034-.053z"/>
                <circle cx="30" cy="71.86" r="30"/>
            </g>
        </g>
    </g>
</svg>
