<svg xmlns="http://www.w3.org/2000/svg" xmlns:xlink="http://www.w3.org/1999/xlink" width="86" height="18" viewBox="0 0 86 18">
    <defs>
        <path id="prefix__a" d="M0.075 0.275L6.733 0.275 6.733 6.864 0.075 6.864z"/>
        <path id="prefix__c" d="M0.147 0.084L4.578 0.084 4.578 4.469 0.147 4.469z"/>
    </defs>
    <g fill="none" fill-rule="evenodd">
        <path d="M0 0H60V14H0z"/>
        <path fill="#212121" d="M38.087 10.83c-.08.191-.195.363-.344.511-.298.295-.695.457-1.117.457-.208 0-.41-.039-.6-.116-.193-.079-.367-.193-.516-.341-.298-.295-.462-.688-.462-1.105 0-.206.04-.406.117-.593.08-.192.196-.364.345-.512.298-.295.695-.458 1.116-.458.208 0 .41.04.6.117.194.079.367.193.517.341.298.295.462.687.462 1.105 0 .206-.04.406-.118.593m-.196-3.642c-.402-.163-.828-.246-1.265-.246-.889 0-1.725.343-2.354.965-.313.31-.557.673-.726 1.078-.165.398-.248.82-.248 1.252 0 .88.346 1.708.974 2.33.314.31.68.552 1.09.719.402.163.827.246 1.264.246.89 0 1.725-.343 2.354-.965.314-.31.558-.673.726-1.078.165-.398.25-.819.25-1.252 0-.88-.347-1.708-.976-2.33-.314-.31-.68-.552-1.09-.719M59.303 6.052h-1.75v4.184c0 .88.346 1.708.975 2.33.314.31.68.552 1.09.719.402.163.827.246 1.264.246h.46v-1.732h-.46c-.208 0-.41-.04-.6-.116-.193-.08-.367-.194-.516-.342-.298-.295-.463-.687-.463-1.105v-.863h2.04V7.641h-2.04v-1.59zM54.166 10.83c-.08.191-.196.363-.345.511-.298.295-.695.457-1.116.457-.209 0-.41-.039-.6-.116-.194-.079-.367-.193-.517-.341-.298-.295-.462-.688-.462-1.105 0-.206.04-.406.118-.593.08-.192.195-.364.344-.512.298-.295.695-.458 1.117-.458.207 0 .41.04.6.117.193.079.367.193.516.341.298.295.462.687.462 1.105 0 .206-.04.406-.117.593m-.197-3.642c-.402-.163-.827-.246-1.264-.246-.89 0-1.726.343-2.354.965-.314.31-.558.673-.726 1.078-.165.398-.25.82-.25 1.252 0 .88.347 1.708.976 2.33.314.31.68.552 1.089.719.402.163.827.246 1.265.246.56 0 1.099-.137 1.578-.393v.393h1.75v-3.295c0-.88-.346-1.708-.975-2.33-.313-.31-.68-.552-1.089-.719M67.578 7.188c-.402-.164-.827-.247-1.264-.247-.56 0-1.1.137-1.58.393V6.052h-1.75v7.479h1.75v-3.295c0-.206.04-.405.118-.593.08-.192.196-.364.345-.512.298-.295.695-.458 1.117-.458.207 0 .41.04.599.117.193.079.367.193.517.341.298.295.462.688.462 1.105v3.295h1.75v-3.295c0-.88-.346-1.707-.975-2.33-.314-.31-.68-.552-1.089-.718M45.873 7.188c-.402-.164-.828-.247-1.265-.247-.889 0-1.725.343-2.354.965-.313.31-.558.673-.726 1.078-.165.398-.249.82-.249 1.252v3.295h1.75v-3.295c0-.206.04-.405.118-.593.08-.192.195-.364.345-.512.298-.295.695-.458 1.116-.458.208 0 .41.04.6.117.193.079.367.193.516.341.298.295.463.688.463 1.105v3.295h1.75v-3.295c0-.88-.346-1.707-.975-2.33-.314-.31-.68-.552-1.09-.718"/>
        <g transform="translate(79.18 6.666)">
            <mask id="prefix__b" fill="#fff">
                <use xlink:href="#prefix__a"/>
            </mask>
            <path fill="#212121" d="M5.758 1.24c-.314-.31-.68-.553-1.09-.72C4.268.358 3.842.276 3.405.276c-.89 0-1.725.342-2.353.965-.314.31-.558.673-.727 1.078-.165.398-.249.819-.249 1.252v3.294h1.75V3.57c0-.206.04-.406.118-.594.08-.192.196-.364.345-.511.298-.296.694-.458 1.116-.458.208 0 .41.039.6.116.193.079.367.194.516.342.299.295.463.687.463 1.105v3.294h1.75V3.57c0-.88-.346-1.708-.975-2.33" mask="url(#prefix__b)"/>
        </g>
        <path fill="#212121" d="M75.836 10.83c-.08.191-.196.363-.346.511-.298.295-.694.457-1.116.457-.208 0-.41-.039-.599-.116-.194-.079-.368-.193-.517-.341-.298-.295-.462-.688-.462-1.105 0-.206.04-.406.117-.593.08-.192.196-.364.345-.512.298-.295.695-.458 1.116-.458.208 0 .41.04.6.117.194.079.368.193.516.341.299.295.463.687.463 1.105 0 .206-.04.406-.117.593m-.197-3.642c-.402-.163-.827-.246-1.265-.246-.889 0-1.725.343-2.353.965-.314.31-.558.673-.726 1.078-.165.398-.25.82-.25 1.252 0 .88.347 1.708.976 2.33.313.31.68.552 1.089.719.402.163.827.246 1.264.246.56 0 1.1-.137 1.58-.393v.393h1.749v-3.295c0-.88-.346-1.708-.975-2.33-.313-.31-.68-.552-1.089-.719M30.183 9.804c0 .263-.05.518-.15.758-.102.244-.25.464-.44.653-.38.376-.887.584-1.425.584s-1.044-.208-1.425-.584c-.19-.189-.338-.409-.44-.653-.099-.24-.15-.495-.15-.758h-1.75c0 .49.095.966.282 1.416.19.458.466.868.82 1.22.712.703 1.657 1.091 2.663 1.091 1.006 0 1.951-.388 2.662-1.092.355-.351.632-.761.822-1.22.186-.449.281-.925.281-1.415V6.943h-1.75v2.861z"/>
        <path fill="#2B2B2B" d="M8.861 9.146L13.291 9.146 13.291 4.76 8.861 4.76z" opacity=".5"/>
        <path fill="#2B2B2B" d="M13.291 13.531L17.722 13.531 17.722 9.146 13.291 9.146z"/>
        <path fill="#2B2B2B" d="M4.431 4.76L8.861 4.76 8.861 0.375 4.431 0.375z" opacity=".2"/>
        <path fill="#2B2B2B" d="M4.43 9.146c0 2.421 1.984 4.385 4.43 4.385V9.146H4.43z" opacity=".8"/>
        <path fill="#2B2B2B" d="M4.43.375C1.984.375 0 2.338 0 4.76h4.43V.375z" opacity=".2"/>
        <g transform="translate(8.714 .291)">
            <mask id="prefix__d" fill="#fff">
                <use xlink:href="#prefix__c"/>
            </mask>
            <path fill="#2B2B2B" d="M4.578 4.469C4.578 2.047 2.594.084.148.084v4.385h4.43z" mask="url(#prefix__d)" opacity=".2"/>
        </g>
        <path fill="#2B2B2B" d="M13.291 17.916c2.447 0 4.43-1.963 4.43-4.385h-4.43v4.385z"/>
        <path fill="#2B2B2B" d="M17.722 9.146c0-2.422-1.984-4.386-4.43-4.386v4.386h4.43z" opacity=".8"/>
    </g>
</svg>
