<svg xmlns="http://www.w3.org/2000/svg" width="76" height="76" viewBox="0 0 76 76">
    <g fill="none" fill-rule="evenodd">
        <path d="M0 0H76V76H0z"/>
        <g>
            <path fill="#002BFF" d="M41.332 11.077L41.332 0 0 0 0 11.077z" transform="translate(17 21)"/>
            <path fill="#002BFF" d="M33.797 19.689c2.081 0 3.857-.735 5.328-2.207 1.471-1.47 2.207-3.246 2.207-5.327V10.54H0v1.615c0 2.08.736 3.856 2.207 5.327 1.47 1.472 3.247 2.207 5.327 2.207 1.4 0 2.682-.359 3.848-1.076 1.166-.718 2.072-1.65 2.718-2.799.646 1.148 1.543 2.081 2.691 2.799 1.148.717 2.44 1.076 3.875 1.076 1.4 0 2.682-.359 3.848-1.076 1.166-.718 2.072-1.65 2.718-2.799.645 1.148 1.551 2.081 2.717 2.799 1.166.717 2.45 1.076 3.848 1.076z" transform="translate(17 21)"/>
            <path fill="#779EFF" d="M39.018 35.78V20.442c-.646.431-1.364.772-2.153 1.023-.79.251-1.597.413-2.422.484v4.682H6.89V21.95c-.826-.071-1.633-.233-2.422-.484-.79-.251-1.507-.592-2.153-1.023V35.78h36.704z" transform="translate(17 21)"/>
        </g>
    </g>
</svg>
