<svg xmlns="http://www.w3.org/2000/svg" xmlns:xlink="http://www.w3.org/1999/xlink" width="76" height="76" viewBox="0 0 76 76">
    <defs>
        <path id="prefix__a" d="M0.075 0.175L19.018 0.175 19.018 21.779 0.075 21.779z"/>
    </defs>
    <g fill="none" fill-rule="evenodd">
        <path d="M0 0H76V76H0z"/>
        <g>
            <path fill="#002BFF" d="M18.956 29.758c-8.102 0-15.17-4.346-18.956-10.802 0 10.469 8.487 18.955 18.956 18.955 10.468 0 18.955-8.486 18.955-18.955-3.785 6.456-10.854 10.802-18.955 10.802" transform="translate(19 20)"/>
            <path fill="#B6D5FF" d="M8.154 18.956c0-5.962 4.829-10.795 10.789-10.802-8.097.005-15.16 4.35-18.943 10.802 3.784 6.452 10.846 10.797 18.942 10.802-5.96-.008-10.788-4.84-10.788-10.802" transform="translate(19 20)"/>
            <g transform="translate(19 20) translate(18.894 7.979)">
                <mask id="prefix__b" fill="#fff">
                    <use xlink:href="#prefix__a"/>
                </mask>
                <path fill="#B6D5FF" d="M.076.175c5.96.008 10.788 4.841 10.788 10.802 0 5.962-4.83 10.795-10.789 10.802 8.096-.005 15.159-4.35 18.943-10.802C15.234 4.526 8.172.181.076.175" mask="url(#prefix__b)"/>
            </g>
            <path fill="#B6D5FF" d="M18.956 8.154h.014-.027.013M18.942 29.758h.027-.027" transform="translate(19 20)"/>
            <path fill="#0E4BFF" d="M18.956 8.154c8.101 0 15.17 4.346 18.955 10.801C37.911 8.486 29.424 0 18.956 0 8.487 0 0 8.486 0 18.955 3.786 12.5 10.854 8.154 18.956 8.154" transform="translate(19 20)"/>
            <path fill="#002BFF" d="M18.956 8.154v10.802H8.154c0 5.966 4.836 10.802 10.802 10.802 5.966 0 10.802-4.836 10.802-10.802 0-5.966-4.836-10.802-10.802-10.802" transform="translate(19 20)"/>
            <path fill="#779EFF" d="M18.956 8.154c-5.966 0-10.802 4.836-10.802 10.802h10.802V8.154z" transform="translate(19 20)"/>
        </g>
    </g>
</svg>
