<svg xmlns="http://www.w3.org/2000/svg" width="32" height="32" viewBox="0 0 32 32">
    <g fill="none" fill-rule="evenodd">
        <path fill="#FFF" fill-opacity="0" d="M0 0H32V32H0z"/>
        <path fill="#4EB4FF" fill-rule="nonzero" d="M18.06 25.007h-7.09c-1.638 0-2.97-1.332-2.97-2.97v-10.06c0-1.638 1.332-2.97 2.97-2.97h7.09c1.638 0 2.97 1.332 2.97 2.97v10.06c0 1.638-1.332 2.97-2.97 2.97zm-7.09-14.515c-.819 0-1.485.666-1.485 1.485v10.06c0 .819.666 1.485 1.485 1.485h7.09c.82 0 1.485-.666 1.485-1.485v-10.06c0-.819-.666-1.485-1.485-1.485h-7.09zM24 20.18V8.97C24 7.332 22.668 6 21.03 6H12.79c-.41 0-.743.332-.743.742s.333.743.743.743h8.241c.819 0 1.485.666 1.485 1.485V20.18c0 .41.332.742.743.742.41 0 .742-.332.742-.742z"/>
    </g>
</svg>
