<svg width="82" height="70" fill="none" xmlns="http://www.w3.org/2000/svg">
    <g clip-path="url(#a)">
        <path d="m39.573 1.808-.5-.273-.621-.338L36.257 0v36.648l.012.005 28.037 15.295V15.299L39.573 1.81z" fill="#002F77"/>
        <path d="M38.452 35.966V1.197L36.257 0v36.648l.012.005 28.037 15.295v-1.88L38.463 35.973l-.011-.006z" fill="#164abe"/>
        <g opacity=".4" fill="#ffffff">
            <path opacity=".4" d="M56.056 25.974c.299 0 .54-.24.54-.536a.538.538 0 0 0-.54-.535c-.298 0-.54.24-.54.535 0 .296.242.536.54.536zM60.659 21.323c.298 0 .54-.24.54-.536a.538.538 0 0 0-.54-.535c-.298 0-.54.24-.54.535 0 .296.242.536.54.536zM45.221 9.766c.299 0 .54-.24.54-.535a.538.538 0 0 0-.54-.536c-.298 0-.54.24-.54.536 0 .295.242.535.54.535z"/>
        </g>
        <path d="m4.844 10.439 15.071.458L59.63 32.594l-3.092 6.087L4.844 10.439z" fill="#6CDDFF"/>
        <path d="m4.844 10.439 51.694 28.242-.009 1.918L4.836 12.357l.008-1.918z" fill="#3BABFF"/>
        <path d="m16.158 22.436.013 6.166 4.844 2.642 25.229-7.874v-6.238l-30.086 5.304z" fill="#164ABE"/>
        <path d="m16.158 22.436 4.844 2.642 25.242-7.946-4.843-2.573-25.243 7.877z" fill="#2D76F8"/>
        <path d="m30.792 24.615 9.005-2.856L59.63 32.594l-3.093 6.087-25.745-14.066z" fill="#6CDDFF"/>
        <path d="m46.258 23.367 6.267-1.906-6.28-4.33.013 6.236z" fill="#F3B95B"/>
        <path d="M30.791 24.616 56.537 38.68l-.008 1.918-25.745-14.065.007-1.918z" fill="#3BABFF"/>
        <path d="m4.844 10.439 5.963 3.258 9.108-2.8-15.07-.458z" fill="#2D76F8"/>
        <path d="m59.614 32.586-3.077 6.095-5.895-3.222 8.972-2.873z" fill="#FFE953"/>
        <path d="m56.537 38.681-5.9-3.224-.008 1.918 5.9 3.224 3.092-6.087.008-1.918-3.092 6.087z" fill="#F3B95B"/>
        <path d="m10.803 13.694-.007 1.918-5.96-3.255.008-1.918 5.959 3.255z" fill="#164ABE"/>
        <path d="M2.291 62.154v4.605c.008.766.015 1.638-.39 2.038a.847.847 0 0 1-.634.233c-.603 0-.89-.145-1.155-.38l-.113-.102v1.175l.035.02c.332.174.705.262 1.08.254.723 0 1.24-.167 1.58-.512.59-.587.588-1.616.585-2.707V61.85l-.988.304zM12.116 61.793c-.812 0-1.607.24-2.282.687a4.084 4.084 0 0 0-1.514 1.83 4.047 4.047 0 0 0 .89 4.442 4.14 4.14 0 0 0 4.478.884 4.102 4.102 0 0 0 1.845-1.501c.452-.67.693-1.459.693-2.265a4.066 4.066 0 0 0-1.205-2.882 4.13 4.13 0 0 0-2.905-1.195zm0 7.248c-1.714 0-3.11-1.422-3.11-3.174s1.396-3.175 3.11-3.175c1.715 0 3.11 1.423 3.11 3.175 0 1.752-1.395 3.174-3.11 3.174zM26.637 67.665l-5.685-5.907v8.018h.979v-5.648l5.684 5.865v-8.117l-.978.3v5.49zM42.58 62.87h2.674v6.906h.979V62.87h2.369l.305-.895h-6.021l-.306.895zM58.806 65.46H54.37v-3.605l-.978.299v7.622h.978v-3.42h4.436v3.42h.978v-7.921l-.978.299v3.306zM81.023 67.665l-5.685-5.907v8.018h.978v-5.648L82 69.993v-8.117l-.977.3v5.49zM35.37 61.752l-3.41 8.024h.99l2.42-5.706 2.42 5.706h.988l-3.408-8.024zM67.561 61.752l-3.41 8.024h.99l2.42-5.706 2.42 5.706h.99l-3.41-8.024z" fill="#002E77"/>
    </g>
    <defs>
        <clipPath id="a">
            <path fill="#ffffff" d="M0 0h82v70H0z"/>
        </clipPath>
    </defs>
</svg>
