<svg width="122" height="90" fill="none" xmlns="http://www.w3.org/2000/svg">
    <path d="M3.41 78.223v6.915c.011 1.15.022 2.46-.58 3.06a1.26 1.26 0 0 1-.944.35c-.897 0-1.322-.218-1.719-.57L0 87.824v1.764l.052.029A3.272 3.272 0 0 0 1.66 90c1.075 0 1.843-.251 2.35-.77.878-.88.875-2.425.87-4.063v-7.4l-1.47.456zM18.029 77.682a6.107 6.107 0 0 0-5.648 3.778 6.129 6.129 0 0 0 1.325 6.671 6.11 6.11 0 0 0 10.436-4.328 6.133 6.133 0 0 0-1.793-4.326 6.117 6.117 0 0 0-4.32-1.795zm0 10.883c-2.55 0-4.627-2.136-4.627-4.767 0-2.63 2.077-4.766 4.627-4.766s4.627 2.135 4.627 4.766c0 2.631-2.076 4.767-4.627 4.767zM39.632 86.5l-8.458-8.87v12.04h1.456v-8.48l8.456 8.805V77.808l-1.454.45V86.5zM63.352 79.3h3.978v10.368h1.456V79.3h3.524l.454-1.344h-8.958l-.454 1.344zM87.495 83.187h-6.6v-5.414l-1.456.45v11.444h1.456V84.53h6.6v5.136h1.454V77.773l-1.454.45v4.964zM120.546 86.5l-8.456-8.87v12.04h1.454v-8.48L122 89.994V77.808l-1.454.45V86.5zM52.625 77.621l-5.072 12.047h1.472l3.6-8.567 3.599 8.567h1.47l-5.07-12.047zM100.517 77.621l-5.072 12.047h1.473l3.599-8.567 3.599 8.567h1.473l-5.072-12.047zM67.284 2.162l-.593-.327-.734-.404L63.357 0v43.809l.014.006 33.207 18.283V18.289L67.284 2.162z" fill="#ffffff"/>
    <path d="M65.957 42.994V1.43L63.357 0v43.809l.014.006 33.207 18.283v-2.246L65.97 43l-.013-.007z" fill="#81A0D8"/>
    <g opacity=".4" fill="#ffffff">
        <path opacity=".4" d="M86.807 31.047a.64.64 0 1 0 0-1.28.64.64 0 0 0 0 1.28zM92.257 25.487a.64.64 0 1 0-.001-1.279.64.64 0 0 0 0 1.28zM73.975 11.674a.64.64 0 1 0 0-1.28.64.64 0 0 0 0 1.28z"/>
    </g>
    <path d="m26.152 12.479 17.85.547 47.04 25.936-3.663 7.276-61.227-33.76z" fill="#6CDDFF"/>
    <path d="m26.15 12.479 61.227 33.76-.01 2.292-61.226-33.76.01-2.293z" fill="#3BABFF"/>
    <path d="m39.55 26.82.016 7.371 5.737 3.159 29.882-9.413V20.48L39.55 26.82z" fill="#164ABE"/>
    <path d="m39.55 26.82 5.738 3.158 29.897-9.499-5.736-3.075L39.55 26.82z" fill="#2D76F8"/>
    <path d="m56.883 29.423 10.665-3.414 23.49 12.951-3.662 7.277-30.493-16.814z" fill="#6CDDFF"/>
    <path d="m75.2 27.933 7.422-2.278-7.438-5.175.016 7.453z" fill="#F3B95B"/>
    <path d="m56.884 29.423 30.493 16.814-.01 2.292-30.492-16.813.009-2.293z" fill="#3BABFF"/>
    <path d="m26.152 12.479 7.063 3.894 10.787-3.347-17.85-.547z" fill="#2D76F8"/>
    <path d="m91.021 38.954-3.644 7.286-6.983-3.851 10.627-3.435z" fill="#FFE953"/>
    <path d="m87.376 46.236-6.987-3.854-.01 2.293 6.987 3.853 3.663-7.275.01-2.293-3.663 7.276z" fill="#F3B95B"/>
    <path d="m33.208 16.37-.01 2.293-7.057-3.892.01-2.293 7.057 3.892z" fill="#164ABE"/>
</svg>
