<svg width="360" height="444" viewBox="0 0 360 444" fill="none" xmlns="http://www.w3.org/2000/svg">
<g opacity="0.8">
<path d="M107.245 389.278L54.3145 360.503V348.104L189.91 305.44L217.513 268.576V4.4682L230.835 0L283.765 28.6766V300.949L251.392 343.832L107.245 389.278Z" fill="#1E5BC5"/>
<path d="M217.513 4.4668L270.444 33.1434V297.145L242.841 334.01L107.245 376.877V389.276L54.3145 360.501V348.102L189.91 305.439L217.513 268.574V4.4668Z" fill="#002F77"/>
<g opacity="0.7">
<path d="M191.083 333.172C193.087 333.172 194.712 331.547 194.712 329.543C194.712 327.539 193.087 325.914 191.083 325.914C189.078 325.914 187.454 327.539 187.454 329.543C187.454 331.547 189.078 333.172 191.083 333.172Z" fill="white"/>
</g>
<g opacity="0.7">
<path d="M223.743 307.218C225.706 307.218 227.297 305.627 227.297 303.665C227.297 301.702 225.706 300.111 223.743 300.111C221.781 300.111 220.19 301.702 220.19 303.665C220.19 305.627 221.781 307.218 223.743 307.218Z" fill="white"/>
</g>
<g opacity="0.7">
<path d="M243.975 66.5263C245.925 66.5263 247.506 64.9455 247.506 62.9956C247.506 61.0456 245.925 59.4648 243.975 59.4648C242.025 59.4648 240.444 61.0456 240.444 62.9956C240.444 64.9455 242.025 66.5263 243.975 66.5263Z" fill="white"/>
</g>
<path d="M54.3145 348.102L54.4127 196.879C68.4751 180.541 83.6035 166.108 144.412 163.069C188.111 160.877 215.994 149.173 217.513 131.693V268.582L189.91 305.447L54.3145 348.11V348.102Z" fill="#BAB0F8" fill-opacity="0.5"/>
<path d="M126.494 189.395C116.786 190.823 109.211 195.246 103.616 200.062L116.711 228.807L148.094 225.012L163.162 195.896L131.197 199.767L126.494 189.402V189.395Z" fill="#3BABFF"/>
<path d="M156.705 303.321L182.879 284.783L167.259 278.961C160.062 280.239 152.199 280.186 143.792 278.031C137.88 276.512 132.837 275.997 128.535 276.232L127.726 292.525L156.705 303.321Z" fill="#164ABE"/>
<path d="M182.879 284.791L183.409 273.602C178.509 275.998 173.096 277.934 167.252 278.977L182.872 284.799L182.879 284.791Z" fill="#2D76F8"/>
<path d="M167.252 278.97L153.356 273.791L155.042 241.213L129.367 259.517L128.535 276.233C132.837 276.006 137.88 276.512 143.792 278.032C152.192 280.187 160.054 280.247 167.26 278.962L167.252 278.97Z" fill="#164ABE"/>
<path d="M167.252 278.97C173.096 277.934 178.502 276.006 183.409 273.594L184.444 251.964L155.042 241.213L153.356 273.791L167.252 278.97Z" fill="#2D76F8"/>
<path d="M136.708 189.049C133.064 188.777 129.67 188.935 126.494 189.397L131.197 199.762L163.162 195.891L157.726 184.014C152.933 187.491 146.197 189.729 136.708 189.034V189.049Z" fill="#6CDDFF"/>
<path d="M194.303 187.082L222.171 197.795L216.856 175.719C208.751 183.12 200.934 186.175 194.303 187.082Z" fill="#F3B95B"/>
<path d="M222.625 169.738C220.697 171.999 218.769 173.979 216.856 175.726L222.171 197.802L249.025 180.043L243.537 157.838C236.407 158.722 229.149 162.11 222.617 169.746L222.625 169.738Z" fill="#FFE953"/>
<path d="M107.245 221.7L54.4131 196.871C68.4754 180.533 83.6038 166.101 144.412 163.061C188.111 160.869 215.994 149.165 217.514 131.686L270.444 149.158C267.821 164.906 244.761 195.904 176.362 197.181C139.891 199.525 114.473 211.962 107.238 221.7H107.245Z" fill="#A49DF2" fill-opacity="0.5"/>
<path d="M214.678 166.66L241.397 149.135L212.796 138.256L185.76 156.061L193.124 186.627L194.303 187.081C200.941 186.174 208.743 183.119 216.856 175.718L214.671 166.653L214.678 166.66Z" fill="#F3B95B"/>
<path d="M216.856 175.719C218.761 173.972 220.689 171.992 222.624 169.731C229.149 162.095 236.422 158.715 243.544 157.823L241.397 149.129L214.678 166.654L216.863 175.719H216.856Z" fill="#FFE953"/>
<path d="M126.494 189.395L117.422 169.383L102.694 198.067L103.601 200.063C109.196 195.247 116.771 190.817 126.479 189.395H126.494Z" fill="#3BABFF"/>
<path d="M117.429 169.383L126.502 189.396C129.677 188.927 133.079 188.783 136.716 189.048C146.204 189.743 152.94 187.505 157.734 184.028L149.183 165.354L117.429 169.391V169.383Z" fill="#6CDDFF"/>
<path d="M107.245 221.701L54.4127 196.873L54.3145 348.096L107.245 376.871V221.701Z" fill="#919BF6" fill-opacity="0.5"/>
<path d="M107.245 221.702V376.872L242.841 334.005L270.444 297.14V149.168C267.82 164.916 244.761 195.914 176.362 197.192C139.891 199.535 114.473 211.972 107.237 221.71L107.245 221.702Z" fill="#BAB0F8" fill-opacity="0.5"/>
<path d="M139.861 358.878C139.861 358.878 135.46 354.811 138.878 350.736C142.295 346.661 146.695 349.919 146.695 349.919L150.929 353.011" stroke="#FFE895" stroke-width="3" stroke-miterlimit="10"/>
<path d="M340.869 254.876C340.869 254.876 342.721 250.045 338.518 248.2C334.314 246.356 332.152 250.559 332.152 250.559L330.058 254.574" stroke="#FFE895" stroke-width="3" stroke-miterlimit="10"/>
<path d="M156.879 363.777C172.99 368.698 189.079 374.346 205.545 377.998C220.976 381.423 237.42 382.541 252.337 376.395C277.619 365.969 292.074 340.097 304.11 317.008C312.956 300.035 320.176 282.268 329.241 265.401C332.462 259.398 323.329 254.052 320.101 260.055C306.046 286.214 295.786 314.362 279.025 339.046C272.326 348.913 264.192 358.212 253.66 364.094C240.83 371.261 225.913 371.292 211.821 368.524C194.137 365.054 176.907 358.84 159.699 353.578C153.167 351.582 150.377 361.796 156.887 363.784L156.879 363.777Z" fill="#FF7980"/>
<path d="M167.814 354.436L155.476 347.273C154.747 346.849 153.812 347.097 153.388 347.827L147.436 358.079C147.013 358.808 147.26 359.743 147.99 360.166L160.328 367.33C161.057 367.753 161.992 367.505 162.415 366.776L168.368 356.524C168.791 355.794 168.543 354.86 167.814 354.436Z" fill="#FFE895"/>
<path d="M168.476 356.384C168.854 355.734 168.635 354.895 167.985 354.517L155.367 347.191C154.716 346.813 153.877 347.032 153.499 347.682L152.569 349.285L167.486 358.086L168.484 356.369L168.476 356.384Z" fill="#F0F0F0"/>
<path d="M28.9645 310.445C41.666 330.827 46.2401 356.896 66.0861 372.296C74.0094 378.443 83.6187 381.792 93.6892 380.628C103.026 379.547 111.713 374.837 116.325 366.422C118.661 362.15 112.137 358.332 109.8 362.604C105.808 369.892 97.8474 373.287 89.7653 373.309C80.6399 373.34 72.6032 368.773 66.3129 362.415C51.0863 347.029 46.7088 324.598 35.5043 306.619C32.9338 302.499 26.394 306.286 28.9797 310.437L28.9645 310.445Z" fill="#FF7980"/>
<path d="M22.1151 304.481C22.1151 304.481 20.1569 301.109 23.0677 299.234C25.9709 297.359 28.0878 300.224 28.0878 300.224L30.1291 302.961" stroke="#FFE895" stroke-width="2" stroke-miterlimit="10"/>
<path d="M38.4398 307.337L32.9479 300.393C32.4246 299.732 31.4642 299.619 30.8026 300.143L25.1573 304.607C24.4958 305.131 24.3836 306.091 24.9068 306.753L30.3987 313.697C30.9219 314.358 31.8824 314.47 32.5439 313.947L38.1893 309.482C38.8508 308.959 38.963 307.999 38.4398 307.337Z" fill="#FFE895"/>
<path d="M38.6418 309.107C39.0501 308.782 39.1181 308.192 38.793 307.792L32.5708 299.921C32.2457 299.513 31.656 299.445 31.2553 299.77L30.2573 300.564L37.5758 309.961L38.6418 309.115V309.107Z" fill="#F0F0F0"/>
<path d="M328.613 268.229L334.547 259.511C335.022 258.813 334.841 257.863 334.144 257.389L326.994 252.522C326.296 252.048 325.346 252.228 324.872 252.925L318.938 261.644C318.463 262.342 318.644 263.292 319.341 263.766L326.491 268.633C327.188 269.107 328.138 268.927 328.613 268.229Z" fill="#FFE895"/>
<path d="M318.951 263.48C318.46 263.148 318.339 262.482 318.672 261.991L325.121 252.518C325.453 252.026 326.119 251.905 326.61 252.238L327.812 253.062L320.237 264.357L318.951 263.48Z" fill="#F0F0F0"/>
<path d="M126.244 355.897C126.244 355.897 128.716 350.438 123.984 348.011C119.251 345.584 116.461 350.294 116.461 350.294L113.754 354.793" stroke="#FFE895" stroke-width="3" stroke-miterlimit="10"/>
<path d="M137.139 335.244H128.936V435.548H137.139V335.244Z" fill="#D2D6DF"/>
<path d="M137.139 335.244H128.936V342.555H137.139V335.244Z" fill="#C0C6D1"/>
<path d="M137.139 335.244H134.841V434.822H137.139V335.244Z" fill="#C2C4D2"/>
<path d="M132.799 339.804C138.47 339.804 143.066 335.207 143.066 329.537C143.066 323.866 138.47 319.27 132.799 319.27C127.129 319.27 122.532 323.866 122.532 329.537C122.532 335.207 127.129 339.804 132.799 339.804Z" fill="#EAEBEF"/>
<path d="M142.492 349.752H123.114C122.793 349.752 122.532 350.013 122.532 350.334V355.203C122.532 355.525 122.793 355.785 123.114 355.785H142.492C142.813 355.785 143.074 355.525 143.074 355.203V350.334C143.074 350.013 142.813 349.752 142.492 349.752Z" fill="#EAEBEF"/>
<path d="M115.803 443.722C115.319 443.722 115.017 443.201 115.259 442.785C116.665 440.358 121.428 434.052 133.033 434.045C144.661 434.045 149.258 440.373 150.589 442.8C150.816 443.216 150.513 443.722 150.037 443.722H115.803Z" fill="#EAEBEF"/>
<path d="M128.936 329.196C130.677 329.196 132.089 327.785 132.089 326.043C132.089 324.302 130.677 322.891 128.936 322.891C127.195 322.891 125.783 324.302 125.783 326.043C125.783 327.785 127.195 329.196 128.936 329.196Z" fill="white"/>
<path d="M142.053 325.1C139.823 335.193 131.824 337.393 126.607 337.718C128.331 339.026 130.471 339.805 132.799 339.805C138.47 339.805 143.066 335.208 143.066 329.538C143.066 327.95 142.696 326.445 142.046 325.1H142.053Z" fill="#D9DEE8"/>
<path d="M147.02 438.535C139.649 443.215 123.689 442.769 115.622 442.187C115.478 442.406 115.357 442.603 115.252 442.784C115.01 443.2 115.32 443.722 115.796 443.722H150.029C150.506 443.722 150.816 443.215 150.581 442.799C150.037 441.801 148.933 440.146 147.013 438.535H147.02Z" fill="#D3D4E0"/>
<path d="M19.8997 285.52H12.4678V376.418H19.8997V285.52Z" fill="#D2D6DF"/>
<path d="M19.8997 285.52H12.4678V292.142H19.8997V285.52Z" fill="#C0C6D1"/>
<path d="M19.8994 285.52H17.8203V375.761H19.8994V285.52Z" fill="#C2C4D2"/>
<path d="M15.9758 289.655C21.1158 289.655 25.2827 285.488 25.2827 280.348C25.2827 275.208 21.1158 271.041 15.9758 271.041C10.8358 271.041 6.66895 275.208 6.66895 280.348C6.66895 285.488 10.8358 289.655 15.9758 289.655Z" fill="#EAEBEF"/>
<path d="M24.7005 298.666H7.2511C6.92958 298.666 6.66895 298.927 6.66895 299.248V303.55C6.66895 303.872 6.92958 304.132 7.2511 304.132H24.7005C25.022 304.132 25.2827 303.872 25.2827 303.55V299.248C25.2827 298.927 25.022 298.666 24.7005 298.666Z" fill="#EAEBEF"/>
<path d="M0.575121 383.827C0.136618 383.827 -0.135557 383.358 0.0761346 382.98C1.34628 380.78 5.66327 375.064 16.1874 375.057C26.7114 375.049 30.8923 380.795 32.0945 382.988C32.2986 383.366 32.0264 383.827 31.5955 383.827H0.575121Z" fill="#EAEBEF"/>
<path d="M12.4677 280.038C14.046 280.038 15.3255 278.758 15.3255 277.18C15.3255 275.602 14.046 274.322 12.4677 274.322C10.8894 274.322 9.60986 275.602 9.60986 277.18C9.60986 278.758 10.8894 280.038 12.4677 280.038Z" fill="white"/>
<path d="M24.3605 276.326C22.3419 285.474 15.0915 287.47 10.3662 287.758C11.9237 288.944 13.8667 289.655 15.976 289.655C21.1171 289.655 25.2829 285.489 25.2829 280.348C25.2829 278.904 24.9427 277.543 24.3605 276.326Z" fill="#D9DEE8"/>
<path d="M28.8664 379.123C22.1905 383.364 7.71991 382.963 0.408998 382.434C0.280471 382.631 0.167065 382.812 0.0763403 382.971C-0.142911 383.349 0.136824 383.818 0.575327 383.818H31.5957C32.0266 383.818 32.3063 383.357 32.0947 382.979C31.5957 382.079 30.5977 380.574 28.8664 379.115V379.123Z" fill="#D3D4E0"/>
<path d="M348.921 236.738H342.2V318.92H348.921V236.738Z" fill="#D2D6DF"/>
<path d="M348.921 236.738H342.2V242.726H348.921V236.738Z" fill="#C0C6D1"/>
<path d="M348.921 236.738H347.038V318.323H348.921V236.738Z" fill="#C2C4D2"/>
<path d="M345.367 240.474C350.015 240.474 353.782 236.707 353.782 232.059C353.782 227.412 350.015 223.645 345.367 223.645C340.72 223.645 336.953 227.412 336.953 232.059C336.953 236.707 340.72 240.474 345.367 240.474Z" fill="#EAEBEF"/>
<path d="M353.2 248.623H337.535C337.213 248.623 336.953 248.884 336.953 249.205V252.985C336.953 253.307 337.213 253.568 337.535 253.568H353.2C353.521 253.568 353.782 253.307 353.782 252.985V249.205C353.782 248.884 353.521 248.623 353.2 248.623Z" fill="#EAEBEF"/>
<path d="M331.441 325.613C331.048 325.613 330.798 325.189 330.995 324.849C332.144 322.861 336.053 317.689 345.556 317.689C355.06 317.689 358.847 322.876 359.936 324.857C360.125 325.197 359.868 325.613 359.483 325.613H331.441Z" fill="#EAEBEF"/>
<path d="M342.2 231.779C343.624 231.779 344.778 230.625 344.778 229.201C344.778 227.777 343.624 226.623 342.2 226.623C340.776 226.623 339.622 227.777 339.622 229.201C339.622 230.625 340.776 231.779 342.2 231.779Z" fill="white"/>
<path d="M352.943 228.43C351.113 236.701 344.559 238.5 340.294 238.765C341.708 239.838 343.462 240.481 345.367 240.481C350.017 240.481 353.782 236.716 353.782 232.066C353.782 230.766 353.48 229.534 352.951 228.43H352.943Z" fill="#D9DEE8"/>
<path d="M357.018 321.363C350.977 325.196 337.898 324.833 331.29 324.357C331.177 324.531 331.071 324.697 330.988 324.841C330.791 325.181 331.04 325.604 331.434 325.604H359.475C359.868 325.604 360.118 325.189 359.929 324.848C359.483 324.032 358.575 322.671 357.01 321.355L357.018 321.363Z" fill="#D3D4E0"/>
<path d="M117.895 366.388L121.163 356.36C121.424 355.558 120.986 354.696 120.184 354.435L111.96 351.755C111.158 351.494 110.296 351.932 110.035 352.734L106.767 362.762C106.506 363.564 106.944 364.426 107.746 364.687L115.969 367.367C116.771 367.628 117.633 367.19 117.895 366.388Z" fill="#FFE895"/>
<path d="M107.313 364.554C106.754 364.373 106.444 363.768 106.625 363.201L110.179 352.306C110.36 351.747 110.965 351.437 111.532 351.618L112.915 352.072L108.795 365.038L107.313 364.554Z" fill="#F0F0F0"/>
</g>
</svg>
