<svg width="198" height="220" viewBox="0 0 198 220" fill="none" xmlns="http://www.w3.org/2000/svg">
<path d="M39.12 132.368V136.4H35.536V142.544H31.28V126.32H35.536V132.368H39.12ZM21.744 130.384C21.68 130.789 21.616 131.195 21.552 131.6C21.488 131.984 21.4133 132.368 21.328 132.752C22.2027 134.011 23.2587 135.184 24.496 136.272C25.7333 137.339 27.088 138.245 28.56 138.992L26.032 142.064C24.8373 141.403 23.696 140.624 22.608 139.728C21.52 138.811 20.5493 137.84 19.696 136.816C18.992 138.032 18.16 139.141 17.2 140.144C16.24 141.125 15.184 141.979 14.032 142.704C13.776 142.491 13.52 142.277 13.264 142.064C13.008 141.829 12.752 141.605 12.496 141.392C12.24 141.157 11.984 140.933 11.728 140.72C11.472 140.485 11.2267 140.251 10.992 140.016C12.8267 138.928 14.2987 137.595 15.408 136.016C16.5173 134.416 17.232 132.539 17.552 130.384H12.208V126.768H27.216V130.384H21.744ZM35.536 143.536V153.808H12.816V143.536H35.536ZM17.04 150.288H31.28V147.056H17.04V150.288ZM65.0845 149.936V153.808H41.6285V144.72H45.8525V149.936H65.0845ZM67.9325 133.904V137.936H64.4765V146.8H60.2525V126.32H64.4765V133.904H67.9325ZM53.5005 130.48H50.2045V126.768H57.7245V129.104C57.7245 130.469 57.5965 131.867 57.3405 133.296C57.1058 134.704 56.7538 136.069 56.2845 137.392C55.7938 138.715 55.1752 139.973 54.4285 141.168C53.7032 142.341 52.8498 143.376 51.8685 144.272L48.2845 142.224C49.1592 141.499 49.9165 140.667 50.5565 139.728C51.1965 138.768 51.7298 137.765 52.1565 136.72C52.5832 135.696 52.9032 134.651 53.1165 133.584C53.3298 132.517 53.4578 131.483 53.5005 130.48ZM45.2445 130.48H41.0205V126.768H49.4365V129.072C49.4365 130.416 49.2872 131.739 48.9885 133.04C48.7112 134.341 48.2952 135.589 47.7405 136.784C47.2072 137.957 46.5352 139.056 45.7245 140.08C44.9352 141.104 44.0392 141.989 43.0365 142.736L39.7725 140.528C41.5005 139.269 42.8125 137.744 43.7085 135.952C44.6258 134.16 45.1378 132.336 45.2445 130.48ZM69.545 125.872H73.769V145.264H69.545V125.872ZM74.089 153.488H69.225V148.72H74.089V153.488Z" fill="#747474"/>
<g filter="url(#filter0_di_5780_43121)">
<path d="M67.408 52V63.136H58.864V76H46.288V63.136H12.88V55.072L31.216 10.72H44.464L27.856 52H46.288V33.088H58.864V52H67.408ZM103.859 9.568C112.947 9.568 120.115 12.704 125.363 18.976C130.611 25.248 133.235 33.376 133.235 43.36C133.235 53.344 130.611 61.472 125.363 67.744C120.115 74.016 112.947 77.152 103.859 77.152C94.7068 77.152 87.5068 74.016 82.2588 67.744C77.0108 61.472 74.3868 53.344 74.3868 43.36C74.3868 33.376 77.0108 25.248 82.2588 18.976C87.5068 12.704 94.7068 9.568 103.859 9.568ZM103.859 65.344C109.107 65.344 113.107 63.328 115.859 59.296C118.675 55.2 120.083 49.888 120.083 43.36C120.083 36.832 118.675 31.552 115.859 27.52C113.107 23.424 109.107 21.376 103.859 21.376C98.5468 21.376 94.4828 23.424 91.6668 27.52C88.9148 31.552 87.5388 36.832 87.5388 43.36C87.5388 49.888 88.9148 55.2 91.6668 59.296C94.4828 63.328 98.5468 65.344 103.859 65.344ZM175.137 43.072C181.025 46.144 183.969 50.976 183.969 57.568C183.969 63.136 181.825 67.808 177.537 71.584C173.249 75.296 167.905 77.152 161.505 77.152C154.977 77.152 149.537 75.456 145.185 72.064C140.897 68.608 138.273 63.936 137.313 58.048H149.985C150.561 60.48 151.873 62.432 153.921 63.904C156.033 65.312 158.561 66.016 161.505 66.016C164.449 66.016 166.881 65.216 168.801 63.616C170.785 62.016 171.777 60 171.777 57.568C171.777 54.88 170.689 52.768 168.513 51.232C166.337 49.632 163.425 48.832 159.777 48.832H154.785V38.368H159.777C162.721 38.368 165.089 37.568 166.881 35.968C168.673 34.304 169.569 32.16 169.569 29.536C169.569 26.848 168.705 24.704 166.977 23.104C165.313 21.504 163.137 20.704 160.449 20.704C157.697 20.704 155.425 21.472 153.633 23.008C151.905 24.544 150.881 26.56 150.561 29.056H137.889C138.337 23.232 140.609 18.528 144.705 14.944C148.801 11.36 154.049 9.568 160.449 9.568C166.721 9.568 171.841 11.424 175.809 15.136C179.777 18.848 181.761 23.616 181.761 29.44C181.761 35.392 179.553 39.936 175.137 43.072Z" fill="#C8DBFD"/>
</g>
<path d="M17.648 189.016V190.376H11.024V189.016H12.24V180.168H13.744V189.016H14.56L15.312 180.168H16.816L16.064 189.016H17.648ZM20.048 177.224V190.824H18.544V184.392H17.04V183.032H18.544V177.224H20.048ZM22.912 190.984H21.408V177.16H22.912V190.984ZM17.504 177.448V178.808H11.184V177.448H17.504ZM37.3183 177.16V190.984H35.8143V177.16H37.3183ZM26.9343 181.672V186.184C26.9343 187.24 27.1156 188.003 27.4783 188.472C27.8516 188.941 28.4009 189.176 29.1263 189.176C29.8303 189.176 30.3689 188.941 30.7423 188.472C31.1156 188.003 31.3023 187.24 31.3023 186.184V181.672C31.3023 180.616 31.1156 179.853 30.7423 179.384C30.3689 178.904 29.8303 178.664 29.1263 178.664C28.4009 178.664 27.8516 178.904 27.4783 179.384C27.1156 179.853 26.9343 180.616 26.9343 181.672ZM25.4303 186.184V181.672C25.4303 180.2 25.7716 179.107 26.4543 178.392C27.1369 177.667 28.0276 177.304 29.1263 177.304C30.2143 177.304 31.0996 177.667 31.7823 178.392C32.4649 179.107 32.8063 180.2 32.8063 181.672V186.184C32.8063 187.645 32.4649 188.733 31.7823 189.448C31.0996 190.163 30.2143 190.52 29.1263 190.52C28.0276 190.52 27.1369 190.163 26.4543 189.448C25.7716 188.733 25.4303 187.645 25.4303 186.184ZM39.9965 178.808V177.448H47.3405V178.808H44.2045C44.1938 179.48 44.1565 180.141 44.0925 180.792C44.0392 181.432 43.9645 182.067 43.8685 182.696C44.0605 183.325 44.2952 183.949 44.5725 184.568C44.8605 185.187 45.1912 185.789 45.5645 186.376C45.9272 186.963 46.3272 187.517 46.7645 188.04C47.2018 188.563 47.6712 189.032 48.1725 189.448L47.0365 190.376C46.2578 189.64 45.5538 188.819 44.9245 187.912C44.2952 187.005 43.7672 186.072 43.3405 185.112C43.0632 186.104 42.7112 187.059 42.2845 187.976C41.8578 188.883 41.3458 189.747 40.7485 190.568L39.3885 189.864C40.6045 188.232 41.4525 186.504 41.9325 184.68C42.4125 182.845 42.6685 180.888 42.7005 178.808H39.9965ZM50.2205 177.16H51.7245V190.984H50.2205V177.16ZM66.1308 190.984H64.6268V177.16H66.1308V190.984ZM55.7468 180.312V187.528C55.7468 188.136 55.8641 188.563 56.0988 188.808C56.3334 189.053 56.6428 189.176 57.0268 189.176C57.4001 189.176 57.7041 189.053 57.9388 188.808C58.1841 188.563 58.3068 188.136 58.3068 187.528V180.312C58.3068 179.715 58.1841 179.293 57.9388 179.048C57.7041 178.792 57.4001 178.664 57.0268 178.664C56.6428 178.664 56.3334 178.792 56.0988 179.048C55.8641 179.293 55.7468 179.715 55.7468 180.312ZM54.2428 187.528V180.312C54.2428 179.789 54.3121 179.341 54.4508 178.968C54.6001 178.584 54.8028 178.269 55.0588 178.024C55.3148 177.779 55.6081 177.597 55.9388 177.48C56.2801 177.363 56.6428 177.304 57.0268 177.304C57.4001 177.304 57.7521 177.363 58.0828 177.48C58.4241 177.597 58.7228 177.779 58.9788 178.024C59.2348 178.269 59.4374 178.584 59.5868 178.968C59.7361 179.341 59.8108 179.789 59.8108 180.312V182.712H61.5388V177.224H63.0428V190.824H61.5388V184.072H59.8108V187.528C59.8108 188.061 59.7361 188.515 59.5868 188.888C59.4374 189.261 59.2348 189.571 58.9788 189.816C58.7228 190.061 58.4241 190.237 58.0828 190.344C57.7521 190.461 57.4001 190.52 57.0268 190.52C56.6428 190.52 56.2801 190.461 55.9388 190.344C55.6081 190.237 55.3148 190.061 55.0588 189.816C54.8028 189.571 54.6001 189.261 54.4508 188.888C54.3121 188.515 54.2428 188.061 54.2428 187.528ZM73.1506 184.984L71.9666 184.024C72.948 183.448 73.7373 182.739 74.3346 181.896C74.9426 181.053 75.3 180.024 75.4066 178.808H72.5746V177.448H79.9186V178.808H76.9106C76.8893 179.032 76.8573 179.256 76.8146 179.48C76.7826 179.693 76.7453 179.901 76.7026 180.104C77.1506 180.797 77.7106 181.427 78.3826 181.992C79.0653 182.547 79.812 183.037 80.6226 183.464L79.6466 184.584C78.9426 184.189 78.292 183.752 77.6946 183.272C77.108 182.781 76.5853 182.253 76.1266 181.688C75.796 182.371 75.3746 182.989 74.8626 183.544C74.3613 184.088 73.7906 184.568 73.1506 184.984ZM84.3026 185.432V190.824H73.0226V185.432H74.5586V186.712H82.7986V185.432H84.3026ZM74.5266 189.496H82.7986V188.024H74.5266V189.496ZM82.7986 177.16H84.3026V184.856H82.7986V181.512H79.6466V180.168H82.7986V177.16ZM98.8529 182.872H97.3489V178.808H87.1249V177.448H98.8529V182.872ZM86.3729 183.768H99.6049V185.128H86.3729V183.768ZM99.0129 189.48V190.824H87.1249V186.328H88.6289V189.48H99.0129ZM113.115 189.672V190.984H101.691V187.4H111.307V186.44H101.691V185.128H112.811V188.696H103.195V189.672H113.115ZM105.643 184.392H104.347C103.515 184.392 102.838 184.184 102.315 183.768C101.792 183.341 101.531 182.771 101.531 182.056C101.531 181.352 101.792 180.787 102.315 180.36C102.838 179.933 103.515 179.72 104.347 179.72H105.643C106.464 179.72 107.136 179.933 107.659 180.36C108.192 180.787 108.459 181.352 108.459 182.056C108.459 182.771 108.192 183.341 107.659 183.768C107.136 184.184 106.464 184.392 105.643 184.392ZM114.763 180.088V181.448H112.811V184.424H111.307V177.16H112.811V180.088H114.763ZM109.211 177.912V179.208H100.939V177.912H104.235V176.696H105.739V177.912H109.211ZM104.347 183.128H105.643C106.059 183.128 106.379 183.027 106.603 182.824C106.838 182.621 106.955 182.365 106.955 182.056C106.955 181.768 106.838 181.517 106.603 181.304C106.379 181.08 106.059 180.968 105.643 180.968H104.347C103.91 180.968 103.579 181.08 103.355 181.304C103.142 181.517 103.035 181.768 103.035 182.056C103.035 182.365 103.142 182.621 103.355 182.824C103.579 183.027 103.91 183.128 104.347 183.128ZM119.687 183.4L118.951 182.2C119.666 182.072 120.348 181.859 120.999 181.56C121.65 181.261 122.242 180.893 122.775 180.456C123.319 180.029 123.783 179.539 124.167 178.984C124.562 178.419 124.866 177.811 125.079 177.16L126.567 177.448C126.503 177.661 126.428 177.869 126.343 178.072C126.258 178.264 126.167 178.456 126.071 178.648C126.444 179.021 126.866 179.368 127.335 179.688C127.804 180.008 128.306 180.301 128.839 180.568C129.362 180.824 129.906 181.048 130.471 181.24C131.047 181.421 131.618 181.56 132.183 181.656L131.511 182.888C130.956 182.792 130.396 182.648 129.831 182.456C129.276 182.253 128.727 182.013 128.183 181.736C127.65 181.469 127.138 181.176 126.647 180.856C126.167 180.525 125.735 180.179 125.351 179.816C124.668 180.733 123.826 181.507 122.823 182.136C121.831 182.755 120.786 183.176 119.687 183.4ZM132.183 185.128V186.472H126.327V191.128H124.823V186.472H118.951V185.128H132.183ZM138.931 180.696C138.931 181.304 139.123 181.821 139.507 182.248C139.891 182.664 140.403 182.872 141.043 182.872C141.672 182.872 142.179 182.664 142.563 182.248C142.947 181.821 143.139 181.304 143.139 180.696C143.139 180.088 142.947 179.571 142.563 179.144C142.179 178.717 141.672 178.504 141.043 178.504C140.403 178.504 139.891 178.717 139.507 179.144C139.123 179.571 138.931 180.088 138.931 180.696ZM137.427 180.696C137.427 180.205 137.512 179.747 137.683 179.32C137.854 178.893 138.099 178.52 138.419 178.2C138.739 177.88 139.118 177.629 139.555 177.448C140.003 177.256 140.499 177.16 141.043 177.16C141.566 177.16 142.046 177.256 142.483 177.448C142.931 177.629 143.315 177.88 143.635 178.2C143.955 178.52 144.2 178.893 144.371 179.32C144.552 179.747 144.643 180.205 144.643 180.696C144.643 181.187 144.552 181.645 144.371 182.072C144.2 182.499 143.955 182.872 143.635 183.192C143.315 183.512 142.931 183.763 142.483 183.944C142.046 184.125 141.566 184.216 141.043 184.216C140.499 184.216 140.003 184.125 139.555 183.944C139.118 183.763 138.739 183.512 138.419 183.192C138.099 182.872 137.854 182.499 137.683 182.072C137.512 181.645 137.427 181.187 137.427 180.696ZM146.275 185.208L147.683 185.352C147.662 185.64 147.624 185.923 147.571 186.2C147.528 186.467 147.464 186.728 147.379 186.984C147.763 187.528 148.227 188.029 148.771 188.488C149.315 188.947 149.87 189.325 150.435 189.624L149.507 190.76C149.048 190.493 148.568 190.141 148.067 189.704C147.576 189.277 147.139 188.835 146.755 188.376C146.456 188.888 146.104 189.352 145.699 189.768C145.294 190.195 144.862 190.547 144.403 190.824L143.747 190.232V190.824H138.179V185.272H139.715V186.696H142.243V185.272H143.747V189.528C144.494 189.037 145.086 188.413 145.523 187.656C145.96 186.899 146.211 186.083 146.275 185.208ZM142.243 187.976H139.683V189.528H142.243V187.976ZM147.955 177.16H149.459V184.632H147.955V181.368H145.251V180.008H147.955V177.16ZM152.233 182.2L151.529 180.968C152.233 180.883 152.905 180.749 153.545 180.568C154.185 180.387 154.772 180.141 155.305 179.832C155.828 179.533 156.286 179.165 156.681 178.728C157.076 178.28 157.38 177.757 157.593 177.16L159.145 177.384C159.081 177.555 159.006 177.72 158.921 177.88C158.846 178.04 158.772 178.189 158.697 178.328C159.465 178.968 160.377 179.496 161.433 179.912C162.5 180.328 163.609 180.611 164.761 180.76L164.137 181.976C162.985 181.805 161.849 181.507 160.729 181.08C159.62 180.643 158.67 180.104 157.881 179.464C157.198 180.232 156.366 180.845 155.385 181.304C154.414 181.752 153.364 182.051 152.233 182.2ZM164.009 185.272V190.824H152.281V185.272H153.785V186.632H162.505V185.272H164.009ZM153.785 189.496H162.505V187.96H153.785V189.496ZM151.529 183.032H164.761V184.376H151.529V183.032ZM178.271 177.16V190.984H176.767V177.16H178.271ZM166.543 190.376V177.448H168.047V189.016H175.263V190.376H166.543ZM189.366 190.376H180.95V177.448H188.47V178.808H182.454V189.016H189.366V190.376ZM192.374 184.024V190.984H190.87V177.16H192.374V182.68H194.326V184.024H192.374ZM196.876 190.232H195.068V188.44H196.876V190.232ZM23.216 208.456V209.8H11.328V204.92H21.552V202.808H11.328V201.448H23.056V206.264H12.832V208.456H23.216ZM23.808 213.016V214.376H10.576V213.016H16.448V210.568H17.952V213.016H23.808ZM37.4623 211.528H35.9583V202.808H25.7343V201.448H37.4623V211.528ZM38.2143 213.016V214.376H24.9823V213.016H38.2143ZM41.1965 204.84V205.448C41.1965 206.088 41.3992 206.637 41.8045 207.096C42.2205 207.544 42.7698 207.768 43.4525 207.768C44.1245 207.768 44.6685 207.544 45.0845 207.096C45.5005 206.637 45.7085 206.088 45.7085 205.448V204.84C45.7085 204.2 45.5005 203.651 45.0845 203.192C44.6685 202.733 44.1245 202.504 43.4525 202.504C42.7698 202.504 42.2205 202.733 41.8045 203.192C41.3992 203.651 41.1965 204.2 41.1965 204.84ZM39.6925 205.448V204.84C39.6925 204.317 39.7832 203.832 39.9645 203.384C40.1565 202.936 40.4232 202.547 40.7645 202.216C41.0952 201.885 41.4898 201.629 41.9485 201.448C42.4072 201.256 42.9085 201.16 43.4525 201.16C43.9752 201.16 44.4658 201.256 44.9245 201.448C45.3832 201.629 45.7832 201.885 46.1245 202.216C46.4552 202.547 46.7165 202.936 46.9085 203.384C47.1112 203.832 47.2125 204.317 47.2125 204.84V205.448C47.2125 205.981 47.1112 206.472 46.9085 206.92C46.7165 207.368 46.4552 207.757 46.1245 208.088C45.7832 208.408 45.3832 208.664 44.9245 208.856C44.4658 209.037 43.9752 209.128 43.4525 209.128C42.9085 209.128 42.4072 209.037 41.9485 208.856C41.4898 208.664 41.0952 208.408 40.7645 208.088C40.4232 207.757 40.1565 207.368 39.9645 206.92C39.7832 206.472 39.6925 205.981 39.6925 205.448ZM52.0285 213.48V214.824H40.4445V210.472H41.9485V213.48H52.0285ZM51.7245 201.16V211.608H50.2205V201.16H51.7245ZM58.7444 209.288L57.5604 208.328C58.5524 207.72 59.347 206.968 59.9444 206.072C60.5417 205.165 60.8937 204.077 61.0004 202.808H58.1684V201.448H65.5124V202.808H62.5044C62.483 203.064 62.451 203.315 62.4084 203.56C62.3764 203.795 62.339 204.024 62.2964 204.248C62.7444 204.952 63.3044 205.608 63.9764 206.216C64.659 206.824 65.4057 207.341 66.2164 207.768L65.2404 208.888C64.547 208.493 63.9017 208.04 63.3044 207.528C62.707 207.005 62.179 206.451 61.7204 205.864C61.4004 206.568 60.9844 207.208 60.4724 207.784C59.971 208.349 59.395 208.851 58.7444 209.288ZM66.7444 215.128H61.9284C60.7977 215.128 59.939 214.877 59.3524 214.376C58.7657 213.875 58.4724 213.251 58.4724 212.504C58.4724 211.757 58.7657 211.133 59.3524 210.632C59.939 210.131 60.7977 209.88 61.9284 209.88H66.7444C67.8644 209.88 68.7177 210.131 69.3044 210.632C69.9017 211.133 70.2004 211.757 70.2004 212.504C70.2004 213.251 69.9017 213.875 69.3044 214.376C68.7177 214.877 67.8644 215.128 66.7444 215.128ZM61.9284 213.8H66.7444C67.3417 213.8 67.8004 213.688 68.1204 213.464C68.451 213.24 68.6164 212.92 68.6164 212.504C68.6164 212.099 68.451 211.784 68.1204 211.56C67.8004 211.325 67.3417 211.208 66.7444 211.208H61.9284C61.3204 211.208 60.851 211.325 60.5204 211.56C60.2004 211.784 60.0404 212.099 60.0404 212.504C60.0404 212.92 60.2004 213.24 60.5204 213.464C60.851 213.688 61.3204 213.8 61.9284 213.8ZM68.3924 201.16H69.8964V209.384H68.3924V205.672H65.2404V204.312H68.3924V201.16ZM84.4466 201.448V209.72H72.7186V201.448H74.2226V204.168H82.9426V201.448H84.4466ZM74.2226 208.376H82.9426V205.512H74.2226V208.376ZM85.1986 213.016V214.376H71.9666V213.016H77.8386V210.424H79.3426V213.016H85.1986ZM99.0129 213.528V214.824H87.1249V211.496H97.3489V210.792H87.1249V209.496H98.8529V212.776H88.6289V213.528H99.0129ZM86.3729 207.464H99.6049V208.776H86.3729V207.464ZM99.0129 205.464V206.76H87.1249V203.464H97.3489V202.744H87.1249V201.448H98.8529V204.744H88.6289V205.464H99.0129ZM118.529 204.92V206.264H116.577V210.44H115.073V201.16H116.577V204.92H118.529ZM116.577 211.096V215.128H115.073V212.44H105.297V211.096H116.577ZM109.777 207.944H109.729V208.824H113.969V210.168H104.545V208.824H108.225V207.944C107.403 207.944 106.737 207.747 106.225 207.352C105.713 206.957 105.457 206.424 105.457 205.752C105.457 205.08 105.713 204.552 106.225 204.168C106.747 203.773 107.425 203.576 108.257 203.576H109.777C110.609 203.576 111.286 203.773 111.809 204.168C112.331 204.552 112.593 205.08 112.593 205.752C112.593 206.435 112.331 206.973 111.809 207.368C111.286 207.752 110.609 207.944 109.777 207.944ZM108.257 206.68H109.777C110.203 206.68 110.529 206.595 110.753 206.424C110.977 206.253 111.089 206.029 111.089 205.752C111.089 205.485 110.977 205.261 110.753 205.08C110.529 204.899 110.203 204.808 109.777 204.808H108.257C107.83 204.808 107.505 204.899 107.281 205.08C107.067 205.261 106.961 205.485 106.961 205.752C106.961 206.029 107.067 206.253 107.281 206.424C107.505 206.595 107.83 206.68 108.257 206.68ZM113.281 201.752V203.064H104.849V201.752H108.257V200.696H109.761V201.752H113.281ZM120.759 204.84V205.448C120.759 206.088 120.962 206.637 121.367 207.096C121.783 207.544 122.332 207.768 123.015 207.768C123.687 207.768 124.231 207.544 124.647 207.096C125.063 206.637 125.271 206.088 125.271 205.448V204.84C125.271 204.2 125.063 203.651 124.647 203.192C124.231 202.733 123.687 202.504 123.015 202.504C122.332 202.504 121.783 202.733 121.367 203.192C120.962 203.651 120.759 204.2 120.759 204.84ZM119.255 205.448V204.84C119.255 204.317 119.346 203.832 119.527 203.384C119.719 202.936 119.986 202.547 120.327 202.216C120.658 201.885 121.052 201.629 121.511 201.448C121.97 201.256 122.471 201.16 123.015 201.16C123.538 201.16 124.028 201.256 124.487 201.448C124.946 201.629 125.346 201.885 125.687 202.216C126.018 202.547 126.279 202.936 126.471 203.384C126.674 203.832 126.775 204.317 126.775 204.84V205.448C126.775 205.981 126.674 206.472 126.471 206.92C126.279 207.368 126.018 207.757 125.687 208.088C125.346 208.408 124.946 208.664 124.487 208.856C124.028 209.037 123.538 209.128 123.015 209.128C122.471 209.128 121.97 209.037 121.511 208.856C121.052 208.664 120.658 208.408 120.327 208.088C119.986 207.757 119.719 207.368 119.527 206.92C119.346 206.472 119.255 205.981 119.255 205.448ZM131.591 213.48V214.824H120.007V210.472H121.511V213.48H131.591ZM131.287 201.16V211.608H129.783V201.16H131.287ZM139.677 208.68V211.688C139.677 212.584 139.421 213.277 138.909 213.768C138.408 214.269 137.709 214.52 136.813 214.52C135.917 214.52 135.219 214.269 134.717 213.768C134.216 213.277 133.965 212.584 133.965 211.688V208.68C133.965 207.784 134.216 207.085 134.717 206.584C135.219 206.072 135.917 205.816 136.813 205.816C137.709 205.816 138.408 206.072 138.909 206.584C139.421 207.085 139.677 207.784 139.677 208.68ZM138.173 211.688V208.68C138.173 208.232 138.056 207.869 137.821 207.592C137.597 207.315 137.261 207.176 136.813 207.176C136.365 207.176 136.029 207.315 135.805 207.592C135.581 207.869 135.469 208.232 135.469 208.68V211.688C135.469 212.136 135.581 212.499 135.805 212.776C136.029 213.043 136.365 213.176 136.813 213.176C137.261 213.176 137.597 213.043 137.821 212.776C138.056 212.499 138.173 212.136 138.173 211.688ZM145.693 201.16V214.984H144.189V208.072H142.381V214.824H140.877V201.224H142.381V206.712H144.189V201.16H145.693ZM139.997 202.808V204.168H133.661V202.808H136.061V200.696H137.565V202.808H139.997ZM148.66 208.456L147.924 207.24C149.236 206.984 150.409 206.472 151.444 205.704C152.489 204.936 153.252 203.971 153.732 202.808H148.516V201.448H160.244V202.808H155.332C155.268 203 155.198 203.187 155.124 203.368C155.049 203.539 154.969 203.704 154.884 203.864C155.62 204.621 156.51 205.261 157.556 205.784C158.612 206.296 159.71 206.653 160.852 206.856L160.18 208.088C159.06 207.864 157.961 207.48 156.884 206.936C155.817 206.392 154.9 205.752 154.132 205.016C153.47 205.88 152.66 206.605 151.7 207.192C150.74 207.779 149.726 208.2 148.66 208.456ZM160.996 209.88V211.224H155.14V215.128H153.636V211.224H147.764V209.88H160.996ZM163.434 214.568L162.026 214.008C162.538 213.091 162.948 212.12 163.258 211.096C163.578 210.061 163.823 209.005 163.994 207.928C164.164 206.84 164.276 205.741 164.33 204.632C164.394 203.512 164.426 202.403 164.426 201.304H165.93C165.93 202.093 165.914 202.888 165.882 203.688C165.85 204.488 165.796 205.288 165.722 206.088C166.042 207.368 166.5 208.643 167.098 209.912C167.695 211.171 168.426 212.317 169.29 213.352L168.058 214.232C167.471 213.528 166.943 212.739 166.474 211.864C166.015 210.989 165.62 210.093 165.29 209.176C165.098 210.147 164.852 211.091 164.554 212.008C164.255 212.915 163.882 213.768 163.434 214.568ZM174.506 214.984H173.002V201.16H174.506V214.984ZM171.274 201.224V214.824H169.77V207.464H167.29V206.12H169.77V201.224H171.274ZM185.008 208.68H181.392C180.752 208.68 180.16 208.595 179.616 208.424C179.083 208.243 178.624 207.987 178.24 207.656C177.856 207.325 177.557 206.931 177.344 206.472C177.131 206.003 177.024 205.485 177.024 204.92C177.024 204.365 177.131 203.859 177.344 203.4C177.557 202.931 177.856 202.531 178.24 202.2C178.624 201.869 179.083 201.613 179.616 201.432C180.16 201.251 180.752 201.16 181.392 201.16H185.008C185.637 201.16 186.219 201.251 186.752 201.432C187.285 201.613 187.744 201.869 188.128 202.2C188.512 202.531 188.811 202.931 189.024 203.4C189.248 203.859 189.36 204.365 189.36 204.92C189.36 205.485 189.248 206.003 189.024 206.472C188.811 206.931 188.512 207.325 188.128 207.656C187.744 207.987 187.285 208.243 186.752 208.424C186.219 208.595 185.637 208.68 185.008 208.68ZM181.392 207.32H185.008C185.829 207.32 186.496 207.101 187.008 206.664C187.52 206.216 187.776 205.635 187.776 204.92C187.776 204.205 187.52 203.624 187.008 203.176C186.496 202.728 185.829 202.504 185.008 202.504H181.392C180.56 202.504 179.888 202.728 179.376 203.176C178.864 203.624 178.608 204.205 178.608 204.92C178.608 205.635 178.864 206.216 179.376 206.664C179.888 207.101 180.56 207.32 181.392 207.32ZM189.808 213.016V214.376H176.576V213.016H179.584V209.576H181.088V213.016H185.296V209.576H186.8V213.016H189.808ZM193.11 214.232H191.302V212.44H193.11V214.232Z" fill="#C1C1C1"/>
<defs>
<filter id="filter0_di_5780_43121" x="0.879883" y="0.568359" width="195.088" height="91.584" filterUnits="userSpaceOnUse" color-interpolation-filters="sRGB">
<feFlood flood-opacity="0" result="BackgroundImageFix"/>
<feColorMatrix in="SourceAlpha" type="matrix" values="0 0 0 0 0 0 0 0 0 0 0 0 0 0 0 0 0 0 127 0" result="hardAlpha"/>
<feOffset dy="3"/>
<feGaussianBlur stdDeviation="6"/>
<feComposite in2="hardAlpha" operator="out"/>
<feColorMatrix type="matrix" values="0 0 0 0 0.176471 0 0 0 0 0.462745 0 0 0 0 0.972549 0 0 0 0.1 0"/>
<feBlend mode="normal" in2="BackgroundImageFix" result="effect1_dropShadow_5780_43121"/>
<feBlend mode="normal" in="SourceGraphic" in2="effect1_dropShadow_5780_43121" result="shape"/>
<feColorMatrix in="SourceAlpha" type="matrix" values="0 0 0 0 0 0 0 0 0 0 0 0 0 0 0 0 0 0 127 0" result="hardAlpha"/>
<feOffset dy="3"/>
<feGaussianBlur stdDeviation="2"/>
<feComposite in2="hardAlpha" operator="arithmetic" k2="-1" k3="1"/>
<feColorMatrix type="matrix" values="0 0 0 0 0.176471 0 0 0 0 0.462745 0 0 0 0 0.972549 0 0 0 0.12 0"/>
<feBlend mode="normal" in2="shape" result="effect2_innerShadow_5780_43121"/>
</filter>
</defs>
</svg>
