<svg width="267" height="220" viewBox="0 0 267 220" fill="none" xmlns="http://www.w3.org/2000/svg">
<path d="M26.64 126.24H30.992V148H26.64V139.392H16.592V148H12.24V126.24H16.592V135.36H26.64V126.24ZM42.6267 132.352C44.9521 132.352 46.8828 133.109 48.4188 134.624C49.9548 136.139 50.7228 138.059 50.7228 140.384C50.7228 142.709 49.9548 144.629 48.4188 146.144C46.8828 147.637 44.9521 148.384 42.6267 148.384C40.2801 148.384 38.3388 147.637 36.8028 146.144C35.2668 144.629 34.4988 142.709 34.4988 140.384C34.4988 138.059 35.2668 136.139 36.8028 134.624C38.3388 133.109 40.2801 132.352 42.6267 132.352ZM39.7788 143.392C40.5041 144.181 41.4534 144.576 42.6267 144.576C43.8001 144.576 44.7388 144.181 45.4428 143.392C46.1681 142.603 46.5308 141.6 46.5308 140.384C46.5308 139.189 46.1681 138.187 45.4428 137.376C44.7174 136.565 43.7788 136.16 42.6267 136.16C41.4534 136.16 40.5041 136.565 39.7788 137.376C39.0534 138.187 38.6908 139.189 38.6908 140.384C38.6908 141.6 39.0534 142.603 39.7788 143.392ZM53.8598 125.28H58.0518V148H53.8598V125.28ZM73.1863 125.28H77.3783V148H73.1863V147.136C71.9063 147.968 70.4449 148.384 68.8023 148.384C66.6903 148.384 64.8876 147.605 63.3943 146.048C61.9223 144.469 61.1863 142.571 61.1863 140.352C61.1863 138.133 61.9223 136.245 63.3943 134.688C64.8876 133.131 66.6903 132.352 68.8023 132.352C70.4449 132.352 71.9063 132.768 73.1863 133.6V125.28ZM69.4423 144.576C71.1063 144.576 72.3543 143.979 73.1863 142.784V137.952C72.3543 136.757 71.1063 136.16 69.4423 136.16C68.2689 136.16 67.2983 136.576 66.5303 137.408C65.7623 138.219 65.3783 139.2 65.3783 140.352C65.3783 141.525 65.7623 142.528 66.5303 143.36C67.2983 144.171 68.2689 144.576 69.4423 144.576ZM109.127 126.24V138.208C109.127 141.365 108.241 143.851 106.471 145.664C104.7 147.477 102.332 148.384 99.3668 148.384C96.4228 148.384 94.0654 147.477 92.2948 145.664C90.5241 143.851 89.6388 141.365 89.6388 138.208V126.24H93.9908V138.208C93.9908 140.064 94.4814 141.547 95.4628 142.656C96.4441 143.765 97.7454 144.32 99.3668 144.32C100.988 144.32 102.289 143.765 103.271 142.656C104.273 141.547 104.775 140.064 104.775 138.208V126.24H109.127ZM121.623 132.416C123.735 132.416 125.527 133.195 126.999 134.752C128.493 136.288 129.239 138.165 129.239 140.384C129.239 142.581 128.493 144.459 126.999 146.016C125.527 147.552 123.735 148.32 121.623 148.32C119.959 148.32 118.498 147.915 117.239 147.104V155.456H113.047V132.736H117.239V133.632C118.498 132.821 119.959 132.416 121.623 132.416ZM120.983 144.704C122.157 144.704 123.127 144.277 123.895 143.424C124.663 142.571 125.047 141.557 125.047 140.384C125.047 139.211 124.663 138.197 123.895 137.344C123.127 136.469 122.157 136.032 120.983 136.032C119.383 136.032 118.135 136.661 117.239 137.92V142.816C118.135 144.075 119.383 144.704 120.983 144.704ZM137.283 126.24L136.931 141.024H133.219L132.867 126.24H137.283ZM136.867 147.488C136.377 147.957 135.779 148.192 135.075 148.192C134.371 148.192 133.774 147.957 133.283 147.488C132.793 147.019 132.547 146.432 132.547 145.728C132.547 145.045 132.793 144.469 133.283 144C133.774 143.531 134.371 143.296 135.075 143.296C135.779 143.296 136.377 143.531 136.867 144C137.379 144.469 137.635 145.045 137.635 145.728C137.635 146.432 137.379 147.019 136.867 147.488Z" fill="#747474"/>
<g filter="url(#filter0_di_5767_42744)">
<path d="M67.408 52V63.136H58.864V76H46.288V63.136H12.88V55.072L31.216 10.72H44.464L27.856 52H46.288V33.088H58.864V52H67.408ZM103.859 9.568C112.947 9.568 120.115 12.704 125.363 18.976C130.611 25.248 133.235 33.376 133.235 43.36C133.235 53.344 130.611 61.472 125.363 67.744C120.115 74.016 112.947 77.152 103.859 77.152C94.7068 77.152 87.5068 74.016 82.2588 67.744C77.0108 61.472 74.3868 53.344 74.3868 43.36C74.3868 33.376 77.0108 25.248 82.2588 18.976C87.5068 12.704 94.7068 9.568 103.859 9.568ZM103.859 65.344C109.107 65.344 113.107 63.328 115.859 59.296C118.675 55.2 120.083 49.888 120.083 43.36C120.083 36.832 118.675 31.552 115.859 27.52C113.107 23.424 109.107 21.376 103.859 21.376C98.5468 21.376 94.4828 23.424 91.6668 27.52C88.9148 31.552 87.5388 36.832 87.5388 43.36C87.5388 49.888 88.9148 55.2 91.6668 59.296C94.4828 63.328 98.5468 65.344 103.859 65.344ZM175.137 43.072C181.025 46.144 183.969 50.976 183.969 57.568C183.969 63.136 181.825 67.808 177.537 71.584C173.249 75.296 167.905 77.152 161.505 77.152C154.977 77.152 149.537 75.456 145.185 72.064C140.897 68.608 138.273 63.936 137.313 58.048H149.985C150.561 60.48 151.873 62.432 153.921 63.904C156.033 65.312 158.561 66.016 161.505 66.016C164.449 66.016 166.881 65.216 168.801 63.616C170.785 62.016 171.777 60 171.777 57.568C171.777 54.88 170.689 52.768 168.513 51.232C166.337 49.632 163.425 48.832 159.777 48.832H154.785V38.368H159.777C162.721 38.368 165.089 37.568 166.881 35.968C168.673 34.304 169.569 32.16 169.569 29.536C169.569 26.848 168.705 24.704 166.977 23.104C165.313 21.504 163.137 20.704 160.449 20.704C157.697 20.704 155.425 21.472 153.633 23.008C151.905 24.544 150.881 26.56 150.561 29.056H137.889C138.337 23.232 140.609 18.528 144.705 14.944C148.801 11.36 154.049 9.568 160.449 9.568C166.721 9.568 171.841 11.424 175.809 15.136C179.777 18.848 181.761 23.616 181.761 29.44C181.761 35.392 179.553 39.936 175.137 43.072Z" fill="#C8DBFD"/>
</g>
<path d="M24.352 177.12H26.656L23.072 188.064H20.928L18.496 181.04L16.048 188.064H13.904L10.32 177.12H12.624L14.992 184.64L17.568 177.12H19.408L21.984 184.64L24.352 177.12ZM33.9633 183.92C33.9633 184.293 33.9473 184.587 33.9153 184.8H28.3153C28.5073 185.835 29.1526 186.352 30.2513 186.352C30.8273 186.352 31.2326 186.208 31.4673 185.92H33.7873C33.5313 186.635 33.0833 187.195 32.4433 187.6C31.8139 187.995 31.0779 188.192 30.2352 188.192C29.0299 188.192 28.0486 187.813 27.2913 187.056C26.5446 186.299 26.1713 185.344 26.1713 184.192C26.1713 183.04 26.5393 182.085 27.2753 181.328C28.0113 180.56 28.9553 180.176 30.1073 180.176C31.2379 180.176 32.1606 180.523 32.8753 181.216C33.6006 181.899 33.9633 182.8 33.9633 183.92ZM30.1233 181.952C29.1739 181.952 28.5873 182.427 28.3633 183.376H31.8353C31.7286 182.427 31.1579 181.952 30.1233 181.952ZM45.4056 180.368H47.5016V188H45.4056V187.568C44.7656 187.984 44.035 188.192 43.2136 188.192C42.1576 188.192 41.2563 187.803 40.5096 187.024C39.7736 186.245 39.4056 185.301 39.4056 184.192C39.4056 183.083 39.7736 182.139 40.5096 181.36C41.2563 180.571 42.1576 180.176 43.2136 180.176C44.035 180.176 44.7656 180.384 45.4056 180.8V180.368ZM43.5336 186.288C44.3656 186.288 44.9896 185.989 45.4056 185.392V182.976C44.9896 182.379 44.3656 182.08 43.5336 182.08C42.947 182.08 42.4616 182.288 42.0776 182.704C41.6936 183.109 41.5016 183.605 41.5016 184.192C41.5016 184.768 41.6936 185.264 42.0776 185.68C42.4616 186.085 42.947 186.288 43.5336 186.288ZM51.6196 181.248C52.3236 180.576 53.225 180.24 54.3236 180.24V182.224C53.1503 182.288 52.249 182.672 51.6196 183.376V188H49.5236V180.368H51.6196V181.248ZM62.9164 183.92C62.9164 184.293 62.9004 184.587 62.8684 184.8H57.2684C57.4604 185.835 58.1057 186.352 59.2044 186.352C59.7804 186.352 60.1857 186.208 60.4204 185.92H62.7404C62.4844 186.635 62.0364 187.195 61.3964 187.6C60.767 187.995 60.031 188.192 59.1884 188.192C57.983 188.192 57.0017 187.813 56.2444 187.056C55.4977 186.299 55.1244 185.344 55.1244 184.192C55.1244 183.04 55.4924 182.085 56.2284 181.328C56.9644 180.56 57.9084 180.176 59.0604 180.176C60.191 180.176 61.1137 180.523 61.8284 181.216C62.5537 181.899 62.9164 182.8 62.9164 183.92ZM59.0764 181.952C58.127 181.952 57.5404 182.427 57.3164 183.376H60.7884C60.6817 182.427 60.111 181.952 59.0764 181.952ZM70.1348 185.36C70.2521 186.117 70.8014 186.496 71.7828 186.496C72.6894 186.496 73.1428 186.283 73.1428 185.856C73.1428 185.515 72.8814 185.296 72.3588 185.2L70.7108 184.912C70.0601 184.805 69.5214 184.571 69.0948 184.208C68.6681 183.845 68.4548 183.333 68.4548 182.672C68.4548 181.893 68.7534 181.28 69.3508 180.832C69.9481 180.384 70.7374 180.16 71.7188 180.16C73.8308 180.16 74.9561 181.019 75.0948 182.736H73.1588C73.1161 182.128 72.6361 181.824 71.7188 181.824C70.9294 181.824 70.5348 182.037 70.5348 182.464C70.5348 182.859 70.8494 183.109 71.4788 183.216L72.8548 183.44C74.3801 183.707 75.1428 184.448 75.1428 185.664C75.1428 186.485 74.8281 187.115 74.1988 187.552C73.5694 187.979 72.7481 188.192 71.7348 188.192C71.2868 188.192 70.8708 188.144 70.4868 188.048C70.1028 187.963 69.7401 187.819 69.3988 187.616C69.0574 187.403 68.7801 187.104 68.5668 186.72C68.3641 186.336 68.2414 185.877 68.1988 185.344L70.1348 185.36ZM80.329 180.176C81.4917 180.176 82.457 180.555 83.225 181.312C83.993 182.069 84.377 183.029 84.377 184.192C84.377 185.355 83.993 186.315 83.225 187.072C82.457 187.819 81.4917 188.192 80.329 188.192C79.1557 188.192 78.185 187.819 77.417 187.072C76.649 186.315 76.265 185.355 76.265 184.192C76.265 183.029 76.649 182.069 77.417 181.312C78.185 180.555 79.1557 180.176 80.329 180.176ZM78.905 185.696C79.2677 186.091 79.7423 186.288 80.329 186.288C80.9157 186.288 81.385 186.091 81.737 185.696C82.0997 185.301 82.281 184.8 82.281 184.192C82.281 183.595 82.0997 183.093 81.737 182.688C81.3743 182.283 80.905 182.08 80.329 182.08C79.7423 182.08 79.2677 182.283 78.905 182.688C78.5423 183.093 78.361 183.595 78.361 184.192C78.361 184.8 78.5423 185.301 78.905 185.696ZM87.9634 181.248C88.6674 180.576 89.5687 180.24 90.6674 180.24V182.224C89.494 182.288 88.5927 182.672 87.9634 183.376V188H85.8674V180.368H87.9634V181.248ZM94.2446 181.248C94.9486 180.576 95.85 180.24 96.9486 180.24V182.224C95.7753 182.288 94.874 182.672 94.2446 183.376V188H92.1486V180.368H94.2446V181.248ZM104.782 180.352H106.99L102.11 191.712H99.9019L101.502 187.968L97.6619 180.352H99.9019L102.478 185.728L104.782 180.352ZM106.277 189.52L107.045 187.888C106.544 187.685 106.293 187.344 106.293 186.864C106.293 186.533 106.416 186.251 106.661 186.016C106.906 185.781 107.2 185.664 107.541 185.664C107.893 185.664 108.192 185.781 108.437 186.016C108.682 186.251 108.805 186.533 108.805 186.864C108.805 187.131 108.666 187.509 108.389 188L107.525 189.52H106.277ZM118.734 180.176C119.79 180.176 120.686 180.565 121.422 181.344C122.168 182.123 122.542 183.067 122.542 184.176C122.542 185.285 122.168 186.235 121.422 187.024C120.686 187.803 119.79 188.192 118.734 188.192C117.912 188.192 117.182 187.984 116.542 187.568V188H114.446V176.64H116.542V180.8C117.182 180.384 117.912 180.176 118.734 180.176ZM118.414 186.288C119 186.288 119.486 186.085 119.87 185.68C120.254 185.264 120.446 184.763 120.446 184.176C120.446 183.6 120.254 183.109 119.87 182.704C119.486 182.288 119 182.08 118.414 182.08C117.582 182.08 116.958 182.379 116.542 182.976V185.392C116.958 185.989 117.582 186.288 118.414 186.288ZM129.589 180.368H131.685V188H129.589V187.392C128.917 187.925 128.181 188.192 127.381 188.192C126.368 188.192 125.552 187.851 124.933 187.168C124.315 186.485 124.005 185.584 124.005 184.464V180.368H126.101V184.336C126.101 184.955 126.251 185.435 126.549 185.776C126.848 186.117 127.275 186.288 127.829 186.288C128.448 186.288 129.035 185.952 129.589 185.28V180.368ZM139.168 185.952L139.456 187.856C138.88 188.08 138.266 188.192 137.616 188.192C136.602 188.192 135.813 187.904 135.248 187.328C134.693 186.741 134.416 185.952 134.416 184.96V182.128H132.784V180.368H134.416V177.6H136.512V180.368H139.312V182.128H136.512V184.96C136.512 185.387 136.634 185.712 136.88 185.936C137.125 186.149 137.45 186.256 137.856 186.256C138.24 186.256 138.677 186.155 139.168 185.952ZM151.438 180.352H153.646L148.766 191.712H146.558L148.158 187.968L144.318 180.352H146.558L149.134 185.728L151.438 180.352ZM157.954 180.176C159.117 180.176 160.082 180.555 160.85 181.312C161.618 182.069 162.002 183.029 162.002 184.192C162.002 185.355 161.618 186.315 160.85 187.072C160.082 187.819 159.117 188.192 157.954 188.192C156.781 188.192 155.81 187.819 155.042 187.072C154.274 186.315 153.89 185.355 153.89 184.192C153.89 183.029 154.274 182.069 155.042 181.312C155.81 180.555 156.781 180.176 157.954 180.176ZM156.53 185.696C156.893 186.091 157.367 186.288 157.954 186.288C158.541 186.288 159.01 186.091 159.362 185.696C159.725 185.301 159.906 184.8 159.906 184.192C159.906 183.595 159.725 183.093 159.362 182.688C158.999 182.283 158.53 182.08 157.954 182.08C157.367 182.08 156.893 182.283 156.53 182.688C156.167 183.093 155.986 183.595 155.986 184.192C155.986 184.8 156.167 185.301 156.53 185.696ZM169.043 180.368H171.139V188H169.043V187.392C168.371 187.925 167.635 188.192 166.835 188.192C165.821 188.192 165.005 187.851 164.387 187.168C163.768 186.485 163.459 185.584 163.459 184.464V180.368H165.555V184.336C165.555 184.955 165.704 185.435 166.003 185.776C166.301 186.117 166.728 186.288 167.283 186.288C167.901 186.288 168.488 185.952 169.043 185.28V180.368ZM182.937 176.64H185.033V188H182.937V187.568C182.297 187.984 181.566 188.192 180.745 188.192C179.689 188.192 178.788 187.803 178.041 187.024C177.305 186.235 176.937 185.285 176.937 184.176C176.937 183.067 177.305 182.123 178.041 181.344C178.788 180.565 179.689 180.176 180.745 180.176C181.566 180.176 182.297 180.384 182.937 180.8V176.64ZM181.065 186.288C181.897 186.288 182.521 185.989 182.937 185.392V182.976C182.521 182.379 181.897 182.08 181.065 182.08C180.478 182.08 179.993 182.288 179.609 182.704C179.225 183.109 179.033 183.6 179.033 184.176C179.033 184.763 179.225 185.264 179.609 185.68C179.993 186.085 180.478 186.288 181.065 186.288ZM190.673 180.176C191.835 180.176 192.801 180.555 193.569 181.312C194.337 182.069 194.721 183.029 194.721 184.192C194.721 185.355 194.337 186.315 193.569 187.072C192.801 187.819 191.835 188.192 190.673 188.192C189.499 188.192 188.529 187.819 187.761 187.072C186.993 186.315 186.609 185.355 186.609 184.192C186.609 183.029 186.993 182.069 187.761 181.312C188.529 180.555 189.499 180.176 190.673 180.176ZM189.249 185.696C189.611 186.091 190.086 186.288 190.673 186.288C191.259 186.288 191.729 186.091 192.081 185.696C192.443 185.301 192.625 184.8 192.625 184.192C192.625 183.595 192.443 183.093 192.081 182.688C191.718 182.283 191.249 182.08 190.673 182.08C190.086 182.08 189.611 182.283 189.249 182.688C188.886 183.093 188.705 183.595 188.705 184.192C188.705 184.8 188.886 185.301 189.249 185.696ZM204.828 180.176C205.852 180.176 206.668 180.512 207.276 181.184C207.894 181.845 208.204 182.736 208.204 183.856V188H206.108V183.984C206.108 183.365 205.958 182.896 205.66 182.576C205.361 182.245 204.934 182.08 204.38 182.08C203.761 182.08 203.174 182.405 202.62 183.056V188H200.524V180.368H202.62V180.944C203.26 180.432 203.996 180.176 204.828 180.176ZM213.72 180.176C214.882 180.176 215.848 180.555 216.616 181.312C217.384 182.069 217.768 183.029 217.768 184.192C217.768 185.355 217.384 186.315 216.616 187.072C215.848 187.819 214.882 188.192 213.72 188.192C212.546 188.192 211.576 187.819 210.808 187.072C210.04 186.315 209.656 185.355 209.656 184.192C209.656 183.029 210.04 182.069 210.808 181.312C211.576 180.555 212.546 180.176 213.72 180.176ZM212.296 185.696C212.658 186.091 213.133 186.288 213.72 186.288C214.306 186.288 214.776 186.091 215.128 185.696C215.49 185.301 215.672 184.8 215.672 184.192C215.672 183.595 215.49 183.093 215.128 182.688C214.765 182.283 214.296 182.08 213.72 182.08C213.133 182.08 212.658 182.283 212.296 182.688C211.933 183.093 211.752 183.595 211.752 184.192C211.752 184.8 211.933 185.301 212.296 185.696ZM224.886 185.952L225.174 187.856C224.598 188.08 223.985 188.192 223.334 188.192C222.321 188.192 221.532 187.904 220.966 187.328C220.412 186.741 220.134 185.952 220.134 184.96V182.128H218.502V180.368H220.134V177.6H222.23V180.368H225.03V182.128H222.23V184.96C222.23 185.387 222.353 185.712 222.598 185.936C222.844 186.149 223.169 186.256 223.574 186.256C223.958 186.256 224.396 186.155 224.886 185.952ZM235.109 180.176C236.133 180.176 236.949 180.512 237.557 181.184C238.176 181.845 238.485 182.736 238.485 183.856V188H236.389V183.984C236.389 183.365 236.24 182.896 235.941 182.576C235.642 182.245 235.216 182.08 234.661 182.08C234.042 182.08 233.456 182.405 232.901 183.056V188H230.805V176.64H232.901V180.944C233.541 180.432 234.277 180.176 235.109 180.176ZM245.937 180.368H248.033V188H245.937V187.568C245.297 187.984 244.566 188.192 243.745 188.192C242.689 188.192 241.788 187.803 241.041 187.024C240.305 186.245 239.937 185.301 239.937 184.192C239.937 183.083 240.305 182.139 241.041 181.36C241.788 180.571 242.689 180.176 243.745 180.176C244.566 180.176 245.297 180.384 245.937 180.8V180.368ZM244.065 186.288C244.897 186.288 245.521 185.989 245.937 185.392V182.976C245.521 182.379 244.897 182.08 244.065 182.08C243.478 182.08 242.993 182.288 242.609 182.704C242.225 183.109 242.033 183.605 242.033 184.192C242.033 184.768 242.225 185.264 242.609 185.68C242.993 186.085 243.478 186.288 244.065 186.288ZM255.707 180.368H257.931L254.443 188H252.619L249.131 180.368H251.355L253.531 185.312L255.707 180.368ZM265.963 183.92C265.963 184.293 265.947 184.587 265.915 184.8H260.315C260.507 185.835 261.153 186.352 262.251 186.352C262.827 186.352 263.233 186.208 263.467 185.92H265.787C265.531 186.635 265.083 187.195 264.443 187.6C263.814 187.995 263.078 188.192 262.235 188.192C261.03 188.192 260.049 187.813 259.291 187.056C258.545 186.299 258.171 185.344 258.171 184.192C258.171 183.04 258.539 182.085 259.275 181.328C260.011 180.56 260.955 180.176 262.107 180.176C263.238 180.176 264.161 180.523 264.875 181.216C265.601 181.899 265.963 182.8 265.963 183.92ZM262.123 181.952C261.174 181.952 260.587 182.427 260.363 183.376H263.835C263.729 182.427 263.158 181.952 262.123 181.952ZM16.64 204.368H18.736V212H16.64V211.568C16 211.984 15.2693 212.192 14.448 212.192C13.392 212.192 12.4907 211.803 11.744 211.024C11.008 210.245 10.64 209.301 10.64 208.192C10.64 207.083 11.008 206.139 11.744 205.36C12.4907 204.571 13.392 204.176 14.448 204.176C15.2693 204.176 16 204.384 16.64 204.8V204.368ZM14.768 210.288C15.6 210.288 16.224 209.989 16.64 209.392V206.976C16.224 206.379 15.6 206.08 14.768 206.08C14.1813 206.08 13.696 206.288 13.312 206.704C12.928 207.109 12.736 207.605 12.736 208.192C12.736 208.768 12.928 209.264 13.312 209.68C13.696 210.085 14.1813 210.288 14.768 210.288ZM24.2977 210.288C24.7244 210.288 25.0871 210.176 25.3858 209.952C25.6844 209.728 25.8764 209.429 25.9618 209.056H28.1058C27.9884 209.973 27.5724 210.725 26.8578 211.312C26.1431 211.899 25.2898 212.192 24.2977 212.192C23.1564 212.192 22.1911 211.808 21.4018 211.04C20.6231 210.272 20.2338 209.323 20.2338 208.192C20.2338 207.061 20.6231 206.112 21.4018 205.344C22.1911 204.565 23.1564 204.176 24.2977 204.176C25.2791 204.176 26.1271 204.475 26.8418 205.072C27.5671 205.659 27.9884 206.411 28.1058 207.328H25.9618C25.8764 206.955 25.6844 206.656 25.3858 206.432C25.0871 206.197 24.7244 206.08 24.2977 206.08C23.7111 206.08 23.2364 206.283 22.8738 206.688C22.5111 207.093 22.3298 207.595 22.3298 208.192C22.3298 208.789 22.5111 209.291 22.8738 209.696C23.2364 210.091 23.7111 210.288 24.2977 210.288ZM33.454 210.288C33.8807 210.288 34.2433 210.176 34.542 209.952C34.8407 209.728 35.0327 209.429 35.118 209.056H37.262C37.1447 209.973 36.7287 210.725 36.014 211.312C35.2993 211.899 34.446 212.192 33.454 212.192C32.3127 212.192 31.3473 211.808 30.558 211.04C29.7793 210.272 29.39 209.323 29.39 208.192C29.39 207.061 29.7793 206.112 30.558 205.344C31.3473 204.565 32.3127 204.176 33.454 204.176C34.4353 204.176 35.2833 204.475 35.998 205.072C36.7233 205.659 37.1447 206.411 37.262 207.328H35.118C35.0327 206.955 34.8407 206.656 34.542 206.432C34.2433 206.197 33.8807 206.08 33.454 206.08C32.8673 206.08 32.3927 206.283 32.03 206.688C31.6673 207.093 31.486 207.595 31.486 208.192C31.486 208.789 31.6673 209.291 32.03 209.696C32.3927 210.091 32.8673 210.288 33.454 210.288ZM46.3383 207.92C46.3383 208.293 46.3223 208.587 46.2903 208.8H40.6903C40.8823 209.835 41.5276 210.352 42.6263 210.352C43.2023 210.352 43.6076 210.208 43.8423 209.92H46.1623C45.9063 210.635 45.4583 211.195 44.8183 211.6C44.1889 211.995 43.4529 212.192 42.6102 212.192C41.4049 212.192 40.4236 211.813 39.6663 211.056C38.9196 210.299 38.5463 209.344 38.5463 208.192C38.5463 207.04 38.9143 206.085 39.6503 205.328C40.3863 204.56 41.3303 204.176 42.4823 204.176C43.6129 204.176 44.5356 204.523 45.2503 205.216C45.9756 205.899 46.3383 206.8 46.3383 207.92ZM42.4983 205.952C41.5489 205.952 40.9623 206.427 40.7383 207.376H44.2103C44.1036 206.427 43.5329 205.952 42.4983 205.952ZM49.3223 209.36C49.4396 210.117 49.9889 210.496 50.9703 210.496C51.8769 210.496 52.3303 210.283 52.3303 209.856C52.3303 209.515 52.0689 209.296 51.5463 209.2L49.8983 208.912C49.2476 208.805 48.7089 208.571 48.2823 208.208C47.8556 207.845 47.6423 207.333 47.6423 206.672C47.6423 205.893 47.9409 205.28 48.5383 204.832C49.1356 204.384 49.9249 204.16 50.9062 204.16C53.0183 204.16 54.1436 205.019 54.2823 206.736H52.3463C52.3036 206.128 51.8236 205.824 50.9062 205.824C50.1169 205.824 49.7223 206.037 49.7223 206.464C49.7223 206.859 50.0369 207.109 50.6663 207.216L52.0423 207.44C53.5676 207.707 54.3303 208.448 54.3303 209.664C54.3303 210.485 54.0156 211.115 53.3863 211.552C52.7569 211.979 51.9356 212.192 50.9223 212.192C50.4743 212.192 50.0583 212.144 49.6743 212.048C49.2903 211.963 48.9276 211.819 48.5863 211.616C48.2449 211.403 47.9676 211.104 47.7543 210.72C47.5516 210.336 47.4289 209.877 47.3863 209.344L49.3223 209.36ZM57.3848 209.36C57.5021 210.117 58.0514 210.496 59.0328 210.496C59.9394 210.496 60.3928 210.283 60.3928 209.856C60.3928 209.515 60.1314 209.296 59.6088 209.2L57.9608 208.912C57.3101 208.805 56.7714 208.571 56.3448 208.208C55.9181 207.845 55.7048 207.333 55.7048 206.672C55.7048 205.893 56.0034 205.28 56.6008 204.832C57.1981 204.384 57.9874 204.16 58.9688 204.16C61.0808 204.16 62.2061 205.019 62.3448 206.736H60.4088C60.3661 206.128 59.8861 205.824 58.9688 205.824C58.1794 205.824 57.7848 206.037 57.7848 206.464C57.7848 206.859 58.0994 207.109 58.7288 207.216L60.1048 207.44C61.6301 207.707 62.3928 208.448 62.3928 209.664C62.3928 210.485 62.0781 211.115 61.4488 211.552C60.8194 211.979 59.9981 212.192 58.9848 212.192C58.5368 212.192 58.1208 212.144 57.7368 212.048C57.3528 211.963 56.9901 211.819 56.6488 211.616C56.3074 211.403 56.0301 211.104 55.8168 210.72C55.6141 210.336 55.4914 209.877 55.4488 209.344L57.3848 209.36ZM73.6675 209.952L73.9555 211.856C73.3795 212.08 72.7662 212.192 72.1155 212.192C71.1022 212.192 70.3128 211.904 69.7475 211.328C69.1928 210.741 68.9155 209.952 68.9155 208.96V206.128H67.2835V204.368H68.9155V201.6H71.0115V204.368H73.8115V206.128H71.0115V208.96C71.0115 209.387 71.1342 209.712 71.3795 209.936C71.6248 210.149 71.9502 210.256 72.3555 210.256C72.7395 210.256 73.1768 210.155 73.6675 209.952ZM78.8134 204.176C79.976 204.176 80.9414 204.555 81.7094 205.312C82.4774 206.069 82.8614 207.029 82.8614 208.192C82.8614 209.355 82.4774 210.315 81.7094 211.072C80.9414 211.819 79.976 212.192 78.8134 212.192C77.64 212.192 76.6694 211.819 75.9014 211.072C75.1334 210.315 74.7494 209.355 74.7494 208.192C74.7494 207.029 75.1334 206.069 75.9014 205.312C76.6694 204.555 77.64 204.176 78.8134 204.176ZM77.3894 209.696C77.752 210.091 78.2267 210.288 78.8134 210.288C79.4 210.288 79.8694 210.091 80.2214 209.696C80.584 209.301 80.7654 208.8 80.7654 208.192C80.7654 207.595 80.584 207.093 80.2214 206.688C79.8587 206.283 79.3894 206.08 78.8134 206.08C78.2267 206.08 77.752 206.283 77.3894 206.688C77.0267 207.093 76.8454 207.595 76.8454 208.192C76.8454 208.8 77.0267 209.301 77.3894 209.696ZM94.1363 209.952L94.4243 211.856C93.8483 212.08 93.2349 212.192 92.5843 212.192C91.5709 212.192 90.7816 211.904 90.2163 211.328C89.6616 210.741 89.3843 209.952 89.3843 208.96V206.128H87.7523V204.368H89.3843V201.6H91.4803V204.368H94.2803V206.128H91.4803V208.96C91.4803 209.387 91.6029 209.712 91.8483 209.936C92.0936 210.149 92.4189 210.256 92.8243 210.256C93.2083 210.256 93.6456 210.155 94.1363 209.952ZM100.203 204.176C101.227 204.176 102.043 204.512 102.651 205.184C103.269 205.845 103.579 206.736 103.579 207.856V212H101.483V207.984C101.483 207.365 101.333 206.896 101.035 206.576C100.736 206.245 100.309 206.08 99.7546 206.08C99.136 206.08 98.5493 206.405 97.9946 207.056V212H95.8986V200.64H97.9946V204.944C98.6346 204.432 99.3706 204.176 100.203 204.176ZM106.757 202.88C106.394 202.88 106.09 202.763 105.845 202.528C105.599 202.293 105.477 202 105.477 201.648C105.477 201.285 105.599 200.987 105.845 200.752C106.09 200.517 106.394 200.4 106.757 200.4C107.109 200.4 107.407 200.523 107.653 200.768C107.909 201.003 108.037 201.296 108.037 201.648C108.037 202 107.909 202.293 107.653 202.528C107.407 202.763 107.109 202.88 106.757 202.88ZM105.717 204.368H107.813V212H105.717V204.368ZM111.463 209.36C111.58 210.117 112.13 210.496 113.111 210.496C114.018 210.496 114.471 210.283 114.471 209.856C114.471 209.515 114.21 209.296 113.687 209.2L112.039 208.912C111.388 208.805 110.85 208.571 110.423 208.208C109.996 207.845 109.783 207.333 109.783 206.672C109.783 205.893 110.082 205.28 110.679 204.832C111.276 204.384 112.066 204.16 113.047 204.16C115.159 204.16 116.284 205.019 116.423 206.736H114.487C114.444 206.128 113.964 205.824 113.047 205.824C112.258 205.824 111.863 206.037 111.863 206.464C111.863 206.859 112.178 207.109 112.807 207.216L114.183 207.44C115.708 207.707 116.471 208.448 116.471 209.664C116.471 210.485 116.156 211.115 115.527 211.552C114.898 211.979 114.076 212.192 113.063 212.192C112.615 212.192 112.199 212.144 111.815 212.048C111.431 211.963 111.068 211.819 110.727 211.616C110.386 211.403 110.108 211.104 109.895 210.72C109.692 210.336 109.57 209.877 109.527 209.344L111.463 209.36ZM126.562 204.208C127.618 204.208 128.514 204.597 129.25 205.376C129.996 206.144 130.37 207.083 130.37 208.192C130.37 209.291 129.996 210.229 129.25 211.008C128.514 211.776 127.618 212.16 126.562 212.16C125.73 212.16 124.999 211.957 124.37 211.552V215.728H122.274V204.368H124.37V204.816C124.999 204.411 125.73 204.208 126.562 204.208ZM126.242 210.352C126.828 210.352 127.314 210.139 127.698 209.712C128.082 209.285 128.274 208.779 128.274 208.192C128.274 207.605 128.082 207.099 127.698 206.672C127.314 206.235 126.828 206.016 126.242 206.016C125.442 206.016 124.818 206.331 124.37 206.96V209.408C124.818 210.037 125.442 210.352 126.242 210.352ZM137.656 204.368H139.752V212H137.656V211.568C137.016 211.984 136.285 212.192 135.464 212.192C134.408 212.192 133.506 211.803 132.76 211.024C132.024 210.245 131.656 209.301 131.656 208.192C131.656 207.083 132.024 206.139 132.76 205.36C133.506 204.571 134.408 204.176 135.464 204.176C136.285 204.176 137.016 204.384 137.656 204.8V204.368ZM135.784 210.288C136.616 210.288 137.24 209.989 137.656 209.392V206.976C137.24 206.379 136.616 206.08 135.784 206.08C135.197 206.08 134.712 206.288 134.328 206.704C133.944 207.109 133.752 207.605 133.752 208.192C133.752 208.768 133.944 209.264 134.328 209.68C134.712 210.085 135.197 210.288 135.784 210.288ZM147.406 204.368H149.502V212.048C149.502 213.221 149.139 214.149 148.414 214.832C147.688 215.525 146.75 215.872 145.598 215.872C144.499 215.872 143.582 215.563 142.846 214.944C142.11 214.336 141.699 213.552 141.614 212.592H143.742C143.795 213.008 143.982 213.339 144.302 213.584C144.632 213.84 145.064 213.968 145.598 213.968C146.131 213.968 146.563 213.797 146.894 213.456C147.235 213.125 147.406 212.656 147.406 212.048V211.072C146.776 211.477 146.046 211.68 145.214 211.68C144.168 211.68 143.272 211.317 142.526 210.592C141.779 209.856 141.406 208.992 141.406 208C141.406 206.88 141.768 205.963 142.494 205.248C143.23 204.533 144.136 204.176 145.214 204.176C146.046 204.176 146.776 204.379 147.406 204.784V204.368ZM145.534 209.872C146.344 209.872 146.968 209.552 147.406 208.912V206.944C146.968 206.304 146.344 205.984 145.534 205.984C144.926 205.984 144.435 206.171 144.062 206.544C143.688 206.907 143.502 207.392 143.502 208C143.502 208.469 143.694 208.901 144.078 209.296C144.472 209.68 144.958 209.872 145.534 209.872ZM158.87 207.92C158.87 208.293 158.854 208.587 158.822 208.8H153.222C153.414 209.835 154.059 210.352 155.158 210.352C155.734 210.352 156.139 210.208 156.374 209.92H158.694C158.438 210.635 157.99 211.195 157.35 211.6C156.72 211.995 155.984 212.192 155.141 212.192C153.936 212.192 152.955 211.813 152.198 211.056C151.451 210.299 151.078 209.344 151.078 208.192C151.078 207.04 151.446 206.085 152.182 205.328C152.918 204.56 153.862 204.176 155.014 204.176C156.144 204.176 157.067 204.523 157.782 205.216C158.507 205.899 158.87 206.8 158.87 207.92ZM155.03 205.952C154.08 205.952 153.494 206.427 153.27 207.376H156.742C156.635 206.427 156.064 205.952 155.03 205.952ZM168.376 204.176C169.539 204.176 170.504 204.555 171.272 205.312C172.04 206.069 172.424 207.029 172.424 208.192C172.424 209.355 172.04 210.315 171.272 211.072C170.504 211.819 169.539 212.192 168.376 212.192C167.203 212.192 166.232 211.819 165.464 211.072C164.696 210.315 164.312 209.355 164.312 208.192C164.312 207.029 164.696 206.069 165.464 205.312C166.232 204.555 167.203 204.176 168.376 204.176ZM166.952 209.696C167.315 210.091 167.789 210.288 168.376 210.288C168.963 210.288 169.432 210.091 169.784 209.696C170.147 209.301 170.328 208.8 170.328 208.192C170.328 207.595 170.147 207.093 169.784 206.688C169.421 206.283 168.952 206.08 168.376 206.08C167.789 206.08 167.315 206.283 166.952 206.688C166.589 207.093 166.408 207.595 166.408 208.192C166.408 208.8 166.589 209.301 166.952 209.696ZM176.01 205.248C176.714 204.576 177.616 204.24 178.714 204.24V206.224C177.541 206.288 176.64 206.672 176.01 207.376V212H173.914V204.368H176.01V205.248ZM186.198 205.248C186.902 204.576 187.803 204.24 188.902 204.24V206.224C187.728 206.288 186.827 206.672 186.198 207.376V212H184.102V204.368H186.198V205.248ZM197.495 207.92C197.495 208.293 197.479 208.587 197.447 208.8H191.847C192.039 209.835 192.684 210.352 193.783 210.352C194.359 210.352 194.764 210.208 194.999 209.92H197.319C197.063 210.635 196.615 211.195 195.975 211.6C195.345 211.995 194.609 212.192 193.766 212.192C192.561 212.192 191.58 211.813 190.823 211.056C190.076 210.299 189.703 209.344 189.703 208.192C189.703 207.04 190.071 206.085 190.807 205.328C191.543 204.56 192.487 204.176 193.639 204.176C194.769 204.176 195.692 204.523 196.407 205.216C197.132 205.899 197.495 206.8 197.495 207.92ZM193.655 205.952C192.705 205.952 192.119 206.427 191.895 207.376H195.367C195.26 206.427 194.689 205.952 193.655 205.952ZM200.479 209.36C200.596 210.117 201.145 210.496 202.127 210.496C203.033 210.496 203.487 210.283 203.487 209.856C203.487 209.515 203.225 209.296 202.703 209.2L201.055 208.912C200.404 208.805 199.865 208.571 199.439 208.208C199.012 207.845 198.799 207.333 198.799 206.672C198.799 205.893 199.097 205.28 199.695 204.832C200.292 204.384 201.081 204.16 202.062 204.16C204.175 204.16 205.3 205.019 205.439 206.736H203.503C203.46 206.128 202.98 205.824 202.062 205.824C201.273 205.824 200.879 206.037 200.879 206.464C200.879 206.859 201.193 207.109 201.823 207.216L203.199 207.44C204.724 207.707 205.487 208.448 205.487 209.664C205.487 210.485 205.172 211.115 204.543 211.552C203.913 211.979 203.092 212.192 202.079 212.192C201.631 212.192 201.215 212.144 200.831 212.048C200.447 211.963 200.084 211.819 199.743 211.616C199.401 211.403 199.124 211.104 198.911 210.72C198.708 210.336 198.585 209.877 198.543 209.344L200.479 209.36ZM210.673 204.176C211.835 204.176 212.801 204.555 213.569 205.312C214.337 206.069 214.721 207.029 214.721 208.192C214.721 209.355 214.337 210.315 213.569 211.072C212.801 211.819 211.835 212.192 210.673 212.192C209.499 212.192 208.529 211.819 207.761 211.072C206.993 210.315 206.609 209.355 206.609 208.192C206.609 207.029 206.993 206.069 207.761 205.312C208.529 204.555 209.499 204.176 210.673 204.176ZM209.249 209.696C209.611 210.091 210.086 210.288 210.673 210.288C211.259 210.288 211.729 210.091 212.081 209.696C212.443 209.301 212.625 208.8 212.625 208.192C212.625 207.595 212.443 207.093 212.081 206.688C211.718 206.283 211.249 206.08 210.673 206.08C210.086 206.08 209.611 206.283 209.249 206.688C208.886 207.093 208.705 207.595 208.705 208.192C208.705 208.8 208.886 209.301 209.249 209.696ZM221.761 204.368H223.857V212H221.761V211.392C221.089 211.925 220.353 212.192 219.553 212.192C218.54 212.192 217.724 211.851 217.105 211.168C216.487 210.485 216.177 209.584 216.177 208.464V204.368H218.273V208.336C218.273 208.955 218.423 209.435 218.721 209.776C219.02 210.117 219.447 210.288 220.001 210.288C220.62 210.288 221.207 209.952 221.761 209.28V204.368ZM227.963 205.248C228.667 204.576 229.569 204.24 230.667 204.24V206.224C229.494 206.288 228.593 206.672 227.963 207.376V212H225.867V204.368H227.963V205.248ZM235.532 210.288C235.959 210.288 236.321 210.176 236.62 209.952C236.919 209.728 237.111 209.429 237.196 209.056H239.34C239.223 209.973 238.807 210.725 238.092 211.312C237.377 211.899 236.524 212.192 235.532 212.192C234.391 212.192 233.425 211.808 232.636 211.04C231.857 210.272 231.468 209.323 231.468 208.192C231.468 207.061 231.857 206.112 232.636 205.344C233.425 204.565 234.391 204.176 235.532 204.176C236.513 204.176 237.361 204.475 238.076 205.072C238.801 205.659 239.223 206.411 239.34 207.328H237.196C237.111 206.955 236.919 206.656 236.62 206.432C236.321 206.197 235.959 206.08 235.532 206.08C234.945 206.08 234.471 206.283 234.108 206.688C233.745 207.093 233.564 207.595 233.564 208.192C233.564 208.789 233.745 209.291 234.108 209.696C234.471 210.091 234.945 210.288 235.532 210.288ZM248.416 207.92C248.416 208.293 248.4 208.587 248.368 208.8H242.768C242.96 209.835 243.606 210.352 244.704 210.352C245.28 210.352 245.686 210.208 245.92 209.92H248.24C247.984 210.635 247.536 211.195 246.896 211.6C246.267 211.995 245.531 212.192 244.688 212.192C243.483 212.192 242.502 211.813 241.744 211.056C240.998 210.299 240.624 209.344 240.624 208.192C240.624 207.04 240.992 206.085 241.728 205.328C242.464 204.56 243.408 204.176 244.56 204.176C245.691 204.176 246.614 204.523 247.328 205.216C248.054 205.899 248.416 206.8 248.416 207.92ZM244.576 205.952C243.627 205.952 243.04 206.427 242.816 207.376H246.288C246.182 206.427 245.611 205.952 244.576 205.952ZM251.39 211.76C251.145 211.995 250.846 212.112 250.494 212.112C250.142 212.112 249.843 211.995 249.598 211.76C249.353 211.525 249.23 211.232 249.23 210.88C249.23 210.539 249.353 210.251 249.598 210.016C249.843 209.781 250.142 209.664 250.494 209.664C250.846 209.664 251.145 209.781 251.39 210.016C251.646 210.251 251.774 210.539 251.774 210.88C251.774 211.232 251.646 211.525 251.39 211.76Z" fill="#C1C1C1"/>
<defs>
<filter id="filter0_di_5767_42744" x="0.879883" y="0.568359" width="195.088" height="91.584" filterUnits="userSpaceOnUse" color-interpolation-filters="sRGB">
<feFlood flood-opacity="0" result="BackgroundImageFix"/>
<feColorMatrix in="SourceAlpha" type="matrix" values="0 0 0 0 0 0 0 0 0 0 0 0 0 0 0 0 0 0 127 0" result="hardAlpha"/>
<feOffset dy="3"/>
<feGaussianBlur stdDeviation="6"/>
<feComposite in2="hardAlpha" operator="out"/>
<feColorMatrix type="matrix" values="0 0 0 0 0.176471 0 0 0 0 0.462745 0 0 0 0 0.972549 0 0 0 0.1 0"/>
<feBlend mode="normal" in2="BackgroundImageFix" result="effect1_dropShadow_5767_42744"/>
<feBlend mode="normal" in="SourceGraphic" in2="effect1_dropShadow_5767_42744" result="shape"/>
<feColorMatrix in="SourceAlpha" type="matrix" values="0 0 0 0 0 0 0 0 0 0 0 0 0 0 0 0 0 0 127 0" result="hardAlpha"/>
<feOffset dy="3"/>
<feGaussianBlur stdDeviation="2"/>
<feComposite in2="hardAlpha" operator="arithmetic" k2="-1" k3="1"/>
<feColorMatrix type="matrix" values="0 0 0 0 0.176471 0 0 0 0 0.462745 0 0 0 0 0.972549 0 0 0 0.12 0"/>
<feBlend mode="normal" in2="shape" result="effect2_innerShadow_5767_42744"/>
</filter>
</defs>
</svg>
