<svg width="249" height="420" viewBox="0 0 249 420" fill="none" xmlns="http://www.w3.org/2000/svg">
<g clip-path="url(#clip0_3797_18150)">
<path d="M147.019 328.834L0.355117 374.949L0 226.317C6.86797 217.215 35.5117 198.151 95.1714 194.746C154.831 191.341 174.483 163.054 176.848 149.695L176.493 289.459L147.019 328.834Z" fill="#BAB0F8" fill-opacity="0.5"/>
<path d="M176.848 4.61133L234.022 36.1823V319.966L203.837 360.405L58.2391 405.456V420L0.35498 388.429V374.949L147.018 328.834L176.493 289.459L176.848 4.61133Z" fill="#002F77"/>
<path d="M176.848 4.61149L191.763 0L248.227 31.2162L247.517 324.223L213.07 370.338L58.2393 420V405.101L203.837 360.405L234.022 319.966V36.1824L176.848 4.61149Z" fill="#1E5BC5"/>
<path d="M72.6359 210.412C62.4085 211.916 54.4325 216.57 48.5376 221.636L62.3304 251.88L95.3847 247.886L111.258 217.251L77.5862 221.324L72.6359 210.419V210.412Z" fill="#3BABFF"/>
<path opacity="0.5" d="M205.258 71.6551C207.219 71.6551 208.809 70.067 208.809 68.1078C208.809 66.1487 207.219 64.5605 205.258 64.5605C203.296 64.5605 201.707 66.1487 201.707 68.1078C201.707 70.067 203.296 71.6551 205.258 71.6551Z" fill="white"/>
<path d="M104.454 330.283L132.026 310.78L115.577 304.657C107.991 306.005 99.71 305.948 90.8604 303.678C84.6317 302.082 79.3191 301.536 74.7878 301.784L73.9355 318.924L104.461 330.283H104.454Z" fill="#164ABE"/>
<path d="M132.025 310.787L132.587 299.01C127.423 301.535 121.727 303.564 115.569 304.664L132.018 310.787H132.025Z" fill="#2D76F8"/>
<path d="M115.569 304.664L100.931 299.215L102.707 264.941L75.6612 284.203L74.7876 301.791C79.3189 301.55 84.6314 302.089 90.8602 303.685C99.7097 305.955 107.991 306.012 115.576 304.664H115.569Z" fill="#164ABE"/>
<path d="M115.57 304.664C121.727 303.571 127.423 301.542 132.587 299.01L133.681 276.25L102.707 264.941L100.932 299.215L115.57 304.664Z" fill="#2D76F8"/>
<path d="M83.3958 210.043C79.5605 209.759 75.9809 209.922 72.6357 210.411L77.5861 221.316L111.258 217.244L105.534 204.75C100.484 208.411 93.3888 210.766 83.3958 210.035V210.043Z" fill="#6CDDFF"/>
<path opacity="0.5" d="M183.241 330.608C185.202 330.608 186.792 329.02 186.792 327.061C186.792 325.102 185.202 323.514 183.241 323.514C181.279 323.514 179.689 325.102 179.689 327.061C179.689 329.02 181.279 330.608 183.241 330.608Z" fill="white"/>
<path opacity="0.5" d="M147.729 358.276C149.69 358.276 151.28 356.688 151.28 354.729C151.28 352.77 149.69 351.182 147.729 351.182C145.768 351.182 144.178 352.77 144.178 354.729C144.178 356.688 145.768 358.276 147.729 358.276Z" fill="white"/>
<path d="M203.837 360.406L57.8843 405.457L59.6599 257.591C66.5278 248.489 93.396 229.071 153.056 225.665C212.715 222.26 231.657 194.683 234.022 181.324V319.967L203.837 360.406Z" fill="#BAB0F8" fill-opacity="0.5"/>
<path d="M144.064 207.978L173.418 219.251L167.821 196.023C159.284 203.813 151.053 207.027 144.064 207.978Z" fill="#F3B95B"/>
<path d="M59.6597 257.535L0 226.318L0.355117 374.95L58.2392 405.102L59.6597 257.535Z" fill="#919BF6" fill-opacity="0.5"/>
<path d="M173.894 189.723C171.863 192.1 169.831 194.186 167.821 196.023L173.418 219.251L201.707 200.564L195.925 177.201C188.418 178.131 180.769 181.699 173.887 189.73L173.894 189.723Z" fill="#FFE953"/>
<path d="M59.6597 257.59L0 226.374C13.1393 211.12 47.9408 196.576 104.76 193.738C145.598 191.695 175.428 166.07 176.848 149.752L234.022 181.323C230.471 199.414 205.968 224.245 143.822 227.083C93.3674 229.389 66.6413 248.601 59.6597 257.59Z" fill="#A49DF2" fill-opacity="0.5"/>
<path d="M165.52 186.489L193.667 168.05L163.539 156.6L135.058 175.336L142.814 207.496L144.057 207.972C151.045 207.021 159.27 203.807 167.814 196.017L165.513 186.482L165.52 186.489Z" fill="#F3B95B"/>
<path d="M167.814 196.017C169.824 194.179 171.855 192.094 173.887 189.717C180.762 181.686 188.418 178.124 195.925 177.188L193.667 168.043L165.52 186.482L167.821 196.017H167.814Z" fill="#FFE953"/>
<path d="M72.6355 210.412L63.0828 189.355L47.5713 219.536L48.5301 221.636C54.4251 216.57 62.401 211.909 72.6284 210.412H72.6355Z" fill="#3BABFF"/>
<path d="M63.083 189.355L72.6357 210.412C75.9809 209.922 79.5604 209.766 83.3957 210.043C93.3887 210.774 100.484 208.418 105.534 204.757L96.528 185.105L63.083 189.355Z" fill="#6CDDFF"/>
</g>
<defs>
<clipPath id="clip0_3797_18150">
<rect width="248.227" height="420" fill="white"/>
</clipPath>
</defs>
</svg>
