<svg width="208" height="210" viewBox="0 0 208 210" fill="none" xmlns="http://www.w3.org/2000/svg">
<path d="M14.992 129.152C17.2107 126.955 19.888 125.856 23.024 125.856C26.16 125.856 28.8267 126.955 31.024 129.152C33.2427 131.328 34.352 133.984 34.352 137.12C34.352 140.256 33.2427 142.923 31.024 145.12C28.8267 147.296 26.16 148.384 23.024 148.384C19.888 148.384 17.2107 147.296 14.992 145.12C12.7947 142.923 11.696 140.256 11.696 137.12C11.696 133.984 12.7947 131.328 14.992 129.152ZM18.096 142.24C19.4187 143.627 21.0613 144.32 23.024 144.32C24.9867 144.32 26.6293 143.627 27.952 142.24C29.2747 140.832 29.936 139.125 29.936 137.12C29.936 135.115 29.2747 133.419 27.952 132.032C26.6293 130.624 24.9867 129.92 23.024 129.92C21.0613 129.92 19.4187 130.624 18.096 132.032C16.7733 133.419 16.112 135.115 16.112 137.12C16.112 139.125 16.7733 140.832 18.096 142.24ZM44.8455 132.352C47.1708 132.352 49.1015 133.109 50.6375 134.624C52.1735 136.139 52.9415 138.059 52.9415 140.384C52.9415 142.709 52.1735 144.629 50.6375 146.144C49.1015 147.637 47.1708 148.384 44.8455 148.384C42.4988 148.384 40.5575 147.637 39.0215 146.144C37.4855 144.629 36.7175 142.709 36.7175 140.384C36.7175 138.059 37.4855 136.139 39.0215 134.624C40.5575 133.109 42.4988 132.352 44.8455 132.352ZM41.9975 143.392C42.7228 144.181 43.6722 144.576 44.8455 144.576C46.0188 144.576 46.9575 144.181 47.6615 143.392C48.3868 142.603 48.7495 141.6 48.7495 140.384C48.7495 139.189 48.3868 138.187 47.6615 137.376C46.9362 136.565 45.9975 136.16 44.8455 136.16C43.6722 136.16 42.7228 136.565 41.9975 137.376C41.2722 138.187 40.9095 139.189 40.9095 140.384C40.9095 141.6 41.2722 142.603 41.9975 143.392ZM64.8108 132.416C66.9228 132.416 68.7148 133.195 70.1868 134.752C71.6801 136.288 72.4268 138.165 72.4268 140.384C72.4268 142.581 71.6801 144.459 70.1868 146.016C68.7148 147.552 66.9228 148.32 64.8108 148.32C63.1468 148.32 61.6854 147.915 60.4268 147.104V155.456H56.2348V132.736H60.4268V133.632C61.6854 132.821 63.1468 132.416 64.8108 132.416ZM64.1708 144.704C65.3441 144.704 66.3148 144.277 67.0828 143.424C67.8508 142.571 68.2348 141.557 68.2348 140.384C68.2348 139.211 67.8508 138.197 67.0828 137.344C66.3148 136.469 65.3441 136.032 64.1708 136.032C62.5708 136.032 61.3228 136.661 60.4268 137.92V142.816C61.3228 144.075 62.5708 144.704 64.1708 144.704ZM78.3945 142.72C78.6292 144.235 79.7278 144.992 81.6905 144.992C83.5038 144.992 84.4105 144.565 84.4105 143.712C84.4105 143.029 83.8878 142.592 82.8425 142.4L79.5465 141.824C78.2452 141.611 77.1678 141.141 76.3145 140.416C75.4612 139.691 75.0345 138.667 75.0345 137.344C75.0345 135.787 75.6318 134.56 76.8265 133.664C78.0212 132.768 79.5998 132.32 81.5625 132.32C85.7865 132.32 88.0372 134.037 88.3145 137.472H84.4425C84.3572 136.256 83.3972 135.648 81.5625 135.648C79.9838 135.648 79.1945 136.075 79.1945 136.928C79.1945 137.717 79.8238 138.219 81.0825 138.432L83.8345 138.88C86.8852 139.413 88.4105 140.896 88.4105 143.328C88.4105 144.971 87.7812 146.229 86.5225 147.104C85.2638 147.957 83.6212 148.384 81.5945 148.384C80.6985 148.384 79.8665 148.288 79.0985 148.096C78.3305 147.925 77.6052 147.637 76.9225 147.232C76.2398 146.805 75.6852 146.208 75.2585 145.44C74.8532 144.672 74.6078 143.755 74.5225 142.688L78.3945 142.72ZM96.4395 126.24L96.0875 141.024H92.3755L92.0235 126.24H96.4395ZM96.0235 147.488C95.5328 147.957 94.9355 148.192 94.2315 148.192C93.5275 148.192 92.9302 147.957 92.4395 147.488C91.9488 147.019 91.7035 146.432 91.7035 145.728C91.7035 145.045 91.9488 144.469 92.4395 144C92.9302 143.531 93.5275 143.296 94.2315 143.296C94.9355 143.296 95.5328 143.531 96.0235 144C96.5355 144.469 96.7915 145.045 96.7915 145.728C96.7915 146.432 96.5355 147.019 96.0235 147.488Z" fill="#747474"/>
<path d="M24.352 175.12H26.656L23.072 186.064H20.928L18.496 179.04L16.048 186.064H13.904L10.32 175.12H12.624L14.992 182.64L17.568 175.12H19.408L21.984 182.64L24.352 175.12ZM33.9633 181.92C33.9633 182.293 33.9473 182.587 33.9153 182.8H28.3153C28.5073 183.835 29.1526 184.352 30.2513 184.352C30.8273 184.352 31.2326 184.208 31.4673 183.92H33.7873C33.5313 184.635 33.0833 185.195 32.4433 185.6C31.8139 185.995 31.0779 186.192 30.2352 186.192C29.0299 186.192 28.0486 185.813 27.2913 185.056C26.5446 184.299 26.1713 183.344 26.1713 182.192C26.1713 181.04 26.5393 180.085 27.2753 179.328C28.0113 178.56 28.9553 178.176 30.1073 178.176C31.2379 178.176 32.1606 178.523 32.8753 179.216C33.6006 179.899 33.9633 180.8 33.9633 181.92ZM30.1233 179.952C29.1739 179.952 28.5873 180.427 28.3633 181.376H31.8353C31.7286 180.427 31.1579 179.952 30.1233 179.952ZM43.4696 184.288C43.8963 184.288 44.259 184.176 44.5576 183.952C44.8563 183.728 45.0483 183.429 45.1336 183.056H47.2776C47.1603 183.973 46.7443 184.725 46.0296 185.312C45.315 185.899 44.4616 186.192 43.4696 186.192C42.3283 186.192 41.363 185.808 40.5736 185.04C39.795 184.272 39.4056 183.323 39.4056 182.192C39.4056 181.061 39.795 180.112 40.5736 179.344C41.363 178.565 42.3283 178.176 43.4696 178.176C44.451 178.176 45.299 178.475 46.0136 179.072C46.739 179.659 47.1603 180.411 47.2776 181.328H45.1336C45.0483 180.955 44.8563 180.656 44.5576 180.432C44.259 180.197 43.8963 180.08 43.4696 180.08C42.883 180.08 42.4083 180.283 42.0456 180.688C41.683 181.093 41.5016 181.595 41.5016 182.192C41.5016 182.789 41.683 183.291 42.0456 183.696C42.4083 184.091 42.883 184.288 43.4696 184.288ZM52.6259 178.176C53.7885 178.176 54.7539 178.555 55.5219 179.312C56.2899 180.069 56.6739 181.029 56.6739 182.192C56.6739 183.355 56.2899 184.315 55.5219 185.072C54.7539 185.819 53.7885 186.192 52.6259 186.192C51.4525 186.192 50.4819 185.819 49.7139 185.072C48.9459 184.315 48.5619 183.355 48.5619 182.192C48.5619 181.029 48.9459 180.069 49.7139 179.312C50.4819 178.555 51.4525 178.176 52.6259 178.176ZM51.2019 183.696C51.5645 184.091 52.0392 184.288 52.6259 184.288C53.2125 184.288 53.6819 184.091 54.0339 183.696C54.3965 183.301 54.5779 182.8 54.5779 182.192C54.5779 181.595 54.3965 181.093 54.0339 180.688C53.6712 180.283 53.2019 180.08 52.6259 180.08C52.0392 180.08 51.5645 180.283 51.2019 180.688C50.8392 181.093 50.6579 181.595 50.6579 182.192C50.6579 182.8 50.8392 183.301 51.2019 183.696ZM63.7144 178.368H65.8104V186H63.7144V185.392C63.0424 185.925 62.3064 186.192 61.5064 186.192C60.493 186.192 59.677 185.851 59.0584 185.168C58.4397 184.485 58.1304 183.584 58.1304 182.464V178.368H60.2264V182.336C60.2264 182.955 60.3757 183.435 60.6744 183.776C60.973 184.117 61.3997 184.288 61.9544 184.288C62.573 184.288 63.1597 183.952 63.7144 183.28V178.368ZM67.8205 174.64H69.9165V186H67.8205V174.64ZM77.4838 174.64H79.5798V186H77.4838V185.568C76.8438 185.984 76.1131 186.192 75.2918 186.192C74.2358 186.192 73.3344 185.803 72.5878 185.024C71.8518 184.235 71.4838 183.285 71.4838 182.176C71.4838 181.067 71.8518 180.123 72.5878 179.344C73.3344 178.565 74.2358 178.176 75.2918 178.176C76.1131 178.176 76.8438 178.384 77.4838 178.8V174.64ZM75.6118 184.288C76.4438 184.288 77.0678 183.989 77.4838 183.392V180.976C77.0678 180.379 76.4438 180.08 75.6118 180.08C75.0251 180.08 74.5398 180.288 74.1558 180.704C73.7718 181.109 73.5798 181.6 73.5798 182.176C73.5798 182.763 73.7718 183.264 74.1558 183.68C74.5398 184.085 75.0251 184.288 75.6118 184.288ZM85.9058 178.176C86.9298 178.176 87.7458 178.512 88.3538 179.184C88.9724 179.845 89.2818 180.736 89.2818 181.856V186H87.1858V181.984C87.1858 181.365 87.0364 180.896 86.7378 180.576C86.4391 180.245 86.0124 180.08 85.4578 180.08C84.8391 180.08 84.2524 180.405 83.6978 181.056V186H81.6018V178.368H83.6978V178.944C84.3378 178.432 85.0738 178.176 85.9058 178.176ZM90.1675 178.304L90.9355 176.672C90.4342 176.469 90.1835 176.128 90.1835 175.648C90.1835 175.317 90.3062 175.035 90.5515 174.8C90.7968 174.565 91.0902 174.448 91.4315 174.448C91.7835 174.448 92.0822 174.565 92.3275 174.8C92.5728 175.035 92.6955 175.317 92.6955 175.648C92.6955 175.915 92.5568 176.293 92.2795 176.784L91.4155 178.304H90.1675ZM99.6519 183.952L99.9399 185.856C99.3639 186.08 98.7505 186.192 98.0999 186.192C97.0865 186.192 96.2972 185.904 95.7319 185.328C95.1772 184.741 94.8999 183.952 94.8999 182.96V180.128H93.2679V178.368H94.8999V175.6H96.9959V178.368H99.7959V180.128H96.9959V182.96C96.9959 183.387 97.1185 183.712 97.3639 183.936C97.6092 184.149 97.9345 184.256 98.3399 184.256C98.7239 184.256 99.1612 184.155 99.6519 183.952ZM114.899 178.368V186H112.803V180.128H108.851V186H106.755V180.128H104.643V178.368H106.755V177.712C106.755 176.72 107.069 175.931 107.699 175.344C108.328 174.747 109.139 174.448 110.131 174.448C110.653 174.448 111.208 174.533 111.795 174.704L111.507 176.4C111.048 176.304 110.675 176.256 110.387 176.256C109.917 176.256 109.544 176.389 109.266 176.656C108.989 176.912 108.851 177.264 108.851 177.712V178.368H114.899ZM121.218 178.176C122.242 178.176 123.058 178.512 123.666 179.184C124.285 179.845 124.594 180.736 124.594 181.856V186H122.498V181.984C122.498 181.365 122.349 180.896 122.05 180.576C121.752 180.245 121.325 180.08 120.77 180.08C120.152 180.08 119.565 180.405 119.01 181.056V186H116.914V178.368H119.01V178.944C119.65 178.432 120.386 178.176 121.218 178.176ZM132.046 174.64H134.142V186H132.046V185.568C131.406 185.984 130.676 186.192 129.854 186.192C128.798 186.192 127.897 185.803 127.15 185.024C126.414 184.235 126.046 183.285 126.046 182.176C126.046 181.067 126.414 180.123 127.15 179.344C127.897 178.565 128.798 178.176 129.854 178.176C130.676 178.176 131.406 178.384 132.046 178.8V174.64ZM130.174 184.288C131.006 184.288 131.63 183.989 132.046 183.392V180.976C131.63 180.379 131.006 180.08 130.174 180.08C129.588 180.08 129.102 180.288 128.718 180.704C128.334 181.109 128.142 181.6 128.142 182.176C128.142 182.763 128.334 183.264 128.718 183.68C129.102 184.085 129.588 184.288 130.174 184.288ZM145.793 183.952L146.081 185.856C145.505 186.08 144.891 186.192 144.241 186.192C143.227 186.192 142.438 185.904 141.873 185.328C141.318 184.741 141.041 183.952 141.041 182.96V180.128H139.409V178.368H141.041V175.6H143.137V178.368H145.937V180.128H143.137V182.96C143.137 183.387 143.259 183.712 143.505 183.936C143.75 184.149 144.075 184.256 144.481 184.256C144.865 184.256 145.302 184.155 145.793 183.952ZM151.859 178.176C152.883 178.176 153.699 178.512 154.307 179.184C154.926 179.845 155.235 180.736 155.235 181.856V186H153.139V181.984C153.139 181.365 152.99 180.896 152.691 180.576C152.392 180.245 151.966 180.08 151.411 180.08C150.792 180.08 150.206 180.405 149.651 181.056V186H147.555V174.64H149.651V178.944C150.291 178.432 151.027 178.176 151.859 178.176ZM164.479 181.92C164.479 182.293 164.463 182.587 164.431 182.8H158.831C159.023 183.835 159.668 184.352 160.767 184.352C161.343 184.352 161.748 184.208 161.983 183.92H164.303C164.047 184.635 163.599 185.195 162.959 185.6C162.33 185.995 161.594 186.192 160.751 186.192C159.546 186.192 158.564 185.813 157.807 185.056C157.06 184.299 156.687 183.344 156.687 182.192C156.687 181.04 157.055 180.085 157.791 179.328C158.527 178.56 159.471 178.176 160.623 178.176C161.754 178.176 162.676 178.523 163.391 179.216C164.116 179.899 164.479 180.8 164.479 181.92ZM160.639 179.952C159.69 179.952 159.103 180.427 158.879 181.376H162.351C162.244 180.427 161.674 179.952 160.639 179.952ZM174.577 178.208C175.633 178.208 176.529 178.597 177.265 179.376C178.012 180.144 178.385 181.083 178.385 182.192C178.385 183.291 178.012 184.229 177.265 185.008C176.529 185.776 175.633 186.16 174.577 186.16C173.745 186.16 173.015 185.957 172.385 185.552V189.728H170.289V178.368H172.385V178.816C173.015 178.411 173.745 178.208 174.577 178.208ZM174.257 184.352C174.844 184.352 175.329 184.139 175.713 183.712C176.097 183.285 176.289 182.779 176.289 182.192C176.289 181.605 176.097 181.099 175.713 180.672C175.329 180.235 174.844 180.016 174.257 180.016C173.457 180.016 172.833 180.331 172.385 180.96V183.408C172.833 184.037 173.457 184.352 174.257 184.352ZM185.671 178.368H187.767V186H185.671V185.568C185.031 185.984 184.301 186.192 183.479 186.192C182.423 186.192 181.522 185.803 180.775 185.024C180.039 184.245 179.671 183.301 179.671 182.192C179.671 181.083 180.039 180.139 180.775 179.36C181.522 178.571 182.423 178.176 183.479 178.176C184.301 178.176 185.031 178.384 185.671 178.8V178.368ZM183.799 184.288C184.631 184.288 185.255 183.989 185.671 183.392V180.976C185.255 180.379 184.631 180.08 183.799 180.08C183.213 180.08 182.727 180.288 182.343 180.704C181.959 181.109 181.767 181.605 181.767 182.192C181.767 182.768 181.959 183.264 182.343 183.68C182.727 184.085 183.213 184.288 183.799 184.288ZM195.421 178.368H197.517V186.048C197.517 187.221 197.155 188.149 196.429 188.832C195.704 189.525 194.765 189.872 193.613 189.872C192.515 189.872 191.597 189.563 190.861 188.944C190.125 188.336 189.715 187.552 189.629 186.592H191.757C191.811 187.008 191.997 187.339 192.317 187.584C192.648 187.84 193.08 187.968 193.613 187.968C194.147 187.968 194.579 187.797 194.909 187.456C195.251 187.125 195.421 186.656 195.421 186.048V185.072C194.792 185.477 194.061 185.68 193.229 185.68C192.184 185.68 191.288 185.317 190.541 184.592C189.795 183.856 189.421 182.992 189.421 182C189.421 180.88 189.784 179.963 190.509 179.248C191.245 178.533 192.152 178.176 193.229 178.176C194.061 178.176 194.792 178.379 195.421 178.784V178.368ZM193.549 183.872C194.36 183.872 194.984 183.552 195.421 182.912V180.944C194.984 180.304 194.36 179.984 193.549 179.984C192.941 179.984 192.451 180.171 192.077 180.544C191.704 180.907 191.517 181.392 191.517 182C191.517 182.469 191.709 182.901 192.093 183.296C192.488 183.68 192.973 183.872 193.549 183.872ZM206.885 181.92C206.885 182.293 206.869 182.587 206.837 182.8H201.237C201.429 183.835 202.074 184.352 203.173 184.352C203.749 184.352 204.154 184.208 204.389 183.92H206.709C206.453 184.635 206.005 185.195 205.365 185.6C204.736 185.995 204 186.192 203.157 186.192C201.952 186.192 200.97 185.813 200.213 185.056C199.466 184.299 199.093 183.344 199.093 182.192C199.093 181.04 199.461 180.085 200.197 179.328C200.933 178.56 201.877 178.176 203.029 178.176C204.16 178.176 205.082 178.523 205.797 179.216C206.522 179.899 206.885 180.8 206.885 181.92ZM203.045 179.952C202.096 179.952 201.509 180.427 201.285 181.376H204.757C204.65 180.427 204.08 179.952 203.045 179.952ZM17.36 197.352H19.568L14.688 208.712H12.48L14.08 204.968L10.24 197.352H12.48L15.056 202.728L17.36 197.352ZM23.8759 197.176C25.0385 197.176 26.0039 197.555 26.7719 198.312C27.5399 199.069 27.9239 200.029 27.9239 201.192C27.9239 202.355 27.5399 203.315 26.7719 204.072C26.0039 204.819 25.0385 205.192 23.8759 205.192C22.7025 205.192 21.7319 204.819 20.9639 204.072C20.1959 203.315 19.8119 202.355 19.8119 201.192C19.8119 200.029 20.1959 199.069 20.9639 198.312C21.7319 197.555 22.7025 197.176 23.8759 197.176ZM22.4519 202.696C22.8145 203.091 23.2892 203.288 23.8759 203.288C24.4625 203.288 24.9319 203.091 25.2839 202.696C25.6465 202.301 25.8279 201.8 25.8279 201.192C25.8279 200.595 25.6465 200.093 25.2839 199.688C24.9212 199.283 24.4519 199.08 23.8759 199.08C23.2892 199.08 22.8145 199.283 22.4519 199.688C22.0892 200.093 21.9079 200.595 21.9079 201.192C21.9079 201.8 22.0892 202.301 22.4519 202.696ZM34.9644 197.368H37.0604V205H34.9644V204.392C34.2924 204.925 33.5564 205.192 32.7564 205.192C31.743 205.192 30.927 204.851 30.3084 204.168C29.6897 203.485 29.3804 202.584 29.3804 201.464V197.368H31.4764V201.336C31.4764 201.955 31.6257 202.435 31.9244 202.776C32.223 203.117 32.6497 203.288 33.2044 203.288C33.823 203.288 34.4097 202.952 34.9644 202.28V197.368ZM48.8588 197.368H50.9548V205H48.8588V204.568C48.2188 204.984 47.4881 205.192 46.6668 205.192C45.6108 205.192 44.7094 204.803 43.9628 204.024C43.2268 203.245 42.8588 202.301 42.8588 201.192C42.8588 200.083 43.2268 199.139 43.9628 198.36C44.7094 197.571 45.6108 197.176 46.6668 197.176C47.4881 197.176 48.2188 197.384 48.8588 197.8V197.368ZM46.9868 203.288C47.8188 203.288 48.4428 202.989 48.8588 202.392V199.976C48.4428 199.379 47.8188 199.08 46.9868 199.08C46.4001 199.08 45.9148 199.288 45.5308 199.704C45.1468 200.109 44.9548 200.605 44.9548 201.192C44.9548 201.768 45.1468 202.264 45.5308 202.68C45.9148 203.085 46.4001 203.288 46.9868 203.288ZM55.0728 198.248C55.7768 197.576 56.6781 197.24 57.7768 197.24V199.224C56.6034 199.288 55.7021 199.672 55.0728 200.376V205H52.9768V197.368H55.0728V198.248ZM66.3695 200.92C66.3695 201.293 66.3535 201.587 66.3215 201.8H60.7215C60.9135 202.835 61.5588 203.352 62.6575 203.352C63.2335 203.352 63.6388 203.208 63.8735 202.92H66.1935C65.9375 203.635 65.4895 204.195 64.8495 204.6C64.2202 204.995 63.4842 205.192 62.6415 205.192C61.4362 205.192 60.4548 204.813 59.6975 204.056C58.9508 203.299 58.5775 202.344 58.5775 201.192C58.5775 200.04 58.9455 199.085 59.6815 198.328C60.4175 197.56 61.3615 197.176 62.5135 197.176C63.6442 197.176 64.5668 197.523 65.2815 198.216C66.0068 198.899 66.3695 199.8 66.3695 200.92ZM62.5295 198.952C61.5802 198.952 60.9935 199.427 60.7695 200.376H64.2415C64.1348 199.427 63.5642 198.952 62.5295 198.952ZM72.1799 193.64H74.2759V205H72.1799V193.64ZM79.9071 197.176C81.0698 197.176 82.0351 197.555 82.8031 198.312C83.5711 199.069 83.9551 200.029 83.9551 201.192C83.9551 202.355 83.5711 203.315 82.8031 204.072C82.0351 204.819 81.0698 205.192 79.9071 205.192C78.7338 205.192 77.7631 204.819 76.9951 204.072C76.2271 203.315 75.8431 202.355 75.8431 201.192C75.8431 200.029 76.2271 199.069 76.9951 198.312C77.7631 197.555 78.7338 197.176 79.9071 197.176ZM78.4831 202.696C78.8458 203.091 79.3205 203.288 79.9071 203.288C80.4938 203.288 80.9631 203.091 81.3151 202.696C81.6778 202.301 81.8591 201.8 81.8591 201.192C81.8591 200.595 81.6778 200.093 81.3151 199.688C80.9525 199.283 80.4831 199.08 79.9071 199.08C79.3205 199.08 78.8458 199.283 78.4831 199.688C78.1205 200.093 77.9391 200.595 77.9391 201.192C77.9391 201.8 78.1205 202.301 78.4831 202.696ZM89.2977 197.176C90.4604 197.176 91.4258 197.555 92.1938 198.312C92.9618 199.069 93.3458 200.029 93.3458 201.192C93.3458 202.355 92.9618 203.315 92.1938 204.072C91.4258 204.819 90.4604 205.192 89.2977 205.192C88.1244 205.192 87.1538 204.819 86.3858 204.072C85.6178 203.315 85.2338 202.355 85.2338 201.192C85.2338 200.029 85.6178 199.069 86.3858 198.312C87.1538 197.555 88.1244 197.176 89.2977 197.176ZM87.8738 202.696C88.2364 203.091 88.7111 203.288 89.2977 203.288C89.8844 203.288 90.3538 203.091 90.7058 202.696C91.0684 202.301 91.2498 201.8 91.2498 201.192C91.2498 200.595 91.0684 200.093 90.7058 199.688C90.3431 199.283 89.8738 199.08 89.2977 199.08C88.7111 199.08 88.2364 199.283 87.8738 199.688C87.5111 200.093 87.3298 200.595 87.3298 201.192C87.3298 201.8 87.5111 202.301 87.8738 202.696ZM100.386 205L98.2903 202.056L97.0103 203.4V205H94.9143V193.64H97.0103V200.648L100.066 197.368H102.722L99.7303 200.536L103.09 205H100.386ZM105.46 195.88C105.097 195.88 104.793 195.763 104.548 195.528C104.303 195.293 104.18 195 104.18 194.648C104.18 194.285 104.303 193.987 104.548 193.752C104.793 193.517 105.097 193.4 105.46 193.4C105.812 193.4 106.111 193.523 106.356 193.768C106.612 194.003 106.74 194.296 106.74 194.648C106.74 195 106.612 195.293 106.356 195.528C106.111 195.763 105.812 195.88 105.46 195.88ZM104.42 197.368H106.516V205H104.42V197.368ZM113.062 197.176C114.086 197.176 114.902 197.512 115.51 198.184C116.129 198.845 116.438 199.736 116.438 200.856V205H114.342V200.984C114.342 200.365 114.193 199.896 113.894 199.576C113.595 199.245 113.169 199.08 112.614 199.08C111.995 199.08 111.409 199.405 110.854 200.056V205H108.758V197.368H110.854V197.944C111.494 197.432 112.23 197.176 113.062 197.176ZM123.749 197.368H125.845V205.048C125.845 206.221 125.483 207.149 124.757 207.832C124.032 208.525 123.093 208.872 121.941 208.872C120.843 208.872 119.925 208.563 119.189 207.944C118.453 207.336 118.043 206.552 117.957 205.592H120.085C120.139 206.008 120.325 206.339 120.645 206.584C120.976 206.84 121.408 206.968 121.941 206.968C122.475 206.968 122.907 206.797 123.237 206.456C123.579 206.125 123.749 205.656 123.749 205.048V204.072C123.12 204.477 122.389 204.68 121.557 204.68C120.512 204.68 119.616 204.317 118.869 203.592C118.123 202.856 117.749 201.992 117.749 201C117.749 199.88 118.112 198.963 118.837 198.248C119.573 197.533 120.48 197.176 121.557 197.176C122.389 197.176 123.12 197.379 123.749 197.784V197.368ZM121.877 202.872C122.688 202.872 123.312 202.552 123.749 201.912V199.944C123.312 199.304 122.688 198.984 121.877 198.984C121.269 198.984 120.779 199.171 120.405 199.544C120.032 199.907 119.845 200.392 119.845 201C119.845 201.469 120.037 201.901 120.421 202.296C120.816 202.68 121.301 202.872 121.877 202.872ZM138.264 197.368V199.128H135.304V205H133.208V199.128H131.096V197.368H133.208V196.712C133.208 195.72 133.522 194.931 134.152 194.344C134.781 193.747 135.592 193.448 136.584 193.448C137.106 193.448 137.661 193.533 138.248 193.704L137.96 195.48C137.512 195.331 137.138 195.256 136.84 195.256C136.37 195.256 135.997 195.389 135.72 195.656C135.442 195.912 135.304 196.264 135.304 196.712V197.368H138.264ZM142.798 197.176C143.96 197.176 144.926 197.555 145.694 198.312C146.462 199.069 146.846 200.029 146.846 201.192C146.846 202.355 146.462 203.315 145.694 204.072C144.926 204.819 143.96 205.192 142.798 205.192C141.624 205.192 140.654 204.819 139.886 204.072C139.118 203.315 138.734 202.355 138.734 201.192C138.734 200.029 139.118 199.069 139.886 198.312C140.654 197.555 141.624 197.176 142.798 197.176ZM141.374 202.696C141.736 203.091 142.211 203.288 142.798 203.288C143.384 203.288 143.854 203.091 144.206 202.696C144.568 202.301 144.75 201.8 144.75 201.192C144.75 200.595 144.568 200.093 144.206 199.688C143.843 199.283 143.374 199.08 142.798 199.08C142.211 199.08 141.736 199.283 141.374 199.688C141.011 200.093 140.83 200.595 140.83 201.192C140.83 201.8 141.011 202.301 141.374 202.696ZM150.432 198.248C151.136 197.576 152.037 197.24 153.136 197.24V199.224C151.963 199.288 151.061 199.672 150.432 200.376V205H148.336V197.368H150.432V198.248ZM155.296 204.76C155.051 204.995 154.752 205.112 154.4 205.112C154.048 205.112 153.75 204.995 153.504 204.76C153.259 204.525 153.136 204.232 153.136 203.88C153.136 203.539 153.259 203.251 153.504 203.016C153.75 202.781 154.048 202.664 154.4 202.664C154.752 202.664 155.051 202.781 155.296 203.016C155.552 203.251 155.68 203.539 155.68 203.88C155.68 204.232 155.552 204.525 155.296 204.76Z" fill="#DBDBDB"/>
<g filter="url(#filter0_di_5004_23766)">
<path d="M67.408 52V63.136H58.864V76H46.288V63.136H12.88V55.072L31.216 10.72H44.464L27.856 52H46.288V33.088H58.864V52H67.408ZM103.859 9.568C112.947 9.568 120.115 12.704 125.363 18.976C130.611 25.248 133.235 33.376 133.235 43.36C133.235 53.344 130.611 61.472 125.363 67.744C120.115 74.016 112.947 77.152 103.859 77.152C94.7068 77.152 87.5068 74.016 82.2588 67.744C77.0108 61.472 74.3868 53.344 74.3868 43.36C74.3868 33.376 77.0108 25.248 82.2588 18.976C87.5068 12.704 94.7068 9.568 103.859 9.568ZM103.859 65.344C109.107 65.344 113.107 63.328 115.859 59.296C118.675 55.2 120.083 49.888 120.083 43.36C120.083 36.832 118.675 31.552 115.859 27.52C113.107 23.424 109.107 21.376 103.859 21.376C98.5468 21.376 94.4828 23.424 91.6668 27.52C88.9148 31.552 87.5388 36.832 87.5388 43.36C87.5388 49.888 88.9148 55.2 91.6668 59.296C94.4828 63.328 98.5468 65.344 103.859 65.344ZM190.881 52V63.136H182.337V76H169.761V63.136H136.353V55.072L154.689 10.72H167.937L151.329 52H169.761V33.088H182.337V52H190.881Z" fill="#C8DBFD"/>
</g>
<defs>
<filter id="filter0_di_5004_23766" x="0.879883" y="0.568359" width="202" height="91.584" filterUnits="userSpaceOnUse" color-interpolation-filters="sRGB">
<feFlood flood-opacity="0" result="BackgroundImageFix"/>
<feColorMatrix in="SourceAlpha" type="matrix" values="0 0 0 0 0 0 0 0 0 0 0 0 0 0 0 0 0 0 127 0" result="hardAlpha"/>
<feOffset dy="3"/>
<feGaussianBlur stdDeviation="6"/>
<feComposite in2="hardAlpha" operator="out"/>
<feColorMatrix type="matrix" values="0 0 0 0 0.176471 0 0 0 0 0.462745 0 0 0 0 0.972549 0 0 0 0.1 0"/>
<feBlend mode="normal" in2="BackgroundImageFix" result="effect1_dropShadow_5004_23766"/>
<feBlend mode="normal" in="SourceGraphic" in2="effect1_dropShadow_5004_23766" result="shape"/>
<feColorMatrix in="SourceAlpha" type="matrix" values="0 0 0 0 0 0 0 0 0 0 0 0 0 0 0 0 0 0 127 0" result="hardAlpha"/>
<feOffset dy="3"/>
<feGaussianBlur stdDeviation="2"/>
<feComposite in2="hardAlpha" operator="arithmetic" k2="-1" k3="1"/>
<feColorMatrix type="matrix" values="0 0 0 0 0.176471 0 0 0 0 0.462745 0 0 0 0 0.972549 0 0 0 0.12 0"/>
<feBlend mode="normal" in2="shape" result="effect2_innerShadow_5004_23766"/>
</filter>
</defs>
</svg>
