<svg width="241" height="210" viewBox="0 0 241 210" fill="none" xmlns="http://www.w3.org/2000/svg">
<path d="M36.112 126.32V153.968H31.888V126.32H36.112ZM15.984 134.896V144.656C15.984 146.213 16.2827 147.365 16.88 148.112C17.4773 148.837 18.3413 149.2 19.472 149.2C20.6027 149.2 21.4667 148.837 22.064 148.112C22.6827 147.365 22.992 146.213 22.992 144.656V134.896C22.992 133.36 22.6827 132.219 22.064 131.472C21.4667 130.725 20.6027 130.352 19.472 130.352C18.3413 130.352 17.4773 130.725 16.88 131.472C16.2827 132.219 15.984 133.36 15.984 134.896ZM11.92 144.656V134.896C11.92 132.165 12.6027 130.075 13.968 128.624C15.3547 127.173 17.1893 126.448 19.472 126.448C21.776 126.448 23.6213 127.173 25.008 128.624C26.3947 130.075 27.088 132.165 27.088 134.896V144.656C27.088 147.387 26.3947 149.467 25.008 150.896C23.6213 152.325 21.776 153.04 19.472 153.04C17.1893 153.04 15.3547 152.325 13.968 150.896C12.6027 149.467 11.92 147.387 11.92 144.656ZM56.6685 139.856V143.344H41.0205V133.264H50.5245V130.288H41.0205V126.768H54.6205V136.72H45.1165V139.856H56.6685ZM65.5325 149.936V153.808H41.9165V145.264H46.1725V149.936H65.5325ZM64.9245 126.32V146.96H60.7005V136.72H55.9005V132.816H60.7005V126.32H64.9245ZM69.545 125.872H73.769V145.264H69.545V125.872ZM74.089 153.488H69.225V148.72H74.089V153.488Z" fill="#747474"/>
<path d="M17.648 186.016V187.376H11.024V186.016H12.24V177.168H13.744V186.016H14.56L15.312 177.168H16.816L16.064 186.016H17.648ZM20.048 174.224V187.824H18.544V181.392H17.04V180.032H18.544V174.224H20.048ZM22.912 187.984H21.408V174.16H22.912V187.984ZM17.504 174.448V175.808H11.184V174.448H17.504ZM37.3183 174.16V187.984H35.8143V174.16H37.3183ZM26.9343 178.672V183.184C26.9343 184.24 27.1156 185.003 27.4783 185.472C27.8516 185.941 28.4009 186.176 29.1263 186.176C29.8303 186.176 30.3689 185.941 30.7423 185.472C31.1156 185.003 31.3023 184.24 31.3023 183.184V178.672C31.3023 177.616 31.1156 176.853 30.7423 176.384C30.3689 175.904 29.8303 175.664 29.1263 175.664C28.4009 175.664 27.8516 175.904 27.4783 176.384C27.1156 176.853 26.9343 177.616 26.9343 178.672ZM25.4303 183.184V178.672C25.4303 177.2 25.7716 176.107 26.4543 175.392C27.1369 174.667 28.0276 174.304 29.1263 174.304C30.2143 174.304 31.0996 174.667 31.7823 175.392C32.4649 176.107 32.8063 177.2 32.8063 178.672V183.184C32.8063 184.645 32.4649 185.733 31.7823 186.448C31.0996 187.163 30.2143 187.52 29.1263 187.52C28.0276 187.52 27.1369 187.163 26.4543 186.448C25.7716 185.733 25.4303 184.645 25.4303 183.184ZM39.9965 175.808V174.448H47.3405V175.808H44.2045C44.1938 176.48 44.1565 177.141 44.0925 177.792C44.0392 178.432 43.9645 179.067 43.8685 179.696C44.0605 180.325 44.2952 180.949 44.5725 181.568C44.8605 182.187 45.1912 182.789 45.5645 183.376C45.9272 183.963 46.3272 184.517 46.7645 185.04C47.2018 185.563 47.6712 186.032 48.1725 186.448L47.0365 187.376C46.2578 186.64 45.5538 185.819 44.9245 184.912C44.2952 184.005 43.7672 183.072 43.3405 182.112C43.0632 183.104 42.7112 184.059 42.2845 184.976C41.8578 185.883 41.3458 186.747 40.7485 187.568L39.3885 186.864C40.6045 185.232 41.4525 183.504 41.9325 181.68C42.4125 179.845 42.6685 177.888 42.7005 175.808H39.9965ZM50.2205 174.16H51.7245V187.984H50.2205V174.16ZM66.4348 186.528V187.824H54.5468V184.496H64.7708V183.792H54.5468V182.496H66.2748V185.776H56.0508V186.528H66.4348ZM53.7948 180.464H67.0268V181.776H53.7948V180.464ZM66.4348 178.464V179.76H54.5468V176.464H64.7708V175.744H54.5468V174.448H66.2748V177.744H56.0508V178.464H66.4348ZM82.4946 174.16H83.9986V177.312H85.9506V178.672H83.9986V182H82.4946V174.16ZM84.1586 182.72V184.048H79.4706C79.4066 184.165 79.3373 184.277 79.2626 184.384C79.188 184.491 79.1133 184.592 79.0386 184.688C79.7533 185.243 80.6226 185.675 81.6466 185.984C82.6706 186.293 83.684 186.496 84.6866 186.592L84.1266 187.824C83.5933 187.76 83.0546 187.664 82.5106 187.536C81.9773 187.408 81.4546 187.248 80.9426 187.056C80.42 186.875 79.924 186.661 79.4546 186.416C78.9853 186.171 78.564 185.904 78.1906 185.616C77.476 186.267 76.66 186.773 75.7426 187.136C74.836 187.509 73.9186 187.739 72.9906 187.824L72.3506 186.592C73.4813 186.496 74.532 186.24 75.5026 185.824C76.484 185.397 77.2573 184.805 77.8226 184.048H72.8786V182.72H84.1586ZM73.1026 182.128L71.9666 181.088C72.98 180.64 73.8333 180.016 74.5266 179.216C75.2306 178.405 75.6786 177.52 75.8706 176.56H72.5746V175.2H75.8066V173.696H77.3106V175.2H80.5586V176.56H77.3906C77.3586 176.731 77.3213 176.901 77.2786 177.072C77.236 177.243 77.188 177.408 77.1346 177.568C77.5826 178.24 78.164 178.843 78.8786 179.376C79.604 179.899 80.3666 180.299 81.1666 180.576L80.3186 181.76C79.6146 181.483 78.916 181.093 78.2226 180.592C77.5293 180.091 76.9533 179.552 76.4946 178.976C76.0893 179.659 75.5933 180.277 75.0066 180.832C74.42 181.376 73.7853 181.808 73.1026 182.128ZM99.0129 186.48V187.824H87.1249V184.16H97.3489V183.232H87.1249V181.888H98.8529V185.488H88.6289V186.48H99.0129ZM86.3729 179.568H99.6049V180.912H86.3729V179.568ZM89.6849 177.392H96.1489C96.5222 177.392 96.8422 177.312 97.1089 177.152C97.3755 176.981 97.5089 176.747 97.5089 176.448C97.5089 176.149 97.3755 175.915 97.1089 175.744C96.8422 175.573 96.5222 175.488 96.1489 175.488H89.6849C89.3009 175.488 89.0022 175.573 88.7889 175.744C88.5862 175.915 88.4849 176.149 88.4849 176.448C88.4849 176.747 88.5862 176.981 88.7889 177.152C89.0022 177.312 89.3009 177.392 89.6849 177.392ZM89.6849 174.16H96.1489C96.9809 174.16 97.6635 174.357 98.1969 174.752C98.7409 175.136 99.0129 175.701 99.0129 176.448C99.0129 177.205 98.7409 177.776 98.1969 178.16C97.6635 178.533 96.9809 178.72 96.1489 178.72H89.6849C88.8529 178.72 88.1915 178.533 87.7009 178.16C87.2209 177.776 86.9809 177.205 86.9809 176.448C86.9809 175.701 87.2209 175.136 87.7009 174.752C88.1915 174.357 88.8529 174.16 89.6849 174.16ZM105.281 180.4L104.545 179.2C105.259 179.072 105.942 178.859 106.593 178.56C107.243 178.261 107.835 177.893 108.369 177.456C108.913 177.029 109.377 176.539 109.761 175.984C110.155 175.419 110.459 174.811 110.673 174.16L112.161 174.448C112.097 174.661 112.022 174.869 111.937 175.072C111.851 175.264 111.761 175.456 111.665 175.648C112.038 176.021 112.459 176.368 112.929 176.688C113.398 177.008 113.899 177.301 114.433 177.568C114.955 177.824 115.499 178.048 116.065 178.24C116.641 178.421 117.211 178.56 117.777 178.656L117.105 179.888C116.55 179.792 115.99 179.648 115.425 179.456C114.87 179.253 114.321 179.013 113.777 178.736C113.243 178.469 112.731 178.176 112.241 177.856C111.761 177.525 111.329 177.179 110.945 176.816C110.262 177.733 109.419 178.507 108.417 179.136C107.425 179.755 106.379 180.176 105.281 180.4ZM117.777 182.128V183.472H111.921V188.128H110.417V183.472H104.545V182.128H117.777ZM124.525 177.696C124.525 178.304 124.717 178.821 125.101 179.248C125.485 179.664 125.997 179.872 126.637 179.872C127.266 179.872 127.773 179.664 128.157 179.248C128.541 178.821 128.733 178.304 128.733 177.696C128.733 177.088 128.541 176.571 128.157 176.144C127.773 175.717 127.266 175.504 126.637 175.504C125.997 175.504 125.485 175.717 125.101 176.144C124.717 176.571 124.525 177.088 124.525 177.696ZM123.021 177.696C123.021 177.205 123.106 176.747 123.277 176.32C123.447 175.893 123.693 175.52 124.013 175.2C124.333 174.88 124.711 174.629 125.149 174.448C125.597 174.256 126.093 174.16 126.637 174.16C127.159 174.16 127.639 174.256 128.077 174.448C128.525 174.629 128.909 174.88 129.229 175.2C129.549 175.52 129.794 175.893 129.965 176.32C130.146 176.747 130.237 177.205 130.237 177.696C130.237 178.187 130.146 178.645 129.965 179.072C129.794 179.499 129.549 179.872 129.229 180.192C128.909 180.512 128.525 180.763 128.077 180.944C127.639 181.125 127.159 181.216 126.637 181.216C126.093 181.216 125.597 181.125 125.149 180.944C124.711 180.763 124.333 180.512 124.013 180.192C123.693 179.872 123.447 179.499 123.277 179.072C123.106 178.645 123.021 178.187 123.021 177.696ZM131.869 182.208L133.277 182.352C133.255 182.64 133.218 182.923 133.165 183.2C133.122 183.467 133.058 183.728 132.973 183.984C133.357 184.528 133.821 185.029 134.365 185.488C134.909 185.947 135.463 186.325 136.029 186.624L135.101 187.76C134.642 187.493 134.162 187.141 133.661 186.704C133.17 186.277 132.733 185.835 132.349 185.376C132.05 185.888 131.698 186.352 131.293 186.768C130.887 187.195 130.455 187.547 129.997 187.824L129.341 187.232V187.824H123.773V182.272H125.309V183.696H127.837V182.272H129.341V186.528C130.087 186.037 130.679 185.413 131.117 184.656C131.554 183.899 131.805 183.083 131.869 182.208ZM127.837 184.976H125.277V186.528H127.837V184.976ZM133.549 174.16H135.053V181.632H133.549V178.368H130.845V177.008H133.549V174.16ZM137.827 179.2L137.123 177.968C137.827 177.883 138.499 177.749 139.139 177.568C139.779 177.387 140.366 177.141 140.899 176.832C141.422 176.533 141.88 176.165 142.275 175.728C142.67 175.28 142.974 174.757 143.187 174.16L144.739 174.384C144.675 174.555 144.6 174.72 144.515 174.88C144.44 175.04 144.366 175.189 144.291 175.328C145.059 175.968 145.971 176.496 147.027 176.912C148.094 177.328 149.203 177.611 150.355 177.76L149.731 178.976C148.579 178.805 147.443 178.507 146.323 178.08C145.214 177.643 144.264 177.104 143.475 176.464C142.792 177.232 141.96 177.845 140.979 178.304C140.008 178.752 138.958 179.051 137.827 179.2ZM149.603 182.272V187.824H137.875V182.272H139.379V183.632H148.099V182.272H149.603ZM139.379 186.496H148.099V184.96H139.379V186.496ZM137.123 180.032H150.355V181.376H137.123V180.032ZM163.865 174.16V187.984H162.361V174.16H163.865ZM152.137 187.376V174.448H153.641V186.016H160.857V187.376H152.137ZM174.959 187.376H166.543V174.448H174.063V175.808H168.047V186.016H174.959V187.376ZM177.967 181.024V187.984H176.463V174.16H177.967V179.68H179.919V181.024H177.967ZM182.47 187.232H180.662V185.44H182.47V187.232ZM12.384 196.696C12.384 197.304 12.576 197.821 12.96 198.248C13.3547 198.664 13.888 198.872 14.56 198.872C15.232 198.872 15.7653 198.664 16.16 198.248C16.5547 197.821 16.752 197.304 16.752 196.696C16.752 196.088 16.5547 195.571 16.16 195.144C15.7653 194.717 15.232 194.504 14.56 194.504C13.888 194.504 13.3547 194.717 12.96 195.144C12.576 195.571 12.384 196.088 12.384 196.696ZM10.88 196.696C10.88 196.195 10.9707 195.731 11.152 195.304C11.3333 194.867 11.5893 194.488 11.92 194.168C12.24 193.859 12.624 193.613 13.072 193.432C13.5307 193.251 14.0267 193.16 14.56 193.16C15.0933 193.16 15.584 193.251 16.032 193.432C16.4907 193.613 16.88 193.859 17.2 194.168C17.5307 194.488 17.7867 194.867 17.968 195.304C18.16 195.731 18.256 196.195 18.256 196.696C18.256 197.208 18.16 197.677 17.968 198.104C17.7867 198.531 17.5307 198.904 17.2 199.224C16.88 199.533 16.4907 199.779 16.032 199.96C15.584 200.131 15.0933 200.216 14.56 200.216C14.0267 200.216 13.5307 200.131 13.072 199.96C12.624 199.779 12.24 199.533 11.92 199.224C11.5893 198.904 11.3333 198.531 11.152 198.104C10.9707 197.677 10.88 197.208 10.88 196.696ZM22.912 201.128V206.824H11.632V201.128H13.168V202.472H21.408V201.128H22.912ZM13.136 205.496H21.408V203.8H13.136V205.496ZM22.912 193.16V200.472H21.408V193.16H22.912ZM33.4143 199.768V201.128H25.5903V196.584H30.6943V194.808H25.5903V193.448H32.1983V197.928H27.0943V199.768H33.4143ZM37.3183 193.16V201.976H35.8143V199H32.9503V197.672H35.8143V196.216H32.9503V194.888H35.8143V193.16H37.3183ZM37.3183 202.632V207.128H35.8143V203.976H25.8943V202.632H37.3183ZM40.1405 203.08V201.128C40.1405 200.008 40.4712 199.155 41.1325 198.568C41.8045 197.971 42.6525 197.672 43.6765 197.672C44.6898 197.672 45.5325 197.971 46.2045 198.568C46.8765 199.155 47.2125 200.008 47.2125 201.128V203.08C47.2125 204.2 46.8765 205.053 46.2045 205.64C45.5325 206.227 44.6898 206.52 43.6765 206.52C42.6525 206.52 41.8045 206.227 41.1325 205.64C40.4712 205.053 40.1405 204.2 40.1405 203.08ZM51.4205 200.024V206.984H49.9165V193.16H51.4205V198.68H53.3725V200.024H51.4205ZM41.6445 201.128V203.08C41.6445 203.763 41.8205 204.285 42.1725 204.648C42.5352 205 43.0365 205.176 43.6765 205.176C44.3165 205.176 44.8125 205 45.1645 204.648C45.5272 204.285 45.7085 203.763 45.7085 203.08V201.128C45.7085 200.456 45.5272 199.939 45.1645 199.576C44.8125 199.203 44.3165 199.016 43.6765 199.016C43.0365 199.016 42.5352 199.203 42.1725 199.576C41.8205 199.939 41.6445 200.456 41.6445 201.128ZM47.6605 196.168H39.6925V194.808H42.8925V192.696H44.3965V194.808H47.6605V196.168ZM57.1068 193.16H58.6108C58.6108 193.64 58.5788 194.12 58.5148 194.6C58.4508 195.08 58.3601 195.555 58.2428 196.024C58.7228 196.824 59.3254 197.576 60.0508 198.28C60.7868 198.973 61.5708 199.56 62.4028 200.04L61.4748 201.192C60.7601 200.776 60.0668 200.259 59.3948 199.64C58.7334 199.011 58.1628 198.36 57.6828 197.688C57.3628 198.467 56.9574 199.192 56.4668 199.864C55.9868 200.536 55.4374 201.112 54.8188 201.592L53.6188 200.632C54.1628 200.227 54.6481 199.752 55.0748 199.208C55.5121 198.664 55.8801 198.072 56.1788 197.432C56.4774 196.781 56.7068 196.099 56.8668 195.384C57.0268 194.659 57.1068 193.917 57.1068 193.16ZM66.4348 205.48V206.824H54.8508V202.472H56.3548V205.48H66.4348ZM66.1308 193.16V203.608H64.6268V193.16H66.1308ZM72.8626 200.456L72.1266 199.24C73.4386 198.984 74.612 198.472 75.6466 197.704C76.692 196.936 77.4546 195.971 77.9346 194.808H72.7186V193.448H84.4466V194.808H79.5346C79.4706 195 79.4013 195.187 79.3266 195.368C79.252 195.539 79.172 195.704 79.0866 195.864C79.8226 196.621 80.7133 197.261 81.7586 197.784C82.8146 198.296 83.9133 198.653 85.0546 198.856L84.3826 200.088C83.2626 199.864 82.164 199.48 81.0866 198.936C80.02 198.392 79.1026 197.752 78.3346 197.016C77.6733 197.88 76.8626 198.605 75.9026 199.192C74.9426 199.779 73.9293 200.2 72.8626 200.456ZM85.1986 201.88V203.224H79.3426V207.128H77.8386V203.224H71.9666V201.88H85.1986ZM87.2849 201.208L86.3729 200.088C87.1729 199.8 87.9142 199.427 88.5969 198.968C89.2902 198.509 89.8982 197.981 90.4209 197.384C90.9542 196.787 91.3969 196.131 91.7489 195.416C92.1009 194.701 92.3515 193.949 92.5009 193.16L93.9889 193.448C93.9249 193.8 93.8395 194.147 93.7329 194.488C93.6369 194.829 93.5195 195.16 93.3809 195.48C94.1382 196.419 95.0555 197.245 96.1329 197.96C97.2209 198.664 98.3782 199.176 99.6049 199.496L98.8209 200.696C97.6689 200.355 96.5489 199.843 95.4609 199.16C94.3835 198.467 93.4555 197.683 92.6769 196.808C92.0369 197.811 91.2422 198.696 90.2929 199.464C89.3542 200.232 88.3515 200.813 87.2849 201.208ZM99.6049 205.016V206.376H86.3729V205.016H92.2449V200.616H93.7489V205.016H99.6049ZM113.419 205.528V206.824H101.531V203.496H111.755V202.792H101.531V201.496H113.259V204.776H103.035V205.528H113.419ZM100.779 199.464H114.011V200.776H100.779V199.464ZM113.419 197.464V198.76H101.531V195.464H111.755V194.744H101.531V193.448H113.259V196.744H103.035V197.464H113.419ZM127.975 206.376H119.559V193.448H127.079V194.808H121.063V205.016H127.975V206.376ZM130.983 200.024V206.984H129.479V193.16H130.983V198.68H132.935V200.024H130.983ZM136.061 193.304H137.565C137.565 194.072 137.539 194.845 137.485 195.624C137.432 196.403 137.357 197.176 137.261 197.944C137.613 199.32 138.141 200.664 138.845 201.976C139.549 203.288 140.397 204.413 141.389 205.352L140.285 206.376C139.517 205.619 138.835 204.755 138.237 203.784C137.64 202.803 137.144 201.805 136.749 200.792C136.504 201.816 136.2 202.819 135.837 203.8C135.485 204.771 135.059 205.693 134.557 206.568L133.213 205.864C133.736 204.947 134.179 203.981 134.541 202.968C134.904 201.955 135.197 200.915 135.421 199.848C135.645 198.781 135.805 197.699 135.901 196.6C136.008 195.501 136.061 194.403 136.061 193.304ZM144.189 193.16H145.693V206.984H144.189V193.16ZM165.513 196.92V198.264H163.561V202.44H162.057V193.16H163.561V196.92H165.513ZM163.561 203.096V207.128H162.057V204.44H152.281V203.096H163.561ZM156.761 199.944H156.713V200.824H160.953V202.168H151.529V200.824H155.209V199.944C154.388 199.944 153.721 199.747 153.209 199.352C152.697 198.957 152.441 198.424 152.441 197.752C152.441 197.08 152.697 196.552 153.209 196.168C153.732 195.773 154.409 195.576 155.241 195.576H156.761C157.593 195.576 158.27 195.773 158.793 196.168C159.316 196.552 159.577 197.08 159.577 197.752C159.577 198.435 159.316 198.973 158.793 199.368C158.27 199.752 157.593 199.944 156.761 199.944ZM155.241 198.68H156.761C157.188 198.68 157.513 198.595 157.737 198.424C157.961 198.253 158.073 198.029 158.073 197.752C158.073 197.485 157.961 197.261 157.737 197.08C157.513 196.899 157.188 196.808 156.761 196.808H155.241C154.814 196.808 154.489 196.899 154.265 197.08C154.052 197.261 153.945 197.485 153.945 197.752C153.945 198.029 154.052 198.253 154.265 198.424C154.489 198.595 154.814 198.68 155.241 198.68ZM160.265 193.752V195.064H151.833V193.752H155.241V192.696H156.745V193.752H160.265ZM167.743 196.84V197.448C167.743 198.088 167.946 198.637 168.351 199.096C168.767 199.544 169.317 199.768 169.999 199.768C170.671 199.768 171.215 199.544 171.631 199.096C172.047 198.637 172.255 198.088 172.255 197.448V196.84C172.255 196.2 172.047 195.651 171.631 195.192C171.215 194.733 170.671 194.504 169.999 194.504C169.317 194.504 168.767 194.733 168.351 195.192C167.946 195.651 167.743 196.2 167.743 196.84ZM166.239 197.448V196.84C166.239 196.317 166.33 195.832 166.511 195.384C166.703 194.936 166.97 194.547 167.311 194.216C167.642 193.885 168.037 193.629 168.495 193.448C168.954 193.256 169.455 193.16 169.999 193.16C170.522 193.16 171.013 193.256 171.471 193.448C171.93 193.629 172.33 193.885 172.671 194.216C173.002 194.547 173.263 194.936 173.455 195.384C173.658 195.832 173.759 196.317 173.759 196.84V197.448C173.759 197.981 173.658 198.472 173.455 198.92C173.263 199.368 173.002 199.757 172.671 200.088C172.33 200.408 171.93 200.664 171.471 200.856C171.013 201.037 170.522 201.128 169.999 201.128C169.455 201.128 168.954 201.037 168.495 200.856C168.037 200.664 167.642 200.408 167.311 200.088C166.97 199.757 166.703 199.368 166.511 198.92C166.33 198.472 166.239 197.981 166.239 197.448ZM178.575 205.48V206.824H166.991V202.472H168.495V205.48H178.575ZM178.271 193.16V203.608H176.767V193.16H178.271ZM186.662 200.68V203.688C186.662 204.584 186.406 205.277 185.894 205.768C185.392 206.269 184.694 206.52 183.798 206.52C182.902 206.52 182.203 206.269 181.702 205.768C181.2 205.277 180.95 204.584 180.95 203.688V200.68C180.95 199.784 181.2 199.085 181.702 198.584C182.203 198.072 182.902 197.816 183.798 197.816C184.694 197.816 185.392 198.072 185.894 198.584C186.406 199.085 186.662 199.784 186.662 200.68ZM185.158 203.688V200.68C185.158 200.232 185.04 199.869 184.806 199.592C184.582 199.315 184.246 199.176 183.798 199.176C183.35 199.176 183.014 199.315 182.79 199.592C182.566 199.869 182.454 200.232 182.454 200.68V203.688C182.454 204.136 182.566 204.499 182.79 204.776C183.014 205.043 183.35 205.176 183.798 205.176C184.246 205.176 184.582 205.043 184.806 204.776C185.04 204.499 185.158 204.136 185.158 203.688ZM192.678 193.16V206.984H191.174V200.072H189.366V206.824H187.862V193.224H189.366V198.712H191.174V193.16H192.678ZM186.982 194.808V196.168H180.646V194.808H183.046V192.696H184.55V194.808H186.982ZM195.644 200.456L194.908 199.24C196.22 198.984 197.393 198.472 198.428 197.704C199.473 196.936 200.236 195.971 200.716 194.808H195.5V193.448H207.228V194.808H202.316C202.252 195 202.183 195.187 202.108 195.368C202.033 195.539 201.953 195.704 201.868 195.864C202.604 196.621 203.495 197.261 204.54 197.784C205.596 198.296 206.695 198.653 207.836 198.856L207.164 200.088C206.044 199.864 204.945 199.48 203.868 198.936C202.801 198.392 201.884 197.752 201.116 197.016C200.455 197.88 199.644 198.605 198.684 199.192C197.724 199.779 196.711 200.2 195.644 200.456ZM207.98 201.88V203.224H202.124V207.128H200.62V203.224H194.748V201.88H207.98ZM210.418 206.568L209.01 206.008C209.522 205.091 209.933 204.12 210.242 203.096C210.562 202.061 210.807 201.005 210.978 199.928C211.149 198.84 211.261 197.741 211.314 196.632C211.378 195.512 211.41 194.403 211.41 193.304H212.914C212.914 194.093 212.898 194.888 212.866 195.688C212.834 196.488 212.781 197.288 212.706 198.088C213.026 199.368 213.485 200.643 214.082 201.912C214.679 203.171 215.41 204.317 216.274 205.352L215.042 206.232C214.455 205.528 213.927 204.739 213.458 203.864C212.999 202.989 212.605 202.093 212.274 201.176C212.082 202.147 211.837 203.091 211.538 204.008C211.239 204.915 210.866 205.768 210.418 206.568ZM221.49 206.984H219.986V193.16H221.49V206.984ZM218.258 193.224V206.824H216.754V199.464H214.274V198.12H216.754V193.224H218.258ZM231.992 200.68H228.376C227.736 200.68 227.144 200.595 226.6 200.424C226.067 200.243 225.608 199.987 225.224 199.656C224.84 199.325 224.542 198.931 224.328 198.472C224.115 198.003 224.008 197.485 224.008 196.92C224.008 196.365 224.115 195.859 224.328 195.4C224.542 194.931 224.84 194.531 225.224 194.2C225.608 193.869 226.067 193.613 226.6 193.432C227.144 193.251 227.736 193.16 228.376 193.16H231.992C232.622 193.16 233.203 193.251 233.736 193.432C234.27 193.613 234.728 193.869 235.112 194.2C235.496 194.531 235.795 194.931 236.008 195.4C236.232 195.859 236.344 196.365 236.344 196.92C236.344 197.485 236.232 198.003 236.008 198.472C235.795 198.931 235.496 199.325 235.112 199.656C234.728 199.987 234.27 200.243 233.736 200.424C233.203 200.595 232.622 200.68 231.992 200.68ZM228.376 199.32H231.992C232.814 199.32 233.48 199.101 233.992 198.664C234.504 198.216 234.76 197.635 234.76 196.92C234.76 196.205 234.504 195.624 233.992 195.176C233.48 194.728 232.814 194.504 231.992 194.504H228.376C227.544 194.504 226.872 194.728 226.36 195.176C225.848 195.624 225.592 196.205 225.592 196.92C225.592 197.635 225.848 198.216 226.36 198.664C226.872 199.101 227.544 199.32 228.376 199.32ZM236.792 205.016V206.376H223.56V205.016H226.568V201.576H228.072V205.016H232.28V201.576H233.784V205.016H236.792ZM240.095 206.232H238.287V204.44H240.095V206.232Z" fill="#C1C1C1"/>
<g filter="url(#filter0_di_5143_18110)">
<path d="M67.408 52V63.136H58.864V76H46.288V63.136H12.88V55.072L31.216 10.72H44.464L27.856 52H46.288V33.088H58.864V52H67.408ZM103.859 9.568C112.947 9.568 120.115 12.704 125.363 18.976C130.611 25.248 133.235 33.376 133.235 43.36C133.235 53.344 130.611 61.472 125.363 67.744C120.115 74.016 112.947 77.152 103.859 77.152C94.7068 77.152 87.5068 74.016 82.2588 67.744C77.0108 61.472 74.3868 53.344 74.3868 43.36C74.3868 33.376 77.0108 25.248 82.2588 18.976C87.5068 12.704 94.7068 9.568 103.859 9.568ZM103.859 65.344C109.107 65.344 113.107 63.328 115.859 59.296C118.675 55.2 120.083 49.888 120.083 43.36C120.083 36.832 118.675 31.552 115.859 27.52C113.107 23.424 109.107 21.376 103.859 21.376C98.5468 21.376 94.4828 23.424 91.6668 27.52C88.9148 31.552 87.5388 36.832 87.5388 43.36C87.5388 49.888 88.9148 55.2 91.6668 59.296C94.4828 63.328 98.5468 65.344 103.859 65.344ZM190.881 52V63.136H182.337V76H169.761V63.136H136.353V55.072L154.689 10.72H167.937L151.329 52H169.761V33.088H182.337V52H190.881Z" fill="#C8DBFD"/>
</g>
<defs>
<filter id="filter0_di_5143_18110" x="0.879883" y="0.568359" width="202" height="91.584" filterUnits="userSpaceOnUse" color-interpolation-filters="sRGB">
<feFlood flood-opacity="0" result="BackgroundImageFix"/>
<feColorMatrix in="SourceAlpha" type="matrix" values="0 0 0 0 0 0 0 0 0 0 0 0 0 0 0 0 0 0 127 0" result="hardAlpha"/>
<feOffset dy="3"/>
<feGaussianBlur stdDeviation="6"/>
<feComposite in2="hardAlpha" operator="out"/>
<feColorMatrix type="matrix" values="0 0 0 0 0.176471 0 0 0 0 0.462745 0 0 0 0 0.972549 0 0 0 0.1 0"/>
<feBlend mode="normal" in2="BackgroundImageFix" result="effect1_dropShadow_5143_18110"/>
<feBlend mode="normal" in="SourceGraphic" in2="effect1_dropShadow_5143_18110" result="shape"/>
<feColorMatrix in="SourceAlpha" type="matrix" values="0 0 0 0 0 0 0 0 0 0 0 0 0 0 0 0 0 0 127 0" result="hardAlpha"/>
<feOffset dy="3"/>
<feGaussianBlur stdDeviation="2"/>
<feComposite in2="hardAlpha" operator="arithmetic" k2="-1" k3="1"/>
<feColorMatrix type="matrix" values="0 0 0 0 0.176471 0 0 0 0 0.462745 0 0 0 0 0.972549 0 0 0 0.12 0"/>
<feBlend mode="normal" in2="shape" result="effect2_innerShadow_5143_18110"/>
</filter>
</defs>
</svg>
