<svg width="404" height="228" viewBox="0 0 404 228" fill="none" xmlns="http://www.w3.org/2000/svg">
<path d="M22.384 138.544C22.32 138.885 22.2453 139.216 22.16 139.536C22.096 139.856 22.032 140.176 21.968 140.496C22.8 141.947 23.9093 143.28 25.296 144.496C26.6827 145.691 28.1333 146.672 29.648 147.44L27.024 150.608C25.808 149.947 24.592 149.093 23.376 148.048C22.16 147.003 21.0933 145.904 20.176 144.752C19.408 146.075 18.5013 147.28 17.456 148.368C16.4107 149.435 15.2907 150.331 14.096 151.056L10.928 148.24C12.7413 147.216 14.2667 145.861 15.504 144.176C16.7627 142.491 17.5947 140.613 18 138.544H12.208V134.768H28.336V138.544H22.384ZM31.888 161.968V134.32H36.112V161.968H31.888ZM11.152 160.912V157.04H18V150.48H22.256V157.04H30.064V160.912H11.152ZM55.1645 142.704V146.8H66.4285V150.256H39.9645V146.8H50.9085V142.704H55.1645ZM58.3325 162.256H48.0925C45.8312 162.256 44.0818 161.819 42.8445 160.944C41.6285 160.069 41.0205 158.789 41.0205 157.104C41.0205 155.504 41.6285 154.245 42.8445 153.328C44.0818 152.389 45.8312 151.92 48.0925 151.92H58.3325C60.5725 151.92 62.3005 152.389 63.5165 153.328C64.7538 154.245 65.3725 155.504 65.3725 157.104C65.3725 158.789 64.7538 160.069 63.5165 160.944C62.3005 161.819 60.5725 162.256 58.3325 162.256ZM48.2845 158.896H57.3725C58.5245 158.896 59.4205 158.757 60.0605 158.48C60.7005 158.224 61.0205 157.765 61.0205 157.104C61.0205 156.443 60.7005 155.973 60.0605 155.696C59.4205 155.419 58.5245 155.28 57.3725 155.28H48.9885C47.8578 155.28 46.9725 155.429 46.3325 155.728C45.6925 156.005 45.3725 156.464 45.3725 157.104C45.3725 157.659 45.5965 158.096 46.0445 158.416C46.5138 158.736 47.2605 158.896 48.2845 158.896ZM41.5325 144.784C41.2338 144.251 40.9352 143.717 40.6365 143.184C40.3592 142.629 40.0818 142.064 39.8045 141.488C41.1272 141.339 42.3965 141.072 43.6125 140.688C44.8498 140.304 45.9805 139.803 47.0045 139.184C48.0285 138.587 48.9245 137.872 49.6925 137.04C50.4605 136.187 51.0578 135.227 51.4845 134.16C52.1885 134.288 52.8925 134.416 53.5965 134.544C54.3218 134.672 55.0578 134.789 55.8045 134.896C55.6765 135.216 55.5378 135.525 55.3885 135.824C55.2605 136.101 55.1218 136.379 54.9725 136.656C56.4445 137.808 58.2045 138.768 60.2525 139.536C62.3218 140.304 64.4338 140.805 66.5885 141.04C66.4392 141.339 66.3005 141.627 66.1725 141.904C66.0445 142.181 65.9165 142.459 65.7885 142.736C65.6605 143.035 65.5325 143.323 65.4045 143.6C65.2765 143.877 65.1485 144.155 65.0205 144.432C63.9112 144.325 62.7912 144.133 61.6605 143.856C60.5512 143.557 59.4632 143.195 58.3965 142.768C57.3085 142.363 56.2738 141.893 55.2925 141.36C54.3325 140.805 53.4578 140.219 52.6685 139.6C51.2392 141.051 49.5432 142.224 47.5805 143.12C45.6392 144.016 43.6232 144.571 41.5325 144.784ZM93.161 151.088V161.808H70.441V151.088H74.665V153.104H88.937V151.088H93.161ZM77.801 150.384H76.617C75.657 150.384 74.7717 150.267 73.961 150.032C73.1717 149.797 72.4783 149.445 71.881 148.976C71.2837 148.528 70.8143 147.984 70.473 147.344C70.153 146.683 69.993 145.936 69.993 145.104C69.993 144.315 70.153 143.6 70.473 142.96C70.8143 142.299 71.2837 141.744 71.881 141.296C72.4783 140.827 73.1717 140.475 73.961 140.24C74.7717 139.984 75.657 139.856 76.617 139.856H77.801C78.7397 139.856 79.6143 139.984 80.425 140.24C81.2357 140.475 81.929 140.827 82.505 141.296C83.1023 141.744 83.5717 142.299 83.913 142.96C84.2543 143.6 84.425 144.315 84.425 145.104C84.425 145.936 84.2543 146.683 83.913 147.344C83.5717 147.984 83.1023 148.528 82.505 148.976C81.929 149.445 81.2357 149.797 80.425 150.032C79.6143 150.267 78.7397 150.384 77.801 150.384ZM96.745 140.208V144.24H93.161V149.936H88.905V134.32H93.161V140.208H96.745ZM85.641 135.504V138.928H68.937V135.504H75.017V133.264H79.273V135.504H85.641ZM74.633 158.448H88.937V156.368H74.633V158.448ZM76.617 147.12H77.801C78.5263 147.12 79.1343 146.949 79.625 146.608C80.1157 146.245 80.361 145.744 80.361 145.104C80.361 144.528 80.1157 144.037 79.625 143.632C79.1343 143.227 78.5263 143.024 77.801 143.024H76.617C75.849 143.024 75.2303 143.227 74.761 143.632C74.2917 144.037 74.057 144.528 74.057 145.104C74.057 145.744 74.2917 146.245 74.761 146.608C75.2303 146.949 75.849 147.12 76.617 147.12ZM98.6455 160.752V134.768H102.902V156.88H115.638V160.752H98.6455ZM122.55 134.32V161.968H118.326V134.32H122.55ZM144.002 160.752H127.458V134.768H142.434V138.64H131.714V156.912H144.002V160.752ZM150.786 148.784V161.968H146.53V134.32H150.786V144.72H154.37V148.784H150.786ZM160.527 160.592H155.663V155.952H160.527V160.592ZM168.527 160.592H163.663V155.952H168.527V160.592Z" fill="#747474"/>
<g filter="url(#filter0_di_6092_44011)">
<path d="M67.408 52V63.136H58.864V76H46.288V63.136H12.88V55.072L31.216 10.72H44.464L27.856 52H46.288V33.088H58.864V52H67.408ZM103.859 9.568C112.947 9.568 120.115 12.704 125.363 18.976C130.611 25.248 133.235 33.376 133.235 43.36C133.235 53.344 130.611 61.472 125.363 67.744C120.115 74.016 112.947 77.152 103.859 77.152C94.7068 77.152 87.5068 74.016 82.2588 67.744C77.0108 61.472 74.3868 53.344 74.3868 43.36C74.3868 33.376 77.0108 25.248 82.2588 18.976C87.5068 12.704 94.7068 9.568 103.859 9.568ZM103.859 65.344C109.107 65.344 113.107 63.328 115.859 59.296C118.675 55.2 120.083 49.888 120.083 43.36C120.083 36.832 118.675 31.552 115.859 27.52C113.107 23.424 109.107 21.376 103.859 21.376C98.5468 21.376 94.4828 23.424 91.6668 27.52C88.9148 31.552 87.5388 36.832 87.5388 43.36C87.5388 49.888 88.9148 55.2 91.6668 59.296C94.4828 63.328 98.5468 65.344 103.859 65.344ZM167.073 65.344H182.817V76H137.313V65.344H154.017V25.024L138.081 30.4V18.4L159.585 10.72H167.073V65.344Z" fill="#C8DBFD"/>
</g>
<path d="M23.216 192.456V193.8H11.328V185.448H23.056V186.808H12.832V188.92H23.056V190.264H12.832V192.456H23.216ZM23.808 197.016V198.376H10.576V197.016H16.448V194.568H17.952V197.016H23.808ZM37.4623 191.768H35.9583V190.2H25.7343V188.856H35.9583V186.808H25.7343V185.448H37.4623V191.768ZM37.6223 197.48V198.824H25.7343V195.08H27.2383V197.48H37.6223ZM24.9823 192.52H38.2143V193.88H24.9823V192.52ZM51.7245 185.16V198.984H50.2205V185.16H51.7245ZM41.3405 189.672V194.184C41.3405 195.24 41.5218 196.003 41.8845 196.472C42.2578 196.941 42.8072 197.176 43.5325 197.176C44.2365 197.176 44.7752 196.941 45.1485 196.472C45.5218 196.003 45.7085 195.24 45.7085 194.184V189.672C45.7085 188.616 45.5218 187.853 45.1485 187.384C44.7752 186.904 44.2365 186.664 43.5325 186.664C42.8072 186.664 42.2578 186.904 41.8845 187.384C41.5218 187.853 41.3405 188.616 41.3405 189.672ZM39.8365 194.184V189.672C39.8365 188.2 40.1778 187.107 40.8605 186.392C41.5432 185.667 42.4338 185.304 43.5325 185.304C44.6205 185.304 45.5058 185.667 46.1885 186.392C46.8712 187.107 47.2125 188.2 47.2125 189.672V194.184C47.2125 195.645 46.8712 196.733 46.1885 197.448C45.5058 198.163 44.6205 198.52 43.5325 198.52C42.4338 198.52 41.5432 198.163 40.8605 197.448C40.1778 196.733 39.8365 195.645 39.8365 194.184ZM71.5444 189.304V190.664H69.5924V195.608H68.0884V185.16H69.5924V189.304H71.5444ZM69.8964 197.48V198.824H58.4724V194.472H59.9764V197.48H69.8964ZM65.2404 185.448V192.824H58.1684V185.448H65.2404ZM59.6724 191.464H63.7364V186.808H59.6724V191.464ZM84.6066 192.296V193.656H72.7186V188.84H82.9426V186.808H72.7186V185.448H84.4466V190.2H74.2226V192.296H84.6066ZM85.1986 197.016V198.376H71.9666V197.016H74.9746V194.328H76.4786V197.016H80.6866V194.328H82.1906V197.016H85.1986ZM94.9009 191.464V192.824H86.9809V185.448H94.6449V186.808H88.4849V191.464H94.9009ZM98.7089 185.16V198.984H97.2049V185.16H98.7089ZM96.1009 197.016V198.376H86.3729V197.016H90.2129V193.72H91.7169V197.016H96.1009ZM102.587 188.696C102.587 189.304 102.779 189.821 103.163 190.248C103.547 190.664 104.059 190.872 104.699 190.872C105.328 190.872 105.835 190.664 106.219 190.248C106.603 189.821 106.795 189.304 106.795 188.696C106.795 188.088 106.603 187.571 106.219 187.144C105.835 186.717 105.328 186.504 104.699 186.504C104.059 186.504 103.547 186.717 103.163 187.144C102.779 187.571 102.587 188.088 102.587 188.696ZM101.083 188.696C101.083 188.205 101.168 187.747 101.339 187.32C101.51 186.893 101.755 186.52 102.075 186.2C102.395 185.88 102.774 185.629 103.211 185.448C103.659 185.256 104.155 185.16 104.699 185.16C105.222 185.16 105.702 185.256 106.139 185.448C106.587 185.629 106.971 185.88 107.291 186.2C107.611 186.52 107.856 186.893 108.027 187.32C108.208 187.747 108.299 188.205 108.299 188.696C108.299 189.187 108.208 189.645 108.027 190.072C107.856 190.499 107.611 190.872 107.291 191.192C106.971 191.512 106.587 191.763 106.139 191.944C105.702 192.125 105.222 192.216 104.699 192.216C104.155 192.216 103.659 192.125 103.211 191.944C102.774 191.763 102.395 191.512 102.075 191.192C101.755 190.872 101.51 190.499 101.339 190.072C101.168 189.645 101.083 189.187 101.083 188.696ZM102.043 198.824L100.923 197.816C101.851 197.368 102.646 196.739 103.307 195.928C103.979 195.107 104.379 194.184 104.507 193.16L105.931 193.368C105.899 193.656 105.846 193.944 105.771 194.232C105.696 194.509 105.611 194.781 105.515 195.048C105.771 195.443 106.075 195.821 106.427 196.184C106.79 196.547 107.174 196.861 107.579 197.128C108.112 196.691 108.592 196.12 109.019 195.416C109.446 194.712 109.691 193.96 109.755 193.16L111.195 193.368C111.174 193.677 111.126 193.981 111.051 194.28C110.987 194.568 110.896 194.856 110.779 195.144C111.216 195.645 111.744 196.109 112.363 196.536C112.982 196.963 113.558 197.315 114.091 197.592L113.227 198.76C112.747 198.493 112.214 198.147 111.627 197.72C111.04 197.293 110.539 196.861 110.123 196.424C109.782 196.936 109.392 197.405 108.955 197.832C108.528 198.259 108.091 198.611 107.643 198.888C107.131 198.6 106.619 198.227 106.107 197.768C105.606 197.32 105.168 196.851 104.795 196.36C104.432 196.893 104.011 197.368 103.531 197.784C103.051 198.211 102.555 198.557 102.043 198.824ZM111.611 185.16H113.115V192.936H111.611V189.368H108.907V188.008H111.611V185.16ZM115.889 190.2L115.185 188.968C115.889 188.883 116.561 188.749 117.201 188.568C117.841 188.387 118.428 188.141 118.961 187.832C119.484 187.533 119.943 187.165 120.337 186.728C120.732 186.28 121.036 185.757 121.249 185.16L122.801 185.384C122.737 185.555 122.663 185.72 122.577 185.88C122.503 186.04 122.428 186.189 122.353 186.328C123.121 186.968 124.033 187.496 125.089 187.912C126.156 188.328 127.265 188.611 128.417 188.76L127.793 189.976C126.641 189.805 125.505 189.507 124.385 189.08C123.276 188.643 122.327 188.104 121.537 187.464C120.855 188.232 120.023 188.845 119.041 189.304C118.071 189.752 117.02 190.051 115.889 190.2ZM127.665 193.272V198.824H115.937V193.272H117.441V194.632H126.161V193.272H127.665ZM117.441 197.496H126.161V195.96H117.441V197.496ZM115.185 191.032H128.417V192.376H115.185V191.032ZM141.928 185.16V198.984H140.424V185.16H141.928ZM130.2 198.376V185.448H131.704V197.016H138.92V198.376H130.2ZM153.022 198.376H144.606V185.448H152.126V186.808H146.11V197.016H153.022V198.376ZM156.03 192.024V198.984H154.526V185.16H156.03V190.68H157.982V192.024H156.03ZM160.532 198.232H158.724V196.44H160.532V198.232ZM22.912 209.16V222.984H21.408V209.16H22.912ZM12.528 213.672V218.184C12.528 219.24 12.7093 220.003 13.072 220.472C13.4453 220.941 13.9947 221.176 14.72 221.176C15.424 221.176 15.9627 220.941 16.336 220.472C16.7093 220.003 16.896 219.24 16.896 218.184V213.672C16.896 212.616 16.7093 211.853 16.336 211.384C15.9627 210.904 15.424 210.664 14.72 210.664C13.9947 210.664 13.4453 210.904 13.072 211.384C12.7093 211.853 12.528 212.616 12.528 213.672ZM11.024 218.184V213.672C11.024 212.2 11.3653 211.107 12.048 210.392C12.7307 209.667 13.6213 209.304 14.72 209.304C15.808 209.304 16.6933 209.667 17.376 210.392C18.0587 211.107 18.4 212.2 18.4 213.672V218.184C18.4 219.645 18.0587 220.733 17.376 221.448C16.6933 222.163 15.808 222.52 14.72 222.52C13.6213 222.52 12.7307 222.163 12.048 221.448C11.3653 220.733 11.024 219.645 11.024 218.184ZM35.8199 221.016V222.376H29.1959V221.016H30.4119V212.168H31.9159V221.016H32.7319L33.4839 212.168H34.9879L34.2359 221.016H35.8199ZM38.2199 209.224V222.824H36.7159V216.392H35.2119V215.032H36.7159V209.224H38.2199ZM41.0839 222.984H39.5799V209.16H41.0839V222.984ZM35.6759 209.448V210.808H29.3559V209.448H35.6759ZM55.4901 209.16V222.984H53.9861V209.16H55.4901ZM45.1061 213.672V218.184C45.1061 219.24 45.2875 220.003 45.6501 220.472C46.0235 220.941 46.5728 221.176 47.2981 221.176C48.0021 221.176 48.5408 220.941 48.9141 220.472C49.2875 220.003 49.4741 219.24 49.4741 218.184V213.672C49.4741 212.616 49.2875 211.853 48.9141 211.384C48.5408 210.904 48.0021 210.664 47.2981 210.664C46.5728 210.664 46.0235 210.904 45.6501 211.384C45.2875 211.853 45.1061 212.616 45.1061 213.672ZM43.6021 218.184V213.672C43.6021 212.2 43.9435 211.107 44.6261 210.392C45.3088 209.667 46.1995 209.304 47.2981 209.304C48.3861 209.304 49.2715 209.667 49.9541 210.392C50.6368 211.107 50.9781 212.2 50.9781 213.672V218.184C50.9781 219.645 50.6368 220.733 49.9541 221.448C49.2715 222.163 48.3861 222.52 47.2981 222.52C46.1995 222.52 45.3088 222.163 44.6261 221.448C43.9435 220.733 43.6021 219.645 43.6021 218.184ZM58.1684 210.808V209.448H65.5124V210.808H62.3764C62.3657 211.48 62.3284 212.141 62.2644 212.792C62.211 213.432 62.1364 214.067 62.0404 214.696C62.2324 215.325 62.467 215.949 62.7444 216.568C63.0324 217.187 63.363 217.789 63.7364 218.376C64.099 218.963 64.499 219.517 64.9364 220.04C65.3737 220.563 65.843 221.032 66.3444 221.448L65.2084 222.376C64.4297 221.64 63.7257 220.819 63.0964 219.912C62.467 219.005 61.939 218.072 61.5124 217.112C61.235 218.104 60.883 219.059 60.4564 219.976C60.0297 220.883 59.5177 221.747 58.9204 222.568L57.5604 221.864C58.7764 220.232 59.6244 218.504 60.1044 216.68C60.5844 214.845 60.8404 212.888 60.8724 210.808H58.1684ZM68.3924 209.16H69.8964V222.984H68.3924V209.16ZM71.9666 216.072H85.1986V217.432H71.9666V216.072ZM84.6066 221.48V222.824H72.7186V218.632H74.2226V221.48H84.6066ZM72.7186 214.232V209.304H74.2226V212.92H84.6066V214.232H72.7186ZM90.7465 210.808V209.448H98.0905V210.808H94.9545C94.9438 211.48 94.9065 212.141 94.8425 212.792C94.7892 213.432 94.7145 214.067 94.6185 214.696C94.8105 215.325 95.0452 215.949 95.3225 216.568C95.6105 217.187 95.9412 217.789 96.3145 218.376C96.6772 218.963 97.0772 219.517 97.5145 220.04C97.9518 220.563 98.4212 221.032 98.9225 221.448L97.7865 222.376C97.0078 221.64 96.3038 220.819 95.6745 219.912C95.0452 219.005 94.5172 218.072 94.0905 217.112C93.8132 218.104 93.4612 219.059 93.0345 219.976C92.6078 220.883 92.0958 221.747 91.4985 222.568L90.1385 221.864C91.3545 220.232 92.2025 218.504 92.6825 216.68C93.1625 214.845 93.4185 212.888 93.4505 210.808H90.7465ZM100.667 209.16H102.171V214.68H104.123V216.024H102.171V222.984H100.667V209.16ZM105.297 213.944V209.448H117.025V210.776H106.801V212.616H117.105V213.944H111.841V215.64H117.777V216.968H104.545V215.64H110.337V213.944H105.297ZM108.753 218.024H113.569C114.774 218.024 115.675 218.253 116.273 218.712C116.881 219.171 117.185 219.795 117.185 220.584C117.185 221.373 116.881 221.992 116.273 222.44C115.675 222.899 114.774 223.128 113.569 223.128H108.753C107.547 223.128 106.646 222.899 106.049 222.44C105.451 221.992 105.153 221.373 105.153 220.584C105.153 219.795 105.451 219.171 106.049 218.712C106.646 218.253 107.547 218.024 108.753 218.024ZM113.569 219.352H108.753C108.081 219.352 107.574 219.464 107.233 219.688C106.891 219.912 106.721 220.211 106.721 220.584C106.721 220.957 106.87 221.251 107.169 221.464C107.467 221.688 107.995 221.8 108.753 221.8H113.569C114.315 221.8 114.838 221.688 115.137 221.464C115.446 221.251 115.601 220.957 115.601 220.584C115.601 220.211 115.446 219.912 115.137 219.688C114.838 219.464 114.315 219.352 113.569 219.352ZM132.183 221.016V222.376H118.951V221.016H132.183ZM127.383 216.968H123.767C123.127 216.968 122.535 216.872 121.991 216.68C121.458 216.488 120.999 216.216 120.615 215.864C120.231 215.523 119.932 215.112 119.719 214.632C119.506 214.152 119.399 213.629 119.399 213.064C119.399 212.509 119.506 211.992 119.719 211.512C119.932 211.032 120.231 210.621 120.615 210.28C120.999 209.928 121.458 209.656 121.991 209.464C122.535 209.261 123.127 209.16 123.767 209.16H127.383C128.012 209.16 128.594 209.261 129.127 209.464C129.66 209.656 130.119 209.928 130.503 210.28C130.887 210.621 131.186 211.032 131.399 211.512C131.623 211.992 131.735 212.509 131.735 213.064C131.735 213.629 131.623 214.152 131.399 214.632C131.186 215.112 130.887 215.523 130.503 215.864C130.119 216.216 129.66 216.488 129.127 216.68C128.594 216.872 128.012 216.968 127.383 216.968ZM123.767 215.624H127.383C127.788 215.624 128.162 215.56 128.503 215.432C128.844 215.304 129.138 215.123 129.383 214.888C129.618 214.653 129.804 214.381 129.943 214.072C130.082 213.763 130.151 213.427 130.151 213.064C130.151 212.712 130.082 212.381 129.943 212.072C129.804 211.763 129.618 211.491 129.383 211.256C129.138 211.021 128.844 210.84 128.503 210.712C128.162 210.573 127.788 210.504 127.383 210.504H123.767C123.351 210.504 122.972 210.573 122.631 210.712C122.29 210.84 121.996 211.021 121.751 211.256C121.506 211.491 121.314 211.763 121.175 212.072C121.047 212.381 120.983 212.712 120.983 213.064C120.983 213.427 121.047 213.763 121.175 214.072C121.314 214.381 121.506 214.653 121.751 214.888C121.996 215.123 122.29 215.304 122.631 215.432C122.972 215.56 123.351 215.624 123.767 215.624ZM145.997 216.456V217.8H134.109V212.92H144.333V210.808H134.109V209.448H145.837V214.264H135.613V216.456H145.997ZM146.589 221.016V222.376H133.357V221.016H139.229V218.568H140.733V221.016H146.589ZM165.513 212.168V213.512H163.561V216.936H162.057V209.16H163.561V212.168H165.513ZM160.553 214.712V216.072H152.137V209.448H159.657V210.808H153.641V214.712H160.553ZM153.945 221.496H163.721V222.824H152.441V217.576H163.561V218.904H153.945V221.496ZM178.575 221.672V222.984H166.991V219.4H176.767V218.44H166.991V217.128H178.271V220.696H168.495V221.672H178.575ZM170.799 216.392H169.503C168.671 216.392 167.994 216.184 167.471 215.768C166.949 215.341 166.687 214.771 166.687 214.056C166.687 213.352 166.949 212.787 167.471 212.36C167.994 211.933 168.671 211.72 169.503 211.72H170.799C171.621 211.72 172.293 211.933 172.815 212.36C173.349 212.787 173.615 213.352 173.615 214.056C173.615 214.771 173.349 215.341 172.815 215.768C172.293 216.184 171.621 216.392 170.799 216.392ZM174.367 209.912V211.208H166.095V209.912H169.391V208.696H170.895V209.912H174.367ZM178.271 209.16V216.424H176.767V209.16H178.271ZM169.503 215.128H170.799C171.215 215.128 171.535 215.027 171.759 214.824C171.994 214.621 172.111 214.365 172.111 214.056C172.111 213.768 171.994 213.517 171.759 213.304C171.535 213.08 171.215 212.968 170.799 212.968H169.503C169.066 212.968 168.735 213.08 168.511 213.304C168.298 213.517 168.191 213.768 168.191 214.056C168.191 214.365 168.298 214.621 168.511 214.824C168.735 215.027 169.066 215.128 169.503 215.128ZM196.443 222.984H194.939V209.16H196.443V222.984ZM186.059 212.312V219.528C186.059 220.136 186.177 220.563 186.411 220.808C186.646 221.053 186.955 221.176 187.339 221.176C187.713 221.176 188.017 221.053 188.251 220.808C188.497 220.563 188.619 220.136 188.619 219.528V212.312C188.619 211.715 188.497 211.293 188.251 211.048C188.017 210.792 187.713 210.664 187.339 210.664C186.955 210.664 186.646 210.792 186.411 211.048C186.177 211.293 186.059 211.715 186.059 212.312ZM184.555 219.528V212.312C184.555 211.789 184.625 211.341 184.763 210.968C184.913 210.584 185.115 210.269 185.371 210.024C185.627 209.779 185.921 209.597 186.251 209.48C186.593 209.363 186.955 209.304 187.339 209.304C187.713 209.304 188.065 209.363 188.395 209.48C188.737 209.597 189.035 209.779 189.291 210.024C189.547 210.269 189.75 210.584 189.899 210.968C190.049 211.341 190.123 211.789 190.123 212.312V212.616H191.851V209.224H193.355V222.824H191.851V218.472H190.123V219.528C190.123 220.061 190.049 220.515 189.899 220.888C189.75 221.261 189.547 221.571 189.291 221.816C189.035 222.061 188.737 222.237 188.395 222.344C188.065 222.461 187.713 222.52 187.339 222.52C186.955 222.52 186.593 222.461 186.251 222.344C185.921 222.237 185.627 222.061 185.371 221.816C185.115 221.571 184.913 221.261 184.763 220.888C184.625 220.515 184.555 220.061 184.555 219.528ZM190.123 213.96V217.128H191.851V213.96H190.123ZM199.698 217.288L198.514 216.328C199.506 215.72 200.3 214.968 200.898 214.072C201.495 213.165 201.847 212.077 201.954 210.808H199.122V209.448H206.466V210.808H203.458C203.436 211.064 203.404 211.315 203.362 211.56C203.33 211.795 203.292 212.024 203.25 212.248C203.698 212.952 204.258 213.608 204.93 214.216C205.612 214.824 206.359 215.341 207.17 215.768L206.194 216.888C205.5 216.493 204.855 216.04 204.258 215.528C203.66 215.005 203.132 214.451 202.674 213.864C202.354 214.568 201.938 215.208 201.426 215.784C200.924 216.349 200.348 216.851 199.698 217.288ZM207.698 223.128H202.882C201.751 223.128 200.892 222.877 200.306 222.376C199.719 221.875 199.426 221.251 199.426 220.504C199.426 219.757 199.719 219.133 200.306 218.632C200.892 218.131 201.751 217.88 202.882 217.88H207.698C208.818 217.88 209.671 218.131 210.258 218.632C210.855 219.133 211.154 219.757 211.154 220.504C211.154 221.251 210.855 221.875 210.258 222.376C209.671 222.877 208.818 223.128 207.698 223.128ZM202.882 221.8H207.698C208.295 221.8 208.754 221.688 209.074 221.464C209.404 221.24 209.57 220.92 209.57 220.504C209.57 220.099 209.404 219.784 209.074 219.56C208.754 219.325 208.295 219.208 207.698 219.208H202.882C202.274 219.208 201.804 219.325 201.474 219.56C201.154 219.784 200.994 220.099 200.994 220.504C200.994 220.92 201.154 221.24 201.474 221.464C201.804 221.688 202.274 221.8 202.882 221.8ZM209.346 209.16H210.85V217.384H209.346V213.672H206.194V212.312H209.346V209.16ZM214.728 212.696C214.728 213.304 214.92 213.821 215.304 214.248C215.698 214.664 216.232 214.872 216.904 214.872C217.576 214.872 218.109 214.664 218.504 214.248C218.898 213.821 219.096 213.304 219.096 212.696C219.096 212.088 218.898 211.571 218.504 211.144C218.109 210.717 217.576 210.504 216.904 210.504C216.232 210.504 215.698 210.717 215.304 211.144C214.92 211.571 214.728 212.088 214.728 212.696ZM213.224 212.696C213.224 212.195 213.314 211.731 213.496 211.304C213.677 210.867 213.933 210.488 214.264 210.168C214.584 209.859 214.968 209.613 215.416 209.432C215.874 209.251 216.37 209.16 216.904 209.16C217.437 209.16 217.928 209.251 218.376 209.432C218.834 209.613 219.224 209.859 219.544 210.168C219.874 210.488 220.13 210.867 220.312 211.304C220.504 211.731 220.6 212.195 220.6 212.696C220.6 213.208 220.504 213.677 220.312 214.104C220.13 214.531 219.874 214.904 219.544 215.224C219.224 215.533 218.834 215.779 218.376 215.96C217.928 216.131 217.437 216.216 216.904 216.216C216.37 216.216 215.874 216.131 215.416 215.96C214.968 215.779 214.584 215.533 214.264 215.224C213.933 214.904 213.677 214.531 213.496 214.104C213.314 213.677 213.224 213.208 213.224 212.696ZM225.256 217.128V222.824H213.976V217.128H215.512V218.472H223.752V217.128H225.256ZM215.48 221.496H223.752V219.8H215.48V221.496ZM225.256 209.16V216.472H223.752V209.16H225.256ZM239.662 209.16V222.984H238.158V209.16H239.662ZM227.934 222.376V209.448H229.438V221.016H236.654V222.376H227.934ZM250.756 222.376H242.34V209.448H249.86V210.808H243.844V221.016H250.756V222.376ZM253.764 216.024V222.984H252.26V209.16H253.764V214.68H255.716V216.024H253.764ZM258.267 222.232H256.459V220.44H258.267V222.232ZM272.444 222.376H264.028V209.448H271.548V210.808H265.532V221.016H272.444V222.376ZM275.452 216.024V222.984H273.948V209.16H275.452V214.68H277.404V216.024H275.452ZM280.53 209.304H282.034C282.034 210.072 282.007 210.845 281.954 211.624C281.901 212.403 281.826 213.176 281.73 213.944C282.082 215.32 282.61 216.664 283.314 217.976C284.018 219.288 284.866 220.413 285.858 221.352L284.754 222.376C283.986 221.619 283.303 220.755 282.706 219.784C282.109 218.803 281.613 217.805 281.218 216.792C280.973 217.816 280.669 218.819 280.306 219.8C279.954 220.771 279.527 221.693 279.026 222.568L277.682 221.864C278.205 220.947 278.647 219.981 279.01 218.968C279.373 217.955 279.666 216.915 279.89 215.848C280.114 214.781 280.274 213.699 280.37 212.6C280.477 211.501 280.53 210.403 280.53 209.304ZM288.658 209.16H290.162V222.984H288.658V209.16ZM308.638 216.456V217.8H296.75V212.92H306.974V210.808H296.75V209.448H308.478V214.264H298.254V216.456H308.638ZM309.23 221.016V222.376H295.998V221.016H301.87V218.568H303.374V221.016H309.23ZM322.884 219.528H321.38V210.808H311.156V209.448H322.884V219.528ZM323.636 221.016V222.376H310.404V221.016H323.636ZM326.618 212.84V213.448C326.618 214.088 326.821 214.637 327.226 215.096C327.642 215.544 328.192 215.768 328.874 215.768C329.546 215.768 330.09 215.544 330.506 215.096C330.922 214.637 331.13 214.088 331.13 213.448V212.84C331.13 212.2 330.922 211.651 330.506 211.192C330.09 210.733 329.546 210.504 328.874 210.504C328.192 210.504 327.642 210.733 327.226 211.192C326.821 211.651 326.618 212.2 326.618 212.84ZM325.114 213.448V212.84C325.114 212.317 325.205 211.832 325.386 211.384C325.578 210.936 325.845 210.547 326.186 210.216C326.517 209.885 326.912 209.629 327.37 209.448C327.829 209.256 328.33 209.16 328.874 209.16C329.397 209.16 329.888 209.256 330.346 209.448C330.805 209.629 331.205 209.885 331.546 210.216C331.877 210.547 332.138 210.936 332.33 211.384C332.533 211.832 332.634 212.317 332.634 212.84V213.448C332.634 213.981 332.533 214.472 332.33 214.92C332.138 215.368 331.877 215.757 331.546 216.088C331.205 216.408 330.805 216.664 330.346 216.856C329.888 217.037 329.397 217.128 328.874 217.128C328.33 217.128 327.829 217.037 327.37 216.856C326.912 216.664 326.517 216.408 326.186 216.088C325.845 215.757 325.578 215.368 325.386 214.92C325.205 214.472 325.114 213.981 325.114 213.448ZM337.45 221.48V222.824H325.866V218.472H327.37V221.48H337.45ZM337.146 209.16V219.608H335.642V209.16H337.146ZM349.302 216.68V219.688C349.302 220.584 349.046 221.277 348.534 221.768C348.033 222.269 347.334 222.52 346.438 222.52C345.542 222.52 344.844 222.269 344.342 221.768C343.841 221.277 343.59 220.584 343.59 219.688V216.68C343.59 215.784 343.841 215.085 344.342 214.584C344.844 214.072 345.542 213.816 346.438 213.816C347.334 213.816 348.033 214.072 348.534 214.584C349.046 215.085 349.302 215.784 349.302 216.68ZM347.798 219.688V216.68C347.798 216.232 347.681 215.869 347.446 215.592C347.222 215.315 346.886 215.176 346.438 215.176C345.99 215.176 345.654 215.315 345.43 215.592C345.206 215.869 345.094 216.232 345.094 216.68V219.688C345.094 220.136 345.206 220.499 345.43 220.776C345.654 221.043 345.99 221.176 346.438 221.176C346.886 221.176 347.222 221.043 347.446 220.776C347.681 220.499 347.798 220.136 347.798 219.688ZM355.318 209.16V222.984H353.814V216.072H352.006V222.824H350.502V209.224H352.006V214.712H353.814V209.16H355.318ZM349.622 210.808V212.168H343.286V210.808H345.686V208.696H347.19V210.808H349.622ZM358.285 216.456L357.549 215.24C358.861 214.984 360.034 214.472 361.069 213.704C362.114 212.936 362.877 211.971 363.357 210.808H358.141V209.448H369.869V210.808H364.957C364.893 211 364.823 211.187 364.749 211.368C364.674 211.539 364.594 211.704 364.509 211.864C365.245 212.621 366.135 213.261 367.181 213.784C368.237 214.296 369.335 214.653 370.477 214.856L369.805 216.088C368.685 215.864 367.586 215.48 366.509 214.936C365.442 214.392 364.525 213.752 363.757 213.016C363.095 213.88 362.285 214.605 361.325 215.192C360.365 215.779 359.351 216.2 358.285 216.456ZM370.621 217.88V219.224H364.765V223.128H363.261V219.224H357.389V217.88H370.621ZM373.059 222.568L371.651 222.008C372.163 221.091 372.573 220.12 372.883 219.096C373.203 218.061 373.448 217.005 373.619 215.928C373.789 214.84 373.901 213.741 373.955 212.632C374.019 211.512 374.051 210.403 374.051 209.304H375.555C375.555 210.093 375.539 210.888 375.507 211.688C375.475 212.488 375.421 213.288 375.347 214.088C375.667 215.368 376.125 216.643 376.723 217.912C377.32 219.171 378.051 220.317 378.915 221.352L377.683 222.232C377.096 221.528 376.568 220.739 376.099 219.864C375.64 218.989 375.245 218.093 374.915 217.176C374.723 218.147 374.477 219.091 374.179 220.008C373.88 220.915 373.507 221.768 373.059 222.568ZM384.131 222.984H382.627V209.16H384.131V222.984ZM380.899 209.224V222.824H379.395V215.464H376.915V214.12H379.395V209.224H380.899ZM394.633 216.68H391.017C390.377 216.68 389.785 216.595 389.241 216.424C388.708 216.243 388.249 215.987 387.865 215.656C387.481 215.325 387.182 214.931 386.969 214.472C386.756 214.003 386.649 213.485 386.649 212.92C386.649 212.365 386.756 211.859 386.969 211.4C387.182 210.931 387.481 210.531 387.865 210.2C388.249 209.869 388.708 209.613 389.241 209.432C389.785 209.251 390.377 209.16 391.017 209.16H394.633C395.262 209.16 395.844 209.251 396.377 209.432C396.91 209.613 397.369 209.869 397.753 210.2C398.137 210.531 398.436 210.931 398.649 211.4C398.873 211.859 398.985 212.365 398.985 212.92C398.985 213.485 398.873 214.003 398.649 214.472C398.436 214.931 398.137 215.325 397.753 215.656C397.369 215.987 396.91 216.243 396.377 216.424C395.844 216.595 395.262 216.68 394.633 216.68ZM391.017 215.32H394.633C395.454 215.32 396.121 215.101 396.633 214.664C397.145 214.216 397.401 213.635 397.401 212.92C397.401 212.205 397.145 211.624 396.633 211.176C396.121 210.728 395.454 210.504 394.633 210.504H391.017C390.185 210.504 389.513 210.728 389.001 211.176C388.489 211.624 388.233 212.205 388.233 212.92C388.233 213.635 388.489 214.216 389.001 214.664C389.513 215.101 390.185 215.32 391.017 215.32ZM399.433 221.016V222.376H386.201V221.016H389.209V217.576H390.713V221.016H394.921V217.576H396.425V221.016H399.433ZM402.735 222.232H400.927V220.44H402.735V222.232Z" fill="#C1C1C1"/>
<defs>
<filter id="filter0_di_6092_44011" x="0.880005" y="0.568359" width="193.936" height="91.584" filterUnits="userSpaceOnUse" color-interpolation-filters="sRGB">
<feFlood flood-opacity="0" result="BackgroundImageFix"/>
<feColorMatrix in="SourceAlpha" type="matrix" values="0 0 0 0 0 0 0 0 0 0 0 0 0 0 0 0 0 0 127 0" result="hardAlpha"/>
<feOffset dy="3"/>
<feGaussianBlur stdDeviation="6"/>
<feComposite in2="hardAlpha" operator="out"/>
<feColorMatrix type="matrix" values="0 0 0 0 0.176471 0 0 0 0 0.462745 0 0 0 0 0.972549 0 0 0 0.1 0"/>
<feBlend mode="normal" in2="BackgroundImageFix" result="effect1_dropShadow_6092_44011"/>
<feBlend mode="normal" in="SourceGraphic" in2="effect1_dropShadow_6092_44011" result="shape"/>
<feColorMatrix in="SourceAlpha" type="matrix" values="0 0 0 0 0 0 0 0 0 0 0 0 0 0 0 0 0 0 127 0" result="hardAlpha"/>
<feOffset dy="3"/>
<feGaussianBlur stdDeviation="2"/>
<feComposite in2="hardAlpha" operator="arithmetic" k2="-1" k3="1"/>
<feColorMatrix type="matrix" values="0 0 0 0 0.176471 0 0 0 0 0.462745 0 0 0 0 0.972549 0 0 0 0.12 0"/>
<feBlend mode="normal" in2="shape" result="effect2_innerShadow_6092_44011"/>
</filter>
</defs>
</svg>
