<svg width="350" height="228" viewBox="0 0 350 228" fill="none" xmlns="http://www.w3.org/2000/svg">
<path d="M20.72 133.856C21.7227 133.856 22.6827 133.973 23.6 134.208C24.5387 134.421 25.456 134.773 26.352 135.264C27.2693 135.755 28.016 136.48 28.592 137.44C29.1893 138.4 29.552 139.541 29.68 140.864H25.36C25.04 138.688 23.6 137.6 21.04 137.6C19.824 137.6 18.8533 137.835 18.128 138.304C17.424 138.773 17.072 139.445 17.072 140.32C17.072 141.067 17.328 141.643 17.84 142.048C18.3733 142.453 19.1947 142.763 20.304 142.976L22.864 143.488C25.104 143.936 26.7787 144.629 27.888 145.568C28.9973 146.507 29.552 147.84 29.552 149.568C29.552 151.637 28.7733 153.291 27.216 154.528C25.6587 155.765 23.6 156.384 21.04 156.384C18.3307 156.384 16.112 155.712 14.384 154.368C12.6773 153.003 11.7493 151.157 11.6 148.832H15.92C16.0907 149.963 16.656 150.859 17.616 151.52C18.576 152.181 19.8027 152.512 21.296 152.512C22.4907 152.512 23.4187 152.309 24.08 151.904C24.7413 151.477 25.072 150.88 25.072 150.112C25.072 148.875 24.112 148.085 22.192 147.744L18.672 147.072C14.5333 146.283 12.464 144.16 12.464 140.704C12.464 138.635 13.2107 136.981 14.704 135.744C16.2187 134.485 18.224 133.856 20.72 133.856ZM40.533 140.352C42.8583 140.352 44.789 141.109 46.325 142.624C47.861 144.139 48.629 146.059 48.629 148.384C48.629 150.709 47.861 152.629 46.325 154.144C44.789 155.637 42.8583 156.384 40.533 156.384C38.1863 156.384 36.245 155.637 34.709 154.144C33.173 152.629 32.405 150.709 32.405 148.384C32.405 146.059 33.173 144.139 34.709 142.624C36.245 141.109 38.1863 140.352 40.533 140.352ZM37.685 151.392C38.4103 152.181 39.3597 152.576 40.533 152.576C41.7063 152.576 42.645 152.181 43.349 151.392C44.0743 150.603 44.437 149.6 44.437 148.384C44.437 147.189 44.0743 146.187 43.349 145.376C42.6237 144.565 41.685 144.16 40.533 144.16C39.3597 144.16 38.4103 144.565 37.685 145.376C36.9597 146.187 36.597 147.189 36.597 148.384C36.597 149.6 36.9597 150.603 37.685 151.392ZM55.8018 142.496C57.2098 141.152 59.0124 140.48 61.2098 140.48V144.448C58.8631 144.576 57.0604 145.344 55.8018 146.752V156H51.6098V140.736H55.8018V142.496ZM68.3643 142.496C69.7723 141.152 71.5749 140.48 73.7723 140.48V144.448C71.4256 144.576 69.6229 145.344 68.3643 146.752V156H64.1723V140.736H68.3643V142.496ZM89.4388 140.704H93.8548L84.0948 163.424H79.6788L82.8788 155.936L75.1988 140.704H79.6788L84.8308 151.456L89.4388 140.704ZM96.7488 155.52C96.2581 155.989 95.6608 156.224 94.9568 156.224C94.2528 156.224 93.6554 155.989 93.1648 155.52C92.6741 155.051 92.4288 154.464 92.4288 153.76C92.4288 153.077 92.6741 152.501 93.1648 152.032C93.6554 151.563 94.2528 151.328 94.9568 151.328C95.6608 151.328 96.2581 151.563 96.7488 152.032C97.2608 152.501 97.5168 153.077 97.5168 153.76C97.5168 154.464 97.2608 155.051 96.7488 155.52ZM103.749 155.52C103.258 155.989 102.661 156.224 101.957 156.224C101.253 156.224 100.655 155.989 100.165 155.52C99.6741 155.051 99.4288 154.464 99.4288 153.76C99.4288 153.077 99.6741 152.501 100.165 152.032C100.655 151.563 101.253 151.328 101.957 151.328C102.661 151.328 103.258 151.563 103.749 152.032C104.261 152.501 104.517 153.077 104.517 153.76C104.517 154.464 104.261 155.051 103.749 155.52ZM110.749 155.52C110.258 155.989 109.661 156.224 108.957 156.224C108.253 156.224 107.655 155.989 107.165 155.52C106.674 155.051 106.429 154.464 106.429 153.76C106.429 153.077 106.674 152.501 107.165 152.032C107.655 151.563 108.253 151.328 108.957 151.328C109.661 151.328 110.258 151.563 110.749 152.032C111.261 152.501 111.517 153.077 111.517 153.76C111.517 154.464 111.261 155.051 110.749 155.52Z" fill="#747474"/>
<g filter="url(#filter0_di_6120_44260)">
<path d="M67.408 52V63.136H58.864V76H46.288V63.136H12.88V55.072L31.216 10.72H44.464L27.856 52H46.288V33.088H58.864V52H67.408ZM103.859 9.568C112.947 9.568 120.115 12.704 125.363 18.976C130.611 25.248 133.235 33.376 133.235 43.36C133.235 53.344 130.611 61.472 125.363 67.744C120.115 74.016 112.947 77.152 103.859 77.152C94.7068 77.152 87.5068 74.016 82.2588 67.744C77.0108 61.472 74.3868 53.344 74.3868 43.36C74.3868 33.376 77.0108 25.248 82.2588 18.976C87.5068 12.704 94.7068 9.568 103.859 9.568ZM103.859 65.344C109.107 65.344 113.107 63.328 115.859 59.296C118.675 55.2 120.083 49.888 120.083 43.36C120.083 36.832 118.675 31.552 115.859 27.52C113.107 23.424 109.107 21.376 103.859 21.376C98.5468 21.376 94.4828 23.424 91.6668 27.52C88.9148 31.552 87.5388 36.832 87.5388 43.36C87.5388 49.888 88.9148 55.2 91.6668 59.296C94.4828 63.328 98.5468 65.344 103.859 65.344ZM167.073 65.344H182.817V76H137.313V65.344H154.017V25.024L138.081 30.4V18.4L159.585 10.72H167.073V65.344Z" fill="#C8DBFD"/>
</g>
<path d="M18.592 185.12H21.008L16.688 192.416V196H14.48V192.416L10.144 185.12H12.56L15.568 190.256L18.592 185.12ZM23.7821 188.176C24.9448 188.176 25.9101 188.555 26.6781 189.312C27.4461 190.069 27.8301 191.029 27.8301 192.192C27.8301 193.355 27.4461 194.315 26.6781 195.072C25.9101 195.819 24.9448 196.192 23.7821 196.192C22.6088 196.192 21.6381 195.819 20.8701 195.072C20.1021 194.315 19.7181 193.355 19.7181 192.192C19.7181 191.029 20.1021 190.069 20.8701 189.312C21.6381 188.555 22.6088 188.176 23.7821 188.176ZM22.3581 193.696C22.7208 194.091 23.1955 194.288 23.7821 194.288C24.3688 194.288 24.8381 194.091 25.1901 193.696C25.5528 193.301 25.7341 192.8 25.7341 192.192C25.7341 191.595 25.5528 191.093 25.1901 190.688C24.8275 190.283 24.3581 190.08 23.7821 190.08C23.1955 190.08 22.7208 190.283 22.3581 190.688C21.9955 191.093 21.8141 191.595 21.8141 192.192C21.8141 192.8 21.9955 193.301 22.3581 193.696ZM34.8706 188.368H36.9666V196H34.8706V195.392C34.1986 195.925 33.4626 196.192 32.6626 196.192C31.6493 196.192 30.8333 195.851 30.2146 195.168C29.596 194.485 29.2866 193.584 29.2866 192.464V188.368H31.3826V192.336C31.3826 192.955 31.532 193.435 31.8306 193.776C32.1293 194.117 32.556 194.288 33.1106 194.288C33.7293 194.288 34.316 193.952 34.8706 193.28V188.368ZM41.0728 189.248C41.7768 188.576 42.6781 188.24 43.7768 188.24V190.224C42.6034 190.288 41.7021 190.672 41.0728 191.376V196H38.9768V188.368H41.0728V189.248ZM54.6363 193.952L54.9243 195.856C54.3483 196.08 53.7349 196.192 53.0843 196.192C52.0709 196.192 51.2816 195.904 50.7163 195.328C50.1616 194.741 49.8843 193.952 49.8843 192.96V190.128H48.2523V188.368H49.8843V185.6H51.9803V188.368H54.7803V190.128H51.9803V192.96C51.9803 193.387 52.1029 193.712 52.3483 193.936C52.5936 194.149 52.9189 194.256 53.3243 194.256C53.7083 194.256 54.1456 194.155 54.6363 193.952ZM59.7821 188.176C60.9448 188.176 61.9101 188.555 62.6781 189.312C63.4461 190.069 63.8301 191.029 63.8301 192.192C63.8301 193.355 63.4461 194.315 62.6781 195.072C61.9101 195.819 60.9448 196.192 59.7821 196.192C58.6088 196.192 57.6381 195.819 56.8701 195.072C56.1021 194.315 55.7181 193.355 55.7181 192.192C55.7181 191.029 56.1021 190.069 56.8701 189.312C57.6381 188.555 58.6088 188.176 59.7821 188.176ZM58.3581 193.696C58.7208 194.091 59.1955 194.288 59.7821 194.288C60.3688 194.288 60.8381 194.091 61.1901 193.696C61.5528 193.301 61.7341 192.8 61.7341 192.192C61.7341 191.595 61.5528 191.093 61.1901 190.688C60.8275 190.283 60.3581 190.08 59.7821 190.08C59.1955 190.08 58.7208 190.283 58.3581 190.688C57.9955 191.093 57.8141 191.595 57.8141 192.192C57.8141 192.8 57.9955 193.301 58.3581 193.696ZM70.8706 196L68.7746 193.056L67.4946 194.4V196H65.3986V184.64H67.4946V191.648L70.5506 188.368H73.2066L70.2146 191.536L73.5746 196H70.8706ZM81.5258 191.92C81.5258 192.293 81.5098 192.587 81.4778 192.8H75.8778C76.0698 193.835 76.7151 194.352 77.8138 194.352C78.3898 194.352 78.7951 194.208 79.0298 193.92H81.3498C81.0938 194.635 80.6458 195.195 80.0058 195.6C79.3764 195.995 78.6404 196.192 77.7977 196.192C76.5924 196.192 75.6111 195.813 74.8538 195.056C74.1071 194.299 73.7338 193.344 73.7338 192.192C73.7338 191.04 74.1018 190.085 74.8378 189.328C75.5738 188.56 76.5178 188.176 77.6698 188.176C78.8004 188.176 79.7231 188.523 80.4378 189.216C81.1631 189.899 81.5258 190.8 81.5258 191.92ZM77.6858 189.952C76.7364 189.952 76.1498 190.427 75.9258 191.376H79.3978C79.2911 190.427 78.7204 189.952 77.6858 189.952ZM87.3276 188.176C88.3516 188.176 89.1676 188.512 89.7756 189.184C90.3943 189.845 90.7036 190.736 90.7036 191.856V196H88.6076V191.984C88.6076 191.365 88.4583 190.896 88.1596 190.576C87.861 190.245 87.4343 190.08 86.8796 190.08C86.261 190.08 85.6743 190.405 85.1196 191.056V196H83.0236V188.368H85.1196V188.944C85.7596 188.432 86.4956 188.176 87.3276 188.176ZM98.038 186.88C97.6753 186.88 97.3713 186.763 97.126 186.528C96.8807 186.293 96.758 186 96.758 185.648C96.758 185.285 96.8807 184.987 97.126 184.752C97.3713 184.517 97.6753 184.4 98.038 184.4C98.39 184.4 98.6887 184.523 98.934 184.768C99.19 185.003 99.318 185.296 99.318 185.648C99.318 186 99.19 186.293 98.934 186.528C98.6887 186.763 98.39 186.88 98.038 186.88ZM96.998 188.368H99.094V196H96.998V188.368ZM102.744 193.36C102.861 194.117 103.411 194.496 104.392 194.496C105.299 194.496 105.752 194.283 105.752 193.856C105.752 193.515 105.491 193.296 104.968 193.2L103.32 192.912C102.669 192.805 102.131 192.571 101.704 192.208C101.277 191.845 101.064 191.333 101.064 190.672C101.064 189.893 101.363 189.28 101.96 188.832C102.557 188.384 103.347 188.16 104.328 188.16C106.44 188.16 107.565 189.019 107.704 190.736H105.768C105.725 190.128 105.245 189.824 104.328 189.824C103.539 189.824 103.144 190.037 103.144 190.464C103.144 190.859 103.459 191.109 104.088 191.216L105.464 191.44C106.989 191.707 107.752 192.448 107.752 193.664C107.752 194.485 107.437 195.115 106.808 195.552C106.179 195.979 105.357 196.192 104.344 196.192C103.896 196.192 103.48 196.144 103.096 196.048C102.712 195.963 102.349 195.819 102.008 195.616C101.667 195.403 101.389 195.104 101.176 194.72C100.973 194.336 100.851 193.877 100.808 193.344L102.744 193.36ZM119.187 188.368H121.283V196H119.187V195.568C118.547 195.984 117.816 196.192 116.995 196.192C115.939 196.192 115.038 195.803 114.291 195.024C113.555 194.245 113.187 193.301 113.187 192.192C113.187 191.083 113.555 190.139 114.291 189.36C115.038 188.571 115.939 188.176 116.995 188.176C117.816 188.176 118.547 188.384 119.187 188.8V188.368ZM117.315 194.288C118.147 194.288 118.771 193.989 119.187 193.392V190.976C118.771 190.379 118.147 190.08 117.315 190.08C116.728 190.08 116.243 190.288 115.859 190.704C115.475 191.109 115.283 191.605 115.283 192.192C115.283 192.768 115.475 193.264 115.859 193.68C116.243 194.085 116.728 194.288 117.315 194.288ZM123.305 184.64H125.401V196H123.305V184.64ZM129.51 189.248C130.214 188.576 131.116 188.24 132.214 188.24V190.224C131.041 190.288 130.14 190.672 129.51 191.376V196H127.414V188.368H129.51V189.248ZM140.807 191.92C140.807 192.293 140.791 192.587 140.759 192.8H135.159C135.351 193.835 135.996 194.352 137.095 194.352C137.671 194.352 138.076 194.208 138.311 193.92H140.631C140.375 194.635 139.927 195.195 139.287 195.6C138.658 195.995 137.922 196.192 137.079 196.192C135.874 196.192 134.892 195.813 134.135 195.056C133.388 194.299 133.015 193.344 133.015 192.192C133.015 191.04 133.383 190.085 134.119 189.328C134.855 188.56 135.799 188.176 136.951 188.176C138.082 188.176 139.004 188.523 139.719 189.216C140.444 189.899 140.807 190.8 140.807 191.92ZM136.967 189.952C136.018 189.952 135.431 190.427 135.207 191.376H138.679C138.572 190.427 138.002 189.952 136.967 189.952ZM148.093 188.368H150.189V196H148.093V195.568C147.453 195.984 146.722 196.192 145.901 196.192C144.845 196.192 143.944 195.803 143.197 195.024C142.461 194.245 142.093 193.301 142.093 192.192C142.093 191.083 142.461 190.139 143.197 189.36C143.944 188.571 144.845 188.176 145.901 188.176C146.722 188.176 147.453 188.384 148.093 188.8V188.368ZM146.221 194.288C147.053 194.288 147.677 193.989 148.093 193.392V190.976C147.677 190.379 147.053 190.08 146.221 190.08C145.634 190.08 145.149 190.288 144.765 190.704C144.381 191.109 144.189 191.605 144.189 192.192C144.189 192.768 144.381 193.264 144.765 193.68C145.149 194.085 145.634 194.288 146.221 194.288ZM157.687 184.64H159.783V196H157.687V195.568C157.047 195.984 156.316 196.192 155.495 196.192C154.439 196.192 153.538 195.803 152.791 195.024C152.055 194.235 151.687 193.285 151.687 192.176C151.687 191.067 152.055 190.123 152.791 189.344C153.538 188.565 154.439 188.176 155.495 188.176C156.316 188.176 157.047 188.384 157.687 188.8V184.64ZM155.815 194.288C156.647 194.288 157.271 193.989 157.687 193.392V190.976C157.271 190.379 156.647 190.08 155.815 190.08C155.228 190.08 154.743 190.288 154.359 190.704C153.975 191.109 153.783 191.6 153.783 192.176C153.783 192.763 153.975 193.264 154.359 193.68C154.743 194.085 155.228 194.288 155.815 194.288ZM167.923 188.352H170.131L165.251 199.712H163.043L164.643 195.968L160.803 188.352H163.043L165.619 193.728L167.923 188.352ZM181.682 191.92C181.682 192.293 181.666 192.587 181.634 192.8H176.034C176.226 193.835 176.871 194.352 177.97 194.352C178.546 194.352 178.951 194.208 179.186 193.92H181.506C181.25 194.635 180.802 195.195 180.162 195.6C179.533 195.995 178.797 196.192 177.954 196.192C176.749 196.192 175.767 195.813 175.01 195.056C174.263 194.299 173.89 193.344 173.89 192.192C173.89 191.04 174.258 190.085 174.994 189.328C175.73 188.56 176.674 188.176 177.826 188.176C178.957 188.176 179.879 188.523 180.594 189.216C181.319 189.899 181.682 190.8 181.682 191.92ZM177.842 189.952C176.893 189.952 176.306 190.427 176.082 191.376H179.554C179.447 190.427 178.877 189.952 177.842 189.952ZM187.638 192.144L187.622 192.16L190.454 196H187.958L186.246 193.616L184.502 196H182.006L184.838 192.16L184.822 192.144L182.006 188.352H184.566L186.214 190.608L187.894 188.352H190.454L187.638 192.144ZM195.984 188.208C197.04 188.208 197.936 188.597 198.672 189.376C199.418 190.144 199.792 191.083 199.792 192.192C199.792 193.291 199.418 194.229 198.672 195.008C197.936 195.776 197.04 196.16 195.984 196.16C195.152 196.16 194.421 195.957 193.792 195.552V199.728H191.696V188.368H193.792V188.816C194.421 188.411 195.152 188.208 195.984 188.208ZM195.664 194.352C196.25 194.352 196.736 194.139 197.12 193.712C197.504 193.285 197.696 192.779 197.696 192.192C197.696 191.605 197.504 191.099 197.12 190.672C196.736 190.235 196.25 190.016 195.664 190.016C194.864 190.016 194.24 190.331 193.792 190.96V193.408C194.24 194.037 194.864 194.352 195.664 194.352ZM202.647 186.88C202.285 186.88 201.981 186.763 201.735 186.528C201.49 186.293 201.367 186 201.367 185.648C201.367 185.285 201.49 184.987 201.735 184.752C201.981 184.517 202.285 184.4 202.647 184.4C202.999 184.4 203.298 184.523 203.543 184.768C203.799 185.003 203.927 185.296 203.927 185.648C203.927 186 203.799 186.293 203.543 186.528C203.298 186.763 202.999 186.88 202.647 186.88ZM201.607 188.368H203.703V196H201.607V188.368ZM208.042 189.248C208.746 188.576 209.647 188.24 210.746 188.24V190.224C209.572 190.288 208.671 190.672 208.042 191.376V196H205.946V188.368H208.042V189.248ZM219.338 191.92C219.338 192.293 219.322 192.587 219.29 192.8H213.69C213.882 193.835 214.528 194.352 215.626 194.352C216.202 194.352 216.608 194.208 216.842 193.92H219.162C218.906 194.635 218.458 195.195 217.818 195.6C217.189 195.995 216.453 196.192 215.61 196.192C214.405 196.192 213.424 195.813 212.666 195.056C211.92 194.299 211.546 193.344 211.546 192.192C211.546 191.04 211.914 190.085 212.65 189.328C213.386 188.56 214.33 188.176 215.482 188.176C216.613 188.176 217.536 188.523 218.25 189.216C218.976 189.899 219.338 190.8 219.338 191.92ZM215.498 189.952C214.549 189.952 213.962 190.427 213.738 191.376H217.21C217.104 190.427 216.533 189.952 215.498 189.952ZM226.624 184.64H228.72V196H226.624V195.568C225.984 195.984 225.254 196.192 224.432 196.192C223.376 196.192 222.475 195.803 221.728 195.024C220.992 194.235 220.624 193.285 220.624 192.176C220.624 191.067 220.992 190.123 221.728 189.344C222.475 188.565 223.376 188.176 224.432 188.176C225.254 188.176 225.984 188.384 226.624 188.8V184.64ZM224.752 194.288C225.584 194.288 226.208 193.989 226.624 193.392V190.976C226.208 190.379 225.584 190.08 224.752 190.08C224.166 190.08 223.68 190.288 223.296 190.704C222.912 191.109 222.72 191.6 222.72 192.176C222.72 192.763 222.912 193.264 223.296 193.68C223.68 194.085 224.166 194.288 224.752 194.288ZM232.374 195.76C232.129 195.995 231.83 196.112 231.478 196.112C231.126 196.112 230.828 195.995 230.582 195.76C230.337 195.525 230.214 195.232 230.214 194.88C230.214 194.539 230.337 194.251 230.582 194.016C230.828 193.781 231.126 193.664 231.478 193.664C231.83 193.664 232.129 193.781 232.374 194.016C232.63 194.251 232.758 194.539 232.758 194.88C232.758 195.232 232.63 195.525 232.374 195.76ZM20 209.12V211.136H16.304V220H14.128V211.136H10.432V209.12H20ZM25.5933 212.176C26.6173 212.176 27.4333 212.512 28.0413 213.184C28.6599 213.845 28.9693 214.736 28.9693 215.856V220H26.8733V215.984C26.8733 215.365 26.7239 214.896 26.4253 214.576C26.1266 214.245 25.6999 214.08 25.1453 214.08C24.5266 214.08 23.9399 214.405 23.3853 215.056V220H21.2893V208.64H23.3853V212.944C24.0253 212.432 24.7613 212.176 25.5933 212.176ZM32.1474 210.88C31.7847 210.88 31.4807 210.763 31.2354 210.528C30.99 210.293 30.8674 210 30.8674 209.648C30.8674 209.285 30.99 208.987 31.2354 208.752C31.4807 208.517 31.7847 208.4 32.1474 208.4C32.4994 208.4 32.798 208.523 33.0434 208.768C33.2994 209.003 33.4274 209.296 33.4274 209.648C33.4274 210 33.2994 210.293 33.0434 210.528C32.798 210.763 32.4994 210.88 32.1474 210.88ZM31.1074 212.368H33.2034V220H31.1074V212.368ZM36.8535 217.36C36.9708 218.117 37.5202 218.496 38.5015 218.496C39.4082 218.496 39.8615 218.283 39.8615 217.856C39.8615 217.515 39.6002 217.296 39.0775 217.2L37.4295 216.912C36.7788 216.805 36.2402 216.571 35.8135 216.208C35.3868 215.845 35.1735 215.333 35.1735 214.672C35.1735 213.893 35.4722 213.28 36.0695 212.832C36.6668 212.384 37.4562 212.16 38.4375 212.16C40.5495 212.16 41.6748 213.019 41.8135 214.736H39.8775C39.8348 214.128 39.3548 213.824 38.4375 213.824C37.6482 213.824 37.2535 214.037 37.2535 214.464C37.2535 214.859 37.5682 215.109 38.1975 215.216L39.5735 215.44C41.0988 215.707 41.8615 216.448 41.8615 217.664C41.8615 218.485 41.5468 219.115 40.9175 219.552C40.2882 219.979 39.4668 220.192 38.4535 220.192C38.0055 220.192 37.5895 220.144 37.2055 220.048C36.8215 219.963 36.4588 219.819 36.1175 219.616C35.7762 219.403 35.4988 219.104 35.2855 218.72C35.0828 218.336 34.9602 217.877 34.9175 217.344L36.8535 217.36ZM51.9523 212.208C53.0083 212.208 53.9043 212.597 54.6403 213.376C55.3869 214.144 55.7603 215.083 55.7603 216.192C55.7603 217.291 55.3869 218.229 54.6403 219.008C53.9043 219.776 53.0083 220.16 51.9523 220.16C51.1203 220.16 50.3896 219.957 49.7603 219.552V223.728H47.6643V212.368H49.7603V212.816C50.3896 212.411 51.1203 212.208 51.9523 212.208ZM51.6323 218.352C52.2189 218.352 52.7043 218.139 53.0883 217.712C53.4723 217.285 53.6643 216.779 53.6643 216.192C53.6643 215.605 53.4723 215.099 53.0883 214.672C52.7043 214.235 52.2189 214.016 51.6323 214.016C50.8323 214.016 50.2083 214.331 49.7603 214.96V217.408C50.2083 218.037 50.8323 218.352 51.6323 218.352ZM63.0463 212.368H65.1423V220H63.0463V219.568C62.4063 219.984 61.6756 220.192 60.8543 220.192C59.7983 220.192 58.8969 219.803 58.1503 219.024C57.4143 218.245 57.0463 217.301 57.0463 216.192C57.0463 215.083 57.4143 214.139 58.1503 213.36C58.8969 212.571 59.7983 212.176 60.8543 212.176C61.6756 212.176 62.4063 212.384 63.0463 212.8V212.368ZM61.1743 218.288C62.0063 218.288 62.6303 217.989 63.0463 217.392V214.976C62.6303 214.379 62.0063 214.08 61.1743 214.08C60.5876 214.08 60.1023 214.288 59.7183 214.704C59.3343 215.109 59.1423 215.605 59.1423 216.192C59.1423 216.768 59.3343 217.264 59.7183 217.68C60.1023 218.085 60.5876 218.288 61.1743 218.288ZM72.7963 212.368H74.8923V220.048C74.8923 221.221 74.5296 222.149 73.8043 222.832C73.0789 223.525 72.1403 223.872 70.9883 223.872C69.8896 223.872 68.9723 223.563 68.2363 222.944C67.5003 222.336 67.0896 221.552 67.0043 220.592H69.1323C69.1856 221.008 69.3723 221.339 69.6923 221.584C70.0229 221.84 70.4549 221.968 70.9883 221.968C71.5216 221.968 71.9536 221.797 72.2843 221.456C72.6256 221.125 72.7963 220.656 72.7963 220.048V219.072C72.1669 219.477 71.4363 219.68 70.6043 219.68C69.5589 219.68 68.6629 219.317 67.9163 218.592C67.1696 217.856 66.7963 216.992 66.7963 216C66.7963 214.88 67.1589 213.963 67.8843 213.248C68.6203 212.533 69.5269 212.176 70.6043 212.176C71.4363 212.176 72.1669 212.379 72.7963 212.784V212.368ZM70.9243 217.872C71.7349 217.872 72.3589 217.552 72.7963 216.912V214.944C72.3589 214.304 71.7349 213.984 70.9243 213.984C70.3163 213.984 69.8256 214.171 69.4523 214.544C69.0789 214.907 68.8923 215.392 68.8923 216C68.8923 216.469 69.0843 216.901 69.4683 217.296C69.8629 217.68 70.3483 217.872 70.9243 217.872ZM84.2601 215.92C84.2601 216.293 84.2441 216.587 84.2121 216.8H78.6121C78.8041 217.835 79.4495 218.352 80.5481 218.352C81.1241 218.352 81.5295 218.208 81.7641 217.92H84.0841C83.8281 218.635 83.3801 219.195 82.7401 219.6C82.1108 219.995 81.3748 220.192 80.5321 220.192C79.3268 220.192 78.3455 219.813 77.5881 219.056C76.8415 218.299 76.4681 217.344 76.4681 216.192C76.4681 215.04 76.8361 214.085 77.5721 213.328C78.3081 212.56 79.2521 212.176 80.4041 212.176C81.5348 212.176 82.4575 212.523 83.1721 213.216C83.8975 213.899 84.2601 214.8 84.2601 215.92ZM80.4201 213.952C79.4708 213.952 78.8841 214.427 78.6601 215.376H82.1321C82.0255 214.427 81.4548 213.952 80.4201 213.952ZM99.2865 212.368H101.559L98.8705 220H97.0465L95.4305 215.264L93.8145 220H91.9905L89.3025 212.368H91.5745L92.9025 216.832L94.5505 212.368H96.3105L97.9585 216.832L99.2865 212.368ZM104.085 210.88C103.722 210.88 103.418 210.763 103.173 210.528C102.928 210.293 102.805 210 102.805 209.648C102.805 209.285 102.928 208.987 103.173 208.752C103.418 208.517 103.722 208.4 104.085 208.4C104.437 208.4 104.736 208.523 104.981 208.768C105.237 209.003 105.365 209.296 105.365 209.648C105.365 210 105.237 210.293 104.981 210.528C104.736 210.763 104.437 210.88 104.085 210.88ZM103.045 212.368H105.141V220H103.045V212.368ZM107.383 208.64H109.479V220H107.383V208.64ZM111.492 208.64H113.588V220H111.492V208.64ZM124.046 212.176C125.102 212.176 125.998 212.565 126.734 213.344C127.481 214.123 127.854 215.067 127.854 216.176C127.854 217.285 127.481 218.235 126.734 219.024C125.998 219.803 125.102 220.192 124.046 220.192C123.225 220.192 122.494 219.984 121.854 219.568V220H119.758V208.64H121.854V212.8C122.494 212.384 123.225 212.176 124.046 212.176ZM123.726 218.288C124.313 218.288 124.798 218.085 125.182 217.68C125.566 217.264 125.758 216.763 125.758 216.176C125.758 215.6 125.566 215.109 125.182 214.704C124.798 214.288 124.313 214.08 123.726 214.08C122.894 214.08 122.27 214.379 121.854 214.976V217.392C122.27 217.989 122.894 218.288 123.726 218.288ZM136.932 215.92C136.932 216.293 136.916 216.587 136.884 216.8H131.284C131.476 217.835 132.121 218.352 133.22 218.352C133.796 218.352 134.201 218.208 134.436 217.92H136.756C136.5 218.635 136.052 219.195 135.412 219.6C134.783 219.995 134.047 220.192 133.204 220.192C131.999 220.192 131.017 219.813 130.26 219.056C129.513 218.299 129.14 217.344 129.14 216.192C129.14 215.04 129.508 214.085 130.244 213.328C130.98 212.56 131.924 212.176 133.076 212.176C134.207 212.176 135.129 212.523 135.844 213.216C136.569 213.899 136.932 214.8 136.932 215.92ZM133.092 213.952C132.143 213.952 131.556 214.427 131.332 215.376H134.804C134.697 214.427 134.127 213.952 133.092 213.952ZM146.438 218.288C146.865 218.288 147.228 218.176 147.526 217.952C147.825 217.728 148.017 217.429 148.102 217.056H150.246C150.129 217.973 149.713 218.725 148.998 219.312C148.284 219.899 147.43 220.192 146.438 220.192C145.297 220.192 144.332 219.808 143.542 219.04C142.764 218.272 142.374 217.323 142.374 216.192C142.374 215.061 142.764 214.112 143.542 213.344C144.332 212.565 145.297 212.176 146.438 212.176C147.42 212.176 148.268 212.475 148.982 213.072C149.708 213.659 150.129 214.411 150.246 215.328H148.102C148.017 214.955 147.825 214.656 147.526 214.432C147.228 214.197 146.865 214.08 146.438 214.08C145.852 214.08 145.377 214.283 145.014 214.688C144.652 215.093 144.47 215.595 144.47 216.192C144.47 216.789 144.652 217.291 145.014 217.696C145.377 218.091 145.852 218.288 146.438 218.288ZM151.821 208.64H153.917V220H151.821V208.64ZM159.548 212.176C160.71 212.176 161.676 212.555 162.444 213.312C163.212 214.069 163.596 215.029 163.596 216.192C163.596 217.355 163.212 218.315 162.444 219.072C161.676 219.819 160.71 220.192 159.548 220.192C158.374 220.192 157.404 219.819 156.636 219.072C155.868 218.315 155.484 217.355 155.484 216.192C155.484 215.029 155.868 214.069 156.636 213.312C157.404 212.555 158.374 212.176 159.548 212.176ZM158.124 217.696C158.486 218.091 158.961 218.288 159.548 218.288C160.134 218.288 160.604 218.091 160.956 217.696C161.318 217.301 161.5 216.8 161.5 216.192C161.5 215.595 161.318 215.093 160.956 214.688C160.593 214.283 160.124 214.08 159.548 214.08C158.961 214.08 158.486 214.283 158.124 214.688C157.761 215.093 157.58 215.595 157.58 216.192C157.58 216.8 157.761 217.301 158.124 217.696ZM166.572 217.36C166.69 218.117 167.239 218.496 168.22 218.496C169.127 218.496 169.58 218.283 169.58 217.856C169.58 217.515 169.319 217.296 168.796 217.2L167.148 216.912C166.498 216.805 165.959 216.571 165.532 216.208C165.106 215.845 164.892 215.333 164.892 214.672C164.892 213.893 165.191 213.28 165.788 212.832C166.386 212.384 167.175 212.16 168.156 212.16C170.268 212.16 171.394 213.019 171.532 214.736H169.596C169.554 214.128 169.074 213.824 168.156 213.824C167.367 213.824 166.972 214.037 166.972 214.464C166.972 214.859 167.287 215.109 167.916 215.216L169.292 215.44C170.818 215.707 171.58 216.448 171.58 217.664C171.58 218.485 171.266 219.115 170.636 219.552C170.007 219.979 169.186 220.192 168.172 220.192C167.724 220.192 167.308 220.144 166.924 220.048C166.54 219.963 166.178 219.819 165.836 219.616C165.495 219.403 165.218 219.104 165.004 218.72C164.802 218.336 164.679 217.877 164.636 217.344L166.572 217.36ZM180.495 215.92C180.495 216.293 180.479 216.587 180.447 216.8H174.847C175.039 217.835 175.684 218.352 176.783 218.352C177.359 218.352 177.764 218.208 177.999 217.92H180.319C180.063 218.635 179.615 219.195 178.975 219.6C178.345 219.995 177.609 220.192 176.766 220.192C175.561 220.192 174.58 219.813 173.823 219.056C173.076 218.299 172.703 217.344 172.703 216.192C172.703 215.04 173.071 214.085 173.807 213.328C174.543 212.56 175.487 212.176 176.639 212.176C177.769 212.176 178.692 212.523 179.407 213.216C180.132 213.899 180.495 214.8 180.495 215.92ZM176.655 213.952C175.705 213.952 175.119 214.427 174.895 215.376H178.367C178.26 214.427 177.689 213.952 176.655 213.952ZM187.781 208.64H189.877V220H187.781V219.568C187.141 219.984 186.41 220.192 185.589 220.192C184.533 220.192 183.631 219.803 182.885 219.024C182.149 218.235 181.781 217.285 181.781 216.176C181.781 215.067 182.149 214.123 182.885 213.344C183.631 212.565 184.533 212.176 185.589 212.176C186.41 212.176 187.141 212.384 187.781 212.8V208.64ZM185.909 218.288C186.741 218.288 187.365 217.989 187.781 217.392V214.976C187.365 214.379 186.741 214.08 185.909 214.08C185.322 214.08 184.837 214.288 184.453 214.704C184.069 215.109 183.877 215.6 183.877 216.176C183.877 216.763 184.069 217.264 184.453 217.68C184.837 218.085 185.322 218.288 185.909 218.288ZM193.531 219.76C193.285 219.995 192.987 220.112 192.635 220.112C192.283 220.112 191.984 219.995 191.739 219.76C191.493 219.525 191.371 219.232 191.371 218.88C191.371 218.539 191.493 218.251 191.739 218.016C191.984 217.781 192.283 217.664 192.635 217.664C192.987 217.664 193.285 217.781 193.531 218.016C193.787 218.251 193.915 218.539 193.915 218.88C193.915 219.232 193.787 219.525 193.531 219.76ZM203.859 209.12C205.16 209.12 206.206 209.472 206.995 210.176C207.795 210.869 208.195 211.787 208.195 212.928C208.195 214.144 207.768 215.12 206.915 215.856C206.062 216.592 204.936 216.96 203.539 216.96H201.843V220H199.667V209.12H203.859ZM203.779 214.96C204.462 214.96 205.011 214.773 205.427 214.4C205.843 214.027 206.051 213.536 206.051 212.928C206.051 212.395 205.843 211.963 205.427 211.632C205.011 211.291 204.462 211.12 203.779 211.12H201.843V214.96H203.779ZM209.571 208.64H211.667V220H209.571V208.64ZM221.026 215.92C221.026 216.293 221.01 216.587 220.978 216.8H215.378C215.57 217.835 216.215 218.352 217.314 218.352C217.89 218.352 218.295 218.208 218.53 217.92H220.85C220.594 218.635 220.146 219.195 219.506 219.6C218.876 219.995 218.14 220.192 217.298 220.192C216.092 220.192 215.111 219.813 214.354 219.056C213.607 218.299 213.234 217.344 213.234 216.192C213.234 215.04 213.602 214.085 214.338 213.328C215.074 212.56 216.018 212.176 217.17 212.176C218.3 212.176 219.223 212.523 219.938 213.216C220.663 213.899 221.026 214.8 221.026 215.92ZM217.186 213.952C216.236 213.952 215.65 214.427 215.426 215.376H218.898C218.791 214.427 218.22 213.952 217.186 213.952ZM228.312 212.368H230.408V220H228.312V219.568C227.672 219.984 226.941 220.192 226.12 220.192C225.064 220.192 224.163 219.803 223.416 219.024C222.68 218.245 222.312 217.301 222.312 216.192C222.312 215.083 222.68 214.139 223.416 213.36C224.163 212.571 225.064 212.176 226.12 212.176C226.941 212.176 227.672 212.384 228.312 212.8V212.368ZM226.44 218.288C227.272 218.288 227.896 217.989 228.312 217.392V214.976C227.896 214.379 227.272 214.08 226.44 214.08C225.853 214.08 225.368 214.288 224.984 214.704C224.6 215.109 224.408 215.605 224.408 216.192C224.408 216.768 224.6 217.264 224.984 217.68C225.368 218.085 225.853 218.288 226.44 218.288ZM233.838 217.36C233.955 218.117 234.505 218.496 235.486 218.496C236.393 218.496 236.846 218.283 236.846 217.856C236.846 217.515 236.585 217.296 236.062 217.2L234.414 216.912C233.763 216.805 233.225 216.571 232.798 216.208C232.371 215.845 232.158 215.333 232.158 214.672C232.158 213.893 232.457 213.28 233.054 212.832C233.651 212.384 234.441 212.16 235.422 212.16C237.534 212.16 238.659 213.019 238.798 214.736H236.862C236.819 214.128 236.339 213.824 235.422 213.824C234.633 213.824 234.238 214.037 234.238 214.464C234.238 214.859 234.553 215.109 235.182 215.216L236.558 215.44C238.083 215.707 238.846 216.448 238.846 217.664C238.846 218.485 238.531 219.115 237.902 219.552C237.273 219.979 236.451 220.192 235.438 220.192C234.99 220.192 234.574 220.144 234.19 220.048C233.806 219.963 233.443 219.819 233.102 219.616C232.761 219.403 232.483 219.104 232.27 218.72C232.067 218.336 231.945 217.877 231.902 217.344L233.838 217.36ZM247.76 215.92C247.76 216.293 247.744 216.587 247.712 216.8H242.112C242.304 217.835 242.949 218.352 244.048 218.352C244.624 218.352 245.029 218.208 245.264 217.92H247.584C247.328 218.635 246.88 219.195 246.24 219.6C245.611 219.995 244.875 220.192 244.032 220.192C242.827 220.192 241.845 219.813 241.088 219.056C240.341 218.299 239.968 217.344 239.968 216.192C239.968 215.04 240.336 214.085 241.072 213.328C241.808 212.56 242.752 212.176 243.904 212.176C245.035 212.176 245.957 212.523 246.672 213.216C247.397 213.899 247.76 214.8 247.76 215.92ZM243.92 213.952C242.971 213.952 242.384 214.427 242.16 215.376H245.632C245.525 214.427 244.955 213.952 243.92 213.952ZM253.571 208.64H255.667V220H253.571V208.64ZM261.298 212.176C262.46 212.176 263.426 212.555 264.194 213.312C264.962 214.069 265.346 215.029 265.346 216.192C265.346 217.355 264.962 218.315 264.194 219.072C263.426 219.819 262.46 220.192 261.298 220.192C260.124 220.192 259.154 219.819 258.386 219.072C257.618 218.315 257.234 217.355 257.234 216.192C257.234 215.029 257.618 214.069 258.386 213.312C259.154 212.555 260.124 212.176 261.298 212.176ZM259.874 217.696C260.236 218.091 260.711 218.288 261.298 218.288C261.884 218.288 262.354 218.091 262.706 217.696C263.068 217.301 263.25 216.8 263.25 216.192C263.25 215.595 263.068 215.093 262.706 214.688C262.343 214.283 261.874 214.08 261.298 214.08C260.711 214.08 260.236 214.283 259.874 214.688C259.511 215.093 259.33 215.595 259.33 216.192C259.33 216.8 259.511 217.301 259.874 217.696ZM272.468 212.368H274.564V220.048C274.564 221.221 274.201 222.149 273.476 222.832C272.751 223.525 271.812 223.872 270.66 223.872C269.561 223.872 268.644 223.563 267.908 222.944C267.172 222.336 266.761 221.552 266.676 220.592H268.804C268.857 221.008 269.044 221.339 269.364 221.584C269.695 221.84 270.127 221.968 270.66 221.968C271.193 221.968 271.625 221.797 271.956 221.456C272.297 221.125 272.468 220.656 272.468 220.048V219.072C271.839 219.477 271.108 219.68 270.276 219.68C269.231 219.68 268.335 219.317 267.588 218.592C266.841 217.856 266.468 216.992 266.468 216C266.468 214.88 266.831 213.963 267.556 213.248C268.292 212.533 269.199 212.176 270.276 212.176C271.108 212.176 271.839 212.379 272.468 212.784V212.368ZM270.596 217.872C271.407 217.872 272.031 217.552 272.468 216.912V214.944C272.031 214.304 271.407 213.984 270.596 213.984C269.988 213.984 269.497 214.171 269.124 214.544C268.751 214.907 268.564 215.392 268.564 216C268.564 216.469 268.756 216.901 269.14 217.296C269.535 217.68 270.02 217.872 270.596 217.872ZM277.178 216.816H282.762V214.88H277.178V216.816ZM286.647 210.88C286.285 210.88 285.981 210.763 285.735 210.528C285.49 210.293 285.367 210 285.367 209.648C285.367 209.285 285.49 208.987 285.735 208.752C285.981 208.517 286.285 208.4 286.647 208.4C286.999 208.4 287.298 208.523 287.543 208.768C287.799 209.003 287.927 209.296 287.927 209.648C287.927 210 287.799 210.293 287.543 210.528C287.298 210.763 286.999 210.88 286.647 210.88ZM285.607 212.368H287.703V220H285.607V212.368ZM294.25 212.176C295.274 212.176 296.09 212.512 296.698 213.184C297.316 213.845 297.626 214.736 297.626 215.856V220H295.53V215.984C295.53 215.365 295.38 214.896 295.082 214.576C294.783 214.245 294.356 214.08 293.802 214.08C293.183 214.08 292.596 214.405 292.042 215.056V220H289.946V212.368H292.042V212.944C292.682 212.432 293.418 212.176 294.25 212.176ZM309.312 212.368H311.408V220H309.312V219.568C308.672 219.984 307.941 220.192 307.12 220.192C306.064 220.192 305.163 219.803 304.416 219.024C303.68 218.245 303.312 217.301 303.312 216.192C303.312 215.083 303.68 214.139 304.416 213.36C305.163 212.571 306.064 212.176 307.12 212.176C307.941 212.176 308.672 212.384 309.312 212.8V212.368ZM307.44 218.288C308.272 218.288 308.896 217.989 309.312 217.392V214.976C308.896 214.379 308.272 214.08 307.44 214.08C306.853 214.08 306.368 214.288 305.984 214.704C305.6 215.109 305.408 215.605 305.408 216.192C305.408 216.768 305.6 217.264 305.984 217.68C306.368 218.085 306.853 218.288 307.44 218.288ZM319.062 212.368H321.158V220.048C321.158 221.221 320.795 222.149 320.07 222.832C319.345 223.525 318.406 223.872 317.254 223.872C316.155 223.872 315.238 223.563 314.502 222.944C313.766 222.336 313.355 221.552 313.27 220.592H315.398C315.451 221.008 315.638 221.339 315.958 221.584C316.289 221.84 316.721 221.968 317.254 221.968C317.787 221.968 318.219 221.797 318.55 221.456C318.891 221.125 319.062 220.656 319.062 220.048V219.072C318.433 219.477 317.702 219.68 316.87 219.68C315.825 219.68 314.929 219.317 314.182 218.592C313.435 217.856 313.062 216.992 313.062 216C313.062 214.88 313.425 213.963 314.15 213.248C314.886 212.533 315.793 212.176 316.87 212.176C317.702 212.176 318.433 212.379 319.062 212.784V212.368ZM317.19 217.872C318.001 217.872 318.625 217.552 319.062 216.912V214.944C318.625 214.304 318.001 213.984 317.19 213.984C316.582 213.984 316.091 214.171 315.718 214.544C315.345 214.907 315.158 215.392 315.158 216C315.158 216.469 315.35 216.901 315.734 217.296C316.129 217.68 316.614 217.872 317.19 217.872ZM328.734 212.368H330.83V220H328.734V219.568C328.094 219.984 327.363 220.192 326.542 220.192C325.486 220.192 324.584 219.803 323.838 219.024C323.102 218.245 322.734 217.301 322.734 216.192C322.734 215.083 323.102 214.139 323.838 213.36C324.584 212.571 325.486 212.176 326.542 212.176C327.363 212.176 328.094 212.384 328.734 212.8V212.368ZM326.862 218.288C327.694 218.288 328.318 217.989 328.734 217.392V214.976C328.318 214.379 327.694 214.08 326.862 214.08C326.275 214.08 325.79 214.288 325.406 214.704C325.022 215.109 324.83 215.605 324.83 216.192C324.83 216.768 325.022 217.264 325.406 217.68C325.79 218.085 326.275 218.288 326.862 218.288ZM334.132 210.88C333.769 210.88 333.465 210.763 333.22 210.528C332.974 210.293 332.852 210 332.852 209.648C332.852 209.285 332.974 208.987 333.22 208.752C333.465 208.517 333.769 208.4 334.132 208.4C334.484 208.4 334.782 208.523 335.028 208.768C335.284 209.003 335.412 209.296 335.412 209.648C335.412 210 335.284 210.293 335.028 210.528C334.782 210.763 334.484 210.88 334.132 210.88ZM333.092 212.368H335.188V220H333.092V212.368ZM341.734 212.176C342.758 212.176 343.574 212.512 344.182 213.184C344.801 213.845 345.11 214.736 345.11 215.856V220H343.014V215.984C343.014 215.365 342.865 214.896 342.566 214.576C342.267 214.245 341.841 214.08 341.286 214.08C340.667 214.08 340.081 214.405 339.526 215.056V220H337.43V212.368H339.526V212.944C340.166 212.432 340.902 212.176 341.734 212.176ZM348.64 219.76C348.395 219.995 348.096 220.112 347.744 220.112C347.392 220.112 347.093 219.995 346.848 219.76C346.603 219.525 346.48 219.232 346.48 218.88C346.48 218.539 346.603 218.251 346.848 218.016C347.093 217.781 347.392 217.664 347.744 217.664C348.096 217.664 348.395 217.781 348.64 218.016C348.896 218.251 349.024 218.539 349.024 218.88C349.024 219.232 348.896 219.525 348.64 219.76Z" fill="#C1C1C1"/>
<defs>
<filter id="filter0_di_6120_44260" x="0.880005" y="0.568359" width="193.936" height="91.584" filterUnits="userSpaceOnUse" color-interpolation-filters="sRGB">
<feFlood flood-opacity="0" result="BackgroundImageFix"/>
<feColorMatrix in="SourceAlpha" type="matrix" values="0 0 0 0 0 0 0 0 0 0 0 0 0 0 0 0 0 0 127 0" result="hardAlpha"/>
<feOffset dy="3"/>
<feGaussianBlur stdDeviation="6"/>
<feComposite in2="hardAlpha" operator="out"/>
<feColorMatrix type="matrix" values="0 0 0 0 0.176471 0 0 0 0 0.462745 0 0 0 0 0.972549 0 0 0 0.1 0"/>
<feBlend mode="normal" in2="BackgroundImageFix" result="effect1_dropShadow_6120_44260"/>
<feBlend mode="normal" in="SourceGraphic" in2="effect1_dropShadow_6120_44260" result="shape"/>
<feColorMatrix in="SourceAlpha" type="matrix" values="0 0 0 0 0 0 0 0 0 0 0 0 0 0 0 0 0 0 127 0" result="hardAlpha"/>
<feOffset dy="3"/>
<feGaussianBlur stdDeviation="2"/>
<feComposite in2="hardAlpha" operator="arithmetic" k2="-1" k3="1"/>
<feColorMatrix type="matrix" values="0 0 0 0 0.176471 0 0 0 0 0.462745 0 0 0 0 0.972549 0 0 0 0.12 0"/>
<feBlend mode="normal" in2="shape" result="effect2_innerShadow_6120_44260"/>
</filter>
</defs>
</svg>
