<svg width="320" height="415" viewBox="0 0 320 415" fill="none" xmlns="http://www.w3.org/2000/svg">
<g clip-path="url(#clip0_6120_44264)">
<path d="M245.814 393.442C245.839 393.339 245.937 393.388 246.036 393.442C246.208 393.132 246.129 393.117 246.37 392.935C246.223 392.91 246.159 392.817 245.927 392.851C246.277 393.26 245.593 393.24 245.814 393.442V393.442Z" fill="#F0F0F0"/>
<path d="M239.7 392.768C239.163 392.96 239.183 393.004 239.257 393.275C239.335 393.107 239.626 393.358 239.7 393.191C239.399 393.191 240 392.768 239.7 392.768Z" fill="#F0F0F0"/>
<path d="M276.721 394.87C276.687 395.17 276.505 395.352 276.721 395.628C276.702 395.515 277.366 395.52 276.943 395.377C276.938 395.426 276.928 395.476 276.83 395.461C276.889 395.333 276.8 394.786 276.716 394.87H276.721Z" fill="#F0F0F0"/>
<path d="M139.751 392.596C139.495 392.714 139.333 392.38 139.308 392.596C139.441 392.616 139.377 392.69 139.308 392.764C139.476 392.897 139.806 392.857 139.751 392.596Z" fill="#F0F0F0"/>
<path d="M274.501 394.368C274.526 394.304 274.594 394.269 274.722 394.284V393.861C274.501 393.885 274.501 393.748 274.388 393.693C274.373 393.94 273.718 393.718 274.053 394.028C274.235 393.787 274.294 394.343 274.496 394.368H274.501Z" fill="#F0F0F0"/>
<path d="M26.7914 392.936C26.5453 392.798 26.1761 392.945 26.4567 393.103C26.5699 392.842 26.6388 393.285 26.7914 393.27C27.0868 393.054 26.4961 393.147 26.7914 392.936V392.936Z" fill="#F0F0F0"/>
<path d="M25.9003 394.953C26.112 394.933 26.1465 395.047 26.3434 395.037C26.3976 394.771 26.2056 394.692 26.0086 394.613C26.0333 394.771 25.8856 394.8 25.9003 394.948V394.953Z" fill="#F0F0F0"/>
<path d="M277.278 395.462C277.356 395.526 277.898 395.649 277.947 395.462C277.814 395.447 277.824 395.329 277.834 395.211C277.642 395.216 277.489 395.191 277.386 395.127C277.386 395.24 277.44 395.314 277.499 395.378C277.411 395.398 277.278 395.378 277.278 395.462Z" fill="#F0F0F0"/>
<path d="M114.846 399.586C115.106 399.694 115.052 399.576 115.402 399.67C115.431 399.478 115.372 399.355 115.18 399.33C115.353 399.63 114.801 399.379 114.846 399.581V399.586Z" fill="#F0F0F0"/>
<path d="M108.953 401.353V401.102C108.603 401.063 108.5 401.206 108.396 401.353C108.652 401.575 108.692 401.132 108.953 401.353Z" fill="#F0F0F0"/>
<path d="M26.235 393.777C26.4172 393.777 26.299 394.008 26.4566 394.028C26.5009 393.924 26.5993 393.856 26.7913 393.86C26.7963 393.742 26.7372 393.673 26.6781 393.609H26.4566C26.432 393.673 26.4566 393.777 26.3433 393.777C26.3433 393.732 26.2547 393.678 26.2301 393.777H26.235Z" fill="#F0F0F0"/>
<path d="M268.514 392.832C268.475 392.891 268.544 392.945 268.514 392.832V392.832Z" fill="#F0F0F0"/>
<path d="M304.517 405.982C304.404 406.096 304.409 406.293 304.295 406.401C304.645 406.101 304.64 406.302 304.852 406.317C304.738 406.204 304.748 406.002 304.517 405.982V405.982Z" fill="#F0F0F0"/>
<path d="M0.708862 409.699C0.75317 409.729 0.807324 409.753 0.886093 409.773C0.831939 409.739 0.772862 409.719 0.708862 409.699Z" fill="#F0F0F0"/>
<path d="M0.708923 409.698C0.462769 409.546 0.635077 409.314 0.216615 409.265C0.270769 409.049 1.48185 409.132 1.43754 409.516C1.68369 409.506 1.48677 409.162 1.55077 409.009C1.92985 408.945 1.69354 409.354 2.10708 409.26C2.33354 409.142 1.99877 408.97 2.22031 408.753C2.30892 408.96 2.72738 408.679 2.66338 408.67C2.78646 408.689 2.93415 408.94 2.99815 408.921C3.35754 408.817 3.16554 408.379 3.66769 408.502C3.22954 408.103 3.34769 408.103 3.22462 407.493C3.80554 407.562 3.94831 407.69 4.55877 407.577C4.37169 407.409 4.56862 407.468 4.55877 407.242C4.26831 407.193 4.16 407.276 4.224 407.493C3.97785 407.483 4.17477 407.138 4.11077 406.986C4.25846 407.006 4.31754 407.335 4.33231 406.986C4.75569 407.38 5.05108 407.074 5.55323 406.902C5.46462 406.828 5.43508 406.71 5.44 406.567C5.66154 406.597 5.78954 406.548 5.77477 406.4C5.97169 406.449 6.42954 406.297 6.44431 406.484C6.82831 406.38 6.76431 405.942 7.10892 405.809C7.14338 405.588 6.48369 405.888 6.66585 405.558C6.81354 405.666 7.00062 405.607 7.10892 405.474C7.26154 405.499 7.20246 405.686 7.22215 405.809C7.23692 405.184 8.60062 405.918 8.99938 405.302C9.18154 405.529 9.37846 405.745 9.44246 406.06C9.77723 405.893 9.728 405.435 10.2203 405.386C9.65415 405.238 9.96431 405.022 9.664 404.544C10.2695 404.741 10.2646 404.706 10.9982 404.879C11.2788 404.613 10.5305 404.047 11.2197 404.204C11.2394 403.993 11.0474 403.943 10.8849 403.87C10.9292 403.682 11.4757 403.806 11.5495 403.87C11.2738 403.559 12.1502 403.451 12.5489 403.195C12.9329 403.55 13.4942 403.663 14.1046 403.279C14.0062 402.978 13.6911 403.328 13.5483 403.028C14.2966 402.88 16.0098 403.618 16.8862 402.693C17.3145 402.836 17.3243 402.772 17.664 402.944C18.8652 402.634 19.0277 401.861 19.5545 400.926C20.3471 401.088 20.1551 399.99 20.224 399.577C20.416 399.734 20.6523 399.463 20.4455 399.744C20.8098 399.764 20.7655 399.483 21.0018 399.409C20.9329 399.237 20.48 399.355 20.4455 399.158C20.1846 399.183 20.3815 399.557 20.0025 399.493C20.1945 399.001 20.5932 399.148 21.0018 399.07C20.7065 399.079 20.6769 398.567 20.8886 398.311C21.1052 398.055 21.9323 398.09 21.7797 397.804C22.2868 397.829 22.5871 397.878 22.4492 397.47C22.8677 397.657 22.6905 397.297 23.0055 397.47C23.1188 397.189 23.1385 396.416 23.5618 396.121C23.5618 395.924 23.2566 396.15 23.3403 396.288C23.0695 396.106 23.5323 395.766 23.7834 395.697C24.2462 395.599 24.2166 395.874 24.5612 395.865C24.0788 395.594 24.7286 395.81 24.7828 395.697C25.024 395.682 24.832 395.998 24.896 396.121C25.2308 395.953 25.0732 395.239 25.5606 395.362C25.0831 395.057 24.5514 394.24 25.2258 394.27C25.0831 394.023 25.1175 393.698 25.5606 393.679C25.4326 393.393 25.6394 393.319 25.4474 393.177C25.6345 392.896 26.0578 393.118 26.2252 392.926C26.2745 392.871 26.1858 392.694 26.2154 392.62C26.2843 392.674 26.9391 392.606 26.7815 392.172C27.1754 392.192 28.1502 391.921 28.4505 392.507C28.8246 392.433 28.4652 392.32 28.672 392.172C29.0757 392.29 29.0855 392.113 29.1151 392.763C29.2185 392.64 29.6172 392.315 29.4498 392.256C29.6911 392.049 30.0652 392.729 29.7846 392.674C29.8634 392.896 30.3065 392.842 30.4492 393.009C30.6462 392.738 30.9908 392.576 31.1138 392.251C31.36 392.527 31.5422 392.414 31.8917 392.502C31.8671 392.625 31.5618 392.532 31.5569 392.67C31.6406 392.852 32.0837 392.94 32 392.586C32.2215 393.049 32.6154 393.344 33.1126 393.177C33.1126 393.487 33.1618 393.758 33.5557 393.767C33.7674 393.758 33.3834 393.452 33.664 393.349C34.6092 394.078 36.544 393.639 36.7754 392.758C37.2037 392.743 37.8043 392.743 37.888 392.34C38.4985 392.571 39.1089 392.699 39.7785 392.256C40.128 392.217 40.0738 392.482 40.3348 392.507C40.7138 392.064 41.3637 392.448 41.6689 391.916C42.4271 392.359 42.8012 391.931 43.1163 392.423C44.5834 392.167 44.6671 393.575 45.7846 393.856C45.9815 393.836 46.0406 393.713 46.0062 393.521C46.2474 393.551 46.7151 393.762 46.6708 393.354C47.0892 393.482 47.0794 393.546 47.4486 393.354V393.605C47.6603 393.246 48.1182 393.531 48.3397 393.27C49.3637 393.344 50.7422 394.634 51.4511 393.861C51.5397 394.018 52.288 393.994 52.2289 393.694C53.8535 394.718 56.1034 395.564 58.2302 395.884C58.1366 396.155 58.3286 396.204 58.4517 396.303C58.6092 396.283 58.3483 395.884 58.4517 395.628C58.9932 395.801 58.9243 395.948 59.4511 396.052C59.3772 396.529 59.7711 396.652 59.7858 397.061C60.0517 396.987 60.8738 397.105 60.8985 397.479C61.1742 397.47 61.2431 397.322 61.4548 397.479C61.44 397.322 61.3809 397.199 61.2332 397.145C61.2382 396.958 61.8191 397.474 62.0111 397.145C62.1145 397.095 62.0948 397.647 61.7895 397.568C61.8191 397.662 62.0111 397.627 62.0111 397.735C62.2178 397.721 62.08 397.45 62.2326 397.401C62.8086 397.676 62.7397 398.238 63.4535 398.159C63.3994 398.425 63.6948 398.489 63.4535 398.666C63.4831 398.759 63.6751 398.725 63.6751 398.833C63.7538 399.04 64.0098 398.558 64.2314 398.833C64.3298 399.227 63.9409 398.715 63.8966 399.001C63.9458 399.163 64.2166 398.863 64.1182 399.252C64.384 399.286 64.0591 398.868 64.4529 399.001C64.8665 399.025 64.6302 399.537 65.2308 399.424C65.2505 399.719 64.8566 399.7 64.7877 399.931C64.8369 400.064 65.1372 400.005 65.0092 400.266C65.3489 400.295 65.2406 399.99 65.344 399.847C65.6985 400.005 65.3342 400.103 65.2308 400.354C65.472 400.423 65.8708 400.29 66.0086 400.606C66.176 400.571 65.9643 400.497 66.0086 400.354C66.6732 400.384 66.5009 401.049 66.8997 401.28C67.5298 401.226 68.1994 401.403 68.1255 401.871C68.288 401.674 68.4751 402.033 68.4603 401.703C68.9822 402.836 69.6025 403.21 70.9071 403.471C71.0203 403.387 71.1335 403.303 71.2418 403.22C71.5618 403.417 71.8277 403.397 72.1329 403.22C72.1526 403.318 72.3348 403.289 72.4677 403.303C72.2265 403.476 72.4825 403.574 72.5809 403.722C72.6695 403.648 72.8862 403.673 72.9157 403.554C73.3095 403.682 73.1569 403.865 73.5803 404.229C73.9298 404.244 73.9594 404.012 74.0234 403.81C74.5994 403.737 74.8258 403.934 75.0228 404.145C75.0818 404.126 75.1902 404.037 75.2148 403.968C75.1508 403.934 75.0868 403.909 75.0228 403.894C75.2049 403.86 75.2394 403.904 75.2148 403.968C75.6874 404.224 76.1846 404.967 76.8 404.736C76.9329 404.751 76.8935 404.889 76.9132 404.987C77.3809 404.711 77.9077 404.647 77.8043 404.145C78.1046 404.239 78.5723 404.308 78.4738 403.894C78.784 403.968 78.8431 404.234 78.9169 404.485C79.2418 404.17 79.3354 404.608 79.808 404.401C80.3938 405.863 82.2548 404.514 83.8105 405.159C83.968 405.13 83.8203 405.012 83.6972 404.992C84.1551 404.78 84.0566 405.484 84.5883 405.332C84.544 405.524 83.9385 405.287 84.1452 405.666C84.6769 405.696 84.2388 405.519 84.5883 405.415C85.3218 405.701 85.6123 406.479 85.9225 406.681C86.0062 406.607 85.9225 406.193 86.3655 406.174C86.4689 406.016 85.7305 406.124 86.144 406.006C86.1046 405.652 86.5477 406.06 86.8135 406.006C87.36 405.858 87.6948 405.553 87.8129 405.081C87.9902 405.164 88.2609 405.159 88.0345 405.332C88.3298 405.076 89.0585 404.706 89.0338 404.49C89.0437 404.283 89.4031 404.47 89.3686 404.574C89.536 404.505 89.5311 404.303 89.5902 404.155C90.0037 404.219 90.7766 403.998 90.5895 403.737C90.8406 403.791 91.1458 403.988 90.9243 404.155C91.0572 404.18 91.3083 403.914 91.0375 403.904C91.0375 403.707 91.3428 403.934 91.2591 404.071C91.4658 404.002 91.6677 403.929 91.9237 403.904C92.032 404.076 92.1502 404.239 92.2585 404.411C92.8788 404.199 93.3169 404.805 93.4794 404.244C93.824 404.288 93.9569 404.5 94.2572 404.578C94.4197 404.544 94.2129 404.47 94.2572 404.327C94.592 404.244 94.4542 404.514 94.4788 404.667C94.7692 404.692 94.7643 404.49 94.8135 404.327C94.9957 404.465 94.7643 404.642 95.0351 404.834C95.3255 404.859 95.1237 404.51 95.4782 404.583C95.4142 404.761 95.2025 404.825 95.2566 405.09C95.7735 405.002 95.5372 404.726 95.6997 404.5C96.1625 404.564 95.8277 404.706 96.0345 404.923C96.5563 404.839 96.8222 404.569 96.9255 404.165C96.6597 403.515 96.2117 404.337 96.2609 404.332C96.1822 404.342 95.936 403.727 95.9262 404.249C95.5422 404.086 96.064 403.914 96.0394 403.742C96.0345 404.101 96.9698 403.894 96.9305 403.49C97.2406 403.618 97.1815 404.032 97.6 404.081C97.5508 404.549 97.4671 404.672 97.9348 404.839C98.24 404.761 97.7378 404.544 98.048 404.416C98.1514 404.475 98.2154 404.569 98.2695 404.667C98.4369 404.332 98.7077 404.514 98.7126 404.16C98.8062 404.219 99.1311 404.652 99.1557 404.244C99.2935 404.283 99.3822 404.352 99.3772 404.495C99.8252 404.446 100.126 404.037 100.377 404.411C100.623 404.446 100.992 404.16 100.711 404.076C100.987 403.806 101.647 404.446 101.711 403.909C101.868 404.071 102.055 404.209 102.267 404.327C102.612 404.303 102.41 403.653 102.046 403.653C102.198 403.545 102.114 403.254 102.267 403.146C102.73 403.17 103.212 402.634 103.823 403.062C103.68 402.649 104.207 402.86 104.044 402.388C104.517 402.511 104.453 402.402 104.379 402.053C104.394 402.343 105.162 402.343 104.822 402.644C105.285 402.57 104.837 402.324 105.044 402.053H105.487C104.822 402.314 105.408 402.432 105.708 402.555C105.979 402.481 105.457 402.309 105.595 402.053C105.841 402.004 105.753 402.215 105.93 402.22C105.935 402.078 105.846 402.004 105.708 401.969C105.866 401.95 106.004 401.851 106.043 401.546C106.57 402.009 106.939 400.985 107.49 401.211C107.225 401.378 106.88 401.674 106.826 401.969C107.057 402.166 107.294 401.876 107.49 402.137C107.761 401.797 107.392 401.743 107.934 401.462C107.884 401.3 107.692 401.25 107.712 401.039C108.071 400.965 107.943 401.255 108.155 401.29C108.263 401.147 108.505 401.103 108.711 401.039C108.726 400.886 108.574 400.862 108.598 400.704C109.342 400.482 109.366 400.482 109.932 400.369C109.77 400.172 109.657 400.182 109.932 400.034C110.124 400.507 110.838 400.113 110.932 400.709C111.217 400.566 110.73 399.67 111.596 399.951C111.404 399.97 111.345 400.182 111.153 400.202C111.321 400.581 111.532 400.064 111.931 400.118C111.798 400.231 111.887 400.251 111.931 400.369C112.256 400.335 112.379 400.148 112.596 400.034C112.571 399.887 112.404 399.842 112.153 399.867C112.044 399.71 112.487 399.586 112.153 399.532C112.517 399.434 113.516 398.69 113.487 399.109C113.659 399.015 113.718 398.838 114.043 398.858C114.092 398.932 114.142 399.01 114.265 399.025C114.378 399.365 114.092 399.399 113.93 399.532C114.417 399.808 114.196 399.266 114.708 399.449C114.993 399.429 114.555 399.306 114.708 399.114C115.234 399.385 114.698 398.937 115.151 398.946C115.151 399.03 115.289 399.01 115.372 399.03C115.343 399.124 115.151 399.089 115.151 399.198C115.441 399.345 116.372 399.276 116.485 399.532C116.992 399.522 116.948 399.099 117.041 398.774C117.297 398.799 117.47 398.759 117.598 398.69C117.548 398.247 117.903 398.425 117.711 398.016C118.302 398.134 118.651 397.75 119.488 397.849C119.079 397.726 119.237 397.263 119.266 397.09C119.429 396.967 119.621 397.026 119.601 397.258C120.187 396.898 120.674 396.859 120.714 396.249C120.871 396.199 121.093 395.983 121.27 396.332C121.418 396.278 121.477 396.155 121.492 395.998C121.758 396.514 122.9 396.391 123.161 396.416C123.249 396.401 123.274 396.332 123.382 396.332C123.22 396.19 123.146 396.441 123.269 396.081C123.648 396.101 123.49 396.529 123.825 396.588C124.19 396.554 124.17 396.234 124.382 396.081C124.647 396.13 124.898 396.209 124.938 395.914C125.164 395.993 125.376 396.086 125.607 396.165C125.711 396.106 125.775 396.012 125.829 395.914C126.006 396.441 126.543 395.353 127.05 395.83C127.001 395.535 126.814 395.471 126.494 395.579C126.666 395.402 126.759 395.264 126.607 395.161C126.681 395.018 126.863 395.106 126.828 395.244C127.227 395.289 126.986 394.634 126.828 394.91C126.764 394.649 127.562 394.974 127.719 395.161C128.108 395.2 128.108 394.949 128.276 394.826C128.566 394.777 128.674 394.86 128.61 395.077C129.049 394.762 129.408 395.417 129.723 394.742C130.161 395.052 129.876 394.688 130.388 394.575C130.314 394.491 130.132 394.486 130.166 394.324C130.363 394.481 130.511 394.21 130.609 394.491C130.747 394.358 130.358 394.191 130.609 393.984C130.722 394.038 130.722 394.176 130.944 394.151C131.19 393.945 131.141 393.516 131.614 393.477C131.451 393.797 131.919 393.639 131.835 393.895C132.155 393.728 131.515 393.585 131.614 393.305C132.244 393.246 132.111 393.29 132.505 393.305C132.938 393.152 132.716 392.891 132.839 392.63C132.967 392.645 133.036 392.61 133.061 392.546C133.43 392.546 133.44 392.822 133.839 392.798C133.972 392.783 133.932 392.645 133.952 392.546C134.567 392.827 134.922 392.507 135.621 392.63C135.808 392.798 135.611 392.738 135.621 392.965C135.803 392.482 136.118 393.147 136.399 393.216C136.458 393.231 136.606 393.078 136.734 393.132C136.773 393.147 136.788 393.383 136.847 393.383C137.339 393.383 138.294 392.025 139.072 392.542C139.175 392.482 139.239 392.389 139.294 392.29C139.402 392.729 140.13 392.236 139.958 392.798C140.091 392.537 140.263 392.3 140.401 392.039C140.628 392.064 140.618 392.266 140.844 392.29C140.79 391.823 140.485 391.734 140.958 391.449C141.218 391.473 140.948 391.764 140.844 391.783C140.854 391.941 141.214 391.842 141.179 392.034C141.292 391.931 141.287 391.803 141.401 391.7C141.888 391.685 141.43 391.936 141.401 392.034C141.563 392.064 141.632 392.118 141.735 392.369C141.927 392.143 142.06 392.354 142.178 392.034C142.513 392.138 142.1 392.354 142.065 392.453C142.572 392.276 142.981 392.025 143.178 391.611C143.375 391.67 143.193 391.764 143.178 391.862C143.641 392.015 143.828 391.252 143.956 391.695C144.202 391.463 144.212 391.301 144.29 391.104C144.522 391.129 144.123 391.33 144.512 391.355C144.512 391.079 144.63 391.124 144.847 390.848C144.783 390.656 144.674 390.951 144.512 390.764C144.512 390.528 144.817 390.966 144.734 390.597C144.857 390.617 144.807 390.764 144.955 390.764C145.009 390.779 145.073 390.287 145.177 390.681C145.378 390.587 145.265 390.075 145.62 390.346C145.319 390.075 145.89 390.05 145.62 389.755C146.427 389.913 147.52 389.794 147.845 389.337C148.027 389.666 148.495 389.573 148.18 390.011C148.421 389.996 148.421 389.799 148.401 389.593C148.662 389.814 148.702 389.371 148.958 389.593C148.874 389.519 148.839 389.401 148.849 389.258C149.061 389.351 149.273 389.573 149.514 389.849C149.775 389.824 149.583 389.474 149.401 389.514C149.617 389.425 149.854 389.351 149.735 389.007C150.193 389.214 149.883 389.494 150.07 389.849C150.346 389.145 151.158 388.706 151.739 388.672C152.133 388.756 151.941 388.82 152.074 389.007C152.359 388.997 152.251 388.692 152.409 388.583C152.906 388.761 153.231 388.559 153.521 388.834C153.605 388.618 153.886 388.549 153.964 388.327C154.526 388.953 155.358 389.179 156.19 389.42C155.929 389.012 156.455 389.45 156.854 389.169C156.869 389.322 156.716 389.346 156.741 389.504C157.002 389.243 156.805 389.47 157.184 389.504C157.317 389.489 157.278 389.351 157.297 389.253C158.134 389.243 159.114 389.519 159.966 389.169C160.103 389.602 160.847 389.056 161.186 389.337C161.354 389.263 161.157 389.209 161.3 389.002C161.556 389.223 161.595 388.78 161.856 389.002C161.605 388.564 161.792 388.953 161.969 388.411C162.358 388.327 163.126 388.273 163.303 388.746C163.407 388.49 163.889 388.677 164.081 388.83C164.505 388.524 165.927 388.49 166.08 388.746C166.503 388.672 165.986 388.273 166.415 388.322C166.804 388.623 167.882 388.529 169.083 388.574C169.142 388.145 168.689 388.574 168.748 388.239C169.231 388.239 169.26 388.111 169.526 388.322C169.482 388.608 169.093 388.101 169.191 388.49C169.886 388.49 170.545 389.268 171.082 388.913C171.353 388.962 171.328 389.233 171.417 389.42C172.052 389.169 172.519 389.583 172.972 389.839C173.081 389.839 173.061 389.735 173.086 389.671C174.011 390.105 174.39 389.317 175.532 389.164C176.064 389.209 176.192 389.563 176.423 389.839C176.645 389.78 176.679 389.583 176.866 389.504C177.093 389.529 177.162 389.671 177.314 389.755C177.639 389.617 177.359 389.489 177.536 389.337C178.122 389.278 178.398 389.617 178.983 389.927C179.436 389.696 179.998 389.873 179.761 389.42C179.943 389.534 180.145 389.637 180.204 389.839C180.628 389.962 180.736 389.14 180.869 389.588C180.898 389.484 181.292 389.253 181.09 389.253C181.77 389.036 182.745 389.676 183.537 389.42C183.793 389.337 183.897 389.13 183.872 388.83C184.222 389.184 184.93 389.238 185.093 389.337C185.172 389.381 185.029 389.524 184.985 389.504C185.26 389.612 185.797 389.455 186.206 389.839C186.023 389.578 186.107 389.514 185.984 389.332C186.663 389.081 186.757 388.864 187.205 388.657C187.53 388.751 187.422 389.115 187.874 388.908C187.781 389.145 188.032 389.125 187.988 389.327C188.091 389.278 188.155 389.09 188.209 389.243C188.372 389.209 188.165 389.135 188.209 388.992C188.692 388.889 189.558 389.538 189.878 389.243C190.085 389.366 190.267 389.509 190.434 389.662C190.631 389.45 190.577 389.573 190.991 389.578C191.119 389.563 191.084 389.425 191.099 389.327C191.803 389.504 192.33 389.135 192.655 388.736C192.98 388.81 192.778 388.864 192.763 389.071C192.99 388.923 192.98 389.135 193.206 388.987C193.329 388.775 192.684 388.662 193.206 388.652C193.206 388.938 193.497 388.642 193.541 388.987C194.033 388.716 194.329 388.667 194.654 388.396C195.116 388.711 195.505 388.613 195.879 388.313C196.938 388.48 198.07 388.401 198.548 389.322C198.764 388.992 198.804 389.42 199.326 389.322C199.134 389.716 200.271 389.908 200.773 389.829C200.97 389.755 200.975 389.534 201.108 389.41C201.442 389.465 200.999 389.593 201.108 389.745C201.339 389.578 201.516 389.435 201.329 389.154C202.402 389.391 203.003 389.903 203.776 390.671C204.194 390.538 204.396 390.242 204.554 389.913C204.711 389.868 204.825 390.242 204.889 389.996C205.12 390.016 204.918 390.366 205.11 390.415C205.455 390.306 205.425 390.439 205.888 390.415C205.686 390.922 206.833 391.089 207.001 391.596C207.237 391.434 207.247 391.158 207.114 390.922C207.508 390.848 207.385 390.912 207.783 390.838C207.724 390.907 207.665 390.976 207.67 391.089C208.113 391.143 207.828 390.651 208.226 390.666C208.069 390.814 208.123 390.858 208.448 390.833C208.492 391.035 208.246 391.015 208.335 391.252C208.581 391.306 208.778 390.779 208.778 391.168C209.083 391.089 208.581 390.873 208.886 390.75C209.142 390.562 209.255 390.966 209.777 390.833C209.743 390.946 209.497 390.902 209.334 390.917C209.29 391.212 209.925 391.271 209.999 391.001C210.196 391.06 210.014 391.153 209.999 391.252C210.127 391.542 210.688 390.769 210.555 391.335C210.594 391.03 211.008 391.07 210.777 390.912C211.682 390.626 212.564 391.946 213.666 391.754C214.05 392.448 215.089 392.64 215.778 393.103C216.138 393.063 216.379 392.94 216.778 392.935C216.911 393.049 216.822 393.068 216.778 393.186C217.438 392.881 217.905 393.285 218.112 393.861C218.24 393.846 218.206 393.708 218.225 393.61C218.668 393.669 218.782 393.974 218.89 394.284C219.166 394.225 219.55 394.156 219.668 394.368C220.007 394.289 220.13 394.048 220.337 393.861C220.948 394.092 221.258 393.61 221.558 393.354C222.503 393.713 222.868 392.955 223.335 392.679C223.788 392.655 223.316 392.798 223.449 393.014C223.547 392.965 223.65 392.911 223.67 393.014C223.897 392.921 223.429 392.64 223.557 392.34C223.724 392.428 224.286 392.955 224.335 392.591C224.527 392.67 224.581 392.857 224.556 393.098C224.704 393.068 224.729 392.95 224.891 392.93C224.965 392.625 224.65 392.606 224.67 392.34C224.866 392.418 225.058 392.497 225.004 392.758C225.743 392.719 226.225 393.265 226.895 393.516C227.082 393.014 227.707 393.216 227.894 392.842C228.549 393.945 230.302 393.767 230.562 392.507C230.951 392.748 231.281 392.64 231.783 392.423C233.462 392.492 234.107 393.285 234.895 394.191C236.145 394.26 236.657 393.876 237.785 393.349V393.6C237.839 393.088 238.154 393.566 238.006 392.926C238.311 392.935 238.233 392.788 238.449 392.926C238.188 393.093 238.287 393.118 238.228 393.516C238.932 393.58 238.39 393.231 238.671 393.009C238.799 393.024 238.764 393.162 238.784 393.26C238.946 393.241 238.823 393.009 239.006 393.009C238.971 392.866 238.617 393.118 238.671 392.758C239.153 392.842 239.183 392.586 239.449 392.507C239.296 392.458 239.434 392.182 239.227 392.172C239.97 392.098 240.748 391.71 241.561 391.665C241.511 391.591 241.462 391.513 241.339 391.498C241.758 391.582 242.462 391.129 242.782 391.498C242.885 391.439 242.949 391.345 243.003 391.247C243.106 391.296 243.17 391.483 243.225 391.33C243.412 391.729 243.525 392.02 244.002 392.172C244.214 391.887 244.987 391.877 245.337 391.754C245.465 391.966 245.652 392.133 245.78 392.345C246.001 392.143 245.957 392.261 246.336 392.177C246.484 392.414 246.223 392.778 246.779 392.852C246.582 393.108 246.474 393.442 247.114 393.442C247.252 393.172 246.754 393.378 246.892 393.108C247.06 392.975 247.527 392.985 247.449 393.275C247.774 393.201 247.38 393.004 247.449 392.852C247.163 392.994 247.015 392.724 247.006 393.019C246.513 392.783 247.07 392.635 247.006 392.261C247.247 392.335 247.399 392.468 247.34 392.768C247.439 392.714 247.537 392.665 247.562 392.768C247.838 392.758 247.596 392.482 247.562 392.433C247.626 392.231 247.838 392.606 247.783 392.768C248.128 392.832 248 392.537 248.34 392.601C248.162 392.729 248.177 393.078 248.561 393.019C248.763 393.019 248.35 392.596 248.783 392.601C248.62 392.758 248.935 392.97 248.783 393.359C249.034 393.349 249.467 393.044 249.118 392.852C249.241 392.532 249.561 393.167 249.339 393.103C249.487 393.132 249.772 393.329 250.338 393.27C250.358 393.029 250.353 392.812 250.004 392.847C250.412 392.571 250.526 393.231 250.56 393.521C250.944 393.502 250.55 392.896 251.003 392.93C250.939 392.807 250.831 392.724 250.668 392.679C250.949 392.443 251.156 392.98 251.225 393.186C251.727 393.142 251.919 393.378 252.002 393.019C252.377 393.098 252.017 393.206 252.224 393.354C252.706 393.314 252.869 393.137 253.445 393.27C253.76 393.078 253.553 392.926 253.888 392.679C254.794 393.029 256.286 393.295 256.891 392.679C257.246 392.93 257.546 392.763 258.112 392.763C257.954 392.945 258.334 393.285 258.555 393.438C258.796 393.216 258.073 393.206 258.442 392.847C258.811 393.457 259.904 393.068 260.667 393.438C260.756 393.196 260.972 393.054 261.11 392.847C261.322 393.246 261.696 392.374 262.223 392.763C261.991 393.078 262.139 392.994 262.223 393.354C262.695 393.098 262.08 392.798 262.331 392.428C262.646 392.414 262.612 392.665 262.779 392.763C263.06 392.482 262.971 392.246 263.222 392.089C263.537 392.172 263.193 392.448 263.222 392.596C263.67 392.335 264.015 391.906 264.556 392.177C264.935 392.153 265.029 391.916 265.334 391.842C265.122 392.256 265.728 392.217 266.225 392.261C266.274 392.438 266.151 392.482 266.117 392.596C266.255 392.502 266.343 392.522 266.338 392.679C266.663 392.699 266.678 392.487 267.003 392.512C267.402 393.319 268.258 392.266 268.446 392.763C268.455 392.793 268.46 392.812 268.465 392.832C268.495 392.793 268.574 392.748 268.78 392.763C269.002 392.778 269.474 393.039 269.337 393.27C269.607 393.216 269.908 393.098 269.893 393.438C270.272 393.403 270.036 393.211 270.449 393.354C269.854 393.782 271.286 393.275 271.34 392.93C271.685 393.044 271.134 393.305 271.449 393.438C271.862 393.413 271.882 393.088 272.005 392.847C272.546 392.802 272.93 393.319 273.226 393.186C273.408 393.275 272.94 393.442 273.226 393.689C273.462 393.418 273.511 393.497 273.561 393.27C273.797 393.231 273.772 393.393 273.782 393.521C273.979 393.28 274.614 393.487 274.56 393.772C274.658 393.733 274.757 393.698 274.782 393.605C274.998 393.639 274.87 393.93 275.225 393.856C274.934 394.225 275.466 394.299 275.559 394.614C275.801 394.629 275.609 394.314 275.668 394.196C275.766 394.245 275.865 394.299 275.889 394.196C276.382 394.806 278.597 395.008 279.114 396.214C279.508 396.278 279.518 396.224 280.005 396.298C280.212 396.283 280.074 396.012 280.226 395.963C280.384 395.919 280.497 396.293 280.561 396.047C280.64 396.244 280.241 396.322 280.34 396.721C280.389 396.844 280.482 396.687 280.674 396.721C280.881 396.647 280.315 396.411 280.788 396.298C281.098 396.411 280.881 396.741 281.122 397.056C281.989 396.987 281.762 396.903 281.9 396.13C282.063 396.175 282.181 396.254 282.343 396.298C282.585 396.313 282.393 395.998 282.452 395.879C282.555 395.934 282.86 396.076 282.786 395.796C283.141 395.904 283.692 395.85 284.007 395.963C284.15 396.111 284.382 396.185 284.342 396.47C284.455 396.416 284.455 396.278 284.677 396.303C284.623 396.569 284.834 396.633 284.898 396.81C285.022 396.514 284.943 396.726 285.12 396.475C285.258 396.677 285.681 396.667 285.676 396.977C285.922 396.731 285.854 396.623 286.233 396.386C286.942 396.702 286.917 397.017 287.788 396.977C287.764 397.125 287.902 397.401 287.567 397.312C287.877 397.391 288.231 397.41 288.566 397.228C288.482 396.751 288.108 397.115 288.345 396.554C288.625 396.564 288.778 396.677 288.788 396.889C289.359 396.441 289.871 396.864 290.457 396.805C290.471 396.958 290.319 396.982 290.343 397.14C290.703 397.13 290.831 396.692 291.121 396.889C291.166 397.066 291.042 397.11 291.008 397.223C291.407 397.071 291.348 397.228 291.343 397.558C291.702 397.662 291.426 397.287 291.786 397.391C292.032 397.598 292.032 397.991 292.455 398.065C292.785 397.991 292.194 397.937 292.342 397.73C292.628 397.883 292.692 397.706 292.564 397.479C293.031 397.721 292.958 397.706 293.455 397.982C293.573 398.297 293.179 398.223 293.233 398.489C293.962 398.198 294.336 399.537 294.567 400.172C295.06 399.818 295.828 400.423 296.236 400.847C296.35 400.793 296.35 400.655 296.571 400.679C296.468 401.073 296.34 400.906 296.571 401.27C296.926 400.778 297.334 402.196 298.127 401.61C298.732 402.806 299.136 403.663 299.796 405.061C300.352 404.874 300.495 405.337 301.022 405.145C301.061 405.287 300.933 405.302 300.8 405.312C300.83 405.401 301.022 405.371 301.022 405.479C301.499 405.356 301.494 405.337 302.021 405.479C301.706 405.041 301.883 405.243 302.021 405.061C302.508 405.169 303.646 405.514 303.911 406.07C304.01 406.006 304.162 405.982 304.354 405.986C303.951 405.809 304.138 405.706 304.02 405.312C305.654 405.819 306.782 407.281 307.353 408.679C307.5 408.625 307.559 408.497 307.574 408.345C308.14 408.261 308.544 408.714 308.465 409.019C308.672 408.896 309.145 409.506 309.356 409.103C310.021 409.536 310.134 409.447 310.804 409.61C310.474 409.856 311.158 409.969 310.69 410.117C310.73 410.25 310.887 410.043 310.912 410.201C311.079 410.127 310.882 410.078 311.025 409.866C311.217 410.087 311.518 410.22 311.803 410.373C312.044 410.388 311.852 410.073 311.916 409.95C312.487 410.24 313.477 410.88 313.92 410.373C314.57 410.934 315.239 410.978 315.589 411.722C315.943 411.338 316.382 413.071 317.258 413.573C317.445 413.681 317.721 413.77 318.37 413.824C318.37 414.1 318.843 414.026 318.814 414.331C319.262 414.247 319.626 414.277 319.956 414.37V0.964923C319.956 0.433231 319.522 0 318.991 0H0.964923C0.433231 0 0 0.433231 0 0.964923V409.649C0.216615 409.654 0.482462 409.63 0.708923 409.694V409.698ZM141.75 391.252C141.721 391.424 141.337 391.33 141.307 391.503C141.184 391.483 141.233 391.335 141.086 391.335C141.1 391.148 141.558 391.301 141.75 391.252Z" fill="#F0F0F0"/>
<path d="M281.728 397.563C281.728 397.514 281.639 397.47 281.62 397.563C281.782 397.696 282.117 397.657 282.063 397.396C281.758 397.455 281.841 397.229 281.62 397.229C281.472 397.44 282.058 397.494 281.728 397.563V397.563Z" fill="#F0F0F0"/>
<path d="M277.169 395.963C277.169 395.795 277.474 395.854 277.391 395.623H276.948C276.918 395.815 276.972 395.938 277.169 395.963V395.963Z" fill="#F0F0F0"/>
<path d="M276.278 394.619C276.076 395.19 276.175 394.787 276.613 394.87C276.692 394.644 276.382 394.708 276.278 394.619Z" fill="#F0F0F0"/>
<path d="M280.394 396.387C280.069 396.165 279.975 396.628 279.503 396.554V396.805C279.862 396.786 279.887 396.933 280.059 397.224C280.084 397.16 280.059 397.056 280.167 397.056C280.172 397.106 280.182 397.155 280.281 397.14C280.192 396.781 280.295 396.795 280.167 396.466C280.256 396.446 280.389 396.466 280.389 396.382L280.394 396.387Z" fill="#F0F0F0"/>
<path d="M294.395 24.6152H25.6049C25.0584 24.6152 24.6154 25.0583 24.6154 25.6048V245.164C24.6154 245.711 25.0584 246.154 25.6049 246.154H294.395C294.942 246.154 295.385 245.711 295.385 245.164V25.6048C295.385 25.0583 294.942 24.6152 294.395 24.6152Z" fill="#434343"/>
<path d="M47.9691 263.887V287.688H43.2091V274.387L37.0141 284.187H34.1441V284.152L27.8791 274.247L27.9491 287.688H23.1891V263.887H26.5491L35.5791 278.307L44.6091 263.887H47.9691ZM52.8571 263.887H57.6171V287.688H52.8571V263.887ZM71.805 263.467C72.9016 263.467 73.9516 263.596 74.955 263.852C75.9816 264.086 76.985 264.471 77.965 265.007C78.9683 265.544 79.785 266.337 80.415 267.387C81.0683 268.437 81.465 269.686 81.605 271.132H76.88C76.53 268.752 74.955 267.562 72.155 267.562C70.825 267.562 69.7633 267.819 68.97 268.332C68.2 268.846 67.815 269.581 67.815 270.537C67.815 271.354 68.095 271.984 68.655 272.427C69.2383 272.871 70.1366 273.209 71.35 273.442L74.15 274.002C76.6 274.492 78.4316 275.251 79.645 276.277C80.8583 277.304 81.465 278.762 81.465 280.652C81.465 282.916 80.6133 284.724 78.91 286.077C77.2066 287.431 74.955 288.108 72.155 288.108C69.1916 288.108 66.765 287.372 64.875 285.902C63.0083 284.409 61.9933 282.391 61.83 279.847H66.555C66.7416 281.084 67.36 282.064 68.41 282.787C69.46 283.511 70.8016 283.872 72.435 283.872C73.7416 283.872 74.7566 283.651 75.48 283.207C76.2033 282.741 76.565 282.087 76.565 281.247C76.565 279.894 75.515 279.031 73.415 278.657L69.565 277.922C65.0383 277.059 62.775 274.737 62.775 270.957C62.775 268.694 63.5916 266.886 65.225 265.532C66.8816 264.156 69.075 263.467 71.805 263.467ZM94.1927 263.467C95.2893 263.467 96.3393 263.596 97.3427 263.852C98.3693 264.086 99.3727 264.471 100.353 265.007C101.356 265.544 102.173 266.337 102.803 267.387C103.456 268.437 103.853 269.686 103.993 271.132H99.2677C98.9177 268.752 97.3427 267.562 94.5427 267.562C93.2127 267.562 92.151 267.819 91.3577 268.332C90.5877 268.846 90.2027 269.581 90.2027 270.537C90.2027 271.354 90.4827 271.984 91.0427 272.427C91.626 272.871 92.5243 273.209 93.7377 273.442L96.5377 274.002C98.9877 274.492 100.819 275.251 102.033 276.277C103.246 277.304 103.853 278.762 103.853 280.652C103.853 282.916 103.001 284.724 101.298 286.077C99.5943 287.431 97.3427 288.108 94.5427 288.108C91.5793 288.108 89.1527 287.372 87.2627 285.902C85.396 284.409 84.381 282.391 84.2177 279.847H88.9427C89.1293 281.084 89.7477 282.064 90.7977 282.787C91.8477 283.511 93.1893 283.872 94.8227 283.872C96.1293 283.872 97.1443 283.651 97.8677 283.207C98.591 282.741 98.9527 282.087 98.9527 281.247C98.9527 279.894 97.9027 279.031 95.8027 278.657L91.9527 277.922C87.426 277.059 85.1627 274.737 85.1627 270.957C85.1627 268.694 85.9793 266.886 87.6127 265.532C89.2693 264.156 91.4627 263.467 94.1927 263.467ZM108.194 263.887H112.954V287.688H108.194V263.887ZM134.422 263.887H139.182V287.688H135.507L122.627 272.742V287.688H117.867V263.887H121.402L134.422 279.252V263.887ZM155.528 274.457H167.918V287.688H164.208L163.893 284.257C162.119 286.824 159.448 288.108 155.878 288.108C152.331 288.108 149.379 286.941 147.023 284.607C144.666 282.274 143.488 279.451 143.488 276.137C143.488 272.427 144.689 269.394 147.093 267.037C149.519 264.657 152.506 263.467 156.053 263.467C158.783 263.467 161.221 264.214 163.368 265.707C165.514 267.177 166.938 269.336 167.638 272.182H162.528C162.131 271.086 161.536 270.211 160.743 269.557C159.973 268.881 159.214 268.437 158.468 268.227C157.721 268.017 156.939 267.913 156.123 267.913C153.836 267.913 151.958 268.659 150.488 270.152C149.041 271.646 148.318 273.641 148.318 276.137C148.318 278.191 149.018 279.964 150.418 281.457C151.818 282.927 153.638 283.662 155.878 283.662C157.558 283.662 158.969 283.231 160.113 282.367C161.279 281.481 162.108 280.314 162.598 278.867H155.528V274.457ZM199.772 263.887V268.297H191.687V287.688H186.927V268.297H178.842V263.887H199.772ZM204.104 267.072C206.531 264.669 209.459 263.467 212.889 263.467C216.319 263.467 219.236 264.669 221.639 267.072C224.066 269.452 225.279 272.357 225.279 275.787C225.279 279.217 224.066 282.134 221.639 284.537C219.236 286.917 216.319 288.108 212.889 288.108C209.459 288.108 206.531 286.917 204.104 284.537C201.701 282.134 200.499 279.217 200.499 275.787C200.499 272.357 201.701 269.452 204.104 267.072ZM207.499 281.387C208.946 282.904 210.743 283.662 212.889 283.662C215.036 283.662 216.833 282.904 218.279 281.387C219.726 279.847 220.449 277.981 220.449 275.787C220.449 273.594 219.726 271.739 218.279 270.222C216.833 268.682 215.036 267.913 212.889 267.913C210.743 267.913 208.946 268.682 207.499 270.222C206.053 271.739 205.329 273.594 205.329 275.787C205.329 277.981 206.053 279.847 207.499 281.387ZM245.63 287.688L238.245 277.922L234.36 282.297V287.688H229.6V263.887H234.36V275.822L245.035 263.887H250.74L241.43 274.352L251.72 287.688H245.63ZM271.675 268.297H258.935V273.757H270.275V278.167H258.935V283.277H271.675V287.688H254.175V263.887H271.675V268.297ZM292.161 263.887H296.921V287.688H293.246L280.366 272.742V287.688H275.606V263.887H279.141L292.161 279.252V263.887Z" fill="#434343"/>
<path d="M47.9691 263.887H48.4691V263.387H47.9691V263.887ZM47.9691 287.688V288.188H48.4691V287.688H47.9691ZM43.2091 287.688H42.7091V288.188H43.2091V287.688ZM43.2091 274.387H43.7091V272.661L42.7865 274.12L43.2091 274.387ZM37.0141 284.188V284.688H37.2896L37.4368 284.455L37.0141 284.188ZM34.1441 284.188H33.6441V284.688H34.1441V284.188ZM34.1441 284.153H34.6441V284.008L34.5667 283.885L34.1441 284.153ZM27.8791 274.247L28.3017 273.98L27.3701 272.507L27.3791 274.25L27.8791 274.247ZM27.9491 287.688V288.188H28.4517L28.4491 287.685L27.9491 287.688ZM23.1891 287.688H22.6891V288.188H23.1891V287.688ZM23.1891 263.887V263.387H22.6891V263.887H23.1891ZM26.5491 263.887L26.9729 263.622L26.826 263.387H26.5491V263.887ZM35.5791 278.307L35.1554 278.573L35.5791 279.25L36.0029 278.573L35.5791 278.307ZM44.6091 263.887V263.387H44.3323L44.1854 263.622L44.6091 263.887ZM47.4691 263.887V287.688H48.4691V263.887H47.4691ZM47.9691 287.188H43.2091V288.188H47.9691V287.188ZM43.7091 287.688V274.387H42.7091V287.688H43.7091ZM42.7865 274.12L36.5915 283.92L37.4368 284.455L43.6318 274.655L42.7865 274.12ZM37.0141 283.688H34.1441V284.688H37.0141V283.688ZM34.6441 284.188V284.153H33.6441V284.188H34.6441ZM34.5667 283.885L28.3017 273.98L27.4566 274.515L33.7216 284.42L34.5667 283.885ZM27.3791 274.25L27.4491 287.69L28.4491 287.685L28.3791 274.245L27.3791 274.25ZM27.9491 287.188H23.1891V288.188H27.9491V287.188ZM23.6891 287.688V263.887H22.6891V287.688H23.6891ZM23.1891 264.387H26.5491V263.387H23.1891V264.387ZM26.1254 264.153L35.1554 278.573L36.0029 278.042L26.9729 263.622L26.1254 264.153ZM36.0029 278.573L45.0329 264.153L44.1854 263.622L35.1554 278.042L36.0029 278.573ZM44.6091 264.387H47.9691V263.387H44.6091V264.387ZM52.8571 263.887V263.387H52.3571V263.887H52.8571ZM57.6171 263.887H58.1171V263.387H57.6171V263.887ZM57.6171 287.688V288.188H58.1171V287.688H57.6171ZM52.8571 287.688H52.3571V288.188H52.8571V287.688ZM52.8571 264.387H57.6171V263.387H52.8571V264.387ZM57.1171 263.887V287.688H58.1171V263.887H57.1171ZM57.6171 287.188H52.8571V288.188H57.6171V287.188ZM53.3571 287.688V263.887H52.3571V287.688H53.3571ZM74.955 263.852L74.831 264.337L74.8441 264.34L74.955 263.852ZM77.965 265.007L77.7248 265.446L77.7291 265.448L77.965 265.007ZM80.415 267.387L79.9862 267.645L79.9904 267.652L80.415 267.387ZM81.605 271.132V271.632H82.1557L82.1026 271.084L81.605 271.132ZM76.88 271.132L76.3853 271.205L76.4481 271.632H76.88V271.132ZM68.97 268.332L68.6983 267.913L68.6926 267.916L68.97 268.332ZM68.655 272.427L68.3445 272.82L68.3524 272.826L68.655 272.427ZM71.35 273.443L71.448 272.952L71.4444 272.951L71.35 273.443ZM74.15 274.002L74.248 273.512H74.248L74.15 274.002ZM78.91 286.077L79.221 286.469L78.91 286.077ZM64.875 285.903L64.5626 286.293L64.568 286.297L64.875 285.903ZM61.83 279.847V279.347H61.2968L61.331 279.88L61.83 279.847ZM66.555 279.847L67.0494 279.773L66.9851 279.347H66.555V279.847ZM68.41 282.788L68.1263 283.199L68.41 282.788ZM75.48 283.208L75.7413 283.634L75.751 283.628L75.48 283.208ZM73.415 278.657L73.3212 279.149L73.3274 279.15L73.415 278.657ZM69.565 277.922L69.6587 277.431L69.6586 277.431L69.565 277.922ZM65.225 265.532L65.544 265.918L65.5445 265.917L65.225 265.532ZM71.805 263.967C72.8623 263.967 73.8705 264.091 74.831 264.337L75.0789 263.368C74.0327 263.1 72.941 262.967 71.805 262.967V263.967ZM74.8441 264.34C75.823 264.563 76.7829 264.93 77.7248 265.446L78.2051 264.569C77.187 264.011 76.1403 263.609 75.0658 263.365L74.8441 264.34ZM77.7291 265.448C78.6467 265.939 79.3991 266.666 79.9862 267.645L80.8437 267.13C80.1709 266.009 79.2899 265.149 78.2008 264.567L77.7291 265.448ZM79.9904 267.652C80.5965 268.626 80.9734 269.797 81.1073 271.181L82.1026 271.084C81.9565 269.574 81.5401 268.249 80.8395 267.123L79.9904 267.652ZM81.605 270.632H76.88V271.632H81.605V270.632ZM77.3746 271.06C77.185 269.77 76.6519 268.747 75.7376 268.056C74.8336 267.373 73.6195 267.062 72.155 267.062V268.062C73.4904 268.062 74.4638 268.347 75.1348 268.854C75.7955 269.353 76.2249 270.115 76.3853 271.205L77.3746 271.06ZM72.155 267.062C70.7662 267.062 69.5993 267.33 68.6983 267.913L69.2416 268.752C69.9273 268.309 70.8837 268.062 72.155 268.062V267.062ZM68.6926 267.916C67.778 268.526 67.315 269.42 67.315 270.537H68.315C68.315 269.741 68.6219 269.165 69.2473 268.749L68.6926 267.916ZM67.315 270.537C67.315 271.482 67.6467 272.267 68.3446 272.82L68.9653 272.035C68.5433 271.701 68.315 271.226 68.315 270.537H67.315ZM68.3524 272.826C69.0254 273.337 70.0119 273.694 71.2555 273.934L71.4444 272.951C70.2614 272.724 69.4511 272.405 68.9575 272.029L68.3524 272.826ZM71.2519 273.933L74.0519 274.493L74.248 273.512L71.448 272.952L71.2519 273.933ZM74.0519 274.493C76.4619 274.975 78.2 275.71 79.322 276.659L79.9679 275.896C78.6633 274.792 76.738 274.01 74.248 273.512L74.0519 274.493ZM79.322 276.659C80.4016 277.573 80.965 278.879 80.965 280.653H81.965C81.965 278.646 81.315 277.036 79.9679 275.896L79.322 276.659ZM80.965 280.653C80.965 282.77 80.1774 284.432 78.5989 285.686L79.221 286.469C81.0492 285.016 81.965 283.061 81.965 280.653H80.965ZM78.5989 285.686C77.0067 286.951 74.8748 287.608 72.155 287.608V288.608C75.0351 288.608 77.4065 287.911 79.221 286.469L78.5989 285.686ZM72.155 287.608C69.2758 287.608 66.965 286.895 65.1819 285.508L64.568 286.297C66.5649 287.85 69.1075 288.608 72.155 288.608V287.608ZM65.1873 285.512C63.4384 284.113 62.4839 282.229 62.3289 279.815L61.331 279.88C61.5027 282.553 62.5782 284.705 64.5626 286.293L65.1873 285.512ZM61.83 280.347H66.555V279.347H61.83V280.347ZM66.0606 279.922C66.2683 281.298 66.965 282.399 68.1263 283.199L68.6936 282.376C67.7549 281.729 67.2149 280.87 67.0494 279.773L66.0606 279.922ZM68.1263 283.199C69.2804 283.994 70.7287 284.372 72.435 284.372V283.372C70.8745 283.372 69.6395 283.027 68.6936 282.376L68.1263 283.199ZM72.435 284.372C73.788 284.372 74.9077 284.145 75.7412 283.634L75.2187 282.781C74.6056 283.157 73.6953 283.372 72.435 283.372V284.372ZM75.751 283.628C76.6128 283.072 77.065 282.262 77.065 281.247H76.065C76.065 281.913 75.7938 282.41 75.2089 282.787L75.751 283.628ZM77.065 281.247C77.065 280.421 76.7349 279.725 76.095 279.199C75.4763 278.69 74.5933 278.359 73.5025 278.165L73.3274 279.15C74.3366 279.329 75.0286 279.617 75.4599 279.971C75.87 280.308 76.065 280.721 76.065 281.247H77.065ZM73.5087 278.166L69.6587 277.431L69.4712 278.414L73.3212 279.149L73.5087 278.166ZM69.6586 277.431C67.4551 277.011 65.8663 276.247 64.8305 275.185C63.8049 274.133 63.275 272.74 63.275 270.957H62.275C62.275 272.955 62.8767 274.613 64.1144 275.883C65.3419 277.142 67.1481 277.971 69.4713 278.414L69.6586 277.431ZM63.275 270.957C63.275 268.832 64.0338 267.169 65.544 265.918L64.9059 265.147C63.1495 266.603 62.275 268.557 62.275 270.957H63.275ZM65.5445 265.917C67.0896 264.633 69.1597 263.967 71.805 263.967V262.967C68.9902 262.967 66.6737 263.679 64.9054 265.148L65.5445 265.917ZM97.3427 263.852L97.2187 264.337L97.2318 264.34L97.3427 263.852ZM100.353 265.007L100.112 265.446L100.117 265.448L100.353 265.007ZM102.803 267.387L102.374 267.645L102.378 267.652L102.803 267.387ZM103.993 271.132V271.632H104.543L104.49 271.084L103.993 271.132ZM99.2677 271.132L98.773 271.205L98.8358 271.632H99.2677V271.132ZM91.3577 268.332L91.086 267.913L91.0803 267.916L91.3577 268.332ZM91.0426 272.427L90.7322 272.82L90.7401 272.826L91.0426 272.427ZM93.7377 273.443L93.8357 272.952L93.8321 272.951L93.7377 273.443ZM96.5377 274.002L96.6357 273.512L96.5377 274.002ZM101.298 286.077L101.609 286.469L101.298 286.077ZM87.2626 285.903L86.9503 286.293L86.9557 286.297L87.2626 285.903ZM84.2177 279.847V279.347H83.6845L83.7187 279.88L84.2177 279.847ZM88.9426 279.847L89.437 279.773L89.3728 279.347H88.9426V279.847ZM90.7977 282.788L90.514 283.199L90.7977 282.788ZM97.8677 283.208L98.129 283.634L98.1387 283.628L97.8677 283.208ZM95.8027 278.657L95.7089 279.149L95.7151 279.15L95.8027 278.657ZM91.9527 277.922L92.0464 277.431L92.0463 277.431L91.9527 277.922ZM87.6126 265.532L87.9317 265.918L87.9322 265.917L87.6126 265.532ZM94.1926 263.967C95.25 263.967 96.2582 264.091 97.2187 264.337L97.4666 263.368C96.4204 263.1 95.3287 262.967 94.1926 262.967V263.967ZM97.2318 264.34C98.2106 264.563 99.1706 264.93 100.112 265.446L100.593 264.569C99.5747 264.011 98.528 263.609 97.4535 263.365L97.2318 264.34ZM100.117 265.448C101.034 265.939 101.787 266.666 102.374 267.645L103.231 267.13C102.559 266.009 101.678 265.149 100.588 264.567L100.117 265.448ZM102.378 267.652C102.984 268.626 103.361 269.797 103.495 271.181L104.49 271.084C104.344 269.574 103.928 268.249 103.227 267.123L102.378 267.652ZM103.993 270.632H99.2677V271.632H103.993V270.632ZM99.7623 271.06C99.5727 269.77 99.0396 268.747 98.1253 268.056C97.2213 267.373 96.0072 267.062 94.5427 267.062V268.062C95.8781 268.062 96.8515 268.347 97.5225 268.854C98.1832 269.353 98.6126 270.115 98.773 271.205L99.7623 271.06ZM94.5427 267.062C93.1539 267.062 91.987 267.33 91.086 267.913L91.6293 268.752C92.315 268.309 93.2714 268.062 94.5427 268.062V267.062ZM91.0803 267.916C90.1657 268.526 89.7027 269.42 89.7027 270.537H90.7027C90.7027 269.741 91.0096 269.165 91.635 268.749L91.0803 267.916ZM89.7027 270.537C89.7027 271.482 90.0344 272.267 90.7323 272.82L91.353 272.035C90.9309 271.701 90.7027 271.226 90.7027 270.537H89.7027ZM90.7401 272.826C91.4131 273.337 92.3996 273.694 93.6432 273.934L93.8321 272.951C92.6491 272.724 91.8388 272.405 91.3452 272.029L90.7401 272.826ZM93.6396 273.933L96.4396 274.493L96.6357 273.512L93.8357 272.952L93.6396 273.933ZM96.4396 274.493C98.8496 274.975 100.588 275.71 101.71 276.659L102.356 275.896C101.051 274.792 99.1257 274.01 96.6357 273.512L96.4396 274.493ZM101.71 276.659C102.789 277.573 103.353 278.879 103.353 280.653H104.353C104.353 278.646 103.703 277.036 102.356 275.896L101.71 276.659ZM103.353 280.653C103.353 282.77 102.565 284.432 100.987 285.686L101.609 286.469C103.437 285.016 104.353 283.061 104.353 280.653H103.353ZM100.987 285.686C99.3944 286.951 97.2625 287.608 94.5427 287.608V288.608C97.4228 288.608 99.7942 287.911 101.609 286.469L100.987 285.686ZM94.5427 287.608C91.6635 287.608 89.3527 286.895 87.5696 285.508L86.9557 286.297C88.9526 287.85 91.4952 288.608 94.5427 288.608V287.608ZM87.575 285.512C85.8261 284.113 84.8716 282.229 84.7166 279.815L83.7187 279.88C83.8904 282.553 84.9659 284.705 86.9503 286.293L87.575 285.512ZM84.2177 280.347H88.9426V279.347H84.2177V280.347ZM88.4482 279.922C88.656 281.298 89.3527 282.399 90.514 283.199L91.0813 282.376C90.1426 281.729 89.6026 280.87 89.437 279.773L88.4482 279.922ZM90.514 283.199C91.6681 283.994 93.1164 284.372 94.8227 284.372V283.372C93.2622 283.372 92.0272 283.027 91.0813 282.376L90.514 283.199ZM94.8227 284.372C96.1757 284.372 97.2954 284.145 98.1289 283.634L97.6064 282.781C96.9933 283.157 96.083 283.372 94.8227 283.372V284.372ZM98.1387 283.628C99.0005 283.072 99.4527 282.262 99.4527 281.247H98.4527C98.4527 281.913 98.1815 282.41 97.5966 282.787L98.1387 283.628ZM99.4527 281.247C99.4527 280.421 99.1226 279.725 98.4827 279.199C97.864 278.69 96.981 278.359 95.8902 278.165L95.7151 279.15C96.7243 279.329 97.4163 279.617 97.8476 279.971C98.2577 280.308 98.4527 280.721 98.4527 281.247H99.4527ZM95.8964 278.166L92.0464 277.431L91.8589 278.414L95.7089 279.149L95.8964 278.166ZM92.0463 277.431C89.8428 277.011 88.254 276.247 87.2182 275.185C86.1926 274.133 85.6627 272.74 85.6627 270.957H84.6627C84.6627 272.955 85.2644 274.613 86.5021 275.883C87.7296 277.142 89.5358 277.971 91.859 278.414L92.0463 277.431ZM85.6627 270.957C85.6627 268.832 86.4215 267.169 87.9317 265.918L87.2936 265.147C85.5372 266.603 84.6627 268.557 84.6627 270.957H85.6627ZM87.9322 265.917C89.4773 264.633 91.5474 263.967 94.1926 263.967V262.967C91.3779 262.967 89.0614 263.679 87.2931 265.148L87.9322 265.917ZM108.194 263.887V263.387H107.694V263.887H108.194ZM112.954 263.887H113.454V263.387H112.954V263.887ZM112.954 287.688V288.188H113.454V287.688H112.954ZM108.194 287.688H107.694V288.188H108.194V287.688ZM108.194 264.387H112.954V263.387H108.194V264.387ZM112.454 263.887V287.688H113.454V263.887H112.454ZM112.954 287.188H108.194V288.188H112.954V287.188ZM108.694 287.688V263.887H107.694V287.688H108.694ZM134.422 263.887V263.387H133.922V263.887H134.422ZM139.182 263.887H139.682V263.387H139.182V263.887ZM139.182 287.688V288.188H139.682V287.688H139.182ZM135.507 287.688L135.128 288.014L135.278 288.188H135.507V287.688ZM122.627 272.742L123.006 272.416L122.127 271.396V272.742H122.627ZM122.627 287.688V288.188H123.127V287.688H122.627ZM117.867 287.688H117.367V288.188H117.867V287.688ZM117.867 263.887V263.387H117.367V263.887H117.867ZM121.402 263.887L121.783 263.564L121.634 263.387H121.402V263.887ZM134.422 279.253L134.04 279.576L134.922 280.616V279.253H134.422ZM134.422 264.387H139.182V263.387H134.422V264.387ZM138.682 263.887V287.688H139.682V263.887H138.682ZM139.182 287.188H135.507V288.188H139.182V287.188ZM135.886 287.361L123.006 272.416L122.248 273.069L135.128 288.014L135.886 287.361ZM122.127 272.742V287.688H123.127V272.742H122.127ZM122.627 287.188H117.867V288.188H122.627V287.188ZM118.367 287.688V263.887H117.367V287.688H118.367ZM117.867 264.387H121.402V263.387H117.867V264.387ZM121.02 264.211L134.04 279.576L134.803 278.929L121.783 263.564L121.02 264.211ZM134.922 279.253V263.887H133.922V279.253H134.922ZM155.528 274.457V273.957H155.028V274.457H155.528ZM167.918 274.457H168.418V273.957H167.918V274.457ZM167.918 287.688V288.188H168.418V287.688H167.918ZM164.208 287.688L163.71 287.733L163.752 288.188H164.208V287.688ZM163.893 284.257L164.391 284.212L164.265 282.84L163.481 283.973L163.893 284.257ZM147.023 284.608L147.374 284.252L147.023 284.608ZM147.093 267.037L147.443 267.395L147.443 267.394L147.093 267.037ZM163.368 265.707L163.082 266.118L163.085 266.12L163.368 265.707ZM167.638 272.182V272.682H168.276L168.123 272.063L167.638 272.182ZM162.528 272.182L162.057 272.353L162.177 272.682H162.528V272.182ZM160.743 269.557L160.413 269.933L160.419 269.938L160.425 269.943L160.743 269.557ZM158.468 268.227L158.603 267.746V267.746L158.468 268.227ZM150.488 270.152L150.131 269.802L150.129 269.805L150.488 270.152ZM150.418 281.458L150.053 281.799L150.056 281.802L150.418 281.458ZM160.113 282.368L160.414 282.767L160.415 282.766L160.113 282.368ZM162.598 278.868L163.071 279.028L163.295 278.368H162.598V278.868ZM155.528 278.868H155.028V279.368H155.528V278.868ZM155.528 274.957H167.918V273.957H155.528V274.957ZM167.418 274.457V287.688H168.418V274.457H167.418ZM167.918 287.188H164.208V288.188H167.918V287.188ZM164.706 287.642L164.391 284.212L163.395 284.303L163.71 287.733L164.706 287.642ZM163.481 283.973C161.816 286.384 159.311 287.608 155.878 287.608V288.608C159.584 288.608 162.423 287.265 164.304 284.542L163.481 283.973ZM155.878 287.608C152.453 287.608 149.631 286.486 147.374 284.252L146.671 284.963C149.128 287.396 152.209 288.608 155.878 288.608V287.608ZM147.374 284.252C145.113 282.013 143.988 279.317 143.988 276.137H142.988C142.988 279.584 144.219 282.536 146.671 284.963L147.374 284.252ZM143.988 276.137C143.988 272.547 145.146 269.647 147.443 267.395L146.743 266.68C144.233 269.141 142.988 272.308 142.988 276.137H143.988ZM147.443 267.394C149.772 265.11 152.631 263.967 156.053 263.967V262.967C152.381 262.967 149.267 264.205 146.743 266.681L147.443 267.394ZM156.053 263.967C158.685 263.967 161.023 264.686 163.082 266.118L163.653 265.297C161.419 263.743 158.88 262.967 156.053 262.967V263.967ZM163.085 266.12C165.117 267.512 166.478 269.558 167.152 272.302L168.123 272.063C167.398 269.113 165.911 266.843 163.65 265.295L163.085 266.12ZM167.638 271.682H162.528V272.682H167.638V271.682ZM162.998 272.012C162.575 270.843 161.932 269.889 161.061 269.172L160.425 269.943C161.14 270.532 161.687 271.329 162.057 272.353L162.998 272.012ZM161.073 269.182C160.264 268.471 159.441 267.982 158.603 267.746L158.332 268.709C158.988 268.893 159.682 269.291 160.413 269.933L161.073 269.182ZM158.603 267.746C157.81 267.523 156.983 267.413 156.123 267.413V268.413C156.896 268.413 157.632 268.512 158.332 268.709L158.603 267.746ZM156.123 267.413C153.716 267.413 151.704 268.204 150.131 269.802L150.844 270.503C152.211 269.115 153.956 268.413 156.123 268.413V267.413ZM150.129 269.805C148.574 271.409 147.818 273.539 147.818 276.137H148.818C148.818 273.743 149.508 271.882 150.847 270.5L150.129 269.805ZM147.818 276.137C147.818 278.317 148.566 280.213 150.053 281.799L150.782 281.116C149.47 279.715 148.818 278.064 148.818 276.137H147.818ZM150.056 281.802C151.56 283.382 153.517 284.163 155.878 284.163V283.163C153.759 283.163 152.075 282.473 150.78 281.113L150.056 281.802ZM155.878 284.163C157.647 284.163 159.17 283.706 160.414 282.767L159.811 281.968C158.769 282.755 157.468 283.163 155.878 283.163V284.163ZM160.415 282.766C161.665 281.816 162.551 280.565 163.071 279.028L162.124 278.707C161.665 280.063 160.894 281.146 159.81 281.969L160.415 282.766ZM162.598 278.368H155.528V279.368H162.598V278.368ZM156.028 278.868V274.457H155.028V278.868H156.028ZM199.772 263.887H200.272V263.387H199.772V263.887ZM199.772 268.297V268.797H200.272V268.297H199.772ZM191.687 268.297V267.797H191.187V268.297H191.687ZM191.687 287.688V288.188H192.187V287.688H191.687ZM186.927 287.688H186.427V288.188H186.927V287.688ZM186.927 268.297H187.427V267.797H186.927V268.297ZM178.842 268.297H178.342V268.797H178.842V268.297ZM178.842 263.887V263.387H178.342V263.887H178.842ZM199.272 263.887V268.297H200.272V263.887H199.272ZM199.772 267.797H191.687V268.797H199.772V267.797ZM191.187 268.297V287.688H192.187V268.297H191.187ZM191.687 287.188H186.927V288.188H191.687V287.188ZM187.427 287.688V268.297H186.427V287.688H187.427ZM186.927 267.797H178.842V268.797H186.927V267.797ZM179.342 268.297V263.887H178.342V268.297H179.342ZM178.842 264.387H199.772V263.387H178.842V264.387ZM204.104 267.072L204.456 267.428L204.456 267.428L204.104 267.072ZM221.639 267.072L221.286 267.426L221.289 267.429L221.639 267.072ZM221.639 284.538L221.991 284.893L221.991 284.893L221.639 284.538ZM204.104 284.538L203.751 284.891L203.754 284.894L204.104 284.538ZM207.499 281.387L207.135 281.73L207.138 281.733L207.499 281.387ZM218.279 281.387L218.641 281.733L218.644 281.73L218.279 281.387ZM218.279 270.222L217.915 270.565L217.918 270.568L218.279 270.222ZM207.499 270.222L207.861 270.568L207.864 270.565L207.499 270.222ZM204.456 267.428C206.789 265.118 209.591 263.967 212.889 263.967V262.967C209.328 262.967 206.273 264.221 203.753 266.717L204.456 267.428ZM212.889 263.967C216.188 263.967 218.977 265.117 221.286 267.426L221.993 266.719C219.495 264.221 216.451 262.967 212.889 262.967V263.967ZM221.289 267.429C223.619 269.714 224.779 272.49 224.779 275.788H225.779C225.779 272.225 224.513 269.191 221.99 266.716L221.289 267.429ZM224.779 275.788C224.779 279.085 223.619 281.873 221.288 284.182L221.991 284.893C224.513 282.395 225.779 279.35 225.779 275.788H224.779ZM221.288 284.182C218.979 286.468 216.19 287.608 212.889 287.608V288.608C216.449 288.608 219.493 287.367 221.991 284.893L221.288 284.182ZM212.889 287.608C209.589 287.608 206.787 286.468 204.455 284.181L203.754 284.894C206.275 287.367 209.33 288.608 212.889 288.608V287.608ZM204.458 284.184C202.149 281.875 200.999 279.086 200.999 275.788H199.999C199.999 279.349 201.253 282.393 203.751 284.891L204.458 284.184ZM200.999 275.788C200.999 272.489 202.149 269.712 204.456 267.428L203.753 266.717C201.253 269.193 199.999 272.226 199.999 275.788H200.999ZM207.138 281.733C208.681 283.351 210.61 284.163 212.889 284.163V283.163C210.876 283.163 209.211 282.457 207.861 281.042L207.138 281.733ZM212.889 284.163C215.169 284.163 217.098 283.351 218.641 281.733L217.918 281.042C216.568 282.457 214.903 283.163 212.889 283.163V284.163ZM218.644 281.73C220.181 280.093 220.949 278.103 220.949 275.788H219.949C219.949 277.859 219.271 279.602 217.915 281.045L218.644 281.73ZM220.949 275.788C220.949 273.472 220.181 271.492 218.641 269.877L217.918 270.568C219.271 271.987 219.949 273.716 219.949 275.788H220.949ZM218.644 269.88C217.101 268.238 215.172 267.413 212.889 267.413V268.413C214.901 268.413 216.565 269.127 217.915 270.565L218.644 269.88ZM212.889 267.413C210.607 267.413 208.678 268.238 207.135 269.88L207.864 270.565C209.214 269.127 210.878 268.413 212.889 268.413V267.413ZM207.138 269.877C205.598 271.492 204.829 273.472 204.829 275.788H205.829C205.829 273.716 206.508 271.987 207.861 270.568L207.138 269.877ZM204.829 275.788C204.829 278.103 205.598 280.093 207.135 281.73L207.864 281.045C206.508 279.602 205.829 277.859 205.829 275.788H204.829ZM245.63 287.688L245.231 287.989L245.382 288.188H245.63V287.688ZM238.245 277.922L238.644 277.621L238.276 277.135L237.871 277.591L238.245 277.922ZM234.36 282.297L233.986 281.966L233.86 282.108V282.297H234.36ZM234.36 287.688V288.188H234.86V287.688H234.36ZM229.6 287.688H229.1V288.188H229.6V287.688ZM229.6 263.887V263.387H229.1V263.887H229.6ZM234.36 263.887H234.86V263.387H234.36V263.887ZM234.36 275.823H233.86V277.132L234.733 276.156L234.36 275.823ZM245.035 263.887V263.387H244.812L244.663 263.554L245.035 263.887ZM250.74 263.887L251.114 264.22L251.854 263.387H250.74V263.887ZM241.43 274.352L241.057 274.02L240.781 274.33L241.034 274.658L241.43 274.352ZM251.72 287.688V288.188H252.738L252.116 287.382L251.72 287.688ZM246.029 287.386L238.644 277.621L237.846 278.224L245.231 287.989L246.029 287.386ZM237.871 277.591L233.986 281.966L234.734 282.629L238.619 278.254L237.871 277.591ZM233.86 282.297V287.688H234.86V282.297H233.86ZM234.36 287.188H229.6V288.188H234.36V287.188ZM230.1 287.688V263.887H229.1V287.688H230.1ZM229.6 264.387H234.36V263.387H229.6V264.387ZM233.86 263.887V275.823H234.86V263.887H233.86ZM234.733 276.156L245.408 264.221L244.663 263.554L233.988 275.489L234.733 276.156ZM245.035 264.387H250.74V263.387H245.035V264.387ZM250.367 263.555L241.057 274.02L241.804 274.685L251.114 264.22L250.367 263.555ZM241.034 274.658L251.324 287.993L252.116 287.382L241.826 274.047L241.034 274.658ZM251.72 287.188H245.63V288.188H251.72V287.188ZM271.675 268.297V268.797H272.175V268.297H271.675ZM258.935 268.297V267.797H258.435V268.297H258.935ZM258.935 273.757H258.435V274.257H258.935V273.757ZM270.275 273.757H270.775V273.257H270.275V273.757ZM270.275 278.167V278.667H270.775V278.167H270.275ZM258.935 278.167V277.667H258.435V278.167H258.935ZM258.935 283.278H258.435V283.778H258.935V283.278ZM271.675 283.278H272.175V282.778H271.675V283.278ZM271.675 287.688V288.188H272.175V287.688H271.675ZM254.175 287.688H253.675V288.188H254.175V287.688ZM254.175 263.887V263.387H253.675V263.887H254.175ZM271.675 263.887H272.175V263.387H271.675V263.887ZM271.675 267.797H258.935V268.797H271.675V267.797ZM258.435 268.297V273.757H259.435V268.297H258.435ZM258.935 274.257H270.275V273.257H258.935V274.257ZM269.775 273.757V278.167H270.775V273.757H269.775ZM270.275 277.667H258.935V278.667H270.275V277.667ZM258.435 278.167V283.278H259.435V278.167H258.435ZM258.935 283.778H271.675V282.778H258.935V283.778ZM271.175 283.278V287.688H272.175V283.278H271.175ZM271.675 287.188H254.175V288.188H271.675V287.188ZM254.675 287.688V263.887H253.675V287.688H254.675ZM254.175 264.387H271.675V263.387H254.175V264.387ZM271.175 263.887V268.297H272.175V263.887H271.175ZM292.161 263.887V263.387H291.661V263.887H292.161ZM296.921 263.887H297.421V263.387H296.921V263.887ZM296.921 287.688V288.188H297.421V287.688H296.921ZM293.246 287.688L292.867 288.014L293.017 288.188H293.246V287.688ZM280.366 272.742L280.745 272.416L279.866 271.396V272.742H280.366ZM280.366 287.688V288.188H280.866V287.688H280.366ZM275.606 287.688H275.106V288.188H275.606V287.688ZM275.606 263.887V263.387H275.106V263.887H275.606ZM279.141 263.887L279.523 263.564L279.373 263.387H279.141V263.887ZM292.161 279.253L291.78 279.576L292.661 280.616V279.253H292.161ZM292.161 264.387H296.921V263.387H292.161V264.387ZM296.421 263.887V287.688H297.421V263.887H296.421ZM296.921 287.188H293.246V288.188H296.921V287.188ZM293.625 287.361L280.745 272.416L279.987 273.069L292.867 288.014L293.625 287.361ZM279.866 272.742V287.688H280.866V272.742H279.866ZM280.366 287.188H275.606V288.188H280.366V287.188ZM276.106 287.688V263.887H275.106V287.688H276.106ZM275.606 264.387H279.141V263.387H275.606V264.387ZM278.76 264.211L291.78 279.576L292.543 278.929L279.523 263.564L278.76 264.211ZM292.661 279.253V263.887H291.661V279.253H292.661Z" fill="#434343"/>
<path d="M41.0074 310.922C71.4558 309.925 101.941 310.249 132.357 311.925C147.261 312.744 162.151 313.887 177.009 315.351C191.507 316.777 205.968 318.782 220.517 319.634C236.389 320.566 252.477 319.921 267.814 315.318C271.65 314.17 270.018 308.033 266.159 309.19C238.592 317.46 209.527 312.33 181.554 309.454C151.852 306.395 122.022 304.625 92.1726 304.136C75.116 303.858 58.0548 304.009 41.0028 304.569C37.006 304.7 36.9922 311.054 41.0028 310.922H41.0074Z" fill="#888888"/>
<path d="M39.0068 337.827C90.9238 338.13 142.841 338.439 194.758 338.742C209.503 338.828 224.248 338.914 238.993 339C243 339.025 243.005 332.199 238.993 332.173C187.076 331.87 135.159 331.561 83.2423 331.258C68.4971 331.172 53.7519 331.086 39.0068 331C35 330.975 34.9954 337.801 39.0068 337.827Z" fill="#888888"/>
<path d="M45.989 358.55C79.5423 360.745 113.096 362.941 146.644 365.136C156.101 365.757 165.554 366.372 175.011 366.992C179.006 367.254 178.987 360.712 175.011 360.45C141.458 358.255 107.904 356.059 74.3558 353.864C64.8987 353.243 55.4461 352.628 45.989 352.008C41.9945 351.746 42.0129 358.288 45.989 358.55Z" fill="#888888"/>
<path d="M59.009 385C115.726 384.785 172.448 384.57 229.165 384.359C245.107 384.3 261.049 384.24 276.991 384.18C281.001 384.167 281.005 377.986 276.991 378C220.274 378.215 163.552 378.43 106.835 378.641C90.8928 378.7 74.9509 378.76 59.009 378.82C54.9993 378.833 54.9947 385.014 59.009 385Z" fill="#888888"/>
<path d="M199.946 75.9772C195.879 73.2892 191.316 71.4382 186.54 70.4634L164.042 65.8652L162.078 75.4899L211.505 85.5871C207.434 81.3631 203.333 78.2074 199.951 75.9723L199.946 75.9772Z" fill="#DFDFDF"/>
<path d="M137.433 196.085L189.174 206.655C195.422 203.868 202.196 199.57 208.428 192.944L140.894 179.145L137.433 196.085Z" fill="#CCCCCC"/>
<path d="M135.212 206.951L157.479 210.363C164.086 211.377 174.026 211.535 180.47 209.767C183.158 209.029 186.102 208.024 189.174 206.656L137.433 196.086L135.212 206.951Z" fill="#979797"/>
<path d="M145.738 155.451L140.899 179.146L208.433 192.945C213.622 187.431 218.432 180.298 222.247 171.087L145.738 155.456V155.451Z" fill="#B4B4B4"/>
<path d="M211.5 85.5875L162.073 75.4902L158.031 95.2662L226.043 109.164C222.523 99.0669 217.039 91.3376 211.5 85.5924V85.5875Z" fill="#EAEAEA"/>
<path d="M227.86 152.394C228.943 147.087 229.563 142.095 229.799 137.398L152.65 121.635L145.738 155.451L222.247 171.082C224.512 165.618 226.427 159.419 227.86 152.389V152.394Z" fill="#CCCCCC"/>
<path d="M226.043 109.163L158.031 95.2656L152.645 121.634L229.795 137.397C230.351 126.419 228.8 117.065 226.043 109.163Z" fill="#DFDFDF"/>
<path d="M205.778 147.888C213.74 108.929 195.057 72.2088 164.05 65.8721C133.042 59.5353 101.451 85.9811 93.4893 124.94C85.5275 163.9 104.21 200.619 135.217 206.956C166.225 213.293 197.816 186.847 205.778 147.888Z" fill="#CCCCCC"/>
<path d="M171.234 79.9509C171.234 79.9509 120.546 84.3275 118.055 140.967C115.559 197.607 161.447 197.347 161.447 197.347L128.61 197.44L100.268 158.843L101.918 123.008L116.047 95.3306L145.708 74.7324L171.239 79.9509H171.234Z" fill="#B4B4B4"/>
<path d="M164.042 65.8653C133.031 59.5293 101.445 85.9761 93.4844 124.937C85.5238 163.899 104.207 200.615 135.217 206.951C166.228 213.287 197.814 186.84 205.775 147.879C213.735 108.918 195.052 72.2013 164.042 65.8653ZM138.073 192.95C114.619 188.155 100.775 158.956 107.156 127.729C113.536 96.5016 137.723 75.0715 161.182 79.8666C184.64 84.6616 198.479 113.86 192.099 145.087C185.718 176.315 161.531 197.745 138.073 192.95Z" fill="#DFDFDF"/>
<path d="M169.536 117.478C164.313 113.052 157.603 111.369 150.878 112.683C144.571 113.919 137.201 119.004 137.157 126.103C137.108 134.33 145.772 135.787 151.651 138.465C154.924 139.957 158.469 141.764 161.157 144.196C161.964 144.929 163.338 146.125 163.067 147.361C162.796 148.597 160.945 149.444 159.916 149.887C153.265 152.762 144.94 151.369 139.451 146.711C135.847 143.654 130.599 148.853 134.228 151.935C139.569 156.469 146.363 159.004 153.408 158.709C159.631 158.448 168.812 155.957 170.299 148.858C171.953 140.951 162.782 135.748 156.913 132.828C153.767 131.263 150.375 130.342 147.21 128.865C146.25 128.417 144.896 127.821 144.596 126.694C144.241 125.36 145.408 123.898 146.27 123.021C150.883 118.33 159.459 118.591 164.313 122.701C167.921 125.754 173.169 120.555 169.536 117.478Z" fill="#B4B4B4"/>
<path d="M157.081 101.878C151.793 124.607 147.481 147.549 144.153 170.643C143.867 172.632 144.645 174.587 146.732 175.187C148.46 175.684 150.991 174.582 151.276 172.607C154.604 149.513 158.917 126.567 164.204 103.842C165.278 99.2191 158.164 97.245 157.086 101.878H157.081Z" fill="#B4B4B4"/>
</g>
<defs>
<clipPath id="clip0_6120_44264">
<rect width="320" height="414.356" fill="white"/>
</clipPath>
</defs>
</svg>
