<svg xmlns="http://www.w3.org/2000/svg" xmlns:xlink="http://www.w3.org/1999/xlink" width="26" height="26" viewBox="0 0 26 26">
    <defs>
        <path id="hpo9wy03da" d="M13 22.208c1.241 0 2.412-.236 3.512-.708 1.1-.473 2.06-1.118 2.878-1.937.818-.818 1.463-1.773 1.936-2.867.473-1.093.709-2.267.709-3.522 0-1.242-.236-2.41-.709-3.502-.473-1.093-1.118-2.05-1.936-2.867-.818-.818-1.777-1.464-2.878-1.936-1.1-.473-2.27-.71-3.512-.71-1.241 0-2.412.237-3.512.71-1.1.472-2.06 1.118-2.878 1.936-.818.818-1.463 1.774-1.936 2.867-.473 1.093-.709 2.26-.709 3.502 0 1.255.236 2.43.709 3.522.473 1.094 1.118 2.05 1.936 2.867.818.819 1.777 1.464 2.878 1.937 1.1.472 2.27.708 3.512.708zm2.793-4.803L13 14.591l-2.793 2.814-1.418-1.417 2.793-2.814L8.79 10.38l1.418-1.418L13 11.756l2.793-2.793 1.418 1.418-2.793 2.793 2.793 2.814-1.418 1.417z"/>
    </defs>
    <g fill="none" fill-rule="evenodd">
        <g>
            <g>
                <g transform="translate(-1108 -323) translate(770 306) translate(338 17)">
                    <path d="M0 0H26V26H0z" opacity=".2"/>
                    <mask id="mrluvunj0b" fill="#fff">
                        <use xlink:href="#hpo9wy03da"/>
                    </mask>
                    <path fill="#B5B8BC" d="M0 0H26V26H0z" mask="url(#mrluvunj0b)"/>
                </g>
            </g>
        </g>
    </g>
</svg>
