<svg xmlns="http://www.w3.org/2000/svg" xmlns:xlink="http://www.w3.org/1999/xlink" width="26" height="26" viewBox="0 0 26 26">
    <defs>
        <path id="uhuo59k00a" d="M18.417 22.208c.493 0 .917-.176 1.27-.529.352-.352.528-.775.528-1.27v-9.034c0-.494-.176-.917-.529-1.27-.352-.352-.776-.529-1.27-.529h-.91v-1.82c0-.987-.352-1.833-1.057-2.538-.705-.706-1.552-1.058-2.54-1.058H12.09c-.987 0-1.834.352-2.539 1.058-.705.705-1.058 1.551-1.058 2.539v1.82h-.91c-.493 0-.917.176-1.27.528-.352.353-.528.776-.528 1.27v9.035c0 .494.176.917.529 1.27.352.352.776.528 1.27.528h10.833zM15.708 9.576h-5.416v-1.82c0-.493.176-.916.529-1.269.352-.352.775-.529 1.27-.529h1.819c.494 0 .917.177 1.27.53.352.352.528.775.528 1.269v1.82zm-1.798 8.125h-1.82v-3.618h1.82v3.618z"/>
    </defs>
    <g fill="none" fill-rule="evenodd">
        <g>
            <g>
                <g>
                    <g transform="translate(-782 -411) translate(770 306) translate(0 88) translate(12 17)">
                        <path d="M0 0H26V26H0z" opacity=".2"/>
                        <mask id="dwr1gyulub" fill="#fff">
                            <use xlink:href="#uhuo59k00a"/>
                        </mask>
                        <path fill="#B5B8BC" d="M0 0H26V26H0z" mask="url(#dwr1gyulub)"/>
                    </g>
                </g>
            </g>
        </g>
    </g>
</svg>
