<svg xmlns="http://www.w3.org/2000/svg" width="114" height="22" viewBox="0 0 114 22">
    <g fill="none" fill-rule="evenodd">
        <g>
            <g>
                <g>
                    <path d="M0 0H114V22H0z" opacity=".2" transform="translate(-52 -1031) translate(0 1004) translate(52 27)"/>
                    <path fill="#101820" d="M80.947 7.14v1.584c.591-.317 1.256-.485 1.947-.485.54 0 1.064.102 1.56.304.504.206.956.505 1.343.889.775.77 1.202 1.793 1.202 2.881v4.074h-2.158v-4.074c0-.516-.203-1.001-.57-1.366-.184-.183-.399-.325-.638-.422-.234-.096-.482-.144-.74-.144-.52 0-1.008.2-1.376.566-.184.182-.327.395-.425.632-.096.233-.145.48-.145.734v4.074h-2.159V7.139h2.159zM55.593 8.238c.539 0 1.064.102 1.56.304.504.206.956.505 1.343.889.775.77 1.202 1.793 1.202 2.881v4.074H57.54v-4.074c0-.516-.203-1.001-.57-1.366-.185-.183-.4-.325-.638-.422-.234-.096-.483-.144-.74-.144-.52 0-1.008.2-1.376.566-.184.182-.327.395-.426.632-.096.233-.145.48-.145.734v4.074h-2.158v-4.074c0-.535.103-1.056.307-1.548.207-.5.509-.95.896-1.333.775-.77 1.806-1.193 2.903-1.193zm-10.022 0c.54 0 1.064.102 1.56.304.504.206.956.505 1.343.889.776.77 1.203 1.793 1.203 2.881 0 .535-.104 1.056-.307 1.548-.208.5-.509.949-.896 1.333-.775.77-1.806 1.193-2.903 1.193-.54 0-1.064-.102-1.56-.304-.504-.206-.956-.505-1.343-.89-.775-.769-1.202-1.792-1.202-2.88 0-.535.103-1.056.307-1.548.207-.5.508-.949.895-1.333.776-.77 1.807-1.193 2.903-1.193zm28.5-1.1v1.966h2.516v2.141H74.07v1.067c0 .516.203 1.001.57 1.366.184.183.399.325.638.422.234.096.483.144.74.144h.568v2.142h-.569c-.54 0-1.064-.102-1.56-.305-.504-.205-.956-.504-1.343-.888-.775-.77-1.202-1.793-1.202-2.881V7.139h2.158zm-8.316 1.1c.54 0 1.064.102 1.56.304.504.206.956.505 1.343.889.776.77 1.203 1.793 1.203 2.881v4.074h-2.159v-.485c-.591.316-1.256.485-1.947.485-.54 0-1.064-.102-1.56-.304-.504-.206-.956-.505-1.343-.89-.775-.769-1.202-1.792-1.202-2.88 0-.535.103-1.056.307-1.548.207-.5.508-.949.895-1.333.776-.77 1.807-1.193 2.903-1.193zm37.561 0c.54 0 1.064.102 1.56.305.504.205.956.504 1.343.888.776.77 1.203 1.793 1.203 2.88v4.075h-2.159v-4.074c0-.516-.202-1.001-.57-1.366-.184-.183-.399-.325-.637-.422-.235-.096-.483-.144-.74-.144-.52 0-1.009.2-1.376.566-.185.182-.328.395-.426.632-.096.232-.145.48-.145.734v4.074h-2.158v-4.074c0-.535.103-1.056.307-1.548.207-.5.508-.949.895-1.333.776-.77 1.807-1.193 2.903-1.193zm-10.303 0c.54 0 1.064.102 1.56.304.504.206.956.505 1.343.889.775.77 1.202 1.793 1.202 2.881v4.074H94.96v-.485c-.591.316-1.256.485-1.947.485-.54 0-1.064-.102-1.56-.304-.504-.206-.956-.505-1.343-.89-.775-.769-1.202-1.792-1.202-2.88 0-.535.103-1.056.306-1.548.208-.5.509-.95.896-1.333.775-.77 1.806-1.193 2.903-1.193zm-53.407.002v3.538c0 .606-.117 1.195-.347 1.75-.235.567-.576 1.074-1.013 1.508-.877.87-2.043 1.35-3.284 1.35-1.24 0-2.406-.48-3.283-1.35-.438-.434-.778-.941-1.013-1.507-.23-.556-.347-1.145-.347-1.751h2.158c0 .325.062.64.186.937.125.302.307.574.542.807.47.466 1.093.722 1.757.722.664 0 1.288-.256 1.757-.722.235-.233.418-.505.543-.807.123-.297.185-.612.185-.937V8.241h2.159zm5.965 2.14c-.52 0-1.009.2-1.377.566-.184.182-.327.395-.425.632-.096.233-.145.48-.145.734 0 .516.203 1.001.57 1.366.184.183.399.325.638.422.234.096.483.144.74.144.52 0 1.008-.2 1.376-.566.184-.182.327-.395.425-.632.096-.233.145-.48.145-.734 0-.516-.202-1.001-.57-1.366-.184-.183-.399-.325-.637-.422-.235-.096-.483-.144-.74-.144zm20.184 0c-.52 0-1.009.2-1.377.566-.184.182-.327.395-.425.632-.096.233-.145.48-.145.734 0 .516.203 1.001.57 1.366.185.183.4.325.638.422.234.096.483.144.74.144.52 0 1.008-.2 1.376-.566.184-.182.327-.395.425-.632.097-.233.145-.48.145-.734 0-.516-.202-1.001-.57-1.366-.184-.183-.398-.325-.637-.422-.235-.096-.483-.144-.74-.144zm27.258 0c-.52 0-1.009.2-1.377.566-.184.182-.327.395-.425.632-.096.233-.145.48-.145.734 0 .516.202 1.001.57 1.366.184.183.399.325.638.422.234.096.482.144.739.144.52 0 1.009-.2 1.377-.566.184-.182.327-.395.425-.632.096-.233.145-.48.145-.734 0-.516-.202-1.001-.57-1.366-.184-.183-.399-.325-.638-.422-.234-.096-.483-.144-.739-.144zM109.91 8.69h.248c.137 0 .209-.066.209-.176 0-.097-.072-.168-.209-.168h-.248v.343zm.561.239l.3.447h-.424l-.235-.382h-.202v.382h-.34V8.028h.595c.326 0 .554.195.554.493 0 .188-.091.33-.248.408zm.81-.175c0-.66-.555-1.186-1.195-1.186s-1.188.525-1.188 1.186c0 .654.548 1.179 1.188 1.179.64 0 1.195-.525 1.195-1.18zm.476 0c0 .92-.757 1.606-1.664 1.606-.908 0-1.665-.686-1.665-1.606s.757-1.613 1.665-1.613c.907 0 1.664.693 1.664 1.613z" transform="translate(-52 -1031) translate(0 1004) translate(52 27)"/>
                    <g>
                        <path fill="#4D545B" d="M5.522 10.956c0 3.025 2.472 5.477 5.52 5.477v-5.477h-5.52z" transform="translate(-52 -1031) translate(0 1004) translate(52 27)"/>
                        <path fill="#8D9496" d="M11.042 10.955L16.562 10.955 16.562 5.478 11.042 5.478z" transform="translate(-52 -1031) translate(0 1004) translate(52 27)"/>
                        <path fill="#4D545B" d="M22.082 10.956c0-3.026-2.472-5.478-5.52-5.478v5.478h5.52z" transform="translate(-52 -1031) translate(0 1004) translate(52 27)"/>
                        <path fill="#D8DFE1" d="M11.042 0H5.52C2.47 0 0 2.453 0 5.478h16.562c0-3.025-2.471-5.478-5.52-5.478" transform="translate(-52 -1031) translate(0 1004) translate(52 27)"/>
                        <path fill="#2E363E" d="M16.562 21.911V10.955h5.52v5.478c0 3.026-2.472 5.478-5.52 5.478" transform="translate(-52 -1031) translate(0 1004) translate(52 27)"/>
                    </g>
                </g>
            </g>
        </g>
    </g>
</svg>
