<svg xmlns="http://www.w3.org/2000/svg" width="100" height="30" viewBox="0 0 100 30">
    <g fill="none" fill-rule="evenodd">
        <g>
            <g>
                <g>
                    <g>
                        <path d="M0 0H99.942V30H0z" opacity=".2" transform="translate(-1055 -186) translate(710 136) translate(56 50) translate(289.025)"/>
                        <path fill="#000" d="M54.374 21.568c.745 0 1.377.248 1.84.677v-.542h.857v5.24h-.857V26.4c-.463.43-1.095.678-1.84.678-1.5 0-2.697-1.22-2.697-2.755 0-1.525 1.196-2.755 2.697-2.755zm20.356 0c1.524 0 2.584 1.106 2.596 2.687 0 .113 0 .215-.023.327l-.034-.01v.01h-4.356c.102.971.768 1.728 1.862 1.728.666 0 1.174-.237 1.4-.677h.959c-.328.903-1.23 1.445-2.359 1.445-1.614 0-2.73-1.208-2.73-2.755s1.105-2.755 2.685-2.755zm-32.69-2.304l3.07 5.127 3.07-5.127h.677v7.678h-.892v-5.724l-2.561 4.257h-.587l-2.584-4.28.022 5.747h-.891v-7.678h.677zm20.887 2.315v.813c-.858.022-1.557.418-2.02 1.14v3.41h-.857v-5.239h.857v.858c.485-.62 1.185-.982 2.02-.982zm3.216-2.654v5.488l2.832-2.71h1.106l-2.245 2.19 2.652 3.05H69.37l-2.144-2.45-1.083 1.05v1.4h-.858v-8.018h.858zm16.644 2.654v.813c-.858.022-1.558.418-2.02 1.14v3.41h-.858v-5.239h.858v.858c.485-.62 1.185-.982 2.02-.982zm-28.3.78c-1.106 0-1.952.88-1.952 1.964s.846 1.964 1.952 1.964c.688 0 1.298-.26 1.727-.891V23.25c-.43-.632-1.039-.892-1.727-.892zm20.243-.046c-1.038 0-1.681.734-1.805 1.66h3.52c-.09-1.016-.722-1.66-1.715-1.66zM50.373 6.642c.413 0 .815.079 1.195.235.386.16.732.39 1.029.687.594.594.921 1.385.921 2.226 0 .413-.079.815-.235 1.196-.159.386-.39.733-.686 1.03-.594.594-1.384.921-2.224.921-.414 0-.816-.079-1.196-.235-.386-.16-.732-.39-1.029-.686-.594-.595-.921-1.386-.921-2.226 0-.414.079-.816.235-1.196.159-.387.39-.733.686-1.03.594-.595 1.384-.922 2.225-.922zm21.837-.85v1.519h1.928v1.655H72.21v.824c0 .398.155.773.437 1.055.141.141.306.251.489.326.18.074.37.111.566.111h.436v1.655h-.436c-.413 0-.815-.08-1.195-.235-.386-.159-.733-.39-1.029-.687-.594-.594-.922-1.384-.922-2.225V5.792h1.654zm-6.372.85c.414 0 .816.079 1.195.235.387.16.733.39 1.03.687.594.594.921 1.385.921 2.226v3.147H67.33v-.375c-.453.245-.962.375-1.492.375-.413 0-.815-.079-1.195-.235-.386-.16-.733-.39-1.03-.686-.593-.595-.92-1.386-.92-2.226 0-.414.079-.816.235-1.196.159-.387.39-.733.686-1.03.594-.595 1.384-.922 2.224-.922zm11.64-.85v1.225c.454-.245.963-.375 1.493-.375.413 0 .815.08 1.195.235.386.16.733.39 1.029.687.594.594.921 1.385.921 2.226v3.147h-1.653V9.79c0-.4-.156-.774-.437-1.056-.141-.141-.306-.25-.489-.326-.179-.074-.37-.111-.566-.111-.399 0-.773.155-1.055.437-.141.141-.25.306-.326.489-.074.18-.111.37-.111.567v3.147h-1.654V5.793h1.654zm-19.427.85c.414 0 .816.08 1.195.235.387.16.733.39 1.03.687.594.594.92 1.385.92 2.226v3.147h-1.653V9.79c0-.4-.155-.774-.437-1.056-.14-.141-.305-.25-.488-.326-.18-.074-.37-.111-.567-.111-.398 0-.773.155-1.055.437-.14.141-.25.306-.326.489-.073.18-.11.37-.11.567v3.147h-1.654V9.79c0-.414.079-.816.235-1.196.159-.387.39-.734.686-1.03.594-.595 1.384-.922 2.224-.922zm36.568 0c.413 0 .815.08 1.195.236.387.158.733.39 1.03.686.594.594.92 1.385.92 2.225v3.148h-1.653V9.79c0-.398-.155-.773-.437-1.055-.14-.141-.305-.25-.488-.326-.18-.074-.37-.111-.567-.111-.398 0-.773.155-1.055.437-.14.14-.25.305-.326.489-.073.18-.11.37-.11.566v3.148h-1.655V9.79c0-.413.08-.815.236-1.195.158-.387.39-.734.686-1.03.594-.595 1.384-.922 2.224-.922zm-7.895 0c.414 0 .816.079 1.196.235.386.16.732.39 1.029.687.594.594.921 1.385.921 2.226v3.147h-1.654v-.375c-.453.245-.962.375-1.492.375-.413 0-.815-.079-1.195-.235-.386-.16-.733-.39-1.03-.686-.593-.595-.92-1.386-.92-2.226 0-.414.079-.816.235-1.196.159-.387.39-.734.686-1.03.594-.595 1.384-.922 2.224-.922zm-40.922.002v2.733c0 .468-.09.923-.266 1.353-.18.437-.441.829-.777 1.164-.672.673-1.565 1.043-2.515 1.043-.95 0-1.844-.37-2.516-1.043-.336-.335-.597-.727-.776-1.164-.177-.43-.266-.885-.266-1.353h1.653c0 .251.048.495.142.724.096.233.236.443.416.623.36.36.838.558 1.347.558.508 0 .986-.198 1.346-.558.18-.18.32-.39.416-.623.094-.23.142-.473.142-.724V6.644h1.654zm4.57 1.653c-.398 0-.773.155-1.054.437-.142.141-.251.305-.326.489-.074.18-.111.37-.111.567 0 .398.155.773.436 1.055.142.141.306.25.489.326.18.074.37.111.567.111.398 0 .773-.155 1.054-.437.141-.14.25-.305.326-.489.074-.18.111-.37.111-.566 0-.399-.155-.774-.437-1.056-.14-.141-.305-.25-.488-.326-.18-.074-.37-.111-.566-.111zm15.466 0c-.398 0-.773.155-1.055.437-.14.141-.25.305-.325.489-.074.18-.112.37-.112.567 0 .398.156.773.437 1.055.141.141.306.25.489.326.18.074.37.111.566.111.399 0 .773-.155 1.055-.437.141-.14.251-.305.326-.489.074-.18.111-.37.111-.566 0-.399-.155-.774-.437-1.056-.14-.141-.305-.25-.488-.326-.18-.074-.37-.111-.567-.111zm20.886 0c-.398 0-.773.155-1.054.437-.142.141-.251.305-.326.489-.074.18-.112.37-.112.567 0 .398.156.773.438 1.055.14.141.305.25.488.326.18.074.37.111.566.111.399 0 .773-.155 1.055-.437.141-.14.251-.305.326-.489.074-.18.111-.37.111-.566 0-.399-.155-.774-.437-1.056-.14-.141-.305-.25-.488-.326-.18-.074-.37-.111-.567-.111zM88.45 21.185h-.355V19.66l-.758 1.223h-.186l-.766-1.238.008 1.54h-.357v-2.26h.279l.929 1.479.92-1.48h.287v2.261zm-2.723-1.928h-.82v1.928h-.356v-1.928h-.82v-.333h1.996v.333z" transform="translate(-1055 -186) translate(710 136) translate(56 50) translate(289.025)"/>
                        <g>
                            <path fill="#1A40FF" d="M14.621 20.9h12.495V4.193c0 6.925-5.594 12.54-12.495 12.54V20.9z" transform="translate(-1055 -186) translate(710 136) translate(56 50) translate(289.025) translate(0 .323)"/>
                            <path fill="#002BFF" d="M14.621 29.261L29.244 29.261 29.244 20.9 14.621 20.9z" transform="translate(-1055 -186) translate(710 136) translate(56 50) translate(289.025) translate(0 .323)"/>
                            <path fill="#8095FF" d="M14.621 2.09v14.642c6.9 0 12.495-5.615 12.495-12.54V0L14.621 2.09z" transform="translate(-1055 -186) translate(710 136) translate(56 50) translate(289.025) translate(0 .323)"/>
                            <path fill="#CCD5FE" d="M14.621 2.09L2.126 4.192c0 6.925 5.594 12.54 12.495 12.54V2.09z" transform="translate(-1055 -186) translate(710 136) translate(56 50) translate(289.025) translate(0 .323)"/>
                            <path fill="#8095FF" d="M14.623 16.732c-6.901 0-12.496-5.615-12.496-12.54V20.9H0v8.36h14.623V16.73z" transform="translate(-1055 -186) translate(710 136) translate(56 50) translate(289.025) translate(0 .323)"/>
                        </g>
                    </g>
                </g>
            </g>
        </g>
    </g>
</svg>
