<svg xmlns="http://www.w3.org/2000/svg" width="124" height="24" viewBox="0 0 124 24">
    <g fill="none" fill-rule="evenodd">
        <g>
            <g>
                <path d="M0 0H123.333V24H0z" opacity=".2" transform="translate(-52 -22) translate(52 22)"/>
                <path fill="#000" d="M49.302 8.988c.584 0 1.151.112 1.688.332.545.225 1.034.55 1.453.97.839.84 1.3 1.955 1.3 3.142 0 .584-.111 1.152-.331 1.689-.225.546-.55 1.035-.97 1.454-.838.84-1.953 1.302-3.14 1.302-.583 0-1.151-.112-1.687-.332-.546-.225-1.035-.55-1.454-.97-.838-.84-1.3-1.955-1.3-3.143 0-.584.111-1.152.332-1.688.224-.546.55-1.036.968-1.455.84-.839 1.955-1.301 3.141-1.301zm30.833-1.2v2.144h2.722v2.337h-2.722v1.163c0 .563.22 1.093.617 1.49.2.2.432.355.69.461.253.104.522.157.8.157h.615v2.337h-.615c-.584 0-1.151-.112-1.688-.332-.545-.225-1.034-.55-1.453-.97-.839-.84-1.3-1.955-1.3-3.143V7.788h2.334zm-8.996 1.2c.583 0 1.151.112 1.687.332.546.225 1.035.55 1.453.97.84.84 1.301 1.955 1.301 3.142v4.445h-2.335v-.53c-.64.346-1.359.53-2.106.53-.584 0-1.151-.112-1.688-.332-.545-.225-1.034-.55-1.453-.97-.839-.84-1.3-1.955-1.3-3.143 0-.584.11-1.152.331-1.688.225-.546.55-1.036.97-1.455.838-.839 1.953-1.301 3.14-1.301zm16.435-1.2v1.73c.64-.346 1.36-.53 2.107-.53.583 0 1.15.112 1.687.332.546.225 1.035.55 1.453.97.84.839 1.301 1.955 1.301 3.142v4.445h-2.335v-4.445c0-.563-.22-1.092-.617-1.49-.199-.2-.431-.354-.69-.46-.253-.105-.522-.158-.8-.158-.562 0-1.091.22-1.489.618-.2.199-.354.431-.46.69-.104.253-.157.523-.157.8v4.444h-2.335V7.788h2.335zm-27.43 1.2c.583 0 1.151.112 1.687.332.546.225 1.035.55 1.454.97.839.839 1.3 1.955 1.3 3.142v4.445H62.25v-4.445c0-.563-.219-1.092-.617-1.49-.198-.2-.43-.354-.69-.46-.252-.105-.522-.158-.8-.158-.562 0-1.09.22-1.488.618-.2.2-.354.431-.46.69-.105.253-.158.523-.158.8v4.445h-2.335v-4.445c0-.584.112-1.152.332-1.688.225-.546.55-1.036.97-1.455.838-.839 1.954-1.301 3.14-1.301zm51.63 0c.584 0 1.152.112 1.688.332.546.224 1.035.55 1.453.97.84.84 1.301 1.955 1.301 3.142v4.445h-2.335v-4.445c0-.563-.219-1.092-.617-1.49-.199-.2-.43-.354-.69-.46-.253-.105-.522-.158-.8-.158-.562 0-1.09.22-1.488.618-.2.199-.354.431-.46.69-.105.253-.158.523-.158.8v4.445h-2.335v-4.445c0-.584.112-1.152.332-1.688.225-.546.55-1.036.97-1.454.838-.84 1.953-1.302 3.14-1.302zm-11.146 0c.583 0 1.151.112 1.688.332.545.225 1.034.55 1.453.97.839.839 1.3 1.955 1.3 3.142v4.445h-2.334v-.53c-.64.346-1.36.53-2.107.53-.584 0-1.151-.112-1.687-.332-.546-.225-1.035-.55-1.454-.97-.838-.84-1.3-1.955-1.3-3.143 0-.584.111-1.152.332-1.688.224-.546.55-1.036.968-1.455.84-.839 1.955-1.301 3.141-1.301zm-57.78.002v3.86c0 .66-.126 1.303-.375 1.91-.254.617-.623 1.17-1.096 1.644-.949.95-2.21 1.473-3.552 1.473s-2.604-.523-3.553-1.473c-.473-.473-.842-1.027-1.095-1.644-.25-.607-.376-1.25-.376-1.91h2.335c0 .354.068.698.2 1.021.136.33.334.627.588.881.507.508 1.182.788 1.9.788.719 0 1.394-.28 1.902-.788.254-.254.451-.55.587-.88.133-.324.2-.668.2-1.022V8.99h2.335zm6.454 2.334c-.563 0-1.091.22-1.49.618-.198.2-.353.431-.46.69-.104.253-.156.523-.156.8 0 .563.219 1.093.617 1.49.199.2.43.355.69.461.252.104.521.157.8.157.562 0 1.09-.219 1.489-.617.199-.2.353-.432.46-.69.104-.254.157-.523.157-.8 0-.564-.22-1.093-.617-1.491-.2-.2-.432-.354-.69-.46-.253-.105-.522-.158-.8-.158zm21.837 0c-.563 0-1.092.22-1.49.618-.199.2-.354.431-.46.69-.104.253-.157.523-.157.8 0 .563.22 1.093.617 1.49.2.2.431.355.69.461.253.104.522.157.8.157.562 0 1.091-.219 1.49-.617.198-.2.353-.432.46-.69.104-.254.156-.523.156-.8 0-.564-.219-1.093-.617-1.491-.199-.2-.43-.354-.69-.46-.253-.105-.522-.158-.8-.158zm29.49 0c-.564 0-1.093.22-1.49.618-.2.2-.354.431-.46.69-.105.253-.157.523-.157.8 0 .563.219 1.093.616 1.49.2.2.432.355.69.461.253.104.522.157.8.157.563 0 1.092-.219 1.49-.617.199-.2.353-.432.46-.69.104-.254.157-.523.157-.8 0-.564-.22-1.093-.618-1.491-.199-.2-.43-.354-.689-.46-.253-.105-.522-.158-.8-.158zM118.908 9.479h.269c.148 0 .226-.07.226-.19 0-.107-.078-.184-.226-.184h-.269v.374zm.608.261l.325.488h-.46l-.254-.417h-.219v.417h-.367v-1.47h.643c.353 0 .6.212.6.537 0 .205-.099.36-.268.445zm.875-.19c0-.721-.6-1.294-1.292-1.294-.692 0-1.285.573-1.285 1.294 0 .713.593 1.286 1.285 1.286s1.292-.573 1.292-1.286zm.516 0c0 1.003-.82 1.752-1.8 1.752-.983 0-1.802-.749-1.802-1.752 0-1.004.82-1.76 1.801-1.76.982 0 1.801.756 1.801 1.76z" transform="translate(-52 -22) translate(52 22)"/>
                <g>
                    <path fill="#002BFF" d="M5.974 11.951c0 3.3 2.674 5.976 5.972 5.976v-5.976H5.974z" transform="translate(-52 -22) translate(52 22)"/>
                    <path fill="#5D91F6" d="M11.946 11.951L17.918 11.951 17.918 5.976 11.946 5.976z" transform="translate(-52 -22) translate(52 22)"/>
                    <path fill="#0E4BFF" d="M23.89 11.951c0-3.3-2.674-5.975-5.972-5.975v5.975h5.972z" transform="translate(-52 -22) translate(52 22)"/>
                    <path fill="#FFFD4F" d="M11.946 0H5.972C2.674 0 0 2.675 0 5.976h17.918c0-3.3-2.674-5.976-5.972-5.976" transform="translate(-52 -22) translate(52 22)"/>
                    <path fill="#0020D3" d="M17.918 23.903V11.951h5.972v5.976c0 3.3-2.674 5.976-5.972 5.976" transform="translate(-52 -22) translate(52 22)"/>
                </g>
            </g>
        </g>
    </g>
</svg>
