<svg xmlns="http://www.w3.org/2000/svg" width="121" height="30" viewBox="0 0 121 30">
    <g fill="none" fill-rule="evenodd">
        <g>
            <g>
                <g>
                    <path d="M0 0H120.513V30H0z" opacity=".2" transform="translate(-766 -186) translate(710 136) translate(56 50)"/>
                    <path fill="#000" d="M80.284 21.611c.755 0 1.408.249 1.892.678v-.542h.856v5.499c0 1.535-1.048 2.472-2.601 2.472-1.442 0-2.478-.812-2.659-1.975h.879c.146.71.8 1.196 1.78 1.196 1.047 0 1.745-.632 1.745-1.693v-.983c-.484.43-1.137.678-1.892.678-1.498 0-2.635-1.197-2.635-2.643 0-1.546 1.137-2.687 2.635-2.687zm-26.023-1.795v1.931h1.97v.734h-1.97v2.563c0 .903.383 1.276 1.126 1.276.293 0 .62-.08.902-.18l.123.79c-.427.146-.788.191-1.103.191-1.284 0-1.903-.71-1.903-2.077V22.48h-1.363v-.734h1.363v-1.931h.855zm6.69 1.795c1.52 0 2.578 1.107 2.59 2.688 0 .113 0 .214-.023.327l-.034-.011v.011h-4.347c.101.97.766 1.728 1.858 1.728.665 0 1.171-.237 1.397-.678h.957c-.327.903-1.228 1.445-2.354 1.445-1.61 0-2.725-1.208-2.725-2.754 0-1.548 1.104-2.756 2.68-2.756zm27.317 0c1.52 0 2.578 1.107 2.59 2.688 0 .113 0 .214-.023.327l-.033-.011v.011h-4.347c.1.97.765 1.728 1.858 1.728.664 0 1.171-.237 1.396-.678h.957c-.326.903-1.227 1.445-2.353 1.445-1.61 0-2.725-1.208-2.725-2.754 0-1.548 1.103-2.756 2.68-2.756zm22.802 0c1.52 0 2.579 1.107 2.59 2.688 0 .113 0 .214-.023.327l-.033-.011v.011h-4.347c.101.97.766 1.728 1.858 1.728.664 0 1.171-.237 1.396-.678h.958c-.327.903-1.228 1.445-2.354 1.445-1.61 0-2.725-1.208-2.725-2.754 0-1.548 1.103-2.756 2.68-2.756zm-7.477 0c1.261 0 2.264.78 2.466 1.931h-.89c-.157-.689-.765-1.14-1.576-1.14-1.138 0-1.88.88-1.88 1.965 0 1.095.742 1.964 1.88 1.964.81 0 1.42-.44 1.576-1.129h.89c-.202 1.14-1.205 1.92-2.466 1.92-1.588 0-2.737-1.209-2.737-2.755 0-1.548 1.149-2.756 2.737-2.756zm-55.626 0c1.329 0 2.24.892 2.24 2.372v3.003h-.855v-2.958c0-1.062-.62-1.626-1.543-1.626-.62 0-1.261.316-1.711.903v3.681h-.857v-5.24h.857v.588c.484-.463 1.126-.723 1.87-.723zm-5.81-2.303v7.678h-.89v-7.678h.89zm24.862-.34v8.018h-.856v-8.017h.856zm3.818 0v8.018h-.856v-8.017h.856zm3.974 2.779v5.239h-.855v-5.24h.855zm21.35-.136c1.33 0 2.242.892 2.242 2.372v3.003h-.857v-2.958c0-1.062-.619-1.626-1.543-1.626-.619 0-1.26.316-1.711.903v3.681h-.856v-5.24h.856v.588c.484-.463 1.126-.723 1.87-.723zm-15.764.757c-1.104 0-1.892.824-1.892 1.93 0 1.006.788 1.886 1.892 1.886.686 0 1.34-.282 1.779-.926v-1.964c-.44-.644-1.093-.926-1.78-.926zm30.673-.012c-1.036 0-1.678.734-1.802 1.66h3.513c-.09-1.016-.72-1.66-1.711-1.66zm-50.12 0c-1.036 0-1.678.734-1.802 1.66h3.514c-.09-1.016-.72-1.66-1.711-1.66zm27.318 0c-1.037 0-1.678.734-1.802 1.66h3.513c-.09-1.016-.72-1.66-1.711-1.66zm-13.896-3.15c.327 0 .586.249.586.576 0 .316-.26.564-.586.564-.326 0-.574-.248-.574-.564 0-.327.248-.576.574-.576zM50.268 6.663c.412 0 .814.08 1.193.236.385.159.73.39 1.027.686.592.595.919 1.385.919 2.226 0 .413-.079.815-.234 1.196-.16.386-.39.733-.685 1.03-.593.594-1.382.921-2.22.921-.412 0-.814-.079-1.193-.235-.385-.159-.73-.39-1.027-.687-.593-.594-.92-1.385-.92-2.225 0-.414.08-.816.235-1.196.16-.387.39-.733.685-1.03.593-.594 1.381-.922 2.22-.922zm21.793-.85v1.519h1.923v1.655H72.06v.824c0 .398.154.774.435 1.055.141.141.305.251.488.326.179.074.37.112.565.112h.435v1.654h-.435c-.412 0-.814-.079-1.193-.235-.385-.159-.73-.39-1.026-.686-.593-.595-.92-1.385-.92-2.226V5.814h1.65zm-6.36.85c.413 0 .814.08 1.193.236.386.159.731.39 1.027.686.593.595.92 1.385.92 2.226v3.147h-1.65v-.375c-.453.245-.96.375-1.49.375-.412 0-.813-.079-1.192-.235-.386-.159-.731-.39-1.027-.687-.593-.594-.92-1.385-.92-2.225 0-.414.08-.816.235-1.196.159-.387.389-.733.685-1.03.593-.594 1.381-.922 2.22-.922zm11.617-.85v1.225c.452-.245.96-.375 1.489-.375.412 0 .813.08 1.192.236.386.159.732.39 1.027.686.594.594.92 1.385.92 2.226v3.148h-1.65V9.81c0-.399-.155-.774-.436-1.056-.141-.141-.305-.25-.488-.326-.179-.074-.37-.111-.565-.111-.398 0-.772.155-1.053.437-.14.141-.25.306-.325.489-.074.18-.11.37-.11.567v3.147h-1.651V5.814h1.65zm-19.387.85c.412 0 .814.08 1.193.236.385.159.73.39 1.026.686.593.594.92 1.385.92 2.226v3.148h-1.65V9.81c0-.399-.155-.774-.436-1.056-.141-.141-.305-.25-.488-.326-.18-.074-.37-.111-.565-.111-.398 0-.772.155-1.053.437-.14.141-.25.306-.325.489-.074.18-.111.37-.111.567v3.148h-1.65V9.81c0-.414.079-.816.234-1.196.159-.387.39-.734.685-1.03.593-.595 1.381-.922 2.22-.922zm36.492 0c.412 0 .813.08 1.193.236.385.158.73.39 1.026.686.593.595.92 1.385.92 2.226v3.147h-1.65V9.811c0-.399-.155-.774-.436-1.056-.141-.14-.305-.25-.488-.326-.179-.074-.37-.111-.565-.111-.398 0-.772.155-1.053.437-.14.141-.25.306-.325.489-.074.18-.111.37-.111.567v3.147h-1.65V9.811c0-.414.078-.816.234-1.196.159-.387.39-.733.685-1.03.593-.594 1.381-.922 2.22-.922zm-7.879 0c.413 0 .814.08 1.193.236.386.159.731.39 1.027.686.593.595.92 1.385.92 2.226v3.147h-1.65v-.375c-.453.245-.961.375-1.49.375-.412 0-.813-.079-1.192-.235-.386-.159-.732-.39-1.028-.687-.592-.594-.92-1.385-.92-2.225 0-.414.08-.816.236-1.196.158-.387.389-.734.685-1.03.593-.594 1.38-.922 2.22-.922zm-40.838.002v2.733c0 .468-.089.923-.265 1.353-.18.437-.44.83-.775 1.165-.67.672-1.562 1.042-2.51 1.042-.949 0-1.84-.37-2.51-1.042-.335-.336-.596-.728-.775-1.165-.177-.43-.266-.885-.266-1.353h1.65c0 .251.048.495.142.724.096.234.236.444.415.623.36.36.836.558 1.344.558.507 0 .985-.198 1.343-.558.18-.18.32-.39.415-.623.094-.23.142-.473.142-.724V6.665h1.65zm4.562 1.653c-.398 0-.772.155-1.053.437-.14.141-.25.306-.325.489-.074.18-.111.37-.111.567 0 .399.155.773.436 1.055.14.141.305.251.487.326.18.074.37.111.566.111.398 0 .771-.155 1.053-.437.14-.14.25-.305.325-.488.074-.18.11-.37.11-.567 0-.399-.154-.774-.435-1.056-.14-.14-.305-.25-.488-.326-.179-.074-.37-.111-.565-.111zm15.434 0c-.398 0-.772.155-1.053.437-.14.141-.25.306-.325.489-.074.18-.111.37-.111.567 0 .399.155.773.436 1.055.14.141.305.251.487.326.18.074.37.111.566.111.397 0 .771-.155 1.052-.437.141-.14.25-.305.326-.488.073-.18.11-.37.11-.567 0-.399-.154-.774-.436-1.056-.14-.14-.304-.25-.487-.326-.18-.074-.37-.111-.565-.111zm20.842 0c-.397 0-.771.155-1.052.437-.14.141-.25.306-.326.489-.073.18-.11.37-.11.567 0 .399.154.773.436 1.055.14.141.304.251.487.326.179.074.37.111.565.111.398 0 .772-.155 1.053-.437.14-.14.25-.305.325-.488.074-.18.111-.37.111-.567 0-.399-.155-.774-.436-1.056-.14-.14-.305-.25-.487-.326-.18-.074-.37-.111-.566-.111zM119.312 21.568h-.355v-1.525l-.757 1.223h-.185l-.764-1.238.007 1.54h-.355v-2.26h.278l.927 1.478.919-1.479h.285v2.261zm-2.718-1.928h-.818v1.928h-.356V19.64h-.818v-.333h1.992v.333z" transform="translate(-766 -186) translate(710 136) translate(56 50)"/>
                    <g>
                        <path fill="#8095FF" d="M14.592 14.63L29.183 14.63 29.183 0 14.592 0z" transform="translate(-766 -186) translate(710 136) translate(56 50) translate(0 .323)"/>
                        <path fill="#CCD5FE" d="M14.592 0C6.532 0 0 6.55 0 14.63h14.592V0z" transform="translate(-766 -186) translate(710 136) translate(56 50) translate(0 .323)"/>
                        <path fill="#002BFF" d="M29.183 14.63H0c0 8.08 6.533 14.63 14.592 14.63 8.058 0 14.591-6.55 14.591-14.63" transform="translate(-766 -186) translate(710 136) translate(56 50) translate(0 .323)"/>
                    </g>
                </g>
            </g>
        </g>
    </g>
</svg>
