<svg xmlns="http://www.w3.org/2000/svg" width="122" height="30" viewBox="0 0 122 30">
    <g fill="none" fill-rule="evenodd">
        <g>
            <g>
                <g>
                    <g>
                        <path d="M0 0H120.513V30H0z" opacity=".2" transform="translate(-910 -186) translate(710 136) translate(56 50) translate(144.513)"/>
                        <path fill="#000" d="M62.745 21.611c.799 0 1.49.249 2.003.678v-.542h.905v5.499c0 1.535-1.108 2.472-2.753 2.472-1.525 0-2.622-.812-2.813-1.975h.93c.155.71.846 1.196 1.883 1.196 1.109 0 1.848-.632 1.848-1.693v-.983c-.513.43-1.204.678-2.003.678-1.585 0-2.789-1.197-2.789-2.643 0-1.546 1.204-2.687 2.79-2.687zm15.6-1.795v1.931h2.087v.734h-2.086v2.563c0 .903.405 1.276 1.191 1.276.31 0 .656-.08.954-.18l.131.79c-.453.146-.834.191-1.168.191-1.359 0-2.014-.71-2.014-2.077V22.48h-1.442v-.734h1.442v-1.931h.906zm5.793-.847v3.32c.489-.43 1.156-.678 1.943-.678 1.585 0 2.848 1.22 2.848 2.756 0 1.524-1.263 2.754-2.848 2.754-.787 0-1.454-.248-1.943-.677v.542h-.906v-8.017h.906zm10.118 2.642c.787 0 1.454.249 1.943.678v-.542h.906v5.239h-.906v-.542c-.489.43-1.156.677-1.943.677-1.585 0-2.848-1.219-2.848-2.754 0-1.525 1.263-2.756 2.848-2.756zm8.092 0c1.156 0 2.3.418 2.408 1.66h-.846c-.095-.655-.68-.96-1.562-.96-.834 0-1.335.305-1.335.78 0 .383.275.666 1.026.79l1.096.17c.799.123 1.645.462 1.645 1.467 0 1.028-.978 1.603-2.336 1.603-1.407 0-2.408-.553-2.575-1.783h.846c.168.7.74 1.072 1.753 1.072.858 0 1.442-.305 1.442-.835 0-.44-.37-.7-.906-.79l-1.251-.193c-.906-.147-1.645-.53-1.645-1.423 0-.97.905-1.558 2.24-1.558zm7.723 0c1.61 0 2.73 1.107 2.742 2.688 0 .113 0 .214-.024.327l-.036-.011v.011h-4.6c.107.97.81 1.728 1.966 1.728.703 0 1.24-.237 1.478-.678h1.013c-.345.903-1.3 1.445-2.49 1.445-1.706 0-2.885-1.208-2.885-2.754 0-1.548 1.168-2.756 2.836-2.756zm-60.828-2.303v.824h-4.625v2.823h4.124v.824h-4.124v3.207h-.941v-7.678h5.566zm3.503-.34v8.018h-.906v-8.017h.906zm4.207 2.779v5.239h-.905v-5.24h.905zm12.752-2.778v3.365c.513-.463 1.192-.723 1.979-.723 1.406 0 2.372.892 2.372 2.372v3.003h-.906v-2.958c0-1.062-.656-1.626-1.633-1.626-.656 0-1.335.316-1.812.903v3.681H68.8V18.97h.906zm16.256 3.433c-.727 0-1.37.26-1.823.892v2.145c.453.632 1.096.892 1.823.892 1.169 0 2.062-.88 2.062-1.964s-.893-1.965-2.062-1.965zm8.415 0c-1.169 0-2.063.88-2.063 1.965 0 1.083.894 1.964 2.063 1.964.727 0 1.37-.26 1.823-.892v-2.145c-.453-.633-1.096-.892-1.823-.892zm-31.511-.034c-1.169 0-2.003.824-2.003 1.93 0 1.006.834 1.886 2.003 1.886.727 0 1.418-.282 1.883-.926v-1.964c-.465-.644-1.156-.926-1.883-.926zm47.206-.012c-1.096 0-1.776.734-1.907 1.66h3.719c-.095-1.016-.763-1.66-1.812-1.66zm-53.583-3.15c.346 0 .62.249.62.576 0 .316-.274.564-.62.564-.345 0-.608-.248-.608-.564 0-.327.263-.576.608-.576zM53.203 6.663c.437 0 .862.08 1.263.236.408.159.774.39 1.087.686.627.595.973 1.385.973 2.226 0 .413-.084.815-.248 1.196-.168.386-.412.733-.725 1.03-.628.594-1.462.921-2.35.921-.436 0-.86-.08-1.262-.235-.408-.159-.774-.39-1.087-.687-.628-.594-.973-1.385-.973-2.225 0-.414.083-.816.248-1.196.168-.387.412-.733.725-1.03.627-.594 1.462-.922 2.35-.922zm23.065-.85v1.519h2.036v1.655h-2.036v.824c0 .398.164.773.462 1.055.149.141.322.251.516.326.19.074.39.112.598.112h.46v1.654h-.46c-.436 0-.861-.079-1.262-.235-.408-.16-.774-.39-1.087-.686-.628-.595-.973-1.385-.973-2.226V5.814h1.746zm-6.73.85c.437 0 .862.08 1.263.236.408.158.774.39 1.087.686.627.595.973 1.385.973 2.226v3.147h-1.747v-.375c-.478.245-1.016.375-1.576.375-.436 0-.86-.08-1.262-.235-.408-.159-.774-.39-1.087-.687-.628-.594-.973-1.385-.973-2.225 0-.414.084-.816.248-1.196.168-.387.412-.733.725-1.03.628-.594 1.462-.922 2.35-.922zm12.295-.85v1.225c.479-.245 1.017-.375 1.576-.375.436 0 .86.08 1.262.236.408.159.774.39 1.087.686.628.594.973 1.385.973 2.226v3.148h-1.746V9.81c0-.399-.164-.774-.462-1.056-.149-.141-.323-.25-.516-.326-.19-.074-.39-.111-.598-.111-.421 0-.817.155-1.114.437-.15.141-.265.306-.345.489-.078.18-.117.37-.117.567v3.147h-1.747V5.814h1.747zm-20.52.85c.437 0 .862.08 1.263.236.408.159.774.39 1.087.686.628.594.973 1.385.973 2.226v3.148H62.89V9.81c0-.399-.163-.774-.461-1.056-.15-.141-.323-.25-.516-.326-.19-.074-.39-.111-.599-.111-.42 0-.816.155-1.113.437-.15.141-.265.306-.345.489-.078.18-.117.37-.117.567v3.148H57.99V9.81c0-.414.084-.816.249-1.196.167-.387.411-.734.725-1.03.627-.595 1.461-.922 2.348-.922zm38.624 0c.436 0 .86.08 1.262.236.408.159.774.39 1.087.686.628.594.973 1.385.973 2.226v3.147h-1.747V9.811c0-.399-.163-.774-.461-1.056-.15-.141-.323-.25-.516-.326-.19-.074-.39-.111-.598-.111-.421 0-.817.155-1.115.437-.148.141-.264.306-.344.489-.078.18-.117.37-.117.567v3.147h-1.747V9.811c0-.414.084-.816.248-1.196.168-.387.412-.734.725-1.03.628-.595 1.462-.922 2.35-.922zm-8.339 0c.437 0 .861.08 1.263.236.408.159.774.39 1.086.686.628.595.974 1.385.974 2.226v3.147h-1.747v-.375c-.479.245-1.017.375-1.576.375-.436 0-.86-.08-1.262-.235-.408-.159-.774-.39-1.087-.687-.628-.594-.973-1.385-.973-2.225 0-.414.083-.816.248-1.196.168-.387.411-.734.725-1.03.627-.594 1.462-.922 2.35-.922zm-43.222.002v2.733c0 .468-.095.923-.281 1.353-.19.437-.466.83-.82 1.165-.71.672-1.654 1.042-2.657 1.042-1.004 0-1.948-.37-2.658-1.042-.354-.336-.63-.728-.82-1.165-.186-.43-.28-.885-.28-1.353h1.746c0 .251.05.495.15.724.102.234.25.444.44.623.38.36.884.558 1.422.558.537 0 1.042-.198 1.422-.558.19-.18.337-.39.439-.623.1-.23.15-.473.15-.724V6.665h1.747zm4.827 1.653c-.42 0-.816.155-1.114.437-.149.141-.265.306-.344.489-.078.18-.117.37-.117.567 0 .399.163.773.46 1.055.15.141.324.251.517.326.19.074.39.111.598.111.421 0 .817-.155 1.115-.437.148-.14.264-.305.344-.488.078-.18.117-.37.117-.567 0-.399-.164-.774-.461-1.056-.15-.14-.323-.25-.516-.326-.19-.074-.391-.111-.599-.111zm16.335 0c-.42 0-.816.155-1.114.437-.149.141-.265.306-.344.489-.078.18-.117.37-.117.567 0 .399.163.773.461 1.055.15.141.323.251.516.326.19.074.39.111.598.111.421 0 .817-.155 1.115-.437.148-.14.265-.305.344-.488.078-.18.117-.37.117-.567 0-.399-.164-.774-.461-1.056-.15-.14-.323-.25-.516-.326-.19-.074-.391-.111-.599-.111zm22.06 0c-.421 0-.817.155-1.114.437-.149.141-.265.306-.344.489-.078.18-.118.37-.118.567 0 .399.164.773.462 1.055.149.141.323.251.516.326.19.074.39.111.598.111.421 0 .817-.155 1.114-.437.15-.14.265-.305.345-.488.078-.18.117-.37.117-.567 0-.399-.164-.774-.462-1.056-.148-.14-.322-.25-.515-.326-.19-.074-.391-.111-.599-.111zM118.795 21.568h-.376v-1.525l-.8 1.223h-.197l-.81-1.239.009 1.54h-.376v-2.26h.294l.981 1.479.972-1.479h.303v2.26zm-2.877-1.928h-.866v1.928h-.377V19.64h-.866v-.333h2.109v.333z" transform="translate(-910 -186) translate(710 136) translate(56 50) translate(144.513)"/>
                        <g>
                            <path fill="#8095FF" d="M10.296 9.753C4.61 9.753 0 14.121 0 19.507h10.296V9.753z" transform="translate(-910 -186) translate(710 136) translate(56 50) translate(144.513) translate(0 .323)"/>
                            <path fill="#CCD5FE" d="M0 19.507v9.754h15.444c-2.635 0-5.27-.952-7.28-2.857l7.28-6.897 7.28 6.897c-2.01 1.905-4.646 2.857-7.28 2.857h15.443v-9.754H0z" transform="translate(-910 -186) translate(710 136) translate(56 50) translate(144.513) translate(0 .323)"/>
                            <path fill="#8095FF" d="M20.591 0c-5.686 0-10.295 4.367-10.295 9.754H20.59V0z" transform="translate(-910 -186) translate(710 136) translate(56 50) translate(144.513) translate(0 .323)"/>
                            <path fill="#002BFF" d="M20.591 9.753H10.296v9.754h20.591c0-5.386-4.61-9.754-10.296-9.754" transform="translate(-910 -186) translate(710 136) translate(56 50) translate(144.513) translate(0 .323)"/>
                            <path fill="#1A40FF" d="M15.444 19.507l-7.28 6.897c4.02 3.809 10.54 3.809 14.56 0l-7.28-6.897z" transform="translate(-910 -186) translate(710 136) translate(56 50) translate(144.513) translate(0 .323)"/>
                        </g>
                    </g>
                </g>
            </g>
        </g>
    </g>
</svg>
