<svg xmlns="http://www.w3.org/2000/svg" width="399" height="204" viewBox="0 0 399 204">
    <defs>
        <linearGradient id="pfy00791ja" x1="0%" x2="100%" y1="36.423%" y2="63.577%">
            <stop offset="0%" stop-color="#FFF289"/>
            <stop offset="100%" stop-color="#FBE322"/>
        </linearGradient>
        <linearGradient id="nsrqbgxplb" x1="5.084%" x2="100%" y1="36.77%" y2="63.23%">
            <stop offset="0%" stop-color="#3674F9"/>
            <stop offset="100%" stop-color="#002CFF"/>
        </linearGradient>
        <linearGradient id="08kwyqyspc" x1="0%" x2="100%" y1="2.494%" y2="97.506%">
            <stop offset="0%" stop-color="#FFF289"/>
            <stop offset="100%" stop-color="#FBE322"/>
        </linearGradient>
    </defs>
    <g fill="none" fill-rule="evenodd">
        <g>
            <g>
                <g>
                    <g>
                        <path fill="url(#pfy00791ja)" d="M110.444 0c57.415 0 103.958 45.103 103.958 100.74h.231c0 34.973 29.986 63.323 66.975 63.323 36.62 0 66.375-27.786 66.967-62.275l.008-1.047h39.503c0 55.637-47.673 100.74-106.48 100.74-58.22 0-105.526-44.205-106.466-99.074l-.015-1.666h2.175c0-35.767-29.934-64.762-66.858-64.762-36.925 0-66.858 28.995-66.858 64.762l-13.407-.001-12.88 14.032L1.44 97.502H6.54C8.303 43.363 54.148 0 110.444 0z" transform="translate(-761 -348) translate(710 136) translate(51 212)"/>
                        <path fill="url(#nsrqbgxplb)" d="M281.786 2.519c55.78 0 101.592 41.603 106.572 94.718h10.178l-32.43 35.79-32.431-35.79h16.445c-4.706-32.589-33.425-57.66-68.15-57.66-37.63 0-68.208 29.444-68.816 65.99l-.01 1.11.001.18h-.249C210.958 160.828 165.59 204 109.904 204 52.987 204 6.846 158.897 6.846 103.26h37.912l.008.87c.573 34.587 29.434 62.452 64.954 62.452 35.816 0 64.863-28.334 64.962-63.323h.145C176.773 47.3 223.915 2.519 281.786 2.519z" transform="translate(-761 -348) translate(710 136) translate(51 212)"/>
                        <path fill="url(#08kwyqyspc)" d="M42.64 97.301l11.774.001-27.207 29.852L0 97.302h10.721c.25-7.872 1.026-15.613 2.293-23.188h32.444c-1.554 7.53-2.511 15.275-2.819 23.187z" transform="translate(-761 -348) translate(710 136) translate(51 212)"/>
                    </g>
                    <text fill="#FFF" font-family="Montserrat-Bold, Montserrat" font-size="10" font-weight="bold" transform="translate(-761 -348) translate(710 136) translate(51 212) rotate(-90 194.173 108.573)">
                        <tspan x="170.173" y="112.073">RELEASE</tspan>
                    </text>
                    <text fill="#FFF" font-family="Montserrat-Bold, Montserrat" font-size="10" font-weight="bold" transform="translate(-761 -348) translate(710 136) translate(51 212)">
                        <tspan x="257.89" y="30.133">DEPLOY</tspan>
                    </text>
                    <text fill="#000" font-family="Montserrat-Bold, Montserrat" font-size="10" font-weight="bold" transform="translate(-761 -348) translate(710 136) translate(51 212)">
                        <tspan x="259.656" y="185.4">MONITOR</tspan>
                    </text>
                    <text fill="#000" font-family="Montserrat-Bold, Montserrat" font-size="10" font-weight="bold" transform="translate(-761 -348) translate(710 136) translate(51 212) rotate(35 154.945 35.29)">
                        <tspan x="140.395" y="38.79">PLAN</tspan>
                    </text>
                    <text fill="#000" font-family="Montserrat-Bold, Montserrat" font-size="10" font-weight="bold" transform="translate(-761 -348) translate(710 136) translate(51 212) rotate(-35 54.512 39.823)">
                        <tspan x="39.142" y="43.323">CODE</tspan>
                    </text>
                    <text fill="#FFF" font-family="Montserrat-Bold, Montserrat" font-size="10" font-weight="bold" transform="translate(-761 -348) translate(710 136) translate(51 212)">
                        <tspan x="95.401" y="191.067">TEST</tspan>
                    </text>
                    <text fill="#FFF" font-family="Montserrat-Bold, Montserrat" font-size="10" font-weight="bold" transform="translate(-761 -348) translate(710 136) translate(51 212) rotate(65 356.29 69.525)">
                        <tspan x="331.106" y="73.025">OPERATE</tspan>
                    </text>
                    <text fill="#FFF" font-family="Montserrat-Bold, Montserrat" font-size="10" font-weight="bold" transform="translate(-761 -348) translate(710 136) translate(51 212) rotate(-125 51.106 154.533)">
                        <tspan x="34.551" y="158.033">BUILD</tspan>
                    </text>
                    <text fill="#2A3034" font-family="Montserrat-Bold, Montserrat" font-size="18" font-weight="bold" transform="translate(-761 -348) translate(710 136) translate(51 212)">
                        <tspan x="90.197" y="113.667">Dev</tspan>
                    </text>
                    <text fill="#2A3034" font-family="Montserrat-Bold, Montserrat" font-size="18" font-weight="bold" transform="translate(-761 -348) translate(710 136) translate(51 212)">
                        <tspan x="261.07" y="113.667">Ops</tspan>
                    </text>
                </g>
            </g>
        </g>
    </g>
</svg>
