<svg xmlns="http://www.w3.org/2000/svg" width="324" height="242" viewBox="0 0 324 242">
    <defs>
        <linearGradient id="09cbtvedzb" x1="0%" x2="100%" y1="19.433%" y2="80.567%">
            <stop offset="0%" stop-color="#FFF5A3"/>
            <stop offset="100%" stop-color="#FBE322"/>
        </linearGradient>
        <filter id="cj9gqjojva" width="150%" height="150%" x="-25%" y="-25%" filterUnits="objectBoundingBox">
            <feOffset dy="4" in="SourceAlpha" result="shadowOffsetOuter1"/>
            <feGaussianBlur in="shadowOffsetOuter1" result="shadowBlurOuter1" stdDeviation="4.5"/>
            <feColorMatrix in="shadowBlurOuter1" result="shadowMatrixOuter1" values="0 0 0 0 0 0 0 0 0 0 0 0 0 0 0 0 0 0 0.132921766 0"/>
            <feMerge>
                <feMergeNode in="shadowMatrixOuter1"/>
                <feMergeNode in="SourceGraphic"/>
            </feMerge>
        </filter>
    </defs>
    <g fill="none" fill-rule="evenodd">
        <g>
            <g>
                <g>
                    <g transform="translate(-298 -320) translate(190 136) translate(108 184) translate(0 76)">
                        <rect width="109.944" height="23.03" x="53.703" y="97.513" fill="#5E5E5E" opacity=".2" rx="3" transform="rotate(-90 108.675 109.028)"/>
                        <path fill="#828282" d="M116.368 110.37h76.458c1.657 0 3 1.343 3 3v18.802c0 1.657-1.343 3-3 3h-76.458c-1.657 0-3-1.343-3-3V113.37c0-1.657 1.343-3 3-3z" opacity=".2" transform="rotate(-90 154.597 122.77)"/>
                        <path fill="#BBB" d="M148.029 93.45h108.525c1.657 0 3 1.344 3 3v20.574c0 1.657-1.343 3-3 3H148.03c-1.657 0-3-1.343-3-3V96.45c0-1.657 1.343-3 3-3z" opacity=".2" transform="rotate(-90 202.292 106.737)"/>
                        <path fill="#D3D3D3" d="M171.871 68.714h158c1.657 0 3 1.343 3 3v20.572c0 1.657-1.343 3-3 3h-158c-1.656 0-3-1.343-3-3V71.714c0-1.657 1.344-3 3-3z" opacity=".2" transform="rotate(-90 250.871 82)"/>
                        <path fill="#3D3D3D" d="M5.75 140.177h15.073c1.657 0 3 1.343 3 3v20.573c0 1.657-1.343 3-3 3H5.75c-1.657 0-3-1.343-3-3v-20.573c0-1.657 1.343-3 3-3z" opacity=".396" transform="rotate(-90 13.286 153.464)"/>
                        <path fill="#464646" d="M38.755 123.686h46.223c1.657 0 3 1.343 3 3v20.573c0 1.656-1.343 3-3 3H38.755c-1.657 0-3-1.344-3-3v-20.573c0-1.657 1.343-3 3-3z" opacity=".3" transform="rotate(-90 61.866 136.972)"/>
                        <g filter="url(#cj9gqjojva)" transform="translate(222 64)">
                            <path fill="#FFF" fill-opacity="0" d="M0 0H102V102H0z"/>
                            <path fill="#0E4BFF" fill-rule="nonzero" d="M71.14 64.419l16.618 16.617c.39.39.39 1.024 0 1.414l-5.348 5.348c-.39.39-1.024.39-1.414 0L64.379 71.18c-.39-.39-.39-1.024 0-1.415l5.347-5.347c.391-.39 1.024-.39 1.415 0zM46.22 18.353c3.843 0 7.461.731 10.85 2.194 3.377 1.459 6.336 3.445 8.873 5.956 2.538 2.512 4.538 5.461 5.998 8.841 1.463 3.388 2.194 7.007 2.194 10.85 0 3.842-.731 7.473-2.193 10.885-1.46 3.405-3.46 6.367-6 8.88-2.536 2.512-5.495 4.497-8.873 5.956-3.388 1.463-7.006 2.194-10.85 2.194-3.842 0-7.46-.731-10.849-2.194-3.377-1.459-6.337-3.444-8.873-5.955-2.54-2.514-4.54-5.476-6-8.881-1.462-3.412-2.193-7.043-2.193-10.885 0-3.843.732-7.462 2.195-10.85 1.46-3.38 3.46-6.329 5.998-8.841 2.536-2.511 5.496-4.497 8.873-5.956 3.388-1.463 7.007-2.194 10.85-2.194zm0 7.944c-2.73 0-5.3.526-7.713 1.577-2.426 1.057-4.548 2.484-6.37 4.282-1.818 1.794-3.241 3.899-4.272 6.319-1.028 2.415-1.542 4.986-1.542 7.719 0 2.783.514 5.378 1.542 7.793 1.03 2.42 2.454 4.525 4.272 6.32 1.822 1.798 3.944 3.224 6.37 4.281 2.414 1.052 4.982 1.578 7.713 1.578 2.73 0 5.299-.526 7.712-1.578 2.427-1.057 4.548-2.483 6.37-4.281 1.819-1.795 3.242-3.9 4.272-6.32 1.028-2.415 1.543-5.01 1.543-7.793 0-2.733-.514-5.304-1.543-7.719-1.03-2.42-2.453-4.525-4.271-6.32-1.823-1.797-3.944-3.224-6.37-4.28-2.414-1.052-4.983-1.578-7.713-1.578z"/>
                        </g>
                    </g>
                    <path fill="url(#09cbtvedzb)" fill-rule="nonzero" d="M237.762 6.906c4.374 0 7.92 3.545 7.92 7.918s-3.546 7.918-7.92 7.918c-1.25 0-2.431-.289-3.482-.804l-35.645 32.84c.407.954.633 2.004.633 3.106 0 4.373-3.546 7.918-7.92 7.918-1.333 0-2.588-.329-3.69-.91l-29.45 27.135c.589 1.107.923 2.371.923 3.713 0 4.374-3.546 7.919-7.92 7.919-4.374 0-7.92-3.545-7.92-7.919 0-.426.034-.844.098-1.252L116.63 75.053c-.887.343-1.851.531-2.86.531-1.143 0-2.23-.242-3.211-.678l-40.7 48.65c.588 1.106.92 2.368.92 3.708 0 4.373-3.545 7.918-7.92 7.918-.841 0-1.652-.13-2.413-.374l-40.57 48.496c.634 1.138.995 2.45.995 3.845 0 4.373-3.546 7.918-7.92 7.918-4.374 0-7.92-3.545-7.92-7.918 0-4.374 3.546-7.919 7.92-7.919 1.059 0 2.07.208 2.993.585l40.439-47.992c-.91-1.29-1.443-2.862-1.443-4.559 0-4.373 3.545-7.918 7.92-7.918 1.214 0 2.365.273 3.393.761L106.99 71.76c-.722-1.194-1.138-2.595-1.138-4.093 0-4.373 3.546-7.918 7.92-7.918 4.374 0 7.92 3.545 7.92 7.918 0 1.327-.327 2.578-.904 3.677l25.291 18.367c1.382-1.177 3.175-1.888 5.133-1.888 1.153 0 2.25.247 3.238.69l29.651-27.43c-.432-.978-.673-2.06-.673-3.198 0-4.373 3.546-7.919 7.92-7.919 1.357 0 2.634.341 3.75.943l35.456-32.8c-.456-1-.71-2.113-.71-3.284 0-4.373 3.545-7.918 7.92-7.918z" transform="translate(-298 -320) translate(190 136) translate(108 184) rotate(3 126.856 158.269)"/>
                </g>
            </g>
        </g>
    </g>
</svg>
