<svg xmlns="http://www.w3.org/2000/svg" xmlns:xlink="http://www.w3.org/1999/xlink" width="106" height="57" viewBox="0 0 106 57">
    <defs>
        <path id="xabzunzw7a" d="M0 0H106V57H0z"/>
    </defs>
    <g fill="none" fill-rule="evenodd">
        <g>
            <g>
                <g transform="translate(-1427 -176) translate(1230 136) translate(197 40)">
                    <mask id="sln0noxysb" fill="#fff">
                        <use xlink:href="#xabzunzw7a"/>
                    </mask>
                    <use fill="#D8D8D8" fill-opacity="0" xlink:href="#xabzunzw7a"/>
                    <g mask="url(#sln0noxysb)">
                        <path d="M37 0H70V33H37z" opacity=".2"/>
                        <path fill="#002BFF" d="M59.321 11.748H47.573C41.733 11.748 37 16.482 37 22.32h32.894c0-5.84-4.733-10.573-10.573-10.573M47.573 5.286c0 2.271-1.84 4.112-4.111 4.112-2.272 0-4.112-1.84-4.112-4.112 0-2.27 1.84-4.111 4.112-4.111 2.27 0 4.111 1.84 4.111 4.111"/>
                        <path fill="#8095FF" d="M47.573 32.894L69.895 32.894 69.895 22.322 47.573 22.322zM67.545 4.112c0 2.27-1.84 4.112-4.112 4.112-2.27 0-4.112-1.842-4.112-4.112C59.321 1.84 61.162 0 63.433 0s4.112 1.84 4.112 4.112"/>
                        <path fill="#CCD5FE" d="M37 22.321c0 5.84 4.734 10.573 10.573 10.573V22.321H37z"/>
                        <g fill="#000">
                            <path d="M85.284 3.316c1.51 0 2.692 1.134 2.692 2.61 0 1.497-1.182 2.61-2.692 2.61-1.533 0-2.704-1.113-2.704-2.61 0-1.476 1.171-2.61 2.704-2.61zm6.566-1.7v1.829h1.915v.695H91.85v2.428c0 .856.372 1.208 1.094 1.208.285 0 .602-.074.876-.17l.12.748c-.416.14-.766.182-1.073.182-1.247 0-1.85-.674-1.85-1.968V4.14h-1.323v-.695h1.324v-1.83h.832zm6.38 1.7c1.062 0 2.113.396 2.211 1.573h-.777c-.088-.62-.624-.91-1.434-.91-.766 0-1.226.29-1.226.739 0 .363.252.63.942.748l1.007.161c.733.117 1.51.438 1.51 1.39 0 .974-.897 1.519-2.145 1.519-1.292 0-2.211-.524-2.364-1.69h.777c.153.663.678 1.016 1.609 1.016.788 0 1.324-.289 1.324-.791 0-.417-.34-.664-.832-.75l-1.149-.18c-.832-.14-1.51-.504-1.51-1.348 0-.92.831-1.477 2.057-1.477zM77.557 1.135c1.5 0 2.419.716 2.419 1.84 0 .802-.46 1.432-1.259 1.668 1.094.181 1.642.877 1.642 1.775 0 1.188-1.062 1.99-2.714 1.99H74.47V1.135h3.087zm7.727 2.93c-1.073 0-1.872.835-1.872 1.861 0 1.049.8 1.861 1.872 1.861 1.061 0 1.85-.812 1.85-1.86 0-1.027-.789-1.862-1.85-1.862zm-7.65 1.016h-2.299V7.66h2.277c1.193 0 1.893-.567 1.893-1.326 0-.792-.7-1.252-1.871-1.252zm-.165-3.198h-2.134v2.493h2.025c1.15 0 1.795-.503 1.795-1.305 0-.728-.635-1.188-1.686-1.188zM44.762.35v1.37c.52-.273 1.103-.419 1.709-.419.473 0 .934.089 1.369.263.443.178.84.436 1.179.768.68.665 1.055 1.55 1.055 2.49v3.52H48.18v-3.52c0-.446-.178-.865-.5-1.181-.162-.158-.35-.28-.56-.365-.206-.082-.424-.124-.65-.124-.455 0-.884.174-1.207.489-.162.158-.287.342-.374.547-.084.2-.127.414-.127.634v3.52h-1.894V.351h1.894zm-22.25.951c.473 0 .934.089 1.369.263.442.178.839.436 1.178.768.68.665 1.056 1.55 1.056 2.49v3.52H24.22v-3.52c0-.446-.177-.865-.5-1.181-.162-.158-.35-.28-.56-.365-.205-.082-.423-.124-.648-.124-.457 0-.886.174-1.209.489-.16.158-.287.342-.373.547-.084.2-.127.414-.127.634v3.52H18.91v-3.52c0-.463.09-.913.27-1.338.181-.432.446-.82.785-1.152.68-.665 1.585-1.03 2.548-1.03zm-8.795 0c.474 0 .934.089 1.37.264.441.177.838.435 1.178.767.68.665 1.055 1.55 1.055 2.49 0 .462-.09.912-.27 1.338-.181.432-.446.82-.785 1.151-.68.665-1.585 1.031-2.548 1.031-.473 0-.934-.088-1.369-.263-.442-.178-.84-.436-1.179-.768-.68-.665-1.055-1.549-1.055-2.49 0-.462.09-.912.27-1.337.182-.432.446-.82.785-1.152.681-.664 1.586-1.03 2.548-1.03zm25.011-.95v1.698h2.208V3.9h-2.208v.922c0 .446.178.865.5 1.18.162.158.35.281.56.365.206.083.424.125.649.125h.499v1.85h-.499c-.473 0-.934-.088-1.369-.263-.442-.178-.839-.436-1.179-.768-.68-.664-1.055-1.549-1.055-2.49V.352h1.894zm-7.298.95c.474 0 .934.089 1.37.264.442.177.838.435 1.178.767.68.665 1.055 1.55 1.055 2.49v3.52H33.14v-.42c-.519.275-1.102.42-1.709.42-.473 0-.933-.088-1.369-.263-.442-.178-.839-.436-1.178-.768-.68-.665-1.055-1.549-1.055-2.49 0-.462.09-.912.269-1.337.182-.432.446-.82.786-1.152.68-.664 1.585-1.03 2.547-1.03zm32.963 0c.473 0 .934.089 1.369.263.443.178.84.437 1.179.768.68.665 1.055 1.55 1.055 2.49v3.52h-1.894v-3.52c0-.446-.178-.865-.5-1.18-.162-.158-.35-.281-.56-.366-.205-.082-.424-.124-.649-.124-.456 0-.885.174-1.208.49-.162.157-.287.34-.373.546-.085.2-.128.414-.128.634v3.52h-1.893v-3.52c0-.463.09-.913.269-1.338.182-.432.446-.82.786-1.152.68-.665 1.585-1.031 2.547-1.031zm-9.042 0c.474 0 .934.089 1.37.264.442.177.838.436 1.178.767.68.665 1.055 1.55 1.055 2.49v3.52H57.06v-.42c-.519.275-1.102.42-1.709.42-.473 0-.934-.088-1.368-.263-.443-.178-.84-.436-1.18-.768-.68-.665-1.055-1.549-1.055-2.49 0-.462.091-.912.27-1.337.182-.432.446-.82.786-1.152.68-.664 1.585-1.03 2.547-1.03zm-46.869.002V4.36c0 .524-.103 1.033-.305 1.513-.205.49-.504.928-.889 1.303-.77.752-1.793 1.166-2.881 1.166-1.088 0-2.112-.414-2.881-1.166-.384-.375-.684-.814-.89-1.303-.201-.48-.304-.99-.304-1.513h1.894c0 .28.055.553.163.81.11.261.27.496.476.697.412.403.96.625 1.542.625.583 0 1.13-.222 1.542-.625.206-.2.366-.436.476-.697.108-.257.163-.53.163-.81V1.303h1.894zm5.235 1.849c-.456 0-.885.174-1.208.49-.161.157-.287.341-.373.546-.085.2-.127.414-.127.634 0 .446.177.865.5 1.18.162.158.35.281.56.365.205.083.423.125.648.125.457 0 .886-.174 1.208-.49.162-.157.287-.341.374-.546.084-.2.127-.414.127-.634 0-.446-.178-.866-.5-1.18-.162-.159-.35-.281-.56-.365-.205-.083-.424-.125-.649-.125zm17.713 0c-.456 0-.885.174-1.208.49-.161.157-.287.341-.373.546-.085.2-.127.414-.127.634 0 .446.177.865.5 1.18.162.158.35.281.56.365.205.083.423.125.648.125.457 0 .886-.174 1.209-.49.161-.157.287-.341.373-.546.084-.2.127-.414.127-.634 0-.446-.178-.866-.5-1.18-.162-.159-.35-.281-.56-.365-.205-.083-.424-.125-.649-.125zm23.921 0c-.456 0-.885.174-1.208.49-.161.157-.287.34-.373.546-.085.2-.127.414-.127.634 0 .446.177.865.5 1.18.162.158.35.281.56.365.205.083.423.125.648.125.457 0 .886-.174 1.208-.49.162-.157.288-.341.374-.546.084-.2.127-.414.127-.634 0-.446-.178-.866-.5-1.18-.162-.159-.35-.281-.56-.365-.205-.083-.424-.125-.649-.125zM105.956 3.275h-.345V1.83l-.736 1.159h-.18l-.743-1.173.008 1.459h-.346V1.134h.27l.901 1.4.893-1.4h.278v2.141zm-2.642-1.826h-.795v1.826h-.346V1.449h-.795v-.315h1.936v.315z" transform="translate(0 43)"/>
                        </g>
                    </g>
                </g>
            </g>
        </g>
    </g>
</svg>
