<svg xmlns="http://www.w3.org/2000/svg" xmlns:xlink="http://www.w3.org/1999/xlink" width="144" height="57" viewBox="0 0 144 57">
    <defs>
        <path id="6mmqc42sla" d="M0 0H144V57H0z"/>
    </defs>
    <g fill="none" fill-rule="evenodd">
        <g>
            <g>
                <g transform="translate(-368 -176) translate(190 136) translate(178 40)">
                    <mask id="fzf2uxr3kb" fill="#fff">
                        <use xlink:href="#6mmqc42sla"/>
                    </mask>
                    <use fill="#D8D8D8" fill-opacity="0" xlink:href="#6mmqc42sla"/>
                    <g mask="url(#fzf2uxr3kb)">
                        <path fill="#000" d="M127.67 46.177c1.442 0 2.592 1.17 2.592 2.635 0 1.475-1.15 2.636-2.593 2.636-.716 0-1.323-.239-1.768-.65v3.047h-.824v-7.55h.824v.533c.445-.413 1.052-.651 1.768-.651zm-42.76-.011c.715 0 1.323.238 1.768.65v-.52h.824v5.033h-.824v-.52c-.445.411-1.053.65-1.769.65-1.443 0-2.592-1.171-2.592-2.647 0-1.464 1.15-2.646 2.592-2.646zm6.735-1.725v1.855h1.898V47h-1.898v2.462c0 .868.369 1.226 1.085 1.226.282 0 .597-.076.868-.174l.12.76c-.413.14-.76.184-1.064.184-1.237 0-1.833-.683-1.833-1.996v-2.462h-1.313v-.705h1.313V44.44h.824zm6.455 1.725c.715 0 1.323.238 1.768.65v-.52h.824v5.033h-.824v-.52c-.445.411-1.053.65-1.768.65-1.443 0-2.593-1.171-2.593-2.647 0-1.464 1.15-2.646 2.593-2.646zm7.365 0c1.052 0 2.094.401 2.191 1.594h-.77c-.087-.63-.618-.922-1.421-.922-.76 0-1.215.293-1.215.749 0 .368.25.64.933.759l.998.163c.727.119 1.497.444 1.497 1.41 0 .987-.89 1.54-2.126 1.54-1.28 0-2.192-.532-2.344-1.714h.77c.153.673.673 1.03 1.595 1.03.782 0 1.313-.292 1.313-.802 0-.423-.336-.673-.825-.76l-1.139-.184c-.824-.14-1.497-.51-1.497-1.366 0-.933.825-1.497 2.04-1.497zm7.083 0c1.215 0 2.181.748 2.376 1.854h-.857c-.152-.661-.738-1.095-1.519-1.095-1.095 0-1.811.846-1.811 1.887 0 1.052.716 1.888 1.811 1.888.781 0 1.367-.423 1.52-1.085h.856c-.195 1.095-1.16 1.844-2.376 1.844-1.53 0-2.636-1.16-2.636-2.647 0-1.486 1.107-2.646 2.636-2.646zm7.3 0c1.498 0 2.67 1.15 2.67 2.646 0 1.519-1.172 2.647-2.67 2.647-1.518 0-2.68-1.128-2.68-2.647 0-1.496 1.162-2.646 2.68-2.646zm15.252 0c1.464 0 2.484 1.063 2.494 2.581 0 .109 0 .206-.021.315l-.032-.011v.011h-4.188c.097.932.737 1.66 1.79 1.66.64 0 1.128-.228 1.345-.651h.922c-.315.867-1.182 1.388-2.267 1.388-1.552 0-2.625-1.16-2.625-2.647 0-1.486 1.063-2.646 2.582-2.646zm-58.89-2.213c2.278 0 3.894 1.508 3.894 3.634 0 2.19-1.616 3.742-3.894 3.742h-2.593v-7.376h2.593zm51.35 2.95c-.66 0-1.247.272-1.659.879v2.06c.412.608.998.88 1.66.88 1.063 0 1.877-.869 1.877-1.91 0-1.04-.814-1.909-1.877-1.909zm-42.542.022c-1.063 0-1.877.846-1.877 1.887s.814 1.888 1.877 1.888c.661 0 1.247-.25 1.66-.857v-2.061c-.413-.607-.999-.857-1.66-.857zm13.19 0c-1.063 0-1.877.846-1.877 1.887s.814 1.888 1.877 1.888c.662 0 1.248-.25 1.66-.857v-2.061c-.412-.607-.998-.857-1.66-.857zm21.64 0c-1.063 0-1.854.846-1.854 1.887 0 1.063.791 1.888 1.854 1.888 1.053 0 1.834-.825 1.834-1.888 0-1.04-.781-1.887-1.834-1.887zm-43.638-2.18h-1.736v5.792h1.736c1.757 0 3.016-1.226 3.016-2.95 0-1.649-1.259-2.842-3.016-2.842zm58.89 2.136c-.999 0-1.617.706-1.736 1.595h3.384c-.086-.976-.694-1.595-1.648-1.595zM13.4 44.122c.47 0 .926.09 1.357.267.439.18.832.442 1.168.779.675.674 1.046 1.571 1.046 2.525 0 .468-.09.925-.267 1.356-.18.439-.442.832-.778 1.168-.675.674-1.572 1.046-2.526 1.046-.469 0-.925-.09-1.356-.267-.439-.18-.832-.442-1.169-.779-.674-.674-1.046-1.57-1.046-2.524 0-.47.09-.926.267-1.357.18-.439.443-.831.78-1.168.674-.674 1.57-1.046 2.524-1.046zm24.79-.963v1.722h2.188v1.877H38.19v.935c0 .452.177.877.497 1.197.16.16.346.285.554.37.204.083.42.126.643.126h.494v1.877h-.494c-.47 0-.926-.09-1.357-.267-.438-.18-.831-.442-1.168-.779-.675-.674-1.046-1.57-1.046-2.524v-4.534h1.877zm-7.233.963c.47 0 .926.09 1.357.267.438.18.831.442 1.168.779.675.674 1.046 1.571 1.046 2.525v3.57h-1.877v-.426c-.515.278-1.093.426-1.694.426-.47 0-.925-.09-1.357-.267-.438-.18-.831-.442-1.168-.779-.674-.674-1.046-1.57-1.046-2.524 0-.47.09-.926.267-1.357.18-.439.442-.831.779-1.168.675-.674 1.571-1.046 2.525-1.046zm13.214-.963v1.389c.514-.278 1.093-.426 1.694-.426.469 0 .925.09 1.357.267.438.18.831.442 1.168.779.674.674 1.046 1.571 1.046 2.525v3.57h-1.878v-3.57c0-.453-.176-.878-.496-1.198-.16-.16-.346-.284-.554-.37-.204-.083-.42-.126-.643-.126-.452 0-.878.176-1.198.496-.16.16-.284.347-.37.554-.084.204-.126.42-.126.644v3.57h-1.877v-8.104h1.877zm-22.054.963c.47 0 .926.09 1.357.267.439.18.832.442 1.168.779.675.674 1.046 1.571 1.046 2.525v3.57h-1.877v-3.57c0-.453-.176-.878-.496-1.198-.16-.16-.347-.284-.555-.37-.203-.083-.42-.126-.643-.126-.452 0-.877.176-1.197.496-.16.16-.285.347-.37.554-.084.204-.126.42-.126.644v3.57h-1.878v-3.57c0-.47.09-.926.267-1.357.18-.439.443-.831.78-1.168.674-.674 1.57-1.046 2.524-1.046zm41.512 0c.469 0 .925.09 1.356.267.44.18.832.443 1.169.779.674.674 1.046 1.57 1.046 2.525v3.57h-1.878v-3.57c0-.453-.176-.878-.496-1.198-.16-.16-.346-.284-.554-.37-.204-.083-.42-.126-.643-.126-.453 0-.878.176-1.198.496-.16.16-.285.347-.37.555-.084.203-.126.42-.126.643v3.57h-1.877v-3.57c0-.47.09-.926.266-1.357.18-.439.443-.832.78-1.168.674-.674 1.57-1.046 2.525-1.046zm-8.963 0c.47 0 .926.09 1.357.267.44.18.832.443 1.169.779.674.674 1.046 1.571 1.046 2.525v3.57H56.36v-.426c-.514.278-1.092.426-1.694.426-.468 0-.925-.09-1.356-.267-.439-.18-.832-.442-1.168-.779-.675-.674-1.046-1.57-1.046-2.524 0-.47.09-.926.267-1.357.18-.439.442-.832.779-1.168.674-.674 1.57-1.046 2.524-1.046zm-46.454.002v3.1c0 .531-.102 1.047-.302 1.535-.204.496-.5.94-.881 1.321-.763.763-1.778 1.183-2.856 1.183-1.08 0-2.094-.42-2.856-1.183-.381-.38-.678-.825-.881-1.321-.2-.488-.302-1.004-.302-1.534H2.01c0 .284.054.56.161.82.11.266.268.504.472.708.408.408.951.633 1.529.633.577 0 1.12-.225 1.528-.633.204-.204.363-.442.472-.708.107-.26.161-.536.161-.82v-3.1h1.878zM13.4 46c-.452 0-.877.176-1.197.496-.16.16-.285.347-.37.555-.084.203-.126.42-.126.643 0 .452.176.877.496 1.197.16.16.347.285.554.37.204.083.42.126.643.126.453 0 .878-.176 1.198-.496.16-.16.284-.347.37-.555.084-.203.126-.42.126-.642 0-.453-.176-.878-.496-1.198-.16-.16-.347-.284-.555-.37-.203-.083-.42-.126-.643-.126zm17.557 0c-.452 0-.878.176-1.197.496-.16.16-.285.347-.37.555-.084.203-.126.42-.126.643 0 .452.176.877.496 1.197.16.16.346.285.554.37.204.083.42.126.643.126.453 0 .878-.176 1.198-.496.16-.16.284-.347.37-.555.083-.203.126-.42.126-.642 0-.453-.177-.878-.496-1.198-.16-.16-.347-.284-.555-.37-.203-.083-.42-.126-.643-.126zm23.71 0c-.453 0-.878.176-1.198.496-.16.16-.285.347-.37.555-.083.203-.126.42-.126.643 0 .452.176.877.496 1.197.16.16.347.285.554.37.204.083.42.126.643.126.453 0 .878-.176 1.198-.496.16-.16.285-.347.37-.555.084-.203.126-.42.126-.642 0-.453-.176-.878-.496-1.198-.16-.16-.347-.284-.554-.37-.204-.083-.42-.126-.644-.126zM143.032 46.124h-.342v-1.465l-.729 1.175h-.178l-.737-1.19.008 1.48h-.343v-2.172h.268l.893 1.42.885-1.42h.275v2.172zm-2.618-1.852h-.789v1.852h-.342v-1.852h-.788v-.32h1.919v.32z"/>
                        <g>
                            <path d="M0 0H33V33H0z" opacity=".2" transform="translate(56)"/>
                            <path fill="#002BFF" d="M16.498 25.768c-6.953 0-13.02-3.73-16.269-9.27 0 8.985 7.284 16.268 16.269 16.268 8.984 0 16.268-7.283 16.268-16.268-3.25 5.54-9.315 9.27-16.268 9.27M16.498 7.227c6.953 0 13.019 3.73 16.268 9.27C32.766 7.512 25.482.23 16.498.23 7.513.23.23 7.512.229 16.497c3.25-5.54 9.316-9.27 16.269-9.27" transform="translate(56)"/>
                            <path fill="#002BFF" d="M16.498 7.227v9.27H7.227c0 5.12 4.15 9.271 9.27 9.271 5.12 0 9.272-4.15 9.272-9.27 0-5.12-4.151-9.271-9.271-9.271" transform="translate(56)"/>
                            <path fill="#8095FF" d="M16.498 7.227c-5.12 0-9.271 4.15-9.271 9.27h9.27v-9.27z" transform="translate(56)"/>
                            <path fill="#CCD5FE" d="M16.51 7.227c5.114.007 9.259 4.155 9.259 9.27 0 5.117-4.145 9.265-9.26 9.271 6.948-.004 13.01-3.733 16.257-9.27-3.247-5.538-9.308-9.267-16.256-9.27M7.227 16.498c0-5.117 4.145-9.265 9.26-9.27-6.949.003-13.01 3.732-16.258 9.27 3.247 5.537 9.309 9.266 16.257 9.27-5.115-.006-9.259-4.154-9.259-9.27" transform="translate(56)"/>
                        </g>
                    </g>
                </g>
            </g>
        </g>
    </g>
</svg>
