<svg width="301" height="402" viewBox="0 0 301 402" fill="none" xmlns="http://www.w3.org/2000/svg">
<path d="M69 71.5V153.5L0 106.5V26L82 0L150 46L69 71.5Z" fill="#164ABE"/>
<path d="M150.5 127.5L69 153.5V71.5L150 46L150.5 127.5Z" fill="#2D76F8"/>
<path d="M219 208V290L150 243V162.5L232 136.5L300 182.5L219 208Z" fill="#3BABFF"/>
<path d="M300.5 264L219 290V208L300 182.5L300.5 264Z" fill="#6CDDFF"/>
<path d="M69 320V402L0 355V274.5L82 248.5L150 294.5L69 320Z" fill="#F3B95B"/>
<path d="M150.5 376L69 402V320L150 294.5L150.5 376Z" fill="#FFE953"/>
</svg>
