<svg width="229" height="377" viewBox="0 0 229 377" fill="none" xmlns="http://www.w3.org/2000/svg">
<path d="M165.035 4.12891L216.174 32.3984V286.507L189.175 322.717L58.9445 363.057V376.08L7.16992 347.81V335.74L138.353 294.448L164.717 259.19L165.035 4.12891Z" fill="#002F77"/>
<path d="M165.035 4.12926L178.375 0L228.879 27.9519L228.244 290.319L197.434 331.611L58.627 375.763V363.375L189.175 322.717L216.174 286.507V32.3988L165.035 4.12926Z" fill="#1E5BC5"/>
<circle opacity="0.5" cx="190.446" cy="60.9849" r="3.17635" fill="white"/>
<circle opacity="0.5" cx="170.753" cy="292.86" r="3.17635" fill="white"/>
<circle opacity="0.5" cx="138.989" cy="317.633" r="3.17635" fill="white"/>
<path d="M44.16 75.2215V127.039L0 97.3387V46.469L52.48 30.0391L96 59.1075L44.16 75.2215Z" fill="#3BABFF"/>
<path d="M96 110.593L44 127.039V75.1693L95.681 59.0391L96 110.593Z" fill="#6CDDFF"/>
<path d="M139.7 162.221V214.039L96 184.339V133.469L147.933 117.039L191 146.107L139.7 162.221Z" fill="#F3B95B"/>
<path d="M191 197.593L140 214.039V162.169L190.687 146.039L191 197.593Z" fill="#FFE953"/>
<path d="M44.16 233.221V285.039L0 255.339V204.469L52.48 188.039L96 217.107L44.16 233.221Z" fill="#164ABE"/>
<path d="M96 268.593L44 285.039V233.169L95.681 217.039L96 268.593Z" fill="#2D76F8"/>
</svg>
