<svg width="228" height="377" viewBox="0 0 228 377" fill="none" xmlns="http://www.w3.org/2000/svg">
<path d="M164.862 4.03906L216 32.3123V286.454L189.002 322.669L58.7736 363.014V376.039L7 347.766V335.694L138.181 294.396L164.544 259.134L164.862 4.03906Z" fill="#002F77"/>
<path d="M164.25 4.17093L177.571 0.0390625L228 28.0086L227.366 290.541L196.601 331.86L58 376.039V363.643L188.354 322.96L215.313 286.727V32.4583L164.25 4.17093Z" fill="#1E5BC5"/>
<circle opacity="0.5" cx="190" cy="61.0391" r="3" fill="white"/>
<ellipse opacity="0.5" cx="170.5" cy="293.039" rx="3.5" ry="3" fill="white"/>
<circle opacity="0.5" cx="138.5" cy="317.539" r="3.5" fill="white"/>
<path d="M43.7 75.2215V127.039L0 97.3387V46.469L51.9333 30.0391L95 59.1075L43.7 75.2215Z" fill="#164ABE"/>
<path d="M96 110.593L44 127.039V75.1693L95.681 59.0391L96 110.593Z" fill="#2D76F8"/>
<path d="M139.16 162.221V214.039L95 184.339V133.469L147.48 117.039L191 146.107L139.16 162.221Z" fill="#3BABFF"/>
<path d="M191 197.593L139 214.039V162.169L190.681 146.039L191 197.593Z" fill="#6CDDFF"/>
<path d="M43.7 233.221V285.039L0 255.339V204.469L51.9333 188.039L95 217.107L43.7 233.221Z" fill="#F3B95B"/>
<path d="M96 268.593L44 285.039V233.169L95.681 217.039L96 268.593Z" fill="#FFE953"/>
</svg>
