<svg width="301" height="402" viewBox="0 0 301 402" fill="none" xmlns="http://www.w3.org/2000/svg">
<path d="M69.5 71.5V153.5L0.5 106.5V26L82.5 0L150.5 46L69.5 71.5Z" fill="#F3B95B"/>
<path d="M151 127.5L69.5 153.5V71.5L150.5 46L151 127.5Z" fill="#FFE953"/>
<path d="M219.5 208V290L150.5 243V162.5L232.5 136.5L300.5 182.5L219.5 208Z" fill="#164ABE"/>
<path d="M301 264L219.5 290V208L300.5 182.5L301 264Z" fill="#2D76F8"/>
<path d="M69.5 320V402L0.5 355V274.5L82.5 248.5L150.5 294.5L69.5 320Z" fill="#3BABFF"/>
<path d="M151 376L69.5 402V320L150.5 294.5L151 376Z" fill="#6CDDFF"/>
</svg>
