<svg width="110" height="60" viewBox="0 0 110 60" fill="none" xmlns="http://www.w3.org/2000/svg">
<path d="M110 10C110 15.5 105.5 20 100 20C99.1 20 98.25 19.9 97.45 19.65L79.65 37.4C79.9 38.2 80 39.1 80 40C80 45.5 75.5 50 70 50C64.5 50 60 45.5 60 40C60 39.1 60.1 38.2 60.35 37.4L47.6 24.65C46.8 24.9 45.9 25 45 25C44.1 25 43.2 24.9 42.4 24.65L19.65 47.45C19.9 48.25 20 49.1 20 50C20 55.5 15.5 60 10 60C4.5 60 0 55.5 0 50C0 44.5 4.5 40 10 40C10.9 40 11.75 40.1 12.55 40.35L35.35 17.6C35.1 16.8 35 15.9 35 15C35 9.5 39.5 5 45 5C50.5 5 55 9.5 55 15C55 15.9 54.9 16.8 54.65 17.6L67.4 30.35C68.2 30.1 69.1 30 70 30C70.9 30 71.8 30.1 72.6 30.35L90.35 12.55C90.1 11.75 90 10.9 90 10C90 4.5 94.5 0 100 0C105.5 0 110 4.5 110 10Z" fill="#423F4A"/>
</svg>
