<svg width="18" height="18" viewBox="0 0 18 18" fill="none" xmlns="http://www.w3.org/2000/svg">
<path d="M8.16699 4.83268H9.83366V6.49935H8.16699V4.83268ZM8.16699 8.16602H9.83366V13.166H8.16699V8.16602ZM9.00033 0.666016C4.40033 0.666016 0.666992 4.39935 0.666992 8.99935C0.666992 13.5993 4.40033 17.3327 9.00033 17.3327C13.6003 17.3327 17.3337 13.5993 17.3337 8.99935C17.3337 4.39935 13.6003 0.666016 9.00033 0.666016ZM9.00033 15.666C5.32533 15.666 2.33366 12.6743 2.33366 8.99935C2.33366 5.32435 5.32533 2.33268 9.00033 2.33268C12.6753 2.33268 15.667 5.32435 15.667 8.99935C15.667 12.6743 12.6753 15.666 9.00033 15.666Z" fill="#C2C2C2"/>
</svg>
