<svg width="20" height="17" viewBox="0 0 20 17" fill="none" xmlns="http://www.w3.org/2000/svg">
<path fill-rule="evenodd" clip-rule="evenodd" d="M4.26651 10.3952C3.18798 12.4612 2.3957 14.6841 1.96494 16.2635L0.145508 15.5171C0.670563 13.5919 1.59999 10.9595 3.02614 8.5004C1.60001 6.04128 0.67059 3.40892 0.145537 1.48372L1.96497 0.737305C2.39572 2.31672 3.188 4.53958 4.26651 6.60556C4.84458 5.83103 5.48052 5.12379 6.17354 4.54526C7.26216 3.63648 8.54836 3.00043 10.0002 3.00043C11.452 3.00043 12.7382 3.63648 13.8268 4.54526C14.5199 5.1238 15.1558 5.83106 15.7339 6.60561C16.8124 4.53962 17.6047 2.31674 18.0354 0.737305L19.8549 1.48372C19.3298 3.40893 18.4004 6.04131 16.9742 8.50045C18.4004 10.9596 19.3298 13.5919 19.8549 15.5171L18.0354 16.2635C17.6047 14.6841 16.8124 12.4613 15.7339 10.3953C15.1558 11.1698 14.5199 11.8771 13.8268 12.4556C12.7382 13.3644 11.452 14.0004 10.0002 14.0004C8.54838 14.0004 7.26219 13.3644 6.17357 12.4556C5.48054 11.8771 4.84459 11.1698 4.26651 10.3952ZM5.37803 8.5004C6.02478 9.47375 6.72286 10.3089 7.45526 10.9203C8.31323 11.6365 9.16113 12.0004 10.0002 12.0004C10.8393 12.0004 11.6872 11.6365 12.5452 10.9203C13.2775 10.3089 13.9756 9.47377 14.6224 8.50045C13.9756 7.5271 13.2775 6.692 12.5451 6.0806C11.6872 5.36437 10.8393 5.00043 10.0002 5.00043C9.1611 5.00043 8.3132 5.36437 7.45523 6.0806C6.72285 6.69199 6.02477 7.52708 5.37803 8.5004Z" fill="#5089F0"/>
</svg>
