<svg width="17" height="17" viewBox="0 0 17 17" fill="none" xmlns="http://www.w3.org/2000/svg">
<g clip-path="url(#clip0_928_6801)">
<path fill-rule="evenodd" clip-rule="evenodd" d="M8.22461 1.60938C4.63476 1.60938 1.72461 4.51952 1.72461 8.10938C1.72461 11.6992 4.63476 14.6094 8.22461 14.6094C11.8145 14.6094 14.7246 11.6992 14.7246 8.10938C14.7246 4.51952 11.8145 1.60938 8.22461 1.60938Z" fill="#82868E"/>
<path fill-rule="evenodd" clip-rule="evenodd" d="M10.5782 6.46293C10.7734 6.26767 10.7734 5.95108 10.5782 5.75582C10.3829 5.56056 10.0663 5.56056 9.87106 5.75582L8.22461 7.40227L6.57816 5.75582C6.3829 5.56056 6.06632 5.56056 5.87106 5.75582C5.67579 5.95108 5.67579 6.26767 5.87106 6.46293L7.5175 8.10938L5.87106 9.75582C5.67579 9.95108 5.67579 10.2677 5.87106 10.4629C6.06632 10.6582 6.3829 10.6582 6.57816 10.4629L8.22461 8.81648L9.87106 10.4629C10.0663 10.6582 10.3829 10.6582 10.5782 10.4629C10.7734 10.2677 10.7734 9.95108 10.5782 9.75582L8.93172 8.10938L10.5782 6.46293Z" fill="#FAFBFC"/>
</g>
<defs>
<clipPath id="clip0_928_6801">
<rect width="16" height="16" fill="white" transform="translate(0.224609 0.109375)"/>
</clipPath>
</defs>
</svg>
