<svg xmlns="http://www.w3.org/2000/svg" xmlns:xlink="http://www.w3.org/1999/xlink" width="41" height="41" viewBox="0 0 41 41">
    <defs>
        <filter id="prefix__a" width="214.6%" height="214.6%" x="-57.3%" y="-52.4%" filterUnits="objectBoundingBox">
            <feOffset dy="2" in="SourceAlpha" result="shadowOffsetOuter1"/>
            <feGaussianBlur in="shadowOffsetOuter1" result="shadowBlurOuter1" stdDeviation="7.5"/>
            <feColorMatrix in="shadowBlurOuter1" values="0 0 0 0 0 0 0 0 0 0 0 0 0 0 0 0 0 0 0.08 0"/>
        </filter>
        <circle id="prefix__b" cx="20.5" cy="20.5" r="20.5"/>
    </defs>
    <g fill="none" fill-rule="evenodd">
        <use fill="#000" filter="url(#prefix__a)" xlink:href="#prefix__b"/>
        <use fill="#FFF" xlink:href="#prefix__b"/>
        <path fill="#3368FF" fill-rule="nonzero" stroke="#3368FF" d="M21 29.992c1.063 0 2.074-.176 3.035-.527.961-.352 1.828-.84 2.602-1.465.773-.625 1.43-1.363 1.968-2.215.54-.851.926-1.777 1.16-2.777h-2.062c-.219.719-.543 1.383-.973 1.992-.43.61-.937 1.137-1.523 1.582-.586.445-1.234.793-1.945 1.043-.711.25-1.465.375-2.262.375-.969 0-1.879-.184-2.73-.55-.852-.368-1.594-.868-2.227-1.5-.633-.634-1.133-1.376-1.5-2.227-.367-.852-.55-1.762-.55-2.73 0-.954.183-1.856.55-2.708.367-.851.867-1.594 1.5-2.226.633-.633 1.375-1.133 2.227-1.5.851-.368 1.761-.551 2.73-.551.969 0 1.875.183 2.719.55.843.368 1.586.864 2.226 1.489L22.992 19H30v-7.008l-2.648 2.649c-.813-.813-1.766-1.457-2.86-1.934-1.094-.477-2.258-.715-3.492-.715s-2.398.238-3.492.715c-1.094.477-2.051 1.121-2.871 1.934-.82.812-1.465 1.765-1.934 2.859-.469 1.094-.703 2.258-.703 3.492 0 1.25.234 2.422.703 3.516.469 1.094 1.113 2.047 1.934 2.86.82.812 1.777 1.452 2.87 1.921 1.095.469 2.259.703 3.493.703z"/>
    </g>
</svg>
