<svg width="40" height="40" viewBox="0 0 40 40" fill="none" xmlns="http://www.w3.org/2000/svg">
    <path d="M26.666 11.667H10c-1 0-1.667.667-1.667 1.667v4.167h12.5c1 0 1.667.666 1.667 1.666v12.5h4.166c1 0 1.667-.666 1.667-1.666V13.334c0-1-.667-1.667-1.667-1.667zm-8.333 8.334H5c-1 0-1.667.666-1.667 1.666v13.334c0 1 .667 1.666 1.667 1.666h13.333c1 0 1.667-.666 1.667-1.666V21.667c0-1-.667-1.666-1.667-1.666zM35 3.334H15c-1 0-1.667.667-1.667 1.667v4.166h15.833c1 0 1.667.667 1.667 1.667v15.833H35c1 0 1.666-.666 1.666-1.666V5c0-1-.666-1.667-1.666-1.667z" fill="#FFAB31"/>
</svg>
