<svg xmlns="http://www.w3.org/2000/svg" width="371" height="48" viewBox="0 0 371 48">
    <g fill="none" fill-rule="evenodd">
        <path d="M0 0H370.667V48H0z" opacity=".2"/>
        <path fill="#101820" d="M260.776 24.689c1.564 0 2.918.514 3.921 1.4v-1.12h1.773v11.365c0 3.174-2.17 5.11-5.39 5.11-2.987 0-5.134-1.68-5.508-4.083h1.821c.303 1.47 1.657 2.473 3.687 2.473 2.17 0 3.617-1.306 3.617-3.5v-2.03c-1.003.886-2.357 1.4-3.92 1.4-3.104 0-5.46-2.474-5.46-5.461 0-3.197 2.356-5.554 5.46-5.554zm30.544-3.71v3.99h4.083v1.517h-4.083v5.297c0 1.867.793 2.637 2.333 2.637.607 0 1.284-.163 1.867-.373l.257 1.634c-.887.303-1.633.396-2.287.396-2.66 0-3.944-1.47-3.944-4.294v-5.297h-2.823V24.97h2.823v-3.99h1.774zm11.34-1.75v6.86c.957-.886 2.263-1.4 3.804-1.4 3.103 0 5.577 2.52 5.577 5.694 0 3.15-2.474 5.694-5.577 5.694-1.54 0-2.847-.513-3.804-1.4v1.12h-1.773V19.23h1.773zm19.81 5.46c1.54 0 2.847.514 3.804 1.4v-1.12h1.773v10.828h-1.773v-1.12c-.957.887-2.264 1.4-3.804 1.4-3.104 0-5.577-2.52-5.577-5.694 0-3.15 2.473-5.694 5.577-5.694zm15.843 0c2.264 0 4.504.864 4.714 3.43h-1.657c-.187-1.353-1.33-1.983-3.057-1.983-1.633 0-2.614.63-2.614 1.61 0 .794.538 1.377 2.008 1.634l2.146.35c1.564.256 3.22.956 3.22 3.033 0 2.124-1.912 3.314-4.573 3.314-2.753 0-4.714-1.143-5.04-3.687h1.656c.327 1.447 1.447 2.217 3.43 2.217 1.681 0 2.824-.63 2.824-1.727 0-.91-.723-1.447-1.773-1.634l-2.45-.396c-1.774-.304-3.221-1.097-3.221-2.94 0-2.008 1.773-3.22 4.387-3.22zm15.121 0c3.15 0 5.344 2.288 5.367 5.554 0 .234 0 .444-.047.678l-.07-.024v.024h-9.007c.21 2.006 1.587 3.57 3.85 3.57 1.377 0 2.427-.49 2.894-1.4h1.983c-.676 1.866-2.544 2.986-4.877 2.986-3.337 0-5.647-2.496-5.647-5.694 0-3.196 2.287-5.694 5.554-5.694zm-119.093-4.76v1.704h-9.054v5.834h8.074v1.703h-8.074v6.627h-1.844V19.93h10.898zm6.858-.7v16.568h-1.773V19.23h1.773zm8.238 5.74v10.828h-1.774V24.97h1.774zm24.966-5.74v6.954c1.003-.957 2.334-1.494 3.873-1.494 2.754 0 4.644 1.844 4.644 4.901v6.208h-1.773v-6.114c0-2.194-1.283-3.361-3.197-3.361-1.284 0-2.614.653-3.547 1.867v7.608h-1.774v-16.57h1.774zm31.827 7.094c-1.423 0-2.683.537-3.57 1.844V32.6c.887 1.307 2.147 1.844 3.57 1.844 2.287 0 4.037-1.82 4.037-4.06 0-2.24-1.75-4.061-4.037-4.061zm16.474 0c-2.288 0-4.038 1.82-4.038 4.06 0 2.24 1.75 4.061 4.038 4.061 1.423 0 2.683-.537 3.57-1.844v-4.433c-.887-1.307-2.147-1.844-3.57-1.844zm-61.694-.07c-2.287 0-3.92 1.703-3.92 3.99 0 2.077 1.633 3.897 3.92 3.897 1.423 0 2.777-.583 3.687-1.913v-4.06c-.91-1.33-2.264-1.914-3.687-1.914zm92.424-.024c-2.147 0-3.477 1.518-3.734 3.43h7.28c-.186-2.1-1.492-3.43-3.546-3.43zm-104.908-6.51c.677 0 1.214.513 1.214 1.19 0 .653-.537 1.167-1.214 1.167-.676 0-1.19-.514-1.19-1.167 0-.677.514-1.19 1.19-1.19zM160.103 18.22v2.99c1.106-.599 2.35-.917 3.643-.917 1.01 0 1.99.194 2.919.575.944.388 1.79.951 2.513 1.675 1.45 1.45 2.25 3.38 2.25 5.432v7.682h-4.039v-7.682c0-.973-.378-1.888-1.067-2.576-.344-.344-.745-.612-1.193-.796-.438-.18-.903-.271-1.383-.271-.973 0-1.887.379-2.576 1.067-.344.344-.612.746-.796 1.192-.18.439-.27.904-.27 1.384v7.68h-4.04V18.22h4.04zm-47.44 2.073c1.01 0 1.991.194 2.919.575.944.388 1.79.951 2.513 1.675 1.45 1.45 2.25 3.38 2.25 5.432v7.682h-4.039v-7.682c0-.973-.378-1.888-1.067-2.576-.344-.344-.745-.612-1.193-.796-.438-.18-.903-.271-1.382-.271-.974 0-1.888.379-2.577 1.067-.344.344-.612.746-.796 1.192-.18.438-.27.904-.27 1.384v7.682h-4.04v-7.682c0-1.01.194-1.991.575-2.918.388-.944.952-1.79 1.676-2.514 1.45-1.45 3.38-2.25 5.432-2.25zm-18.75 0c1.009 0 1.99.194 2.918.575.944.387 1.789.95 2.513 1.675 1.451 1.451 2.25 3.38 2.25 5.432 0 1.008-.193 1.991-.574 2.918-.388.944-.951 1.79-1.675 2.514-1.451 1.45-3.38 2.25-5.432 2.25-1.01 0-1.991-.194-2.92-.575-.942-.388-1.788-.951-2.512-1.675-1.451-1.452-2.25-3.38-2.25-5.432 0-1.009.193-1.992.574-2.919.388-.943.952-1.789 1.676-2.513 1.45-1.45 3.38-2.25 5.432-2.25zm53.325-2.073v3.705h4.707v4.04h-4.707v2.01c0 .973.38 1.888 1.067 2.576.344.344.746.612 1.193.796.438.18.903.271 1.383.271h1.064v4.038h-1.064c-1.009 0-1.991-.193-2.918-.574-.944-.388-1.789-.951-2.514-1.675-1.45-1.45-2.25-3.38-2.25-5.432V18.22h4.039zm-15.56 2.073c1.01 0 1.992.194 2.92.575.942.387 1.788.95 2.512 1.675 1.451 1.451 2.25 3.38 2.25 5.432v7.681h-4.038v-.915c-1.107.598-2.35.915-3.644.915-1.009 0-1.99-.193-2.918-.574-.944-.388-1.789-.951-2.514-1.675-1.45-1.452-2.249-3.38-2.249-5.432 0-1.009.193-1.992.574-2.919.388-.943.951-1.789 1.675-2.513 1.452-1.45 3.38-2.25 5.432-2.25zm70.28 0c1.009 0 1.99.194 2.918.575.944.388 1.79.952 2.514 1.675 1.45 1.451 2.25 3.38 2.25 5.432v7.681H205.6v-7.681c0-.973-.379-1.888-1.067-2.576-.344-.344-.746-.612-1.193-.796-.438-.18-.903-.271-1.383-.271-.973 0-1.888.378-2.576 1.067-.344.344-.612.745-.796 1.193-.18.437-.271.903-.271 1.383v7.681h-4.039v-7.681c0-1.01.194-1.991.574-2.919.388-.944.952-1.789 1.676-2.513 1.451-1.45 3.38-2.25 5.432-2.25zm-19.279 0c1.01 0 1.992.194 2.92.575.942.387 1.788.951 2.512 1.675 1.451 1.451 2.25 3.38 2.25 5.432v7.681h-4.038v-.915c-1.106.598-2.35.915-3.644.915-1.008 0-1.99-.193-2.918-.574-.944-.388-1.789-.951-2.513-1.675-1.45-1.452-2.25-3.38-2.25-5.432 0-1.009.193-1.992.575-2.919.387-.943.951-1.79 1.675-2.513 1.45-1.45 3.38-2.25 5.431-2.25zm-99.928.004v6.671c0 1.141-.22 2.252-.65 3.3-.438 1.068-1.076 2.025-1.895 2.843-1.64 1.642-3.823 2.545-6.143 2.545-2.321 0-4.503-.903-6.144-2.545-.818-.818-1.456-1.775-1.895-2.842-.43-1.049-.65-2.16-.65-3.3h4.039c0 .611.116 1.206.346 1.764.235.572.577 1.084 1.016 1.523.878.879 2.046 1.362 3.288 1.362s2.41-.483 3.288-1.362c.439-.44.78-.951 1.015-1.523.23-.558.347-1.153.347-1.765v-6.67h4.038zm11.162 4.034c-.974 0-1.888.38-2.576 1.068-.344.344-.612.746-.796 1.192-.18.438-.271.904-.271 1.384 0 .973.379 1.888 1.067 2.576.344.344.745.612 1.192.796.438.18.904.271 1.384.271.973 0 1.888-.38 2.576-1.067.344-.344.612-.746.796-1.193.18-.438.27-.903.27-1.383 0-.974-.378-1.888-1.066-2.576-.344-.344-.746-.612-1.193-.796-.438-.18-.903-.272-1.383-.272zm37.765 0c-.973 0-1.888.38-2.576 1.068-.344.344-.612.746-.796 1.192-.18.438-.27.904-.27 1.384 0 .973.378 1.888 1.066 2.576.345.344.746.612 1.193.796.438.18.903.271 1.383.271.974 0 1.888-.38 2.576-1.067.345-.344.612-.746.796-1.193.18-.438.272-.903.272-1.383 0-.974-.38-1.888-1.068-2.576-.344-.344-.745-.612-1.192-.796-.438-.18-.904-.272-1.384-.272zm51.001 0c-.972 0-1.888.38-2.575 1.068-.345.344-.613.745-.796 1.192-.18.438-.271.904-.271 1.384 0 .973.378 1.888 1.066 2.576.345.344.746.612 1.193.796.438.18.903.271 1.383.271.974 0 1.888-.38 2.576-1.067.345-.344.613-.746.796-1.193.18-.438.272-.903.272-1.383 0-.974-.38-1.888-1.068-2.576-.344-.344-.745-.612-1.192-.796-.438-.18-.904-.272-1.384-.272zM370.512 24.6h-.736v-3.152l-1.568 2.528h-.384l-1.584-2.56.016 3.184h-.736v-4.672h.576l1.92 3.056 1.904-3.056h.592V24.6zm-5.632-3.984h-1.696V24.6h-.736v-3.984h-1.696v-.688h4.128v.688z"/>
        <g>
            <path fill="#8095FF" d="M15.748 15.748C7.051 15.748 0 22.798 0 31.496h15.748V15.748z" transform="translate(0 .667)"/>
            <path fill="#CCD5FE" d="M0 31.496v15.748h23.622c-4.03 0-8.06-1.538-11.135-4.613l11.135-11.135 11.136 11.135c-3.075 3.075-7.105 4.613-11.136 4.613h23.622V31.496H0z" transform="translate(0 .667)"/>
            <path fill="#8095FF" d="M31.496 0C22.8 0 15.748 7.05 15.748 15.748h15.748V0z" transform="translate(0 .667)"/>
            <path fill="#002BFF" d="M31.496 15.748H15.748v15.748h31.496c0-8.697-7.05-15.748-15.748-15.748" transform="translate(0 .667)"/>
            <path fill="#1A40FF" d="M23.622 31.496L12.487 42.631c6.15 6.15 16.121 6.15 22.271 0L23.622 31.496z" transform="translate(0 .667)"/>
        </g>
    </g>
</svg>
