<svg width="78" height="67" viewBox="0 0 78 67" fill="none" xmlns="http://www.w3.org/2000/svg">
<g clip-path="url(#clip0_7178_49128)">
<path d="M37.6424 1.73165L37.167 1.47084L36.5759 1.14588L34.4902 0V35.0777L34.4987 35.082L61.1683 49.722V47.9219V47.4302V46.6392V26.7102V14.6442L37.6424 1.73165Z" fill="#002F77"/>
<path d="M36.5759 34.4235V1.14588L34.4902 0V35.0777L34.4987 35.082L61.1683 49.722V47.9219L36.5888 34.4321L36.5759 34.4235Z" fill="#1E5BC5"/>
<g opacity="0.4">
<path d="M53.322 24.8699C53.6058 24.8699 53.8359 24.6402 53.8359 24.3568C53.8359 24.0735 53.6058 23.8438 53.322 23.8438C53.0381 23.8438 52.808 24.0735 52.808 24.3568C52.808 24.6402 53.0381 24.8699 53.322 24.8699Z" fill="white"/>
<path d="M57.6991 20.409C57.983 20.409 58.2131 20.1793 58.2131 19.8959C58.2131 19.6125 57.983 19.3828 57.6991 19.3828C57.4153 19.3828 57.1852 19.6125 57.1852 19.8959C57.1852 20.1793 57.4153 20.409 57.6991 20.409Z" fill="white"/>
<path d="M43.0174 9.35429C43.3012 9.35429 43.5313 9.12458 43.5313 8.84121C43.5313 8.55784 43.3012 8.32812 43.0174 8.32812C42.7335 8.32812 42.5034 8.55784 42.5034 8.84121C42.5034 9.12458 42.7335 9.35429 43.0174 9.35429Z" fill="white"/>
</g>
<path d="M4.6084 9.99219L18.9432 10.4283L56.7226 31.1996L53.7803 37.0231L4.6084 9.99219Z" fill="#6CDDFF"/>
<path d="M4.60842 9.99219L53.7803 37.0231L53.7717 38.8573L4.59985 11.8265L4.60842 9.99219Z" fill="#3BABFF"/>
<path d="M15.3713 21.4737L15.3842 27.3784L19.9883 29.9053L43.9896 22.3716V16.3984L15.3713 21.4737Z" fill="#164ABE"/>
<path d="M15.3713 21.4755L19.9797 24.0067L43.9896 16.4003L39.3812 13.9375L15.3713 21.4755Z" fill="#2D76F8"/>
<path d="M29.2907 23.5603L37.8565 20.8281L56.7226 31.2009L53.7803 37.0244L29.2907 23.5603Z" fill="#6CDDFF"/>
<path d="M44.0025 22.3673L49.9643 20.5416L43.9896 16.3984L44.0025 22.3673Z" fill="#F3B95B"/>
<path d="M29.2907 23.5625L53.7803 37.0266L53.7717 38.8609L29.2822 25.401L29.2907 23.5625Z" fill="#3BABFF"/>
<path d="M4.6084 9.99219L10.2789 13.1092L18.9432 10.4283L4.6084 9.99219Z" fill="#2D76F8"/>
<path d="M56.7055 31.1875L53.7803 37.0195L48.1697 33.9368L56.7055 31.1875Z" fill="#FFE953"/>
<path d="M53.7803 37.0266L48.1697 33.9396L48.1611 35.7781L53.7717 38.8609L56.7141 33.0374L56.7226 31.2031L53.7803 37.0266Z" fill="#F3B95B"/>
<path d="M10.2747 13.1092L10.2704 14.9434L4.59985 11.8265L4.60842 9.99219L10.2747 13.1092Z" fill="#164ABE"/>
<path d="M2.17999 59.4974V63.6405C2.17999 63.7261 2.17999 63.8158 2.17999 63.9056C2.18427 64.6368 2.19284 65.4705 1.80738 65.8554C1.65748 66.005 1.46047 66.0777 1.20349 66.0777C0.629585 66.0777 0.359763 65.9366 0.107072 65.7143L0 65.6202V66.7447L0.0342631 66.7618C0.3255 66.9243 0.672414 67.0055 1.06216 67.0055C1.74314 67.0055 2.23567 66.8473 2.56545 66.5181C3.12651 65.958 3.12651 64.9703 3.12223 63.927V59.2109L2.17999 59.4974Z" fill="#002E77"/>
<path d="M11.5253 59.1484C9.37097 59.1484 7.61499 60.8972 7.61499 63.0521C7.61499 65.2071 9.36669 66.9558 11.5253 66.9558C13.6838 66.9558 15.4355 65.2071 15.4355 63.0521C15.4355 60.8972 13.6838 59.1484 11.5253 59.1484ZM11.5253 66.0879C9.89349 66.0879 8.56579 64.7282 8.56579 63.0521C8.56579 61.3761 9.89349 60.0164 11.5253 60.0164C13.1571 60.0164 14.4847 61.3761 14.4847 63.0521C14.4847 64.7282 13.1571 66.0879 11.5253 66.0879Z" fill="#002E77"/>
<path d="M25.3376 64.7696L19.9326 59.1172V66.792H20.8619V61.3876L26.267 67.0016V59.2326L25.3376 59.5148V64.7696Z" fill="#002E77"/>
<path d="M40.5033 60.1754H43.0473V66.7857H43.9767V60.1754H46.2338L46.5208 59.3203H40.7945L40.5033 60.1754Z" fill="#002E77"/>
<path d="M55.9388 62.6614H51.7159V59.2109L50.7865 59.4974V66.7917H51.7159V63.5166H55.9388V66.7917H56.8682V59.2109L55.9388 59.4974V62.6614Z" fill="#002E77"/>
<path d="M77.0706 64.7696L71.6656 59.1172V66.792H72.595V61.3876L78 67.0016V59.2326L77.0706 59.5148V64.7696Z" fill="#002E77"/>
<path d="M33.6464 59.1094L30.4042 66.7885H31.3422L33.6464 61.3285L35.9463 66.7885H36.8885L33.6464 59.1094Z" fill="#002E77"/>
<path d="M64.2648 59.1094L61.0226 66.7885H61.9649L64.2648 61.3285L66.569 66.7885H67.5069L64.2648 59.1094Z" fill="#002E77"/>
</g>
<defs>
<clipPath id="clip0_7178_49128">
<rect width="78" height="67" fill="white"/>
</clipPath>
</defs>
</svg>
