<svg width="215" height="197" viewBox="0 0 215 197" fill="none" xmlns="http://www.w3.org/2000/svg">
<g opacity="0.3">
<path d="M116.293 176.993C131.114 173.022 144.387 164.657 154.364 152.999M163.522 67.5206C156.241 54.0136 145.042 43.027 131.398 36.0058M22.8492 85.3214C19.1622 100.216 20.0702 115.878 25.4537 130.247" stroke="url(#paint0_angular_7355_47129)" stroke-width="2" stroke-linecap="round" stroke-dasharray="12 10"/>
<g filter="url(#filter0_f_7355_47129)">
<ellipse cx="96.6221" cy="103.086" rx="53" ry="53.5" fill="url(#paint1_angular_7355_47129)" fill-opacity="0.2"/>
</g>
<path d="M41.3451 140.97C38.2237 137.893 39.5243 132.252 40.5648 129.816C43.6863 120.842 55.4699 103.97 77.6324 108.277C99.795 112.585 97.2316 140.892 95.581 147.509C93.9303 154.125 88.9478 158.201 90.5085 167.124C91.9691 175.475 92.6324 182.231 92.8181 185.06C92.8369 185.346 92.6089 185.586 92.3223 185.586H60.9643C60.6881 185.586 60.4643 185.362 60.4643 185.086V173.493C60.4643 173.181 60.1841 172.945 59.8769 173C56.1301 173.674 48.7965 174.91 45.247 175.201C41.6729 175.495 41.6038 170.442 42.0569 167.528C42.0937 167.292 41.9615 167.062 41.7454 166.96C39.6766 165.98 39.9991 164.556 40.7155 163.576C40.9507 163.254 40.8231 162.75 40.4921 162.527C39.1105 161.601 40.6682 159.844 41.3451 157.509C42.1255 154.816 38.2238 156.739 35.1023 153.278C31.9808 149.816 45.247 144.816 41.3451 140.97Z" fill="white"/>
<path d="M60.4642 185.586V173.493C60.4642 173.181 60.1841 172.945 59.8769 173C56.1301 173.674 48.7965 174.91 45.247 175.201C41.6729 175.495 41.6038 170.442 42.0569 167.528C42.0937 167.292 41.9615 167.062 41.7454 166.96C39.6766 165.98 39.9991 164.556 40.7155 163.576C40.9507 163.254 40.8231 162.75 40.4921 162.527C39.1105 161.601 40.6682 159.844 41.3451 157.509C42.1255 154.816 38.2238 156.739 35.1023 153.278C31.9808 149.816 45.247 144.816 41.3451 140.97C38.2237 137.893 39.5243 132.252 40.5648 129.816C43.6863 120.842 55.4699 103.97 77.6324 108.277C99.795 112.585 97.2316 140.892 95.581 147.509C93.9303 154.125 88.9478 158.201 90.5085 167.124C92.0693 176.047 92.7196 183.15 92.8497 185.586" stroke="#2A2D3E" stroke-width="1.5" stroke-linejoin="round"/>
<path d="M69.3329 122.671L69.0349 122.508L68.6644 122.304L67.3571 121.586V143.573L67.3624 143.576L84.0791 152.752V151.624V151.315V150.82V138.328V130.765L69.3329 122.671Z" fill="#002F77"/>
<path d="M68.6644 143.163V122.304L67.3571 121.586V143.573L67.3624 143.576L84.0791 152.752V151.624L68.6725 143.168L68.6644 143.163Z" fill="#1E5BC5"/>
<g opacity="0.4">
<path d="M79.1611 137.174C79.339 137.174 79.4833 137.03 79.4833 136.853C79.4833 136.675 79.339 136.531 79.1611 136.531C78.9832 136.531 78.839 136.675 78.839 136.853C78.839 137.03 78.9832 137.174 79.1611 137.174Z" fill="white"/>
<path d="M81.9039 134.378C82.0818 134.378 82.2261 134.234 82.2261 134.056C82.2261 133.878 82.0818 133.734 81.9039 133.734C81.726 133.734 81.5818 133.878 81.5818 134.056C81.5818 134.234 81.726 134.378 81.9039 134.378Z" fill="white"/>
<path d="M72.7017 127.448C72.8796 127.448 73.0239 127.304 73.0239 127.126C73.0239 126.949 72.8796 126.805 72.7017 126.805C72.5238 126.805 72.3796 126.949 72.3796 127.126C72.3796 127.304 72.5238 127.448 72.7017 127.448Z" fill="white"/>
</g>
<path d="M48.6276 127.852L57.6128 128.125L81.2931 141.144L79.4489 144.795L48.6276 127.852Z" fill="#6CDDFF"/>
<path d="M48.6274 127.852L79.4487 144.795L79.4433 145.944L48.6221 129.001L48.6274 127.852Z" fill="#3BABFF"/>
<path d="M55.3738 135.048L55.3818 138.749L58.2677 140.333L73.3119 135.611V131.867L55.3738 135.048Z" fill="#164ABE"/>
<path d="M55.3738 135.045L58.2623 136.632L73.3119 131.864L70.4233 130.32L55.3738 135.045Z" fill="#2D76F8"/>
<path d="M64.0983 136.353L69.4674 134.641L81.2928 141.142L79.4485 144.793L64.0983 136.353Z" fill="#6CDDFF"/>
<path d="M73.3195 135.609L77.0564 134.464L73.3115 131.867L73.3195 135.609Z" fill="#F3B95B"/>
<path d="M64.0981 136.352L79.4484 144.791L79.443 145.941L64.0928 137.504L64.0981 136.352Z" fill="#3BABFF"/>
<path d="M48.6276 127.852L52.182 129.805L57.6128 128.125L48.6276 127.852Z" fill="#2D76F8"/>
<path d="M81.2827 141.141L79.4491 144.796L75.9324 142.864L81.2827 141.141Z" fill="#FFE953"/>
<path d="M79.4489 144.791L75.9322 142.856L75.9268 144.008L79.4436 145.941L81.2879 142.29L81.2932 141.141L79.4489 144.791Z" fill="#F3B95B"/>
<path d="M52.1791 129.805L52.1764 130.955L48.6221 129.001L48.6274 127.852L52.1791 129.805Z" fill="#164ABE"/>
<g filter="url(#filter1_d_7355_47129)">
<path d="M172.744 87.9127L175.192 83.6734C176.003 82.2679 177.34 81.2424 178.907 80.8224C180.475 80.4024 182.145 80.6222 183.551 81.4337C184.956 82.2451 185.982 83.5816 186.402 85.1492C186.822 86.7167 186.602 88.3869 185.79 89.7924L180.895 98.2711C181.707 96.8657 183.043 95.8401 184.611 95.4201C186.178 95.0001 187.848 95.22 189.254 96.0314C190.659 96.8428 191.685 98.1793 192.105 99.7469C192.525 101.314 192.305 102.985 191.493 104.39L178.644 126.647C177.036 129.43 174.897 131.87 172.347 133.827C169.797 135.784 166.886 137.219 163.782 138.051C160.677 138.883 157.439 139.095 154.252 138.675C151.065 138.256 147.992 137.213 145.209 135.606C133.498 128.844 131.923 119.456 133.794 96.2664C133.796 94.6415 134.442 93.0836 135.592 91.9354C136.742 90.7873 138.301 90.1429 139.926 90.1441C141.551 90.1453 143.109 90.792 144.257 91.9418C145.405 93.0916 146.049 94.6505 146.048 96.2754L146.04 105.956C146.04 106.98 147.395 107.343 147.907 106.457L162.146 81.7938C162.957 80.3883 164.294 79.3628 165.861 78.9428C167.429 78.5227 169.099 78.7426 170.505 79.554C171.91 80.3655 172.936 81.702 173.356 83.2695C173.776 84.8371 173.556 86.5073 172.744 87.9127Z" fill="white"/>
</g>
<path d="M172.94 112.052L180.895 98.2739C181.706 96.8685 183.043 95.843 184.61 95.4229C186.178 95.0029 187.848 95.2228 189.253 96.0342C190.659 96.8457 191.684 98.1822 192.104 99.7497C192.524 101.317 192.305 102.987 191.493 104.393L178.643 126.65C177.036 129.433 174.896 131.873 172.346 133.83C169.796 135.786 166.886 137.222 163.781 138.054C160.677 138.886 157.438 139.098 154.252 138.678C151.065 138.259 147.992 137.216 145.208 135.608C133.497 128.847 131.922 119.459 133.794 96.2692C133.795 94.6443 134.442 93.0864 135.592 91.9382C136.742 90.7901 138.3 90.1457 139.925 90.1469C141.55 90.1481 143.108 90.7948 144.256 91.9446C145.404 93.0945 146.049 94.6533 146.048 96.2783L146.04 105.959C146.039 106.983 147.394 107.346 147.906 106.46L162.145 81.7966C162.957 80.3911 164.293 79.3656 165.861 78.9456C167.429 78.5255 169.099 78.7454 170.504 79.5569C171.91 80.3683 172.935 81.7048 173.355 83.2724C173.775 84.8399 173.555 86.5101 172.744 87.9156L162.342 105.933" stroke="#2A2D3E" stroke-width="2" stroke-linecap="round" stroke-linejoin="round"/>
<path d="M180.894 98.2719L185.789 89.7932C186.6 88.3878 186.82 86.7176 186.4 85.15C185.98 83.5824 184.955 82.2459 183.549 81.4345C182.144 80.6231 180.474 80.4032 178.906 80.8232C177.338 81.2432 176.002 82.2688 175.191 83.6742L172.743 87.9136" stroke="#2A2D3E" stroke-width="2" stroke-linecap="round" stroke-linejoin="round"/>
<path d="M147.08 123.609C143.072 121.476 148.272 112.941 151.374 108.94C151.851 108.051 153.665 106.14 157.1 105.606C161.394 104.939 169.24 120.903 165.662 122.903C162.083 124.903 176.424 123.609 167.836 129.61C159.247 135.611 152.089 126.277 147.08 123.609Z" fill="#D4D4D4" stroke="black" stroke-linecap="round" stroke-dasharray="2 2"/>
<path d="M160.446 114.844H153.571C153.388 114.844 153.214 114.916 153.085 115.045C152.956 115.174 152.883 115.349 152.883 115.531V122.406C152.883 122.589 152.956 122.763 153.085 122.892C153.214 123.021 153.388 123.094 153.571 123.094H160.446C160.628 123.094 160.803 123.021 160.932 122.892C161.061 122.763 161.133 122.589 161.133 122.406V115.531C161.133 115.349 161.061 115.174 160.932 115.045C160.803 114.916 160.628 114.844 160.446 114.844ZM157.932 121.096C157.641 121.385 157.247 121.547 156.836 121.547C156.426 121.547 156.032 121.385 155.741 121.096C155.686 121.029 155.658 120.944 155.662 120.858C155.666 120.772 155.702 120.69 155.764 120.629C155.825 120.568 155.906 120.532 155.993 120.527C156.079 120.523 156.164 120.551 156.231 120.606C156.33 120.704 156.453 120.776 156.587 120.816C156.721 120.855 156.863 120.861 157 120.833C157.138 120.806 157.266 120.744 157.374 120.655C157.482 120.566 157.566 120.452 157.62 120.322C157.673 120.193 157.694 120.053 157.681 119.913C157.667 119.774 157.62 119.64 157.542 119.523C157.465 119.407 157.36 119.311 157.237 119.244C157.114 119.177 156.976 119.142 156.836 119.141C156.774 119.14 156.712 119.123 156.658 119.09C156.605 119.058 156.561 119.011 156.531 118.956C156.502 118.9 156.488 118.837 156.492 118.775C156.496 118.712 156.517 118.651 156.553 118.599L157.378 117.422H155.977C155.886 117.422 155.798 117.386 155.734 117.321C155.669 117.257 155.633 117.169 155.633 117.078C155.633 116.987 155.669 116.9 155.734 116.835C155.798 116.771 155.886 116.734 155.977 116.734H158.039C158.102 116.735 158.164 116.752 158.217 116.785C158.271 116.817 158.315 116.864 158.345 116.919C158.374 116.975 158.388 117.038 158.383 117.101C158.379 117.164 158.356 117.225 158.319 117.276L157.416 118.565C157.608 118.644 157.783 118.759 157.932 118.904C158.221 119.196 158.383 119.59 158.383 120C158.383 120.41 158.221 120.804 157.932 121.096Z" fill="black"/>
<g filter="url(#filter2_d_7355_47129)">
<rect x="79.6413" y="15" width="43" height="62" rx="2" transform="rotate(19.5822 79.6413 15)" fill="white"/>
<rect x="79.6413" y="15" width="43" height="62" rx="2" transform="rotate(19.5822 79.6413 15)" stroke="#DBDBDB"/>
</g>
<path d="M86.7935 62.3291C93.0376 64.5503 99.9001 61.2892 102.121 55.0451C104.343 48.801 101.081 41.9385 94.8374 39.7172C88.5933 37.496 81.7308 40.7572 79.5095 47.0012C77.2883 53.2453 80.5494 60.1079 86.7935 62.3291Z" fill="#D4D4D4" stroke="#343434" stroke-width="2" stroke-miterlimit="10"/>
<path d="M84.764 53.1172L94.1857 56.4688" stroke="#343434" stroke-width="2" stroke-linecap="round" stroke-linejoin="round"/>
<path d="M86.9109 48.5714C87.6914 48.8491 88.5493 48.4414 88.8269 47.6609C89.1046 46.8804 88.6969 46.0226 87.9164 45.7449C87.1359 45.4673 86.2781 45.8749 86.0004 46.6554C85.7228 47.4359 86.1304 48.2938 86.9109 48.5714Z" fill="#343434"/>
<path d="M95.3904 51.587C96.1709 51.8647 97.0287 51.457 97.3063 50.6765C97.584 49.896 97.1764 49.0382 96.3958 48.7606C95.6153 48.4829 94.7575 48.8905 94.4799 49.6711C94.2022 50.4516 94.6099 51.3094 95.3904 51.587Z" fill="#343434"/>
<g filter="url(#filter3_d_7355_47129)">
<rect x="41.3571" y="13.4922" width="43" height="62" rx="2" transform="rotate(-10.4178 41.3571 13.4922)" fill="white"/>
<rect x="41.3571" y="13.4922" width="43" height="62" rx="2" transform="rotate(-10.4178 41.3571 13.4922)" stroke="#DBDBDB"/>
</g>
<path d="M69.77 50.8095C76.2882 49.6111 80.6007 43.3556 79.4023 36.8374C78.2039 30.3192 71.9484 26.0067 65.4302 27.2051C58.9121 28.4035 54.5995 34.659 55.7979 41.1772C56.9963 47.6954 63.2518 52.0079 69.77 50.8095Z" fill="#D4D4D4" stroke="#343434" stroke-width="2" stroke-miterlimit="10"/>
<path d="M62.9935 38.8356C63.8083 38.6858 64.3474 37.9038 64.1976 37.0891C64.0478 36.2743 63.2658 35.7352 62.451 35.885C61.6363 36.0348 61.0972 36.8168 61.247 37.6315C61.3968 38.4463 62.1787 38.9854 62.9935 38.8356Z" fill="#343434"/>
<path d="M71.8451 37.2106C72.6599 37.0608 73.199 36.2788 73.0492 35.4641C72.8994 34.6493 72.1174 34.1102 71.3027 34.26C70.4879 34.4098 69.9488 35.1918 70.0986 36.0065C70.2484 36.8213 71.0304 37.3604 71.8451 37.2106Z" fill="#343434"/>
<path d="M62.9935 38.8356C63.8083 38.6858 64.3474 37.9038 64.1976 37.0891C64.0478 36.2743 63.2658 35.7352 62.451 35.885C61.6363 36.0348 61.0972 36.8168 61.247 37.6315C61.3968 38.4463 62.1787 38.9854 62.9935 38.8356Z" fill="#343434"/>
<path d="M71.8451 37.2106C72.6599 37.0608 73.199 36.2788 73.0492 35.4641C72.8994 34.6493 72.1174 34.1102 71.3027 34.26C70.4879 34.4098 69.9488 35.1918 70.0986 36.0065C70.2484 36.8213 71.0304 37.3604 71.8451 37.2106Z" fill="#343434"/>
<path d="M73.7992 43.9705C73.1146 43.1704 72.2318 42.5641 71.2392 42.2123C70.2467 41.8605 69.1791 41.7755 68.1435 41.966C67.1078 42.1564 66.1402 42.6155 65.3377 43.2973C64.5352 43.9791 63.9258 44.8598 63.5706 45.8511" stroke="#343434" stroke-width="2" stroke-linecap="round" stroke-linejoin="round"/>
<g filter="url(#filter4_d_7355_47129)">
<rect x="8.69849" y="51.5391" width="43" height="62" rx="2" transform="rotate(-50.1991 8.69849 51.5391)" fill="white"/>
<rect x="8.69849" y="51.5391" width="43" height="62" rx="2" transform="rotate(-50.1991 8.69849 51.5391)" stroke="#DBDBDB"/>
</g>
<path d="M55.0868 62.8663C59.3071 57.7563 58.5858 50.1926 53.4758 45.9724C48.3657 41.7521 40.8021 42.4734 36.5818 47.5834C32.3616 52.6935 33.0829 60.2571 38.1929 64.4774C43.3029 68.6976 50.8666 67.9763 55.0868 62.8663Z" fill="#D4D4D4" stroke="#343434" stroke-width="2" stroke-linecap="round" stroke-linejoin="round"/>
<path d="M42.1978 58.0585C42.7253 57.4197 42.6352 56.4743 41.9964 55.9467C41.3577 55.4192 40.4122 55.5094 39.8847 56.1481C39.3572 56.7869 39.4473 57.7323 40.0861 58.2599C40.7248 58.7874 41.6703 58.6972 42.1978 58.0585Z" fill="#343434"/>
<path d="M47.9288 51.121C48.4564 50.4822 48.3662 49.5368 47.7274 49.0092C47.0887 48.4817 46.1432 48.5719 45.6157 49.2106C45.0882 49.8494 45.1783 50.7948 45.8171 51.3224C46.4558 51.8499 47.4013 51.7597 47.9288 51.121Z" fill="#343434"/>
<path d="M51.4586 53.1296C51.8242 54.1172 51.924 55.1834 51.7481 56.2217C51.5721 57.2599 51.1266 58.2337 50.456 59.0457C49.7854 59.8576 48.9134 60.4792 47.9271 60.8482C46.9408 61.2173 45.8749 61.3208 44.8361 61.1484" stroke="#343434" stroke-width="2" stroke-linecap="round" stroke-linejoin="round"/>
</g>
<defs>
<filter id="filter0_f_7355_47129" x="13.6221" y="19.5859" width="166" height="167" filterUnits="userSpaceOnUse" color-interpolation-filters="sRGB">
<feFlood flood-opacity="0" result="BackgroundImageFix"/>
<feBlend mode="normal" in="SourceGraphic" in2="BackgroundImageFix" result="shape"/>
<feGaussianBlur stdDeviation="15" result="effect1_foregroundBlur_7355_47129"/>
</filter>
<filter id="filter1_d_7355_47129" x="124.131" y="75.7344" width="71.1827" height="72.1484" filterUnits="userSpaceOnUse" color-interpolation-filters="sRGB">
<feFlood flood-opacity="0" result="BackgroundImageFix"/>
<feColorMatrix in="SourceAlpha" type="matrix" values="0 0 0 0 0 0 0 0 0 0 0 0 0 0 0 0 0 0 127 0" result="hardAlpha"/>
<feOffset dx="-3" dy="3"/>
<feGaussianBlur stdDeviation="3"/>
<feComposite in2="hardAlpha" operator="out"/>
<feColorMatrix type="matrix" values="0 0 0 0 0 0 0 0 0 0 0 0 0 0 0 0 0 0 0.1 0"/>
<feBlend mode="normal" in2="BackgroundImageFix" result="effect1_dropShadow_7355_47129"/>
<feBlend mode="normal" in="SourceGraphic" in2="effect1_dropShadow_7355_47129" result="shape"/>
</filter>
<filter id="filter2_d_7355_47129" x="49.9153" y="12.0547" width="73.1849" height="84.7188" filterUnits="userSpaceOnUse" color-interpolation-filters="sRGB">
<feFlood flood-opacity="0" result="BackgroundImageFix"/>
<feColorMatrix in="SourceAlpha" type="matrix" values="0 0 0 0 0 0 0 0 0 0 0 0 0 0 0 0 0 0 127 0" result="hardAlpha"/>
<feOffset dx="-3" dy="3"/>
<feGaussianBlur stdDeviation="3"/>
<feComposite in2="hardAlpha" operator="out"/>
<feColorMatrix type="matrix" values="0 0 0 0 0 0 0 0 0 0 0 0 0 0 0 0 0 0 0.1 0"/>
<feBlend mode="normal" in2="BackgroundImageFix" result="effect1_dropShadow_7355_47129"/>
<feBlend mode="normal" in="SourceGraphic" in2="effect1_dropShadow_7355_47129" result="shape"/>
</filter>
<filter id="filter3_d_7355_47129" x="32.1854" y="2.54688" width="65.8458" height="81.0938" filterUnits="userSpaceOnUse" color-interpolation-filters="sRGB">
<feFlood flood-opacity="0" result="BackgroundImageFix"/>
<feColorMatrix in="SourceAlpha" type="matrix" values="0 0 0 0 0 0 0 0 0 0 0 0 0 0 0 0 0 0 127 0" result="hardAlpha"/>
<feOffset dx="-3" dy="3"/>
<feGaussianBlur stdDeviation="3"/>
<feComposite in2="hardAlpha" operator="out"/>
<feColorMatrix type="matrix" values="0 0 0 0 0 0 0 0 0 0 0 0 0 0 0 0 0 0 0.1 0"/>
<feBlend mode="normal" in2="BackgroundImageFix" result="effect1_dropShadow_7355_47129"/>
<feBlend mode="normal" in="SourceGraphic" in2="effect1_dropShadow_7355_47129" result="shape"/>
</filter>
<filter id="filter4_d_7355_47129" x="0.0151978" y="15.8203" width="86.5248" height="84.0859" filterUnits="userSpaceOnUse" color-interpolation-filters="sRGB">
<feFlood flood-opacity="0" result="BackgroundImageFix"/>
<feColorMatrix in="SourceAlpha" type="matrix" values="0 0 0 0 0 0 0 0 0 0 0 0 0 0 0 0 0 0 127 0" result="hardAlpha"/>
<feOffset dx="-3" dy="3"/>
<feGaussianBlur stdDeviation="3"/>
<feComposite in2="hardAlpha" operator="out"/>
<feColorMatrix type="matrix" values="0 0 0 0 0 0 0 0 0 0 0 0 0 0 0 0 0 0 0.1 0"/>
<feBlend mode="normal" in2="BackgroundImageFix" result="effect1_dropShadow_7355_47129"/>
<feBlend mode="normal" in="SourceGraphic" in2="effect1_dropShadow_7355_47129" result="shape"/>
</filter>
<radialGradient id="paint0_angular_7355_47129" cx="0" cy="0" r="1" gradientUnits="userSpaceOnUse" gradientTransform="translate(95.6341 103.848) rotate(165) scale(74.9767 76)">
<stop stop-opacity="0.5"/>
<stop offset="0.505208" stop-opacity="0.5"/>
<stop offset="1" stop-opacity="0.5"/>
</radialGradient>
<radialGradient id="paint1_angular_7355_47129" cx="0" cy="0" r="1" gradientUnits="userSpaceOnUse" gradientTransform="translate(96.6221 103.086) rotate(90) scale(53.5 53)">
<stop stop-opacity="0.5"/>
<stop offset="0.489583" stop-opacity="0.5"/>
<stop offset="1" stop-opacity="0.5"/>
</radialGradient>
</defs>
</svg>
